<svg fill="none" height="65" viewBox="0 0 64 65" width="64" xmlns="http://www.w3.org/2000/svg" xmlns:xlink="http://www.w3.org/1999/xlink"><mask id="a" fill="#fff"><path d="m12.06 20.6742c-.18.05-.5.6-1.23 2.79s-2.00001 5.22-1.92001 5.44c.12371.1822.29632.3258.49798.4142.20167.0885.4242.1182.64203.0858.23-.13.18-.45.87-2.69s2.24-5.44 2.28-5.67-.96-.46-1.14-.37zm40.94 25.57c-.14 0-.51.87-.51.87.19.18 3.87 2.19 4 2.19.2314-.1518.4097-.372.51-.63-1.2821-.8915-2.6179-1.7031-4-2.43zm.82-1.85c-.0077 0-.0161.0026-.025.0075-.1535.0844-.475.8525-.475.8525.18.19 4.6 2.56 4.72 2.56.2598-.1557.4631-.3905.58-.67-1.5575-1.0009-3.1682-1.9164-4.825-2.7425-.005-.0025-.01-.005-.015-.0075zm.32-.78c.18.18 5.06 2.74 5.18 2.74.2598-.1557.4631-.3905.58-.67 0-.15-5.12-2.94-5.26-2.94s-.54.87-.54.87zm-2.14-4.94c.18.19 6.39 4.05 6.52 4.05.259-.154.4595-.3897.57-.67 0-.15-6.45-4.25-6.59-4.25s-.5.87-.5.87zm.39-2.49c.19.18 6.19 3.92 6.31 3.92s.15-.7.15-.85-5.82-3.94-6-3.94-.49.84-.49.84zm-.73-3.17c.18.18 5.94 3.74 6.06 3.74s.16-.7.16-.85-5.58-3.76-5.72-3.76-.53.84-.53.84zm.28-2.47c.18.18 5.45 3.47 5.57 3.47s.15-.7.15-.85-5.11-3.49-5.25-3.49-.5.84-.5.84zm4.29-1.07c-.01-.0074-.02-.0148-.0301-.0223-1.3427-.9944-2.7453-1.9054-4.1999-2.7277-.13 0-.5.87-.5.87.18.18 4.39 2.71 4.51 2.71.1181 0 .1878-.6787.1899-.8523.0001-.0027.0001-.0052.0001-.0077zm-.94-3.56c-.01-.0078-.02-.0156-.03-.0234-1.0553-.8229-2.1718-1.5639-3.34-2.2166-.14 0-.5.87-.5.87.18.18 3.56 2.16 3.68 2.16.1183 0 .1589-.6515.16-.8134 0-.0023 0-.0045 0-.0066zm-3.19 22c-.0074 0-.0156.0028-.0244.0082l-.0041.0025c-.1484.0996-.4715.8593-.4715.8593.9015.5632 1.8366 1.0708 2.8 1.52.261-.142.4708-.3624.6-.63-.921-.6709-1.9012-1.2564-2.9285-1.7493l-.0015-.0007.0056-.0018zm-11.66-21.94c-1.3972-.0934-2.7745.371-3.8298 1.2914-1.0554.9204-1.7027 2.2217-1.8002 3.6186-.09 3.41.18 7.12 2.43 8.68.5831.3731 1.2396.6164 1.925.7136.6854.0971 1.3837.0458 2.0476-.1505.6638-.1963 1.2777-.533 1.8-.9873.5224-.4543.9409-1.0156 1.2274-1.6458 1.38-2.82 1.93-10.57-3.8-11.52zm1.65 11.06c-1.1 1.55-2.87 1.49-4.45.12s-1.13-5-1.07-5.51 1.67-1.64 3.2-1.37c.6633.0665 1.2973.3068 1.838.6965.5408.3898.9692.9153 1.242 1.5235.2839 1.5557.015 3.1616-.76 4.54zm-20-10.75c-5.72.94-5.17 8.68-3.8 11.51.2851.6314.703 1.1939 1.2252 1.6491.5222.4553 1.1364.7926 1.8007.9891.6643.1964 1.3632.2474 2.049.1493.6858-.098 1.3424-.3427 1.9251-.7175 2.26-1.55 2.53-5.27 2.44-8.68-.1026-1.3923-.7504-2.6879-1.8027-3.6053-1.0522-.9175-2.424-1.3827-3.8173-1.2947zm2.81 11.18c-1.59 1.37-3.35 1.43-4.45-.13-.7857-1.3746-1.0552-2.9844-.76-4.54.2728-.6062.6999-1.1303 1.2386-1.5199.5387-.3895 1.1702-.6309 1.8314-.7001 1.54-.26 3.14.88 3.2 1.37s.54 4.14-1.04 5.52zm37.82 2.21c-.79-5.87-5.12-23.36-11.72-27.44-6.6-4.07998-13.2-5.84998-13.38-5.71998s-.31 2.62.06 2.8c1.1387.66553 2.3414 1.21498 3.59 1.63998 2.5.92 2.87 1.71 2.87 1.71-3.6931-1.0748-7.4921-1.7454-11.33-2-3.2536-.0896-6.5016.3218-9.63 1.22 0 0 2.74-1.65 2.92-1.83.18-.17998-.42-2.79998-1.4-2.92998s-15.27001 5.42998-15.41001 5.83998c-.37 1.1-2.68 8.23-4.81 15.9s-3.42 15-3.480003 18c-.06 3 .610003 5.12 4.760003 7.07s13.46001 4.97 14.24001 4.91 4.57-3.41 4.75-3.9c.0349-1.0423-.0456-2.0853-.24-3.11 0 0-.43-.55-3.66-1.64-2.0021-.7084-3.8442-1.8062-5.42-3.23 0 0 7.13 4.26 14.69 4.32s15-3.59 15-3.59c-1.2617.9567-2.6478 1.7372-4.12 2.32-1.6964.727-3.4488 1.3156-5.24 1.76-.36.12 0 5.49.31 6s1.7 1.71 9.87-.06 12.12-4.63 14.37-6.7 3.2-5.51 2.41-11.34zm-1.83 5.6c.0001.5286-.1206 1.0503-.3528 1.5251-.2323.4749-.5699.8904-.9872 1.2149-.55.43-1.75 1.6-7.83 3.84-4.042 1.4955-8.1991 2.6594-12.43 3.48-.73.09-.91.13-1 0s-.5-2.15-.27-2.29c3.5515-1.2403 6.8263-3.1631 9.64-5.66 4.07-3.89 3.93-5 3.75-5.26-.1613-.1391-.3585-.2297-.5691-.2616-.2105-.0318-.4257-.0035-.6209.0816-.23.18-4.48 4.16-13.3 5.57s-12.43.92-17.27-.68c-2.7149-.9127-5.2619-2.2639-7.54-4-.4003.4503-.6973.9828-.87 1.56 1.108 1.7166 2.5708 3.176 4.29 4.28 2.84 1.83 6.22 3.06 6.08 3.29-.7618 1.0017-1.6377 1.9111-2.61 2.71-3.6387-.7793-7.2124-1.8357-10.69001-3.16-3.93-1.6-4.47-3.61-4.88-4.57s.32-8.86 1.82-14.62 5.50001-17.94 6.11001-18.56c.39-.41 10.36-4.20998 10.36-4.20998s-6.34 5.60998-6.52 5.90998-.37 1.4.24 1.4c.1996-.0277.3913-.0961.5634-.2011.172-.1049.3206-.2441.4366-.4089 0 0 5.05-4.14 15.66-3.9s15 3.48 15.29 3.29c.3707-.4413.677-.9328.91-1.46 0 0-1-1.76-1.16-1.95 1.6882.5938 3.2127 1.5771 4.45 2.87 1.95 2 5.67 9.74 7.31 17s2.1 11.57 1.99 13.15z" fill="#fff"/><path clip-rule="evenodd" d="m60.89 45.2742c.0001.5286-.1206 1.0503-.3528 1.5251-.2323.4749-.5699.8904-.9872 1.2149-.55.43-1.75 1.6-7.83 3.84-4.042 1.4955-8.1991 2.6594-12.43 3.48-.73.09-.91.13-1 0s-.5-2.15-.27-2.29c3.5515-1.2403 6.8263-3.1631 9.64-5.66 4.07-3.89 3.93-5 3.75-5.26-.1613-.1391-.3585-.2297-.5691-.2616-.2105-.0318-.4257-.0035-.6209.0816-.23.18-4.48 4.16-13.3 5.57s-12.43.92-17.27-.68c-2.7149-.9127-5.2619-2.2639-7.54-4-.4003.4503-.6973.9828-.87 1.56 1.108 1.7166 2.5708 3.176 4.29 4.28 2.84 1.83 6.22 3.06 6.08 3.29-.7618 1.0017-1.6377 1.9111-2.61 2.71-3.6387-.7793-7.2124-1.8357-10.69001-3.16-3.93-1.6-4.47-3.61-4.88-4.57s.32-8.86 1.82-14.62 5.50001-17.94 6.11001-18.56c.39-.41 10.36-4.20998 10.36-4.20998s-6.34 5.60998-6.52 5.90998-.37 1.4.24 1.4c.1996-.0277.3913-.0961.5634-.2011.172-.1049.3206-.2441.4366-.4089 0 0 5.05-4.14 15.66-3.9s15 3.48 15.29 3.29c.3707-.4413.677-.9328.91-1.46 0 0-1-1.76-1.16-1.95 1.6882.5938 3.2127 1.5771 4.45 2.87 1.95 2 5.67 9.74 7.31 17s2.1 11.57 1.99 13.15zm-50.06-21.81c.73-2.19 1.05-2.74 1.23-2.79.18-.09 1.18.14 1.14.37s-1.59 3.43-2.28 5.67-.64 2.56-.87 2.69c-.21783.0324-.44036.0027-.64203-.0858-.20166-.0884-.37427-.232-.49798-.4142-.08-.22 1.19001-3.25 1.92001-5.44zm41.66 23.65s.37-.87.51-.87c1.3821.7269 2.7179 1.5385 4 2.43-.1003.258-.2786.4782-.51.63-.13 0-3.81-2.01-4-2.19zm1.33-2.72c-.0077 0-.0161.0026-.025.0075 1.6568.8261 3.2675 1.7416 4.825 2.7425-.1169.2795-.3202.5143-.58.67-.12 0-4.54-2.37-4.72-2.56 0 0 .3215-.7681.475-.8525-.005-.0025-.01-.005-.015-.0075zm5.5 1.96c-.12 0-5-2.56-5.18-2.74h-.04s.4-.87.54-.87 5.26 2.79 5.26 2.94c-.1169.2795-.3202.5143-.58.67zm-.8-3.63c-.13 0-6.34-3.86-6.52-4.05 0 0 .36-.87.5-.87s6.59 4.1 6.59 4.25c-.1105.2803-.311.516-.57.67zm.18-2.62c-.12 0-6.12-3.74-6.31-3.92l-.03-.03s.31-.84.49-.84 6 3.79 6 3.94-.03.85-.15.85zm-.98-3.35c-.12 0-5.88-3.56-6.06-3.74l-.03-.03s.39-.84.53-.84 5.72 3.61 5.72 3.76-.04.85-.16.85zm-.21-2.74c-.12 0-5.39-3.29-5.57-3.47l-.03-.03s.36-.84.5-.84 5.25 3.34 5.25 3.49-.03.85-.15.85zm-1.28-4.54c-.01-.0074-.02-.0148-.0301-.0223-.0021.1736-.0718.8523-.1899.8523-.12 0-4.33-2.53-4.51-2.71 0 0 .37-.87.5-.87 1.4546.8223 2.8572 1.7333 4.1999 2.7277.0001-.0027.0001-.0052.0001-.0077zm-.94-3.56c-.01-.0078-.02-.0156-.03-.0234-.0011.1619-.0417.8134-.16.8134-.12 0-3.5-1.98-3.68-2.16 0 0 .36-.87.5-.87 1.1682.6527 2.2847 1.3937 3.34 2.2166 0-.0023 0-.0045 0-.0066zm-3.2144 22.0082c.0088-.0054.017-.0082.0244-.0082l-.0244.0082-.0041.0025c1.0273.4929 2.0075 1.0784 2.9285 1.7493-.1292.2676-.339.488-.6.63-.9634-.4492-1.8985-.9568-2.8-1.52 0 0 .3231-.7597.4715-.8593l-.0015-.0007zm-15.4654-20.6568c1.0553-.9204 2.4326-1.3848 3.8298-1.2914 5.73.95 5.18 8.7 3.8 11.52-.2865.6302-.705 1.1915-1.2274 1.6458-.5223.4543-1.1362.791-1.8.9873-.6639.1963-1.3622.2476-2.0476.1505-.6854-.0972-1.3419-.3405-1.925-.7136-2.25-1.56-2.52-5.27-2.43-8.68.0975-1.3969.7448-2.6982 1.8002-3.6186zm-18.3202 10.5286c-1.37-2.83-1.92-10.57 3.8-11.51h.02c1.3933-.088 2.7651.3772 3.8173 1.2947 1.0523.9174 1.7001 2.213 1.8027 3.6053.09 3.41-.18 7.13-2.44 8.68-.5827.3748-1.2393.6195-1.9251.7175-.6858.0981-1.3847.0471-2.049-.1493-.6643-.1965-1.2785-.5338-1.8007-.9891-.5222-.4552-.9401-1.0177-1.2252-1.6491z" fill="#fff" fill-rule="evenodd"/></mask><g fill="#000"><path d="m12.06 20.6742c-.18.05-.5.6-1.23 2.79s-2.00001 5.22-1.92001 5.44c.12371.1822.29632.3258.49798.4142.20167.0885.4242.1182.64203.0858.23-.13.18-.45.87-2.69s2.24-5.44 2.28-5.67-.96-.46-1.14-.37zm40.94 25.57c-.14 0-.51.87-.51.87.19.18 3.87 2.19 4 2.19.2314-.1518.4097-.372.51-.63-1.2821-.8915-2.6179-1.7031-4-2.43zm.82-1.85c-.0077 0-.0161.0026-.025.0075-.1535.0844-.475.8525-.475.8525.18.19 4.6 2.56 4.72 2.56.2598-.1557.4631-.3905.58-.67-1.5575-1.0009-3.1682-1.9164-4.825-2.7425-.005-.0025-.01-.005-.015-.0075zm.32-.78c.18.18 5.06 2.74 5.18 2.74.2598-.1557.4631-.3905.58-.67 0-.15-5.12-2.94-5.26-2.94s-.54.87-.54.87zm-2.14-4.94c.18.19 6.39 4.05 6.52 4.05.259-.154.4595-.3897.57-.67 0-.15-6.45-4.25-6.59-4.25s-.5.87-.5.87zm.39-2.49c.19.18 6.19 3.92 6.31 3.92s.15-.7.15-.85-5.82-3.94-6-3.94-.49.84-.49.84zm-.73-3.17c.18.18 5.94 3.74 6.06 3.74s.16-.7.16-.85-5.58-3.76-5.72-3.76-.53.84-.53.84zm.28-2.47c.18.18 5.45 3.47 5.57 3.47s.15-.7.15-.85-5.11-3.49-5.25-3.49-.5.84-.5.84zm4.29-1.07c-.01-.0074-.02-.0148-.0301-.0223-1.3427-.9944-2.7453-1.9054-4.1999-2.7277-.13 0-.5.87-.5.87.18.18 4.39 2.71 4.51 2.71.1181 0 .1878-.6787.1899-.8523.0001-.0027.0001-.0052.0001-.0077zm-.94-3.56c-.01-.0078-.02-.0156-.03-.0234-1.0553-.8229-2.1718-1.5639-3.34-2.2166-.14 0-.5.87-.5.87.18.18 3.56 2.16 3.68 2.16.1183 0 .1589-.6515.16-.8134 0-.0023 0-.0045 0-.0066zm-3.19 22c-.0074 0-.0156.0028-.0244.0082l-.0041.0025c-.1484.0996-.4715.8593-.4715.8593.9015.5632 1.8366 1.0708 2.8 1.52.261-.142.4708-.3624.6-.63-.921-.6709-1.9012-1.2564-2.9285-1.7493l-.0015-.0007.0056-.0018zm-11.66-21.94c-1.3972-.0934-2.7745.371-3.8298 1.2914-1.0554.9204-1.7027 2.2217-1.8002 3.6186-.09 3.41.18 7.12 2.43 8.68.5831.3731 1.2396.6164 1.925.7136.6854.0971 1.3837.0458 2.0476-.1505.6638-.1963 1.2777-.533 1.8-.9873.5224-.4543.9409-1.0156 1.2274-1.6458 1.38-2.82 1.93-10.57-3.8-11.52zm1.65 11.06c-1.1 1.55-2.87 1.49-4.45.12s-1.13-5-1.07-5.51 1.67-1.64 3.2-1.37c.6633.0665 1.2973.3068 1.838.6965.5408.3898.9692.9153 1.242 1.5235.2839 1.5557.015 3.1616-.76 4.54zm-20-10.75c-5.72.94-5.17 8.68-3.8 11.51.2851.6314.703 1.1939 1.2252 1.6491.5222.4553 1.1364.7926 1.8007.9891.6643.1964 1.3632.2474 2.049.1493.6858-.098 1.3424-.3427 1.9251-.7175 2.26-1.55 2.53-5.27 2.44-8.68-.1026-1.3923-.7504-2.6879-1.8027-3.6053-1.0522-.9175-2.424-1.3827-3.8173-1.2947zm2.81 11.18c-1.59 1.37-3.35 1.43-4.45-.13-.7857-1.3746-1.0552-2.9844-.76-4.54.2728-.6062.6999-1.1303 1.2386-1.5199.5387-.3895 1.1702-.6309 1.8314-.7001 1.54-.26 3.14.88 3.2 1.37s.54 4.14-1.04 5.52zm37.82 2.21c-.79-5.87-5.12-23.36-11.72-27.44-6.6-4.07998-13.2-5.84998-13.38-5.71998s-.31 2.62.06 2.8c1.1387.66553 2.3414 1.21498 3.59 1.63998 2.5.92 2.87 1.71 2.87 1.71-3.6931-1.0748-7.4921-1.7454-11.33-2-3.2536-.0896-6.5016.3218-9.63 1.22 0 0 2.74-1.65 2.92-1.83.18-.17998-.42-2.79998-1.4-2.92998s-15.27001 5.42998-15.41001 5.83998c-.37 1.1-2.68 8.23-4.81 15.9s-3.42 15-3.480003 18c-.06 3 .610003 5.12 4.760003 7.07s13.46001 4.97 14.24001 4.91 4.57-3.41 4.75-3.9c.0349-1.0423-.0456-2.0853-.24-3.11 0 0-.43-.55-3.66-1.64-2.0021-.7084-3.8442-1.8062-5.42-3.23 0 0 7.13 4.26 14.69 4.32s15-3.59 15-3.59c-1.2617.9567-2.6478 1.7372-4.12 2.32-1.6964.727-3.4488 1.3156-5.24 1.76-.36.12 0 5.49.31 6s1.7 1.71 9.87-.06 12.12-4.63 14.37-6.7 3.2-5.51 2.41-11.34zm-1.83 5.6c.0001.5286-.1206 1.0503-.3528 1.5251-.2323.4749-.5699.8904-.9872 1.2149-.55.43-1.75 1.6-7.83 3.84-4.042 1.4955-8.1991 2.6594-12.43 3.48-.73.09-.91.13-1 0s-.5-2.15-.27-2.29c3.5515-1.2403 6.8263-3.1631 9.64-5.66 4.07-3.89 3.93-5 3.75-5.26-.1613-.1391-.3585-.2297-.5691-.2616-.2105-.0318-.4257-.0035-.6209.0816-.23.18-4.48 4.16-13.3 5.57s-12.43.92-17.27-.68c-2.7149-.9127-5.2619-2.2639-7.54-4-.4003.4503-.6973.9828-.87 1.56 1.108 1.7166 2.5708 3.176 4.29 4.28 2.84 1.83 6.22 3.06 6.08 3.29-.7618 1.0017-1.6377 1.9111-2.61 2.71-3.6387-.7793-7.2124-1.8357-10.69001-3.16-3.93-1.6-4.47-3.61-4.88-4.57s.32-8.86 1.82-14.62 5.50001-17.94 6.11001-18.56c.39-.41 10.36-4.20998 10.36-4.20998s-6.34 5.60998-6.52 5.90998-.37 1.4.24 1.4c.1996-.0277.3913-.0961.5634-.2011.172-.1049.3206-.2441.4366-.4089 0 0 5.05-4.14 15.66-3.9s15 3.48 15.29 3.29c.3707-.4413.677-.9328.91-1.46 0 0-1-1.76-1.16-1.95 1.6882.5938 3.2127 1.5771 4.45 2.87 1.95 2 5.67 9.74 7.31 17s2.1 11.57 1.99 13.15z"/><path clip-rule="evenodd" d="m60.89 45.2742c.0001.5286-.1206 1.0503-.3528 1.5251-.2323.4749-.5699.8904-.9872 1.2149-.55.43-1.75 1.6-7.83 3.84-4.042 1.4955-8.1991 2.6594-12.43 3.48-.73.09-.91.13-1 0s-.5-2.15-.27-2.29c3.5515-1.2403 6.8263-3.1631 9.64-5.66 4.07-3.89 3.93-5 3.75-5.26-.1613-.1391-.3585-.2297-.5691-.2616-.2105-.0318-.4257-.0035-.6209.0816-.23.18-4.48 4.16-13.3 5.57s-12.43.92-17.27-.68c-2.7149-.9127-5.2619-2.2639-7.54-4-.4003.4503-.6973.9828-.87 1.56 1.108 1.7166 2.5708 3.176 4.29 4.28 2.84 1.83 6.22 3.06 6.08 3.29-.7618 1.0017-1.6377 1.9111-2.61 2.71-3.6387-.7793-7.2124-1.8357-10.69001-3.16-3.93-1.6-4.47-3.61-4.88-4.57s.32-8.86 1.82-14.62 5.50001-17.94 6.11001-18.56c.39-.41 10.36-4.20998 10.36-4.20998s-6.34 5.60998-6.52 5.90998-.37 1.4.24 1.4c.1996-.0277.3913-.0961.5634-.2011.172-.1049.3206-.2441.4366-.4089 0 0 5.05-4.14 15.66-3.9s15 3.48 15.29 3.29c.3707-.4413.677-.9328.91-1.46 0 0-1-1.76-1.16-1.95 1.6882.5938 3.2127 1.5771 4.45 2.87 1.95 2 5.67 9.74 7.31 17s2.1 11.57 1.99 13.15zm-50.06-21.81c.73-2.19 1.05-2.74 1.23-2.79.18-.09 1.18.14 1.14.37s-1.59 3.43-2.28 5.67-.64 2.56-.87 2.69c-.21783.0324-.44036.0027-.64203-.0858-.20166-.0884-.37427-.232-.49798-.4142-.08-.22 1.19001-3.25 1.92001-5.44zm41.66 23.65s.37-.87.51-.87c1.3821.7269 2.7179 1.5385 4 2.43-.1003.258-.2786.4782-.51.63-.13 0-3.81-2.01-4-2.19zm1.33-2.72c-.0077 0-.0161.0026-.025.0075 1.6568.8261 3.2675 1.7416 4.825 2.7425-.1169.2795-.3202.5143-.58.67-.12 0-4.54-2.37-4.72-2.56 0 0 .3215-.7681.475-.8525-.005-.0025-.01-.005-.015-.0075zm5.5 1.96c-.12 0-5-2.56-5.18-2.74h-.04s.4-.87.54-.87 5.26 2.79 5.26 2.94c-.1169.2795-.3202.5143-.58.67zm-.8-3.63c-.13 0-6.34-3.86-6.52-4.05 0 0 .36-.87.5-.87s6.59 4.1 6.59 4.25c-.1105.2803-.311.516-.57.67zm.18-2.62c-.12 0-6.12-3.74-6.31-3.92l-.03-.03s.31-.84.49-.84 6 3.79 6 3.94-.03.85-.15.85zm-.98-3.35c-.12 0-5.88-3.56-6.06-3.74l-.03-.03s.39-.84.53-.84 5.72 3.61 5.72 3.76-.04.85-.16.85zm-.21-2.74c-.12 0-5.39-3.29-5.57-3.47l-.03-.03s.36-.84.5-.84 5.25 3.34 5.25 3.49-.03.85-.15.85zm-1.28-4.54c-.01-.0074-.02-.0148-.0301-.0223-.0021.1736-.0718.8523-.1899.8523-.12 0-4.33-2.53-4.51-2.71 0 0 .37-.87.5-.87 1.4546.8223 2.8572 1.7333 4.1999 2.7277.0001-.0027.0001-.0052.0001-.0077zm-.94-3.56c-.01-.0078-.02-.0156-.03-.0234-.0011.1619-.0417.8134-.16.8134-.12 0-3.5-1.98-3.68-2.16 0 0 .36-.87.5-.87 1.1682.6527 2.2847 1.3937 3.34 2.2166 0-.0023 0-.0045 0-.0066zm-3.2144 22.0082c.0088-.0054.017-.0082.0244-.0082l-.0244.0082-.0041.0025c1.0273.4929 2.0075 1.0784 2.9285 1.7493-.1292.2676-.339.488-.6.63-.9634-.4492-1.8985-.9568-2.8-1.52 0 0 .3231-.7597.4715-.8593l-.0015-.0007zm-15.4654-20.6568c1.0553-.9204 2.4326-1.3848 3.8298-1.2914 5.73.95 5.18 8.7 3.8 11.52-.2865.6302-.705 1.1915-1.2274 1.6458-.5223.4543-1.1362.791-1.8.9873-.6639.1963-1.3622.2476-2.0476.1505-.6854-.0972-1.3419-.3405-1.925-.7136-2.25-1.56-2.52-5.27-2.43-8.68.0975-1.3969.7448-2.6982 1.8002-3.6186zm-18.3202 10.5286c-1.37-2.83-1.92-10.57 3.8-11.51h.02c1.3933-.088 2.7651.3772 3.8173 1.2947 1.0523.9174 1.7001 2.213 1.8027 3.6053.09 3.41-.18 7.13-2.44 8.68-.5827.3748-1.2393.6195-1.9251.7175-.6858.0981-1.3847.0471-2.049-.1493-.6643-.1965-1.2785-.5338-1.8007-.9891-.5222-.4552-.9401-1.0177-1.2252-1.6491z" fill-rule="evenodd"/><path d="m12.06 20.6742.1338.4818.0466-.013.0432-.0216zm-3.15001 8.23-.4699.1709.02128.0585.03497.0515zm1.14001.5.0735.4946.0918-.0137.0807-.0456zm42.95 16.84.2327-.4425-.1092-.0575h-.1235zm-.51.87-.4601-.1957-.136.3198.2522.2389zm4 2.19v.5h.1494l.1249-.0819zm.51-.63.466.1812.1427-.3669-.3232-.2248zm-3.68-3.42-.4612-.193-.1258.3004.224.2365zm4.72 2.56v.5h.1384l.1186-.0711zm.58-.67.4613.193.1618-.3869-.3528-.2267zm-4.84-2.75v-.5l-.2229.9476zm.36-.78.3535-.3535-.1464-.1465h-.2071zm5.18 2.74v.5h.1384l.1186-.0711zm.58-.67.4613.193.0387-.0926v-.1004zm-5.8-2.07-.4543-.2088-.3259.7088h.7802zm-2.1-4.94-.462-.1912-.124.2997.223.2354zm6.52 4.05v.5h.1374l.1182-.0702zm.57-.67.4651.1834.0349-.0884v-.095zm-6.7-5.87-.3537.3537.0098.0093zm-.03-.03-.4691-.1731-.1108.3003.2263.2264zm-.73-3.17-.4535-.2105-.1472.317.2471.2471zm.31-2.44-.3536.3536zm-.03-.03-.4596-.1969-.1333.3111.2393.2394zm4.32-1.04-.2979.4016.6514-.7551zm-4.23-2.75.2461-.4352-.1146-.0648h-.1315zm-.5.87-.4601-.1957-.1321.3106.2386.2387zm4.7 1.85.3535-.3535-.8535-.8536v1.2071zm-.91-3.53-.3081.3938.6616-.7473zm-3.37-2.24.2439-.4365-.1137-.0635h-.1302zm-.5.87-.462-.1912-.1277.3086.2361.2362zm3.84 1.34.3535-.3535-.8535-.8535v1.207zm-3.16 22.03.1581.4744-.1581-.9744zm-.5.87-.4601-.1957-.1673.3933.3625.2265zm2.8 1.52-.2113.4532.2287.1066.2216-.1206zm.6-.63.4503.2174.1814-.3758-.3373-.2457zm-2.93-1.75-.158-.4744-1.1742.3912 1.1163.5342zm-11.63-21.95.0818-.4932-.0241-.004-.0244-.0017zm-5.63 4.91-.4988-.0348-.0008.0108-.0002.0108zm2.43 8.68-.2849.4109.0076.0053.0078.005zm7-2.07-.4491-.2198-.0031.0064-.003.0065zm-22.15-11.21v-.5h-.0408l-.0403.0066zm-3.8 11.51.4558-.2059-.0058-.0119zm7 2.07.2704.4206.0063-.0041.0061-.0041zm2.44-8.68.4998-.0132-.0003-.0118-.0009-.0117zm-5.62-4.9v.5h.0158l.0157-.001zm38.78 18.99h-.5v.0001zm-1.34 2.74-.3069-.3947-.0011.0008zm-7.83 3.84-.1729-.4692-.0006.0003zm-12.43 3.48.0612.4963.0171-.0021.0169-.0033zm-1.27-2.29-.1649-.472-.0499.0174-.0452.0275zm9.64-5.66.3319.374.0069-.0061.0067-.0064zm3.75-5.26.4111-.2846-.0363-.0524-.0482-.0416zm-1.19-.18-.2-.4582-.0582.0253-.05.0392zm-30.57 4.89-.1593.474.0023.0008zm-7.54-4 .303-.3977-.3687-.281-.308.3465zm-.87 1.56-.479-.1433-.0661.2208.125.1937zm4.29 4.28.2708-.4203-.0006-.0004zm6.08 3.29.398.3027.0156-.0206.0135-.0221zm-2.61 2.71-.1047.4889.2358.0505.1863-.1531zm-10.69001-3.16-.18859.4632.01065.0041zm3.05001-37.75.3565.3507.0058-.0061zm10.36-4.20998.3313.37446-.5094-.84167zm-6.28 7.30998v.5h.0345l.0342-.0047zm1-.61-.317-.3866-.0527.0431-.0392.0558zm30.95-.61.274.4183.0615-.0404.0474-.0563zm.91-1.46.4573.2021.1018-.2302-.1244-.2189zm-1.16-1.95.1659-.4717-1.7289-.608 1.1805 1.4018zm4.45 2.87-.3613.3457.0033.0034zm9.3 30.15-.4988-.0347-.0012.0173v.0174zm-48.9638-25.0617c-.2188.0607-.358.2282-.4377.3389-.0935.1301-.1885.3045-.2908.5248-.206.444-.4757 1.1507-.8421 2.2499l.9487.3162c.3636-1.0908.619-1.754.8005-2.1451.0915-.1971.1557-.3065.1957-.3621.0538-.0748.0221.0051-.1067.0409zm-1.5706 3.1136c-.36107 1.0834-.85645 2.3764-1.25728 3.4406-.19899.5284-.37579 1.0034-.49793 1.3611-.06069.1778-.1112.3362-.14432.462-.01629.0618-.03147.1273-.04047.1889-.00449.0307-.00893.0702-.00921.1136-.00022.0355.00145.1141.0337.2028l.93979-.3417c.02726.0749.02657.1343.02649.1453-.00012.0189-.00188.0286-.00128.0245.00118-.008.00579-.0324.01799-.0787.02388-.0906.06516-.2221.12369-.3936.1163-.3407.28762-.8013.48743-1.3317.3966-1.0532.9012-2.3702 1.2701-3.4769zm-1.85926 5.879c.17658.26.42295.465.7108.5912l.40166-.9158c-.11548-.0506-.21433-.1328-.28517-.2372zm.7108.5912c.28785.1263.60548.1687.91636.1225l-.14705-.9891c-.12473.0185-.25216.0015-.36765-.0492zm1.08886.0632c.1684-.0952.272-.2302.3439-.3859.0589-.1277.1058-.291.155-.4717.1041-.3823.2611-1.0107.6029-2.1205l-.9557-.2944c-.3481 1.1302-.51117 1.7818-.61203 2.1521-.05328.1955-.08017.2765-.09813.3154-.005.0109.01862-.0354.07202-.0656zm1.1018-2.9781c.3364-1.0918.8868-2.4302 1.365-3.5377.2384-.5522.4559-1.0402.6187-1.41.0808-.1836.1491-.3402.1987-.459.0247-.0591.0465-.113.0634-.1581.0115-.0307.0373-.0992.049-.1667l-.9852-.1713c.0067-.0388.0157-.0554-.0003-.0128-.0105.0281-.0268.0688-.0497.1235-.0455.109-.1102.2576-.1911.4414-.1606.3649-.3813.86-.6216 1.4166-.4793 1.11-1.0489 2.4916-1.4026 3.6397zm2.2948-5.7315c.0398-.2287-.0637-.4031-.1415-.4948-.0765-.0902-.1681-.1516-.2371-.1914-.1422-.0821-.3139-.1431-.4665-.1859-.1574-.0441-.3257-.0775-.4753-.0933-.0744-.0079-.1541-.0124-.231-.0092-.0606.0025-.1841.0113-.3048.0717l.4472.8944c-.0449.0225-.0797.0294-.0892.0312-.0122.0022-.0169.002-.0111.0018.0122-.0005.0398-.0001.0839.0046.0872.0092.2002.0308.3103.0617.1149.0322.1969.0662.2366.089.0219.0127.0033.0063-.0255-.0276-.03-.0354-.111-.1524-.0812-.3235zm39.3074 24.6143c-.1354 0-.2367.0508-.29.0834-.0567.0348-.0995.074-.1277.1025-.0563.0569-.1027.1212-.1371.1727-.0711.1067-.1412.2366-.1989.3508-.0594.1174-.1133.2333-.1519.3187-.0195.043-.0353.079-.0464.1044-.0056.0127-.01.0229-.013.03-.0016.0035-.0028.0063-.0036.0083-.0005.001-.0008.0018-.001.0024-.0002.0003-.0003.0005-.0004.0007 0 .0001 0 .0002-.0001.0003v.0001s0 0 .4601.1957.4601.1957.4601.1958 0-.0001.0001-.0002c.0001-.0003.0003-.0007.0005-.0014.0006-.0013.0015-.0034.0027-.0062.0024-.0056.0061-.0142.011-.0252.0096-.0222.0238-.0542.0412-.0927.0351-.0777.0825-.1794.1331-.2794.0522-.1034.101-.191.1386-.2474.02-.03.0254-.0337.0162-.0244-.0047.0047-.0252.0252-.0611.0472-.0325.0199-.1145.0639-.2324.0639zm-.8539 1.733c.0491.0465.112.088.144.109.0447.0295.0999.0638.1618.1014.1243.0754.2884.1711.4767.2788.3774.2158.8623.4856 1.344.749s.9628.5219 1.3328.7152c.1845.0963.3444.178.464.2363.0591.0288.1134.0544.1579.0736.0215.0094.0474.0201.0738.0294.0129.0046.0323.0111.055.0169.0142.0037.0668.0174.1339.0174v-1c.063 0 .1098.0127.1165.0145.0153.0039.0255.0075.0277.0083.0047.0017.0026.0011-.01-.0043-.0238-.0103-.0621-.0281-.1165-.0546-.1072-.0523-.2576-.1291-.4394-.224-.3625-.1892-.8376-.4445-1.3159-.7061-.4783-.2615-.9572-.528-1.3273-.7397-.1854-.106-.341-.1969-.4548-.2659-.0572-.0346-.1007-.0619-.1308-.0817-.0428-.0282-.031-.0235-.0056.0005zm4.6182 2.2451c.3184-.2089.5637-.5119.7017-.8669l-.932-.3624c-.0626.161-.1739.2984-.3183.3932zm.5212-1.4586c-1.299-.9033-2.6525-1.7255-4.0528-2.462l-.4655.885c1.3639.7174 2.6822 1.5182 3.9473 2.398zm-4.3285-2.6656c.0587.0619.1391.1139.1697.134.0506.0333.114.0725.1856.1154.1441.0865.3365.1972.5587.3224.4453.2511 1.0214.5667 1.5941.8756.5729.309 1.1447.6125 1.5818.8393.2182.1131.4052.2084.5428.276.0681.0335.1283.0622.1758.0834.023.0102.049.0214.0742.031.0123.0046.0309.0113.0527.0176.0078.0023.0694.0214.1476.0214v-1c.0448 0 .0791.0063.093.009.017.0034.0301.0069.0371.009.0139.004.0226.0073.023.0075.0014.0005-.0042-.0016-.0202-.0088-.0306-.0136-.0778-.036-.1424-.0677-.1278-.0627-.3072-.1541-.5231-.2661-.431-.2236-.9979-.5244-1.5675-.8317-.5698-.3073-1.14-.6198-1.5778-.8666-.2194-.1236-.4027-.2292-.5353-.3088-.0667-.04-.1168-.0712-.1508-.0935-.054-.0355-.0292-.0243.007.0139zm5.34 2.645c.3514-.2106.6262-.528.7843-.9059l-.9226-.3859c-.0757.181-.2074.3331-.3758.4341zm-4.517-3.3489h.04v-1h-.04zm.0064-.9264c.0596.0595.1434.111.1744.1304.0531.0333.1208.0735.1983.1183.1559.0901.3657.2071.6092.3404.4879.267 1.1211.6053 1.7511.9372.6301.3319 1.2592.6587 1.7391.9029.2396.1219.4442.2244.5939.2969.0743.0359.1388.0664.1889.0886.0243.0108.051.0222.0761.0318.0122.0046.0305.0113.0517.0175.005.0015.0697.0224.1509.0224v-1c.0475 0 .0837.0071.0966.0097.0169.0035.0296.0071.0361.009.0072.0021.0124.0039.0151.0048.0028.001.0046.0017.0049.0018.0006.0002-.0013-.0005-.0063-.0026-.0048-.002-.0113-.0048-.0197-.0085-.0347-.0154-.0874-.0401-.1584-.0745-.1409-.0682-.3386-.1672-.5762-.2881-.4745-.2414-1.0992-.5659-1.7266-.8964-.6274-.3306-1.2555-.6661-1.737-.9297-.2411-.132-.443-.2446-.5889-.3289-.0734-.0425-.1292-.0757-.1674-.0997-.0604-.0379-.0357-.0275.0013.0096zm5.7906 2.8153c.3514-.2106.6262-.528.7843-.9059l-.9226-.3859c-.0757.181-.2074.3331-.3758.4341zm.823-1.0989c0-.1587-.0745-.267-.0905-.2905-.0273-.04-.0552-.0693-.0709-.0849-.0329-.0328-.0676-.0605-.0926-.0796-.0534-.0408-.1216-.0869-.1949-.1343-.1496-.0967-.3576-.2223-.6004-.3647-.4876-.2858-1.1362-.6509-1.7866-1.01-.6508-.3592-1.3067-.7142-1.8097-.9798-.251-.1326-.4664-.2443-.6249-.3234-.0785-.0392-.1473-.0725-.2011-.0969-.0261-.0118-.0548-.0243-.0822-.0348-.0132-.0051-.0329-.0123-.0555-.0189-.0086-.0025-.0714-.0222-.1507-.0222v1c-.0451 0-.0796-.0063-.0935-.0091-.0171-.0034-.03-.007-.0369-.009-.0074-.0022-.0129-.004-.0158-.005-.003-.0011-.0048-.0018-.0053-.002-.0006-.0002.0014.0005.0066.0028.0051.0022.0119.0051.0207.0091.0366.0166.0922.0434.1671.0807.1483.0741.3559.1816.6045.3129.4964.2622 1.1468.6141 1.7935.9711.6471.3572 1.2872.7177 1.764.9972.2394.1403.4325.2572.5634.3419.067.0432.1089.0724.1306.089.0125.0095.0066.006-.0069-.0074-.006-.006-.0265-.0267-.0489-.0596-.0111-.0163-.0831-.1185-.0831-.2726zm-5.76-3.44c-.1343 0-.2348.0501-.2864.081-.0557.0335-.0983.0712-.1265.0989-.0566.0552-.1042.118-.1399.169-.0741.1056-.1481.2345-.2096.3485-.0633.1171-.121.2326-.1625.3179-.0209.0429-.038.0788-.0499.1042-.006.0127-.0108.0228-.014.0299-.0017.0035-.003.0063-.0039.0083-.0005.001-.0008.0018-.0011.0023-.0001.0003-.0002.0006-.0003.0008-.0001 0-.0001.0001-.0001.0002 0 0-.0001.0001-.0001.0001s0 .0001.4543.2089c.4543.2089.4543.2089.4542.2089v.0001c0-.0001.0001-.0001.0001-.0003.0002-.0002.0004-.0007.0007-.0013.0006-.0013.0016-.0034.0029-.0063.0026-.0056.0066-.0142.0118-.0253.0105-.0222.0258-.0543.0446-.0929.0379-.0779.0889-.1798.1431-.2802.0559-.1036.1082-.1921.1485-.2497.0214-.0305.0281-.0357.0202-.028-.0039.0038-.0235.0229-.058.0435-.0304.0183-.1113.0615-.2281.0615zm-.54 1.87h.04v-1h-.04zm-2.463-5.0961c.038.0401.0815.0726.0956.0833.0242.0182.0524.0385.0825.0595.0606.0424.1408.0963.2358.1591.1906.1259.4511.294.7567.4888.6117.39 1.4106.8914 2.2072 1.3864.7966.4949 1.5925.9845 2.1982 1.3508.3024.1829.5594.3363.746.4445.0927.0538.1717.0985.2315.1307.0292.0157.0596.0315.0874.0445.0132.0062.0332.0153.0562.0239.0113.0043.0299.0109.0528.017.016.0043.067.0176.1331.0176v-1c.0641 0 .1122.0129.1248.0162.0194.0052.0337.0104.0401.0128.013.0049.0203.0084.018.0073-.0034-.0015-.0153-.0074-.0388-.0201-.0455-.0244-.1134-.0628-.2033-.1149-.1786-.1036-.4295-.2533-.7303-.4352-.601-.3634-1.3932-.8507-2.1879-1.3445-.7946-.4938-1.59-.993-2.1974-1.3802-.304-.1938-.5592-.3585-.7431-.48-.0923-.061-.1641-.1094-.2143-.1445-.0253-.0177-.0422-.0299-.0521-.0374-.0199-.0151.0005-.0016.0273.0266zm7.1386 4.1359c.3542-.2107.6284-.533.7795-.9164l-.9303-.3668c-.0698.1773-.1966.3263-.3604.4237zm.8144-1.0998c0-.1054-.033-.1838-.0493-.2182-.0188-.0397-.0391-.0694-.0517-.0867-.0253-.0346-.0506-.0607-.0647-.0748-.0304-.0302-.0641-.0586-.0922-.0814-.059-.0477-.1379-.1063-.2285-.1711-.1833-.1313-.4412-.3073-.7458-.5109-.6108-.408-1.4244-.9365-2.2407-1.4592-.8165-.5228-1.638-1.0414-2.2651-1.4298-.3131-.1939-.5798-.3567-.7738-.4716-.0964-.0571-.1786-.1046-.2411-.1388-.0304-.0166-.0621-.0334-.091-.0472-.0139-.0066-.0346-.0161-.0583-.0251-.0118-.0044-.0308-.0112-.0543-.0175-.0169-.0045-.0677-.0177-.1335-.0177v1c-.0637 0-.1115-.0127-.1247-.0162-.0197-.0053-.0343-.0106-.0408-.013-.0133-.0051-.0206-.0087-.0182-.0075.0037.0017.0162.008.0407.0214.0474.026.1182.0667.2115.122.1856.1099.4457.2686.757.4614.6217.385 1.4389.9008 2.2524 1.4217.8137.5211 1.6213 1.0457 2.2243 1.4486.3022.2019.5494.3708.7193.4925.0861.0616.1458.1065.1814.1353.0192.0156.0218.0187.0158.0127-.002-.0019-.018-.0177-.037-.0437-.0096-.0131-.0276-.039-.0448-.0755-.0147-.031-.0469-.1066-.0469-.2097zm-7.09-4.75c-.1358 0-.2374.0511-.2913.0843-.057.0352-.0999.0749-.128.1037-.0562.0575-.1023.1223-.1361.1739-.0702.1072-.1389.2374-.1954.3516-.0581.1176-.1107.2335-.1483.319-.019.043-.0345.079-.0453.1045-.0054.0127-.0097.0228-.0127.03-.0015.0035-.0026.0063-.0035.0083-.0004.001-.0007.0018-.0009.0024-.0002.0003-.0003.0005-.0004.0007 0 .0001 0 .0002-.0001.0003v.0001s0 0 .462.1912.462.1912.462.1912v.0001s0-.0001 0-.0002c.0002-.0003.0003-.0007.0006-.0014.0005-.0013.0014-.0034.0026-.0062.0024-.0056.006-.0141.0106-.0252.0095-.0221.0232-.0541.0402-.0926.0342-.0777.0803-.1792.1297-.2791.0511-.1033.0986-.1906.1353-.2466.0196-.0299.0246-.0331.0149-.0232-.0048.005-.0257.0261-.062.0485-.0332.0205-.1156.0647-.2339.0647zm-.4539-.757c.0474.0449.1215.0953.1621.1232.0587.0402.1363.0918.2286.1522.1853.1213.4379.2836.7341.472.5929.377 1.3659.8623 2.1362 1.3416.7702.4793 1.5391.9535 2.1236 1.3083.2919.1771.5398.3257.7196.4306.0892.052.1653.0954.2227.1266.028.0152.0573.0305.084.0432.0126.0061.0321.0151.0545.0236.011.0042.0294.0109.0522.0172.0151.0042.0678.0185.1363.0185v-1c.0666 0 .1167.0139.1285.0172.0195.0053.0339.0107.0402.0131.013.005.0203.0086.0181.0075-.0031-.0014-.0144-.0071-.037-.0193-.0436-.0237-.109-.0609-.1957-.1114-.1721-.1004-.4141-.2454-.7045-.4217-.5802-.3521-1.3457-.8242-2.1142-1.3024s-1.5386-.9616-2.1279-1.3364c-.2948-.1876-.5431-.3471-.7228-.4648-.0902-.059-.1611-.1062-.2112-.1406-.0682-.0467-.0633-.0465-.0396-.0242zm6.6539 4.057c.2821 0 .4262-.2042.4633-.2629.0497-.0784.0764-.1591.091-.2097.0315-.1087.0502-.234.0624-.3385.025-.2153.0333-.4472.0333-.5389h-1c0 .0584-.0067.2514-.0267.4236-.0103.0893-.0216.1484-.0295.1756-.005.0174-.0004-.0075.0246-.047.0133-.0209.0444-.0657.101-.1085.0616-.0467.1579-.0937.2806-.0937zm.65-1.35c0-.167-.084-.2809-.0915-.2918-.0244-.0358-.0491-.0628-.0631-.0775-.0297-.0312-.0623-.0598-.0884-.0818-.0551-.0465-.1279-.1024-.2101-.1632-.1667-.1233-.4005-.2877-.6762-.4768-.5527-.3794-1.2892-.8694-2.0296-1.3536-.7405-.4843-1.4877-.9646-2.0622-1.3245-.2868-.1796-.5334-.331-.7156-.4384-.0903-.0532-.1698-.0986-.2324-.1317-.0305-.0161-.064-.0332-.0963-.0474-.0158-.0069-.0388-.0166-.0654-.0254-.0131-.0043-.0815-.0279-.1692-.0279v1c-.0821 0-.1421-.0217-.1442-.0224-.0086-.0029-.0149-.0053-.0182-.0066-.0035-.0014-.0056-.0023-.0061-.0025-.0008-.0004.0015.0006.0077.0037.0058.0029.0137.0069.0239.0123.0425.0225.1065.0588.1925.1094.1706.1005.4082.2464.6924.4244.5673.3554 1.3088.832 2.0458 1.3139.7372.4821 1.4669.9677 2.0111 1.3412.2728.1872.495.3436.6473.4562.0773.0572.1297.0981.16.1236.0165.014.0167.0152.009.0071-.003-.0031-.0193-.0202-.0382-.0478-.0019-.0027-.083-.1101-.083-.2725zm-6.5-4.44c-.2093 0-.3512.1144-.4059.1633-.0677.0604-.1204.1293-.1581.1839-.0771.1116-.1462.2449-.1999.3579-.0558.117-.1043.2319-.1383.3161-.0172.0425-.0311.078-.0409.1033-.0048.0127-.0087.0228-.0114.03-.0013.0036-.0024.0065-.0032.0086-.0004.001-.0007.0019-.0009.0025-.0001.0003-.0002.0006-.0003.0008 0 .0001-.0001.0002-.0001.0003 0 0 0 .0001-.0001.0001 0 .0001 0 .0001.4691.1732s.4691.1732.469.1732v.0001s0 0 0-.0001c.0001-.0001.0002-.0005.0004-.0011.0004-.0011.0011-.0029.0021-.0055.0019-.0051.0049-.013.0089-.0233.0079-.0206.0196-.0507.0343-.0869.0297-.0733.07-.1685.1142-.2614.0462-.0971.0884-.1738.12-.2196.0168-.0242.0178-.021.0015-.0065-.0033.003-.0961.0911-.2604.0911zm-.8436 1.6936.03.03.7071-.7071-.03-.03zm-.7-3.14c.051.0509.1294.1043.166.1296.057.0393.1321.0894.2208.1475.1782.1167.4209.2721.7053.4521.5692.3604 1.3115.8233 2.0513 1.2801.7396.4569 1.4783.9086 2.0403 1.2466.2807.1687.5193.3103.6926.4103.086.0496.1596.0911.2156.1211.0272.0145.056.0295.0825.0419.0127.0059.0322.0147.0546.0231.0112.0041.0295.0106.0522.0167.0157.0042.0665.0174.1324.0174v-1c.064 0 .1122.0129.1247.0162.0195.0052.0339.0104.0404.0128.0075.0028.0129.0051.0153.0061.0013.0006.0023.001.0029.0013s.001.0004.001.0004-.0002-.0001-.0007-.0003-.0011-.0005-.002-.001c-.0018-.0008-.0042-.002-.0072-.0036-.0062-.0032-.0143-.0074-.0244-.0128-.0417-.0223-.1043-.0574-.1876-.1055-.1654-.0954-.3979-.2333-.6769-.4011-.5574-.3352-1.2925-.7847-2.0303-1.2404-.7378-.4556-1.4767-.9165-2.0418-1.2742-.2828-.1791-.5206-.3313-.6923-.4438-.0862-.0564-.1535-.1013-.2007-.1339-.0676-.0467-.0553-.0422-.0269-.0137zm6.4136 3.8864c.2798 0 .4241-.2015.4611-.2587.0501-.0774.0776-.1572.093-.2078.0329-.1084.0533-.2336.0668-.3382.0277-.2146.0391-.4485.0391-.5453h-1c0 .0532-.0086.2443-.0309.4173-.0115.0891-.0236.1483-.0319.1758-.0053.0174-.0006-.0066.0244-.0451.0131-.0203.0441-.064.1-.1059.0606-.0454.1561-.0921.2784-.0921zm.66-1.35c0-.1626-.0794-.2739-.0886-.2877-.0244-.0365-.0492-.0639-.0632-.0788-.0298-.0316-.0621-.0602-.0876-.0818-.0537-.0456-.1243-.0998-.2033-.1583-.1603-.1186-.3849-.276-.649-.4568-.5296-.3625-1.235-.8301-1.9427-1.2916-.7079-.4618-1.4211-.9193-1.9669-1.262-.2726-.1711-.5058-.3151-.6766-.417-.0847-.0505-.1584-.0933-.2154-.1244-.0278-.0151-.058-.031-.0867-.0444-.0138-.0064-.035-.0159-.0595-.0248-.0049-.0018-.082-.0324-.1805-.0324v1c-.0577 0-.1014-.0104-.1168-.0142-.0201-.005-.0352-.0102-.0427-.0129-.0083-.0031-.0144-.0056-.0174-.0069-.0033-.0014-.0053-.0023-.0056-.0024-.0005-.0003.0017.0008.0076.0038.0057.0029.0132.0069.0228.0122.0401.0218.1007.0568.1819.1052.1611.0961.3868.2354.6571.4051.5398.3389 1.2479.7932 1.9524 1.2527.7048.4597 1.4033.9227 1.9242 1.2793.2613.1787.4737.3279.6191.4355.0739.0546.1233.0932.1513.117.0155.0131.0145.0134.0059.0042-.0035-.0037-.0203-.0215-.0393-.0499-.0039-.0058-.0805-.1108-.0805-.2687zm-6.22-4.26c-.1303 0-.2287.0471-.281.0776-.0558.0325-.0986.0695-.1272.0968-.0571.0545-.1049.1163-.1406.1663-.0737.1031-.1468.2288-.2073.3392-.0622.1136-.1188.2255-.1594.3081-.0205.0416-.0372.0764-.0489.101-.0059.0123-.0105.0221-.0137.029-.0017.0034-.0029.0061-.0038.0081-.0005.0009-.0008.0017-.0011.0023-.0001.0003-.0002.0005-.0003.0007-.0001.0001-.0001.0001-.0001.0002-.0001 0-.0001.0001-.0001.0001s0 .0001.4535.2106c.4535.2106.4535.2106.4535.2106v.0001c-.0001 0-.0001 0 0 0 0 0 0-.0001 0-.0002.0002-.0003.0004-.0007.0007-.0013.0005-.0013.0015-.0033.0027-.006.0026-.0054.0065-.0137.0116-.0243.0101-.0213.0249-.0522.0432-.0894.0369-.0749.0865-.1729.1393-.2693.0546-.0996.1052-.184.144-.2383.0206-.0288.0262-.0327.0173-.0241-.0046.0043-.0247.0233-.0594.0435-.0312.0183-.1101.0587-.2229.0587zm-.8836 1.6936.03.03.7071-.7071-.03-.03zm.31-2.44c.0491.0491.1223.0998.1576.1246.0536.0375.1235.0847.2057.1392.1649.1095.3886.2544.65.4218.5235.3352 1.2046.7644 1.8832 1.1876.6785.4231 1.3561.8412 1.8724 1.154.2577.1561.4774.2874.6377.3802.0795.046.1483.0849.2012.1131.0257.0138.0537.0282.0802.0404.0126.0059.0324.0147.0554.023.0008.0003.0799.0325.1802.0325v-1c.0603 0 .1059.0114.1199.015.0197.005.0345.0102.0416.0127.008.003.0138.0054.0167.0066.0031.0013.005.0022.0053.0023.0005.0003-.0016-.0007-.0071-.0035-.0053-.0027-.0123-.0064-.0214-.0112-.0375-.02-.0944-.052-.1708-.0963-.1517-.0878-.3647-.215-.6208-.3701-.5112-.3097-1.1848-.7254-1.8613-1.1472-.6765-.4219-1.3541-.8489-1.8731-1.1812-.2598-.1664-.4783-.308-.6365-.4129-.0794-.0527-.1413-.0946-.1848-.1251-.0617-.0432-.0508-.0392-.0242-.0126zm5.9236 3.6164c.282 0 .4262-.2042.4633-.2629.0497-.0784.0763-.1591.091-.2097.0315-.1087.0502-.234.0623-.3384.0251-.2154.0334-.4473.0334-.539h-1c0 .0584-.0067.2514-.0267.4236-.0103.0893-.0216.1484-.0295.1756-.005.0174-.0004-.0075.0246-.047.0133-.0209.0444-.0657.101-.1085.0616-.0467.1579-.0937.2806-.0937zm.65-1.35c0-.1525-.0696-.2583-.0814-.277-.0237-.0375-.0481-.0657-.0621-.0812-.0293-.0325-.061-.0613-.0851-.0824-.051-.0445-.1172-.0965-.19-.1515-.148-.1117-.3547-.259-.5968-.4271-.486-.3375-1.1328-.7716-1.7819-1.1995-.6494-.4281-1.304-.852-1.8061-1.1696-.2505-.1585-.4657-.2921-.6241-.3869-.0785-.047-.1476-.0871-.2019-.1166-.0263-.0143-.0559-.0298-.0846-.043-.0139-.0063-.0352-.0157-.0603-.0245-.008-.0029-.0814-.0307-.1757-.0307v1c-.0542 0-.0955-.0091-.1119-.013-.0202-.0048-.0355-.0099-.0435-.0128-.0159-.0056-.0258-.0102-.0259-.0102-.0011-.0005.0059.0028.0247.013.036.0195.091.0512.1656.0959.1479.0885.3549.2169.6031.3739.4954.3134 1.1445.7338 1.7902 1.1594.6459.4259 1.2853.8549 1.7619 1.1859.239.166.4327.3043.5647.404.0672.0507.1109.0858.1348.1067.0134.0116.0105.0101.0004-.001-.0043-.0048-.0213-.0237-.0401-.0535-.007-.0109-.074-.1105-.074-.2583zm-5.75-3.99c-.1314 0-.2306.0477-.2846.0799-.0569.0339-.1.0723-.1285.1006-.0569.0562-.1036.1196-.1378.17-.0709.1044-.1401.2311-.1967.3417-.0583.114-.1111.2263-.1488.309-.0191.0417-.0346.0765-.0454.1012-.0055.0123-.0098.0222-.0128.0291-.0015.0034-.0027.0062-.0035.0081-.0004.001-.0008.0018-.001.0023-.0001.0003-.0002.0006-.0003.0008 0 0-.0001.0001-.0001.0002 0 0 0 .0001-.0001.0001 0 0 0 .0001.4596.197.4596.197.4595.197.4595.197v.0001s.0001-.0001.0001-.0002c.0001-.0002.0003-.0007.0005-.0013.0006-.0012.0014-.0032.0026-.0059.0024-.0054.0059-.0136.0106-.0242.0094-.0213.0231-.0521.04-.0891.0341-.0748.0801-.1725.1293-.2685.0508-.0994.0979-.1828.1339-.2359.0192-.0283.0237-.0305.0133-.0202-.0054.0052-.0264.0256-.0626.0472-.0333.0199-.1134.061-.2272.061zm-.8536 1.6936.03.03.7072-.7071-.03-.03zm.4436-4.6436c-.1434 0-.2483.0574-.2986.09-.0552.0357-.0965.0754-.123.1034-.0534.0562-.0978.1195-.1307.1702-.0685.1054-.1368.2341-.1937.3478-.0584.1169-.1118.2323-.1501.3174-.0193.0429-.0351.0787-.0461.104-.0055.0127-.0099.0228-.0129.0298-.0015.0036-.0027.0063-.0036.0083-.0004.001-.0007.0018-.001.0023-.0001.0003-.0002.0006-.0003.0008 0 0 0 .0001-.0001.0002v.0001s0 0 .4601.1957.4601.1957.4601.1958c0-.0001 0-.0001.0001-.0003s.0003-.0007.0006-.0014c.0005-.0013.0014-.0034.0027-.0062.0024-.0057.0061-.0143.011-.0254.0097-.0223.0238-.0544.0413-.0932.0351-.0779.0824-.1801.1327-.2807.0518-.1037.1004-.1926.1379-.2503.02-.0308.0258-.0355.0176-.0268-.004.0041-.024.0251-.0595.0481-.0306.0198-.1174.0704-.2445.0704zm-.8536 1.7236c.0485.0485.1147.0944.1466.1166.0469.0328.1064.0724.1745.1168.1369.0893.32.205.5321.3369.4248.2643.974.5989 1.5204.9272.5463.3283 1.0919.6516 1.5094.8935.2083.1206.3873.2225.5195.2949.0655.0358.1239.0669.1706.09.0225.0112.0489.0238.075.0347.0127.0053.0325.0132.0559.0206.009.0029.075.0252.1596.0252v-1c.0808 0 .1411.0211.1424.0215.0157.005.0259.0093.0271.0098.0031.0013-.001-.0003-.0159-.0077-.0283-.014-.0727-.0375-.1343-.0712-.1217-.0666-.2926-.1638-.4987-.2832-.4113-.2382-.9519-.5585-1.4956-.8853-.5436-.3266-1.0881-.6583-1.5071-.919-.2098-.1306-.3861-.242-.5144-.3256-.0644-.042-.114-.0752-.1485-.0993-.0496-.0346-.0374-.0295-.0115-.0035zm4.7 1.85.03.03.7071-.7071-.03-.03zm-3.9264-6.6236c-.1358 0-.2374.0511-.2913.0843-.057.0352-.0999.0749-.128.1037-.0562.0575-.1023.1223-.1361.1739-.0702.1072-.1389.2374-.1954.3516-.0581.1176-.1107.2335-.1483.319-.019.043-.0345.079-.0453.1045-.0054.0127-.0097.0229-.0127.03-.0015.0035-.0026.0063-.0035.0083-.0004.001-.0007.0018-.001.0024-.0001.0003-.0002.0006-.0003.0007 0 .0001 0 .0002-.0001.0003v.0001s0 0 .462.1912.462.1912.462.1913 0-.0001 0-.0002c.0002-.0003.0003-.0007.0006-.0014.0005-.0013.0014-.0033.0026-.0062.0024-.0056.0059-.0141.0106-.0252.0095-.0221.0232-.0541.0402-.0926.0342-.0777.0803-.1792.1297-.2791.0511-.1033.0986-.1906.1353-.2466.0196-.0299.0246-.0331.0149-.0232-.0048.005-.0257.0261-.062.0485-.0332.0205-.1157.0647-.2339.0647zm-.8536 1.7236c.0465.0464.1054.088.1356.1093.0419.0295.0932.0637.1505.1009.1152.0748.2667.1695.4402.2759.3478.2132.7939.4794 1.2369.7391.4429.2598.8854.5147 1.2258.7053.1697.095.3172.1758.4278.2336.0546.0285.1053.0542.1474.0737.0204.0094.0457.0207.0719.0306.0129.0049.0326.012.0562.0185.0144.004.0699.0195.1413.0195v-1c.0676 0 .1178.0146.1253.0167.0167.0046.028.0089.031.01.0063.0024.0058.0025-.0052-.0026-.0207-.0096-.055-.0267-.1047-.0526-.0979-.0512-.2356-.1265-.4025-.2199-.3326-.1863-.7689-.4376-1.2085-.6954-.4395-.2577-.8796-.5203-1.22-.729-.1706-.1046-.3136-.1941-.4182-.262-.0526-.0342-.0924-.0609-.1199-.0802-.0391-.0275-.0277-.0225-.0038.0015zm3.84 1.34.03.03.7071-.7071-.03-.03zm-3.5713 22.9705c.9188.574 1.8717 1.0913 2.8536 1.5491l.4226-.9063c-.945-.4406-1.8621-.9385-2.7464-1.4909zm3.3039 1.5351c.3529-.1921.6366-.49.8113-.8518l-.9006-.4347c-.0837.1734-.2196.3161-.3887.4082zm-14.1657-25.2681c-1.5292-.1022-3.0366.4061-4.1917 1.4135l.6572.7536c.9556-.8334 2.2027-1.2539 3.4678-1.1693zm-4.1917 1.4135c-1.1552 1.0074-1.8637 2.4317-1.9704 3.9606l.9976.0696c.0882-1.2649.6744-2.4432 1.63-3.2766zm-1.9714 3.9822c-.0453 1.7157-.0019 3.5444.3488 5.1534.3495 1.6041 1.0212 3.0668 2.2961 3.9507l.5698-.8218c-.9752-.6761-1.5634-1.8483-1.8889-3.3418-.3243-1.4884-.3709-3.2198-.3262-4.9141zm2.6603 9.1144c.6435.4117 1.368.6802 2.1244.7874l.1403-.9901c-.6144-.0871-1.203-.3052-1.7258-.6397zm2.1244.7874c.7563.1073 1.5269.0506 2.2595-.166l-.2836-.959c-.5951.176-1.2211.222-1.8356.1349zm2.2595-.166c.7325-.2166 1.41-.5882 1.9864-1.0895l-.6563-.7546c-.4683.4073-1.0186.7092-1.6137.8851zm1.9864-1.0895c.5764-.5014 1.0383-1.1207 1.3544-1.8162l-.9104-.4138c-.2568.565-.632 1.0682-1.1003 1.4754zm1.3483-1.8033c.7383-1.5087 1.2329-4.2577.8102-6.7642-.2128-1.2613-.6634-2.4959-1.4657-3.4861-.8099-.9996-1.9592-1.7253-3.5118-1.9827l-.1636.9865c1.3124.2176 2.2431.8169 2.8985 1.6257.663.8183 1.063 1.8755 1.2565 3.0229.3898 2.3111-.0806 4.847-.7223 6.1583zm-22.6802-11.9232c-1.5503.2548-2.698.978-3.5068 1.9755-.8012.9881-1.2512 2.221-1.4639 3.4809-.4227 2.5041.0695 5.2523.8017 6.7649l.9001-.4357c-.6377-1.3175-1.1055-3.8542-.7157-6.1627.1935-1.1463.5929-2.2016 1.2545-3.0175.654-.8065 1.5826-1.4034 2.8923-1.6186zm-4.1746 12.2092c.3147.6969.776 1.3177 1.3523 1.8202l.6572-.7537c-.468-.4081-.8426-.9122-1.0981-1.4781zm1.3523 1.8202c.5764.5025 1.2543.8748 1.9875 1.0917l.2836-.959c-.5954-.1761-1.1459-.4784-1.6139-.8864zm1.9875 1.0917c.7333.2168 1.5046.273 2.2616.1648l-.1416-.9899c-.6146.0878-1.241.0422-1.8364-.1339zm2.2616.1648c.7569-.1082 1.4816-.3783 2.1247-.7919l-.5409-.8411c-.5222.3358-1.1107.5552-1.7254.6431zm2.1371-.8001c1.2814-.8789 1.9561-2.3428 2.3069-3.9481.352-1.6105.3954-3.4418.3501-5.1575l-.9996.0264c.0447 1.6944-.0019 3.428-.3274 4.9176-.3267 1.4946-.9171 2.6658-1.8956 3.3369zm2.6558-9.1291c-.1122-1.5237-.8211-2.9415-1.9727-3.9455l-.6571.7537c.953.8309 1.5396 2.0043 1.6325 3.2653zm-1.9727-3.9455c-1.1515-1.004-2.6527-1.5132-4.1775-1.4168l.0631.998c1.2619-.0797 2.5042.3416 3.4573 1.1725zm-4.1459-1.4178h-.02v1h.02zm38.28 19.4901c.0001.4525-.1032.8989-.302 1.3054l.8983.4393c.2657-.5433.4038-1.1401.4037-1.7449zm-.302 1.3054c-.1988.4064-.4878.7621-.8449 1.0398l.6138.7894c.4774-.3712.8637-.8466 1.1294-1.3899zm-.846 1.0406c-.2801.219-.6872.5939-1.7758 1.198-1.0991.6098-2.8938 1.4522-5.9191 2.5667l.3457.9384c3.0548-1.1254 4.9001-1.988 6.0585-2.6307 1.1688-.6485 1.6368-1.0736 1.9066-1.2846zm-7.6955 3.765c-4.0165 1.4861-8.1474 2.6426-12.3517 3.4581l.1904.9817c4.2576-.8258 8.4408-1.997 12.5083-3.5019zm-12.3177 3.4527c-.1888.0233-.3287.0416-.4494.056-.1203.0143-.1957.0213-.2463.023-.056.0019-.0408-.0049.0011.0086.0664.0213.1282.0681.1669.124l-.8222.5692c.0837.121.2017.2115.35.259.1238.0397.2465.0417.338.0386.177-.006.443-.0439.7843-.0859zm-.5277.2116c.0359.0518.0475.0936.0391.07-.0027-.0074-.0081-.024-.0163-.0525-.0159-.0558-.0361-.1363-.0587-.2362-.0451-.199-.0955-.4573-.1363-.7159-.0413-.2616-.0703-.5084-.0767-.6899-.0033-.0935.0002-.1482.0038-.1714.0019-.0121.0009.0039-.012.0341-.0104.0245-.0527.1157-.164.1835l-.52-.8542c-.1401.0853-.2061.2088-.2357.2782-.0322.0753-.0478.1492-.0566.206-.0177.1145-.0191.2416-.0149.3593.0086.2406.0446.5332.0883.8103.0442.2801.0988.56.1487.7807.0249.1099.0497.2097.0725.2897.0113.0396.0236.0798.0367.1163.0073.0204.0328.0931.0799.1612zm-.5163-1.5333c3.6131-1.2619 6.9446-3.2179 9.8071-5.7581l-.6638-.748c-2.765 2.4537-5.983 4.3431-9.473 5.562zm9.8207-5.7706c2.0467-1.9563 3.0709-3.2463 3.5582-4.1062.4717-.8323.5219-1.4178.2574-1.7999l-.8222.5692c-.0845-.122.1257-.0226-.3052.7376-.4151.7326-1.3559 1.9426-3.3792 3.8764zm3.7311-6.0001c-.2326-.2006-.5172-.3314-.8209-.3774l-.1495.9888c.1173.0177.2273.0683.3172.1458zm-.8209-.3774c-.3037-.0459-.6142-.0051-.8957.1178l.4.9165c.1088-.0475.2288-.0633.3462-.0455zm-1.0039.1823c-.2184.1709-4.3835 4.0812-13.0707 5.47l.1578.9875c4.4712-.7148 7.7925-2.0826 10.0313-3.3008 1.1191-.609 1.967-1.1802 2.5522-1.613.2927-.2164.5193-.3979.6808-.5318.0808-.0669.1449-.1216.1919-.1619.0243-.0209.0416-.0358.0562-.0482.0164-.014.0194-.0163.0168-.0143zm-13.0707 5.47c-4.3936.7024-7.4614.9267-10.0206.7833-2.5513-.143-4.6184-.6525-7.0136-1.4443l-.3139.9495c2.4448.8081 4.6028 1.3436 7.2715 1.4932 2.6608.1491 5.808-.0866 10.2344-.7942zm-17.0318-.6602c-2.6631-.8953-5.1616-2.2208-7.3963-3.9238l-.6061.7954c2.3215 1.7692 4.9171 3.1461 7.6838 4.0763zm-8.073-3.8583c-.4488.5048-.7817 1.1018-.9753 1.7489l.958.2867c.1518-.5074.4128-.9754.7647-1.3712zm-.9164 2.1634c1.1468 1.7765 2.6607 3.2869 4.4399 4.4295l.5404-.8414c-1.6591-1.0655-3.0708-2.4739-4.1401-4.1304zm4.4393 4.4291c1.4487.9335 3.0285 1.71 4.2127 2.2759.5995.2864 1.0847.5128 1.4172.6844.1691.0873.2747.1483.3295.1866.0324.0227.0155.0159-.0123-.0186-.0051-.0063-.1931-.2397-.0234-.5186l.8542.52c.1872-.3076-.0108-.5775-.0514-.628-.0634-.0788-.1413-.1373-.1935-.1739-.1143-.0801-.272-.1672-.4445-.2562-.3506-.1809-.8616-.4194-1.4447-.698-1.1807-.5642-2.7109-1.3177-4.1022-2.2142zm5.9528 2.567c-.7383.9708-1.5871 1.8522-2.5294 2.6264l.6348.7726c1.0023-.8235 1.9053-1.761 2.6906-2.7936zm-2.1073 2.5238c-3.6137-.774-7.163-1.8232-10.61678-3.1383l-.35587.9345c3.50145 1.3333 7.09965 2.397 10.76325 3.1816zm-10.60618-3.1342c-1.90255-.7745-2.9469-1.6323-3.5626-2.3798-.6203-.753-.82724-1.411-1.04611-1.9235l-.91964.3928c.19113.4475.45918 1.2746 1.19389 2.1665.73929.8975 1.92995 1.8448 3.95739 2.6702zm-4.60871-4.3033c.0011.0026-.00288-.0064-.00928-.0326-.00613-.025-.01293-.0593-.01969-.1043-.01359-.0906-.02487-.2101-.03254-.3598-.01533-.2992-.015-.6933.00184-1.1685.03363-.949.132-2.193.29042-3.5921.31699-2.7995.87099-6.1898 1.61329-9.0403l-.96772-.252c-.7577 2.9096-1.31871 6.3492-1.63922 9.1798-.16033 1.4159-.26133 2.6869-.29614 3.6691-.01738.4904-.01853.9161-.00116 1.2551.01604.3133.04993.6262.14056.8384zm1.84404-14.2976c.74612-2.8651 2.11738-7.3386 3.37986-11.1773.63095-1.9184 1.23309-3.6731 1.71459-4.9848.241-.6566.45-1.1971.6161-1.5899.0832-.1969.1532-.3506.2089-.4607.0665-.1312.087-.1469.0631-.1226l-.7128-.7013c-.1002.1017-.1824.2539-.2423.372-.0706.1392-.1506.3165-.238.5231-.1753.4145-.3906.9723-.63378 1.6348-.48693 1.3264-1.09296 3.093-1.72575 5.017-1.26503 3.8464-2.64377 8.3428-3.39764 11.2377zm5.98845-18.3414c-.0327.0343-.0553.0453-.0305.0295.0156-.0099.0427-.0257.084-.0477.0822-.0438.1995-.1011.351-.1711.3016-.1393.7165-.3186 1.2094-.5248.9846-.4118 2.2636-.9238 3.5333-1.424 1.2691-.5 2.5263-.9874 3.4664-1.3498.47-.1812.8607-.3311 1.1338-.4357.1365-.0523.2437-.0932.3167-.1211.0365-.014.0644-.0246.0832-.0318.0094-.0036.0166-.0063.0213-.0081.0024-.0009.0042-.0016.0054-.0021.0006-.0002.001-.0004.0013-.0005.0002-.0001.0003-.0001.0004-.0001 0-.0001.0001-.0001-.178-.46728-.1781-.46721-.1781-.46719-.1782-.46716s-.0002.00007-.0004.00013c-.0003.00012-.0007.00029-.0013.00053-.0013.00046-.0031.00116-.0055.00208-.0048.00184-.012.00458-.0215.00819-.0189.00722-.047.01794-.0836.03193-.0733.02798-.1807.06905-.3175.12146-.2737.10482-.665.25499-1.1358.43646-.9414.36296-2.2011.85116-3.4733 1.35246-1.2715.501-2.5581 1.0159-3.5526 1.4319-.4966.2077-.9246.3925-1.2428.5395-.1585.0732-.2954.1396-.4021.1965-.0531.0283-.1042.0571-.1491.0856-.0358.0227-.1016.0659-.1586.1258zm9.9977-4.55458c-.3314-.37445-.3314-.37443-.3314-.37438-.0001.00004-.0002.00011-.0003.00019-.0001.00018-.0004.00044-.0008.00078-.0008.00068-.002.00171-.0035.00306-.003.00271-.0076.00675-.0136.01207-.012.01065-.0299.02644-.0532.04704-.0465.04121-.1147.10168-.2017.17872-.1738.1541-.4223.37454-.7211.64-.5974.5309-1.3961 1.242-2.2005 1.9626-.8042.7203-1.6153 1.4513-2.2371 2.0214-.3106.2847-.5761.5312-.7704.7169-.0968.0926-.1788.1727-.2409.2361-.0309.0316-.0598.0621-.0845.0898-.0168.0188-.0574.0645-.0898.1185l.8575.5145c-.0211.0352-.0384.0517-.0206.0318.0098-.0112.0267-.0292.0522-.0552.0505-.0517.1232-.1229.2169-.2125.1869-.1785.4463-.4195.7554-.7028.6175-.5662 1.4251-1.294 2.2285-2.0137.8031-.7193 1.6007-1.4295 2.1976-1.9599.2984-.2651.5466-.4853.7202-.6392.0868-.0769.1549-.1373.2013-.17838.0232-.02056.041-.03631.053-.04691.006-.0053.0105-.00931.0136-.012.0015-.00134.0026-.00235.0034-.00303.0004-.00034.0007-.00059.0008-.00076.0001-.00008.0002-.00014.0003-.00018 0-.00004 0-.00006-.3313-.37452zm-6.9488 5.65278c-.0833.1388-.1435.321-.1826.4899-.0409.1772-.0689.3845-.0648.5898.0039.1953.0377.4437.1681.6596.1508.2495.4112.4179.7481.4179v-1c-.0004 0 .0061 0 .0176.0029.0119.003.026.0084.0405.0168.031.018.046.039.0497.0451.0001.0003-.0218-.045-.0242-.1623-.0021-.1072.0131-.2311.0393-.3445.0129-.0557.0273-.1039.041-.1419.0068-.0188.0128-.0335.0178-.0444.005-.0112.0077-.0155.007-.0144zm.7375 2.1525c.2675-.0372.5245-.1289.755-.2695l-.5207-.8537c-.1135.0692-.2401.1144-.3718.1327zm.755-.2695c.2306-.1406.4298-.3272.5852-.548l-.8178-.5755c-.0765.1087-.1746.2005-.2881.2698zm.1763-.8358c.317.3867.3168.3868.3166.387 0 0-.0001.0001-.0002.0002s-.0001.0001-.0001.0001c.0001-.0001.0005-.0004.0012-.001.0013-.0011.0039-.0032.0078-.0062.0076-.0061.0202-.0159.0377-.0293.035-.0268.0897-.0676.1641-.1205.149-.1057.3771-.2595.6854-.4449.6166-.3708 1.5538-.8678 2.8197-1.3593 2.5304-.9823 6.3802-1.9446 11.6165-1.8262l.0226-.9997c-5.3737-.1216-9.3539.8661-12.001 1.8937-1.3229.5136-2.3113 1.0365-2.9731 1.4345-.331.199-.5802.3667-.7489.4865-.0844.0599-.1486.1077-.1927.1415-.0221.0169-.0392.0303-.0513.0398-.006.0048-.0108.0087-.0144.0115-.0018.0015-.0032.0026-.0044.0036-.0006.0005-.0011.0009-.0015.0012-.0002.0002-.0004.0004-.0005.0005-.0003.0002-.0005.0004.3165.387zm15.6487-3.4001c5.2539.1188 8.9547.9799 11.3688 1.7809 1.2074.4007 2.0975.7877 2.7063 1.0643.2971.1349.5502.2544.7273.3288.0878.037.182.0738.2686.0966.0428.0113.1045.0249.1745.0272.0618.0021.1961-.0019.3298-.0894l-.548-.8365c.1155-.0757.2237-.0745.2512-.0735.0357.0011.0551.0073.0472.0052-.0148-.0039-.055-.0174-.1356-.0513-.16-.0673-.3803-.1717-.7014-.3176-.6274-.285-1.5523-.6873-2.805-1.1029-2.5058-.8315-6.305-1.7104-11.6611-1.8315zm15.6842 3.1117c.401-.4774.7324-1.0092.9844-1.5795l-.9146-.4042c-.2139.484-.4952.9353-.8356 1.3405zm.5271-1.7816c.4347-.247.4347-.247.4347-.247v-.0001c-.0001 0-.0001-.0001-.0002-.0002-.0001-.0003-.0003-.0006-.0006-.001-.0004-.0009-.0012-.0022-.0021-.0039-.002-.0034-.0048-.0084-.0085-.0149-.0075-.0131-.0184-.0322-.0323-.0566-.0278-.0487-.0676-.1185-.1159-.2028-.0966-.1686-.2272-.3956-.363-.6288-.1355-.2328-.2773-.4736-.3958-.6691-.1063-.1752-.2225-.3629-.2939-.4476l-.7649.6441c-.0039-.0047.0126.0166.0578.0868.0392.0609.0888.141.1459.2352.114.1879.2522.4228.3867.6537.1342.2306.2636.4555.3595.6228.0479.0837.0875.1529.115.2011.0137.0241.0245.043.0318.0558.0036.0064.0064.0113.0083.0146.0009.0017.0016.0029.0021.0037.0002.0004.0004.0007.0005.0009.0001.0001.0001.0002.0001.0003h.0001s0 0 .4347-.247zm-1.3259-1.4783c1.6141.5677 3.0717 1.5078 4.2546 2.744l.7225-.6914c-1.2915-1.3497-2.883-2.3761-4.6453-2.996zm4.2579 2.7474c.4432.4546 1.0165 1.2699 1.6595 2.3805.6381 1.1022 1.3293 2.4679 2.0131 4.0015 1.3681 3.0687 2.6963 6.7872 3.5077 10.3791l.9754-.2203c-.8286-3.6682-2.1804-7.4496-3.5698-10.566-.695-1.5588-1.4019-2.9569-2.061-4.0953-.6542-1.13-1.2771-2.0322-1.8089-2.5776zm7.1803 16.7611c1.6406 7.2628 2.0832 11.507 1.9789 13.0051l.9976.0694c.1157-1.6618-.3617-6.0377-2.0011-13.2948zm1.9777 13.0398v.02h1v-.02zm-6.57-1.36c-.1189 0-.2111.0393-.2658.0693l.4817.8764c-.0369.0203-.1124.0543-.2159.0543zm-.2481.955c1.6406.818 3.2356 1.7245 4.7778 2.7157l.5406-.8413c-1.5727-1.0107-3.1991-1.9352-4.8722-2.7693zm-.2519.405c.4612.1931.4612.1931.4612.1931v.0001s0-.0001 0-.0002c.0001-.0002.0003-.0006.0005-.0011.0005-.0012.0013-.003.0023-.0055.0021-.0049.0053-.0124.0095-.0222.0084-.0196.0208-.0481.0361-.0827.0309-.0696.0731-.162.1191-.2555.0469-.0956.0934-.1832.1329-.2472.02-.0324.0328-.0499.0379-.0563.0141-.0174-.0142.025-.0836.0632l-.4817-.8764c-.1078.0593-.1797.1441-.2126.1849-.0418.0518-.0794.1082-.1111.1596-.064.1038-.1267.224-.1793.331-.0536.1091-.1014.214-.1356.2911-.0172.0387-.0311.0709-.0409.0936-.0049.0114-.0088.0205-.0114.0268-.0014.0032-.0024.0057-.0032.0075-.0004.0009-.0007.0016-.0009.0021-.0001.0003-.0002.0005-.0003.0007 0 .0001 0 .0001-.0001.0002v.0001s0 .0001.4612.1931zm.6981-1.3c-.005-.0025-.0101-.005-.0152-.0075l-.4458.8951c.0049.0024.0098.0049.0149.0074zm2.5098-14.8815c-.01-.0075-.0202-.015-.0304-.0226l-.5951.8037c.0098.0073.0197.0146.0297.022zm-.8279.3732c-.0007.0556-.0154.2422-.0445.4137-.0147.087-.0291.1445-.0383.1709-.0057.0165-.0002-.0062.0251-.0424.0133-.0191.0442-.0594.0982-.0981.0578-.0414.1502-.0858.2695-.0858v1c.2694 0 .4138-.1887.4517-.2429.0518-.074.0821-.151.0995-.2009.0372-.1063.0626-.2293.0802-.3336.0359-.2114.0571-.4509.0585-.5688zm-3.9461-2.2864c1.4367.8122 2.8222 1.712 4.1485 2.6943l.5951-.8037c-1.3592-1.0066-2.779-1.9287-4.2514-2.7611zm4.946 2.2988c.0001-.0049.0001-.0095.0001-.0141h-1v.0014zm-1.1018-3.9379c-.0103-.008-.0205-.016-.0307-.0239l-.6149.7886c.0099.0076.0197.0153.0294.0229zm-.8381.367c-.0004.061-.0095.2427-.0314.403-.0114.0832-.023.1351-.0298.1564-.0046.014.0018-.0131.0297-.0537.0181-.0264.1352-.1889.3715-.1889v1c.2659 0 .4101-.1828.4531-.2455.0527-.0768.0817-.1561.0976-.2057.0341-.106.0549-.2271.0686-.327.0282-.2059.04-.4309.0406-.5318zm-3.0839-1.7767c1.1459.6403 2.2413 1.3672 3.2764 2.1744l.6149-.7886c-1.0753-.8385-2.2131-1.5936-3.4035-2.2588zm4.0838 1.7834c.0001-.0026.0001-.0061.0001-.0099h-1v.0032zm-3.4266 22.4567c-.0342.0206-.1164.0634-.2333.0634v-1c-.1317 0-.2303.0485-.2822.0797zm-.3914-.9109-.0245.0081.3163.9487.0244-.0081zm-.1348.0607-.0041.0025.537.8436.004-.0025zm.0481.8752c.9999.4796 1.954 1.0495 2.8504 1.7026l.5888-.8083c-.9455-.6888-1.9519-1.29-3.0066-1.796zm-.2552.4084c.4601.1957.4601.1957.4601.1957v.0001s0-.0001.0001-.0002c0-.0002.0002-.0006.0005-.0012.0005-.0011.0012-.003.0023-.0054.0021-.005.0054-.0125.0096-.0223.0085-.0196.021-.048.0365-.0825.0311-.0694.0736-.1619.1198-.2562.0471-.0959.0943-.1859.135-.2536.0205-.0342.0349-.0551.0428-.0655.015-.0198-.0043.0119-.0566.047l-.5572-.8304c-.0894.0601-.1513.1373-.1823.1781-.0382.0503-.0734.105-.1041.1561-.0617.1027-.123.2213-.1753.3277-.053.1081-.1006.2118-.1347.2879-.0171.0383-.0311.07-.0408.0924-.0049.0112-.0087.0201-.0114.0263-.0013.0031-.0024.0055-.0031.0073-.0004.0009-.0007.0015-.0009.0021-.0001.0002-.0002.0004-.0003.0006 0 .0001 0 .0001-.0001.0002v.0001s0 0 .4601.1957zm.6874-1.3103-.0016-.0007-.4317.902.0016.0008zm-.0594.9247.0056-.0019-.3161-.9487-.0055.0018zm-10.138-11.3644.8155.5788.0304-.0429.0258-.0458zm-2.32-6.76-.1738.9848.0368.0065.0372.0037zm3.08 2.22.9837-.1795-.0217-.1192-.0496-.1105zm-17.95 4.97v-1h-.3714l-.2814.2425zm-4.45-.13-.8682.4963.0236.0412.0273.0388zm-.76-4.54-.9119-.4103-.0485.1077-.0221.1162zm3.07-2.22.104.9946.0314-.0033.0311-.0052zm2.16 6.89v1h.3752l.2826-.2468zm37.8 2.21-.9911.1334.0001.0009zm-25.04-30.35998.5046-.86336-.0329-.01921-.0342-.01666zm3.59 1.63998.3453-.9384-.0114-.0043-.0116-.0039zm2.87 1.71-.2795.9602 2.1228.6178-.9377-2.0021zm-11.33-2 .0662-.99778-.0193-.00128-.0194-.00054zm-9.63 1.22-.5159-.8566.7918 1.8178zm-13.89001 1.08-.94636-.3231-.00146.0043zm15.46001 41.98.9387.3448.0553-.1507.0054-.1606zm-.24-3.11.9825-.1864-.0453-.2384-.1494-.1911zm-3.66-1.64-.3336.9427.0069.0025.0069.0023zm-5.42-3.23.5129-.8584-1.1833 1.6004zm29.69.73.6042.7969-1.0447-1.6947zm-4.12 2.32-.3681-.9298-.013.0052-.0128.0055zm-5.24 1.76-.2408-.9706-.0382.0095-.0372.0124zm5.5145-15.3187c-.3853.5428-.8166.7297-1.2392.7338-.4629.0044-1.0731-.2122-1.7402-.7906l-1.3102 1.5111c.9129.7915 1.9777 1.2899 3.0697 1.2794 1.1325-.0109 2.1361-.5691 2.8509-1.5762zm-2.9794-.0568c-.4604-.3992-.7317-1.2733-.8074-2.3897-.0708-1.043.0461-1.9987.0754-2.2479l-1.9863-.2337c-.0306.2607-.1688 1.375-.0845 2.617.0793 1.1687.373 2.7946 1.4926 3.7654zm-.732-4.6376c-.0098.0838-.0315.1431-.0444.1733-.0133.0312-.0241.0473-.0245.0479-.0009.0014.0038-.0058.0168-.0208.0129-.0148.0314-.0344.0565-.0581.1056-.0999.2809-.229.5124-.3494.4756-.2471 1.0341-.3801 1.5163-.295l.3476-1.9696c-1.0478-.1849-2.0593.1122-2.7862.49-.3698.1922-.7038.4243-.9648.6713-.1302.1232-.2579.2649-.363.4227-.0973.146-.2198.3717-.253.654zm2.1071-.4919c.4883.049.955.2258 1.3531.5128l1.1694-1.6225c-.6834-.4926-1.4847-.7962-2.323-.8803zm1.3531.5128c.3981.2869.7134.6737.9143 1.1215l1.8248-.8185c-.3448-.7687-.8862-1.4329-1.5697-1.9255zm.8429.8917c.242 1.3262.0128 2.6953-.6479 3.8704l1.7434.9802c.8893-1.5817 1.1978-3.4245.872-5.2096zm-17.619 4.033c-.6741.5808-1.2845.7965-1.7447.7913-.4183-.0047-.848-.1909-1.2353-.74l-1.6345 1.1525c.7128 1.0108 1.7131 1.5746 2.8473 1.5874 1.0922.0123 2.1569-.487 3.0727-1.2761zm-2.929.1313c-.6676-1.1679-.8966-2.5357-.6457-3.8573l-1.965-.3729c-.3396 1.7894-.0296 3.6414.8743 5.2227zm-.7163-3.6334c.201-.4467.5157-.8329.9127-1.1199l-1.172-1.6207c-.6805.4921-1.2199 1.1541-1.5645 1.9199zm.9127-1.1199c.3969-.2871.8622-.4649 1.3494-.5159l-.208-1.9892c-.8352.0874-1.6329.3923-2.3134.8844zm1.4119-.5244c.4885-.0825 1.049.0549 1.5251.3038.2318.1213.4079.2509.5144.3511.0253.0238.044.0435.0571.0583.0133.0152.0181.0224.0172.0211-.0004-.0006-.0115-.0169-.0255-.0488-.0133-.0305-.0366-.0922-.0474-.18l1.9852-.2431c-.0347-.2835-.1606-.5082-.2561-.6492-.1045-.1545-.2311-.2936-.36-.4149-.2586-.2433-.59-.4743-.9581-.6668-.724-.3785-1.7334-.6811-2.7849-.5036zm2.0409.5055c.0296.2415.1534 1.1969.0894 2.2437-.0319.523-.1091 1.0338-.2506 1.4707-.1428.4407-.3311.7449-.544.9309l1.3156 1.5063c.5771-.504.9213-1.1736 1.131-1.8207.2109-.651.3063-1.342.3443-1.9653.0761-1.2457-.0701-2.3603-.1005-2.6087zm-.0474 4.3984h-.02v2h.02zm38.7911 3.0766c-.4047-3.0069-1.7018-8.9148-3.7306-14.5942-1.0153-2.8421-2.2241-5.6564-3.6125-8.0335-1.3771-2.3576-2.986-4.382-4.8422-5.5295l-1.0516 1.7012c1.4438.8926 2.8511 2.5844 4.1668 4.8371 1.3044 2.2332 2.465 4.9233 3.456 7.6975 1.9837 5.5531 3.2466 11.3251 3.6319 14.1882zm-12.1853-28.1572c-3.3681-2.08206-6.7297-3.57135-9.2723-4.52449-1.272-.47685-2.3465-.8223-3.1228-1.04196-.3864-.10932-.7091-.19036-.9506-.24074-.1178-.02457-.2353-.0459-.3395-.05777-.0492-.0056-.1226-.01238-.204-.01085-.04.00076-.107.00383-.1864.0186-.0587.01092-.235.04663-.4157.17715l1.171 1.62136c-.1751.12646-.3426.15903-.3895.16775-.0676.01257-.1196.01437-.1417.01479-.0454.00085-.0708-.00287-.0601-.00166.0155.00177.0647.00913.1575.02849.1796.03746.4537.10526.8145.20734.718.20315 1.7398.53083 2.9653.99023 2.4524.91935 5.6907 2.35506 8.9227 4.35296zm-14.4913-5.68006c-.2507.18104-.3492.42629-.3686.47212-.0393.09295-.0645.18238-.0808.2481-.0336.1357-.0579.28829-.076.43384-.0371.29746-.0605.66403-.0653 1.02464-.0047.35597.0082.74511.0553 1.07742.023.16199.0599.35307.1263.53341.0434.118.1949.51503.6171.72043l.875-1.79851c.1835.08931.2828.21456.3233.2736.0428.06229.0594.1081.0614.11347.0034.0092-.0089-.02479-.0229-.12358-.0269-.18926-.0397-.46449-.0356-.76978.0039-.30064.0237-.59219.05-.80379.0136-.10899.0261-.17366.0326-.19972.0038-.01516-.0005.00727-.0183.04938-.0091.02153-.0294.06652-.0649.12149-.0312.0483-.1052.15318-.2376.24884zm.1409 4.47406c1.1965.6993 2.4603 1.2766 3.7723 1.7233l.6446-1.8933c-1.1852-.40349-2.3268-.92501-3.4077-1.55674zm3.7492 1.7151c1.1817.4349 1.8026.8184 2.107 1.0532.151.1166.2213.1943.2435.221.0111.0133.0105.0142.0022.0013-.0041-.0065-.0101-.0163-.0174-.0295-.0037-.0067-.0077-.0142-.012-.0226-.0021-.0042-.0043-.0086-.0066-.0132-.0011-.0023-.0022-.0047-.0034-.0071-.0006-.0012-.0012-.0024-.0017-.0037-.0003-.0006-.0008-.0015-.0009-.0018-.0005-.001-.0009-.0019.9047-.4261.9056-.4241.9051-.4251.9047-.426-.0002-.0003-.0006-.0013-.0009-.0019-.0006-.0013-.0012-.0026-.0019-.0039-.0012-.0027-.0025-.0053-.0038-.008-.0027-.0054-.0054-.011-.0083-.0167-.0059-.0114-.0123-.0234-.0192-.0361-.014-.0253-.0304-.053-.0495-.0828-.0383-.0597-.0874-.1277-.15-.2028-.1252-.1502-.3038-.3275-.5577-.5235-.5056-.3901-1.3197-.8616-2.6381-1.3467zm3.4948-.1886c-3.7626-1.0951-7.6331-1.77831-11.5432-2.03768l-.1324 1.99558c3.7657.2498 7.4931.9078 11.1167 1.9624zm-11.5819-2.0395c-3.3561-.09248-6.7064.33197-9.9335 1.2585l.5519 1.9223c3.0299-.8699 6.1755-1.2684 9.3265-1.1816zm-9.6575 2.2196c.5159.8567.5159.8567.5159.8567 0-.0001.0001-.0001.0001-.0001.0001-.0001.0002-.0001.0004-.0003.0004-.0002.0009-.0005.0016-.0009.0013-.0008.0034-.002.006-.0036.0053-.0032.0131-.0079.0232-.014.0203-.0123.0501-.0302.0879-.0531.0757-.0457.184-.1112.3144-.1903.2607-.1581.6107-.3711.9667-.59.3552-.2184.7202-.4449 1.0094-.6294.1439-.0918.2745-.1766.3776-.2464.0623-.0422.2185-.1461.3239-.2515l-1.4142-1.41418c.0604-.06042.0916-.07337-.0304.00917-.0812.05491-.1942.12855-.3325.21672-.2751.17552-.629.39524-.9813.61189-.3514.216-.6977.4268-.9564.5837-.1292.0784-.2364.1432-.3113.1884-.0374.0226-.0667.0403-.0866.0523-.01.006-.0176.0106-.0227.0137-.0025.0015-.0045.0027-.0057.0034-.0007.0004-.0011.0007-.0015.0009-.0001.0001-.0002.0002-.0003.0002h-.0001c0 .0001 0 .0001.5159.8567zm3.6271-1.1229c.2382-.2382.289-.5201.3017-.5906.0209-.1159.0238-.22319.0228-.30099-.0019-.16057-.0229-.33418-.0507-.49801-.0566-.33421-.1609-.74013-.3051-1.14025-.1419-.39375-.3406-.83292-.6056-1.20261-.2421-.33756-.6767-.80811-1.3387-.89593l-.263 1.98263c-.1721-.02282-.1641-.11713-.0237.07875.1174.16375.2413.41521.3494.7152.1058.29363.179.58459.2148.79632.0185.10914.0226.17076.0228.18844.0001.01132-.0016-.02111.0088-.07879.0022-.01231.0365-.2526.2523-.46834zm-1.9756-4.62839c-.1574-.02088-.3011-.007-.3811.00264-.0959.01155-.1954.02979-.2913.05016-.1924.04089-.4223.10159-.675.17477-.5082.14717-1.1654.36146-1.9112.6182-1.4948.51457-3.3891 1.21468-5.2513 1.92945-1.8625.71493-3.7026 1.44827-5.0895 2.03027-.6917.2902-1.28046.5469-1.70564.747-.21003.0988-.39667.1914-.54066.2723-.0694.0389-.15157.0877-.228.143-.03727.0269-.09438.0705-.15364.129-.03751.0371-.1811.1788-.26052.4114l1.89266.6463c-.075.2198-.2073.3461-.2268.3654-.04132.0408-.07374.0642-.07984.0686-.01408.0102-.00794.0045.03524-.0198.0812-.0456.2169-.1143.4129-.2065.3869-.182.9452-.4259 1.6282-.7125 1.3625-.5718 3.1824-1.2972 5.0323-2.0073 1.8503-.7102 3.721-1.40135 5.1856-1.90553.7339-.25264 1.355-.45459 1.8165-.58821.232-.06721.4098-.11303.5344-.13951.0626-.01331.0991-.01896.1148-.02085.0315-.0038-.025.00709-.1211-.00566zm-16.48933 6.51249c-.37474 1.1141-2.6902 8.2614-4.82572 15.9512l1.92707.5352c2.12448-7.6501 4.42902-14.7629 4.79428-15.8488zm-4.82572 15.9512c-2.13541 7.6895-3.4536718 15.1181-3.51626309 18.2476l1.99960309.04c.05741-2.8704 1.31915-10.1019 3.44373-17.7524zm-3.51626309 18.2476c-.03133731 1.5669.12062909 3.0705.94010509 4.4575.819408 1.3868 2.221068 2.5164 4.394428 3.5376l.85054-1.8101c-1.97665-.9288-2.98499-1.8342-3.52308-2.7449-.53802-.9106-.69106-1.9669-.66239-3.4001zm5.33453309 7.9951c2.12939 1.0005 5.53948 2.2579 8.48988 3.2514 1.4808.4986 2.861.9359 3.9252 1.2459.5308.1547.9922.2804 1.3521.3664.179.0429.344.0785.4855.1029.1109.0191.3035.0497.4893.0354l-.1534-1.9941c.0883-.0068.1167.0072.0036-.0123-.0826-.0142-.2018-.0392-.36-.077-.3148-.0753-.7412-.1909-1.2577-.3414-1.0304-.3003-2.3833-.7286-3.8463-1.2212-2.9371-.9891-6.25704-2.2167-8.27764-3.1661zm14.74198 5.002c.334-.0257.6469-.1871.8261-.2857.2242-.1234.4707-.2844.7197-.4601.5009-.3536 1.0782-.8138 1.6247-1.2777.5478-.4651 1.0806-.9474 1.4933-1.3508.2052-.2005.3903-.3908.5353-.5551.0721-.0816.1435-.1672.2054-.2515.0477-.0648.1449-.2011.2075-.3714l-1.8774-.6896c.0401-.109.0866-.1617.0585-.1236-.0137.0186-.0429.0553-.0932.1124-.0997.1129-.2464.2652-.434.4485-.373.3645-.8701.8153-1.3898 1.2564-.5211.4424-1.0488.8615-1.4835 1.1683-.2188.1544-.3977.2688-.5308.342-.1781.098-.1542.0545-.0152.0438zm5.6727-4.8636c.0374-1.116-.0487-2.2328-.2569-3.3299l-1.965.3729c.1807.9521.2555 1.9214.223 2.89zm-1.2394-3.1435c.7878-.6159.787-.6169.7862-.618-.0003-.0003-.0011-.0013-.0017-.002-.001-.0014-.0021-.0028-.0032-.0042-.0022-.0027-.0045-.0055-.0067-.0082-.0045-.0055-.0091-.011-.0138-.0166-.0094-.011-.0192-.0221-.0294-.0333-.0205-.0223-.0428-.045-.0673-.0683-.0489-.0464-.1076-.0963-.1789-.1502-.1416-.107-.3423-.2369-.6319-.392-.577-.309-1.548-.7394-3.1936-1.2947l-.6395 1.895c1.5845.5347 2.4435.9243 2.889 1.1628.2217.1187.3303.1944.3703.2246.0195.0147.0195.0163.0068.0043-.0064-.0062-.0164-.016-.029-.0298-.0063-.0068-.0133-.0147-.0208-.0236-.0038-.0045-.0077-.0092-.0118-.0141-.002-.0025-.0041-.0051-.0062-.0077-.001-.0013-.0021-.0026-.0031-.004-.0005-.0007-.0013-.0017-.0016-.002-.0008-.001-.0016-.0021.7862-.618zm-3.3264-2.5827c-1.8777-.6644-3.6053-1.6939-5.0832-3.0293l-1.3408 1.484c1.6737 1.5123 3.6303 2.6783 5.7568 3.4307zm-5.7536-2.2873c-.5129.8585-.5127.8586-.5124.8587.0001.0001.0003.0003.0006.0004.0005.0003.001.0007.0017.0011.0014.0008.0033.0019.0055.0032.0045.0027.0107.0064.0187.011.0159.0094.0385.0226.0678.0395.0586.0338.1435.0823.2533.1433.2195.122.5383.2945.9434.5006.8096.412 1.9666.9603 3.3654 1.5104 2.7857 1.0953 6.5871 2.2204 10.5381 2.2518l.0158-1.9999c-3.609-.0287-7.1526-1.0636-9.822-2.1132-1.3286-.5225-2.4266-1.0429-3.1901-1.4315-.3816-.1942-.6788-.355-.8788-.4662-.0999-.0556-.1755-.0987-.2251-.1273-.0248-.0144-.0431-.025-.0546-.0318-.0058-.0034-.0099-.0059-.0123-.0073-.0012-.0007-.002-.0012-.0024-.0014-.0001-.0001-.0002-.0001-.0002-.0001.0001 0 .0002.0001.0002.0001.0001.0001.0003.0002-.5126.8586zm14.6821 5.32c3.9293.0312 7.7935-.8992 10.6499-1.8208 1.4339-.4626 2.6267-.9273 3.4633-1.2773.4186-.1751.7486-.3218.9758-.4256.1136-.0519.2015-.0931.262-.1218.0302-.0143.0536-.0255.0699-.0334.0082-.0039.0145-.007.0191-.0092.0023-.0012.0041-.0021.0055-.0027.0007-.0004.0013-.0007.0018-.0009.0002-.0001.0005-.0002.0006-.0003.0002-.0001.0004-.0002-.44-.898-.4405-.8978-.4403-.8978-.4402-.8979h.0001c0-.0001-.0001 0-.0003.0001-.0004.0002-.0013.0006-.0026.0013-.0026.0013-.007.0034-.0132.0064-.0123.0059-.0316.0152-.0577.0276-.0522.0247-.1315.0619-.2361.1097-.2092.0956-.5195.2335-.9166.3997-.7947.3325-1.9343.7765-3.3055 1.2189-2.7535.8884-6.3893 1.7531-10.02 1.7243zm14.4037-5.3868c-1.1894.9018-2.496 1.6376-3.8839 2.187l.7362 1.8596c1.5566-.6162 3.0221-1.4414 4.3561-2.4529zm-3.9097 2.1977c-1.6468.7057-3.348 1.2771-5.0869 1.7085l.4816 1.9412c1.8436-.4574 3.6472-1.0632 5.3931-1.8114zm-5.1623 1.7304c-.2838.0946-.4488.2822-.5268.3905-.0816.1132-.1281.2224-.154.2923-.052.1405-.0787.2827-.0946.3883-.0335.2222-.0489.4935-.0552.7713-.0129.5663.0096 1.2947.0523 2.0189.0428.7266.1073 1.4716.1823 2.075.0373.3002.0788.5785.1242.8075.0225.1138.0486.2285.0792.3338.0249.0859.0737.2415.1643.3905l1.709-1.0388c.0519.0853.0615.1392.0472.0903-.0085-.0294-.0216-.0825-.0379-.1645-.0322-.1629-.0669-.3887-.1013-.6655-.0684-.5507-.1296-1.2513-.1705-1.946-.0411-.697-.0605-1.3655-.0493-1.8557.0057-.2506.0188-.4224.0334-.5188.0081-.0538.0103-.0398-.0077.0086-.0088.0239-.0369.096-.0987.1819-.0583.0808-.2022.2507-.4635.3378zm-.2283 7.4681c.3772.6206 1.1565 1.1401 2.7413 1.3005 1.5622.1582 4.0725-.0095 8.1949-.9026l-.4234-1.9546c-4.0477.8769-6.3174.9942-7.5701.8674-1.2302-.1245-1.3009-.4601-1.2337-.3495zm10.9362.3979c8.3471-1.8083 12.4569-4.7532 14.8353-6.9413l-1.3541-1.4719c-2.1215 1.9518-5.9117 4.727-13.9046 6.4586zm14.8353-6.9413c2.6101-2.4013 3.5302-6.2601 2.7239-12.2103l-1.9819.2686c.7738 5.7098-.2061 8.731-2.0961 10.4698z" mask="url(#a)"/></g><path clip-rule="evenodd" d="m60.89 45.2742c.0001.5286-.1206 1.0503-.3528 1.5251-.2323.4749-.5699.8904-.9872 1.2149-.55.43-1.75 1.6-7.83 3.84-4.042 1.4955-8.1991 2.6594-12.43 3.48-.73.09-.91.13-1 0s-.5-2.15-.27-2.29c3.5515-1.2404 6.8263-3.1631 9.64-5.66 4.07-3.89 3.93-5 3.75-5.26-.1613-.1391-.3585-.2298-.5691-.2616-.2105-.0319-.4258-.0036-.6209.0816-.23.18-4.48 4.16-13.3 5.57s-12.43.92-17.27-.68c-2.7149-.9127-5.2619-2.2639-7.54-4-.4003.4503-.6973.9828-.87 1.56 1.108 1.7166 2.5708 3.1759 4.29 4.28 2.84 1.83 6.22 3.06 6.08 3.29-.7618 1.0016-1.6377 1.9111-2.61 2.71-3.6387-.7793-7.2124-1.8357-10.69002-3.16-3.93-1.6-4.47-3.61-4.88-4.57s.32-8.86 1.82-14.62 5.50002-17.94 6.11002-18.56c.39-.41 10.36-4.21 10.36-4.21s-6.34 5.61-6.52 5.91-.37 1.4.24 1.4c.1996-.0277.3913-.0962.5634-.2011.172-.1049.3206-.2441.4366-.4089 0 0 5.05-4.14 15.66-3.9s15 3.48 15.29 3.29c.3707-.4413.677-.9329.91-1.46 0 0-1-1.76-1.16-1.95 1.6882.5938 3.2127 1.577 4.45 2.87 1.95 2 5.67 9.74 7.31 17s2.1 11.57 1.99 13.15zm-50.06-21.81c.73-2.19 1.05-2.74 1.23-2.79.18-.09 1.18.14 1.14.37s-1.59 3.43-2.28 5.67-.64 2.56-.87 2.69c-.21783.0324-.44037.0026-.64203-.0858-.20167-.0885-.37428-.232-.49799-.4142-.08-.22 1.19002-3.25 1.92002-5.44zm41.66 23.65s.37-.87.51-.87c1.3821.7269 2.7179 1.5385 4 2.43-.1003.2579-.2786.4782-.51.63-.13 0-3.81-2.01-4-2.19zm1.33-2.72c-.0077 0-.0161.0026-.025.0075 1.6568.8261 3.2675 1.7416 4.825 2.7425-.1169.2795-.3202.5143-.58.67-.12 0-4.54-2.37-4.72-2.56 0 0 .3215-.7681.475-.8525-.005-.0025-.01-.005-.015-.0075zm5.5 1.96c-.12 0-5-2.56-5.18-2.74h-.04s.4-.87.54-.87 5.26 2.79 5.26 2.94c-.1169.2795-.3202.5143-.58.67zm-.8-3.63c-.13 0-6.34-3.86-6.52-4.05 0 0 .36-.87.5-.87s6.59 4.1 6.59 4.25c-.1105.2803-.311.516-.57.67zm.18-2.62c-.12 0-6.12-3.74-6.31-3.92l-.03-.03s.31-.84.49-.84 6 3.79 6 3.94-.03.85-.15.85zm-.98-3.35c-.12 0-5.88-3.56-6.06-3.74l-.03-.03s.39-.84.53-.84 5.72 3.61 5.72 3.76-.04.85-.16.85zm-.21-2.74c-.12 0-5.39-3.29-5.57-3.47l-.03-.03s.36-.84.5-.84 5.25 3.34 5.25 3.49-.03.85-.15.85zm-1.28-4.54c-.01-.0074-.02-.0149-.0301-.0223-.0021.1736-.0718.8523-.1899.8523-.12 0-4.33-2.53-4.51-2.71 0 0 .37-.87.5-.87 1.4546.8223 2.8572 1.7333 4.1999 2.7277.0001-.0027.0001-.0053.0001-.0077zm-.94-3.56c-.01-.0078-.02-.0156-.03-.0235-.0011.162-.0417.8135-.16.8135-.12 0-3.5-1.98-3.68-2.16 0 0 .36-.87.5-.87 1.1682.6527 2.2847 1.3937 3.34 2.2165 0-.0022 0-.0044 0-.0065zm-3.2144 22.0081c.0088-.0053.017-.0081.0244-.0081l-.0244.0081-.0041.0026c1.0273.4929 2.0075 1.0784 2.9285 1.7493-.1292.2676-.339.4879-.6.63-.9634-.4492-1.8985-.9568-2.8-1.52 0 0 .3231-.7597.4715-.8593l-.0015-.0007zm-15.4654-20.6567c1.0553-.9204 2.4326-1.3848 3.8298-1.2914 5.73.95 5.18 8.7 3.8 11.52-.2865.6302-.705 1.1915-1.2274 1.6458-.5223.4543-1.1362.791-1.8.9873-.6639.1963-1.3622.2476-2.0476.1505-.6854-.0972-1.3419-.3405-1.925-.7136-2.25-1.56-2.52-5.27-2.43-8.68.0975-1.3969.7448-2.6982 1.8002-3.6186zm-18.3202 10.5286c-1.37-2.83-1.92-10.57 3.8-11.51h.02c1.3933-.0881 2.7651.3772 3.8173 1.2946 1.0523.9175 1.7001 2.2131 1.8027 3.6054.09 3.41-.18 7.13-2.44 8.68-.5827.3747-1.2393.6195-1.9251.7175-.6858.0981-1.3847.0471-2.049-.1493-.6643-.1965-1.2785-.5338-1.8007-.9891s-.9401-1.0177-1.2252-1.6491z" fill="#808aff" fill-rule="evenodd"/></svg>