<?xml version="1.0" ?><svg height="64" viewBox="0 0 64 64" width="64" xmlns="http://www.w3.org/2000/svg"><path d="m12.06 20c-.18.05-.5.6-1.23 2.79s-2 5.22-1.92 5.44a1.17 1.17 0 0 0 1.14.5c.23-.13.18-.45.87-2.69s2.24-5.44 2.28-5.67-.96-.46-1.14-.37zm40.94 25.57c-.14 0-.51.87-.51.87.19.18 3.87 2.19 4 2.19a1.33 1.33 0 0 0 .51-.63 37.94 37.94 0 0 0 -4-2.43zm.82-1.85c-.14 0-.5.86-.5.86.18.19 4.6 2.56 4.72 2.56a1.42 1.42 0 0 0 .58-.67 51.1 51.1 0 0 0 -4.84-2.75zm.32-.78c.18.18 5.06 2.74 5.18 2.74a1.42 1.42 0 0 0 .58-.67c0-.15-5.12-2.94-5.26-2.94s-.54.87-.54.87zm-2.14-4.94c.18.19 6.39 4.05 6.52 4.05a1.36 1.36 0 0 0 .57-.67c0-.15-6.45-4.25-6.59-4.25s-.5.87-.5.87zm.39-2.49c.19.18 6.19 3.92 6.31 3.92s.15-.7.15-.85-5.82-3.94-6-3.94-.49.84-.49.84zm-.73-3.17c.18.18 5.94 3.74 6.06 3.74s.16-.7.16-.85-5.58-3.76-5.72-3.76-.53.84-.53.84zm.28-2.47c.18.18 5.45 3.47 5.57 3.47s.15-.7.15-.85-5.11-3.49-5.25-3.49-.5.84-.5.84zm4.29-1.07a40.77 40.77 0 0 0 -4.23-2.75c-.13 0-.5.87-.5.87.18.18 4.39 2.71 4.51 2.71s.19-.7.19-.86zm-.94-3.56a26.27 26.27 0 0 0 -3.37-2.24c-.14 0-.5.87-.5.87.18.18 3.56 2.16 3.68 2.16s.16-.67.16-.82zm-3.19 22c-.13 0-.5.87-.5.87a26.11 26.11 0 0 0 2.8 1.52 1.42 1.42 0 0 0 .6-.63 18.74 18.74 0 0 0 -2.93-1.75zm-11.66-21.94a5.29 5.29 0 0 0 -5.63 4.91c-.09 3.41.18 7.12 2.43 8.68a4.83 4.83 0 0 0 7-2.07c1.38-2.82 1.93-10.57-3.8-11.52zm1.65 11.06c-1.1 1.55-2.87 1.49-4.45.12s-1.13-5-1.07-5.51 1.67-1.64 3.2-1.37a3.79 3.79 0 0 1 3.08 2.22 6.78 6.78 0 0 1 -.76 4.54zm-20-10.75c-5.72.94-5.17 8.68-3.8 11.51a4.82 4.82 0 0 0 7 2.07c2.26-1.55 2.53-5.27 2.44-8.68a5.3 5.3 0 0 0 -5.62-4.9zm2.81 11.18c-1.59 1.37-3.35 1.43-4.45-.13a6.65 6.65 0 0 1 -.76-4.54 3.8 3.8 0 0 1 3.07-2.22c1.54-.26 3.14.88 3.2 1.37s.54 4.14-1.04 5.52zm37.82 2.21c-.79-5.87-5.12-23.36-11.72-27.44s-13.2-5.85-13.38-5.72-.31 2.62.06 2.8a19.69 19.69 0 0 0 3.59 1.64c2.5.92 2.87 1.71 2.87 1.71a53.13 53.13 0 0 0 -11.33-2 31.73 31.73 0 0 0 -9.63 1.22s2.74-1.65 2.92-1.83-.42-2.8-1.4-2.93-15.27 5.43-15.41 5.84c-.37 1.1-2.68 8.23-4.81 15.9s-3.42 15-3.48 18 .61 5.12 4.76 7.07 13.46 4.97 14.24 4.91 4.57-3.41 4.75-3.9a14.14 14.14 0 0 0 -.24-3.11s-.43-.55-3.66-1.64a16.09 16.09 0 0 1 -5.42-3.23s7.13 4.26 14.69 4.32 15-3.59 15-3.59a17.45 17.45 0 0 1 -4.12 2.32 34.23 34.23 0 0 1 -5.24 1.76c-.36.12 0 5.49.31 6s1.7 1.71 9.87-.06 12.12-4.63 14.37-6.7 3.2-5.51 2.41-11.34zm-1.83 5.6a3.47 3.47 0 0 1 -1.34 2.74c-.55.43-1.75 1.6-7.83 3.84a79.38 79.38 0 0 1 -12.43 3.48c-.73.09-.91.13-1 0s-.5-2.15-.27-2.29a28.86 28.86 0 0 0 9.64-5.66c4.07-3.89 3.93-5 3.75-5.26a1.13 1.13 0 0 0 -1.19-.18c-.23.18-4.48 4.16-13.3 5.57s-12.43.92-17.27-.68a26.23 26.23 0 0 1 -7.54-4 4.13 4.13 0 0 0 -.87 1.56 14.31 14.31 0 0 0 4.29 4.28c2.84 1.83 6.22 3.06 6.08 3.29a16.2 16.2 0 0 1 -2.61 2.71 73 73 0 0 1 -10.69-3.16c-3.93-1.6-4.47-3.61-4.88-4.57s.32-8.86 1.82-14.62 5.5-17.94 6.11-18.56c.39-.41 10.36-4.21 10.36-4.21s-6.34 5.61-6.52 5.91-.37 1.4.24 1.4a1.47 1.47 0 0 0 1-.61s5.05-4.14 15.66-3.9 15 3.48 15.29 3.29a6.11 6.11 0 0 0 .91-1.46s-1-1.76-1.16-1.95a11.39 11.39 0 0 1 4.45 2.87c1.95 2 5.67 9.74 7.31 17s2.1 11.57 1.99 13.15z" fill="#1d1d1b"/></svg>