<svg fill="none" height="14" viewBox="0 0 15 14" width="15" xmlns="http://www.w3.org/2000/svg"><path d="m7.18624.00000059c-3.97041-.0015625-7.18624 3.12655941-7.18624 6.98749941 0 3.0531 2.0117 5.6484 4.8133 6.6016.3773.0922.3195-.1688.3195-.3469v-1.211c-2.17867.2485-2.26697-1.1546-2.41308-1.389-.29541-.4906-.9938-.6156-.78509-.85001.4961-.24844 1.00184.0625 1.58785.90471.42385.6109 1.25068.5078 1.66972.4062.09152-.3672.28739-.6953.55711-.95-2.25734-.39373-3.19816-1.73435-3.19816-3.3281 0-.77344.26169-1.48437.77546-2.05781-.32753-.94531.0305-1.75469.07867-1.875.93279-.08125 1.90252.65 1.97798.70781.52981-.13906 1.13509-.2125 1.81261-.2125.68074 0 1.28762.07656 1.82225.21719.18142-.13438 1.08048-.7625 1.94748-.68594.0466.12031.3966.91094.0883 1.84375.5202.575.7851 1.29219.7851 2.06719 0 1.59687-.9473 2.93906-3.21102 3.32651.1939.1856.34786.4069.45288.6511.10503.2441.15902.5062.15882.7708v1.7578c.01284.1407 0 .2797.24082.2797 2.8434-.9328 4.8904-3.5468 4.8904-6.62654 0-3.8625-3.2175-6.98905941-7.18466-6.98905941z" fill="#4a4a55"/></svg>