<svg fill="none" height="400" viewBox="0 0 400 400" width="400" xmlns="http://www.w3.org/2000/svg" xmlns:xlink="http://www.w3.org/1999/xlink"><filter id="a" color-interpolation-filters="sRGB" filterUnits="userSpaceOnUse" height="94.7578" width="183.194" x="142.317" y="92.0569"><feFlood flood-opacity="0" result="BackgroundImageFix"/><feColorMatrix in="SourceAlpha" type="matrix" values="0 0 0 0 0 0 0 0 0 0 0 0 0 0 0 0 0 0 127 0"/><feOffset dy="4"/><feGaussianBlur stdDeviation="2"/><feColorMatrix type="matrix" values="0 0 0 0 0 0 0 0 0 0 0 0 0 0 0 0 0 0 0.25 0"/><feBlend in2="BackgroundImageFix" mode="normal" result="effect1_dropShadow"/><feBlend in="SourceGraphic" in2="effect1_dropShadow" mode="normal" result="shape"/></filter><circle cx="200" cy="200" fill="#ff3e00" r="200"/><g fill="#fff"><circle cx="200" cy="201.802" r="144.446" stroke="#000" stroke-width="3"/><path d="m345.946 271.407 20.669-3.435 10.088 3.809 1.845-4.885-10.088-3.81-13.24-16.239-2.089 5.532 9.465 11.133-.1.264-14.461 2.098z"/><path d="m313.14 320.182 6.253-6.381 17.511 17.159 3.635-3.71-17.511-17.159 6.253-6.381-3.135-3.072-16.141 16.472z"/><path d="m268.465 374.818 17.103-8.074-1.875-3.97-12.367 5.839-3.369-7.134 11.385-5.375-1.874-3.97-11.385 5.375-3.35-7.096 12.265-5.791-1.874-3.969-17 8.026z"/><path d="m203.435 360.36h-5.237v28.906h5.237z"/><path d="m148.713 363.017c2.146-6.118-.543-11.691-6.242-14.621-6.716-3.453-14.291-1.158-18.564 7.151-4.266 8.297-1.793 15.774 4.985 19.259 6.113 3.143 12.2 1.274 15.439-3.266l-4.681-2.439c-2.139 2.709-5.471 3.139-8.546 1.557-4.167-2.142-5.548-6.804-2.515-12.703 2.982-5.8 7.603-7.502 11.808-5.34 3.126 1.607 4.663 4.635 3.622 7.988z"/><path d="m83.4057 331.139c7.5913-5.447 8.7392-13.289 4.3204-19.447-4.427-6.17-12.2154-7.582-19.8068-2.135-7.58 5.44-8.7475 13.278-4.3205 19.448 4.4188 6.158 12.2155 7.581 19.8069 2.134zm-3.0693-4.277c-5.3438 3.834-10.1706 3.233-12.919-.597-2.7401-3.819-1.7726-8.596 3.5712-12.43 5.3438-3.835 10.1787-3.222 12.9189.597 2.7484 3.83 1.7726 8.595-3.5711 12.43z"/><path d="m45.3043 265.345 1.5347 4.799c4.6214-1.581 6.6469-6.6 4.7725-12.462-1.8486-5.78-6.4905-9.082-11.3528-7.513-3.9524 1.264-5.3259 4.801-5.0467 9.705l.1951 3.39c.1972 3.212-.1027 5.472-2.236 6.169-2.3569.738-4.6434-.99-5.6838-4.244-.9974-3.119-.3731-5.985 2.4528-7.111l-1.5691-4.907c-5.4071 1.951-7.1831 7.009-5.1324 13.422 2.1108 6.6 6.6297 9.378 11.4871 7.84 4.7682-1.54 5.6864-6.175 5.3437-10.629l-.1801-2.788c-.1845-2.43-.0124-5.182 2.295-5.891 2.0747-.648 4.187.721 5.1844 3.84.9501 2.971.1931 5.377-2.0644 6.38z"/><path d="m334.244 114.515 8.908 16.684 3.872-2.067-6.441-12.065 6.96-3.716 5.929 11.106 3.872-2.067-5.929-11.107 6.922-3.696 6.389 11.966 3.872-2.068-8.855-16.584z"/><path d="m301.557 46.6574 7.195 5.2967-14.534 19.7434 4.183 3.0793 14.534-19.7434 7.195 5.2968 2.602-3.535-18.572-13.6727z"/><path d="m222.768 43.517 17.75 2.7887.681-4.3364-12.577-1.9759 3.805-24.2193-5.173-.8128z"/><path d="m151.111 49.1036 18.185-5.197-1.207-4.2205-13.15 3.7581-2.168-7.5862 12.105-3.4595-1.206-4.2205-12.105 3.4595-2.156-7.5455 13.041-3.727-1.206-4.2206-18.076 5.1659z"/><path d="m78.1662 57.2624-4.2911 3.8191 26.8189 14.8268 4.829-4.2977-11.6053-28.3674-4.3016 3.8285 9.5175 21.9877-.2214.1971z"/><path d="m43.0836 108.093 2.2421-4.513c-4.4173-2.084-9.3668.106-12.1052 5.617-2.7006 5.435-1.6704 11.037 2.9115 13.298 3.7161 1.847 7.1649.267 10.3811-3.447l2.2218-2.568c2.0958-2.442 3.8849-3.854 5.9009-2.868 2.2057 1.112 2.642 3.945 1.1221 7.004-1.4571 2.932-3.9021 4.554-6.7139 3.394l-2.2924 4.613c5.2386 2.367 10.0362-.025 13.032-6.054 3.0838-6.206 1.777-11.347-2.7797-13.627-4.4935-2.217-8.3813.469-11.2385 3.903l-1.8125 2.126c-1.5608 1.872-3.6013 3.727-5.7501 2.627-1.9403-.98-2.5019-3.434-1.0448-6.366 1.388-2.793 3.6069-3.992 5.9256-3.139z"/><circle cx="26.1265" cy="188.911" r="4.5045"/><circle cx="372.072" cy="188.911" r="4.5045"/></g><path d="m274.989 121.071c-20.321-29.3107-60.454-37.9977-89.469-19.363l-50.958 32.739c-6.877 4.355-12.779 10.107-17.327 16.891-4.548 6.783-7.644 14.448-9.089 22.505-2.437 13.6-.305 27.63 6.057 39.87-4.361 6.669-7.332 14.161-8.734 22.023-1.455 8.235-1.263 16.681.566 24.84 1.828 8.159 5.257 15.868 10.083 22.672 20.32 29.311 60.453 37.998 89.468 19.364l50.958-32.601c6.87-4.364 12.765-10.12 17.312-16.901 4.548-6.782 7.648-14.443 9.104-22.496 2.428-13.595.29-27.618-6.076-39.85 4.358-6.672 7.335-14.162 8.753-22.022 1.451-8.236 1.257-16.681-.572-24.839-1.828-8.159-5.254-15.868-10.076-22.674" fill="#ff3e00"/><path d="m181.478 284.835c-8.061 2.069-16.569 1.642-24.377-1.222-7.808-2.865-14.54-8.029-19.286-14.796-2.915-4.033-4.984-8.601-6.087-13.436-1.102-4.835-1.216-9.839-.333-14.718.289-1.587.696-3.151 1.217-4.679l.962-2.913 2.631 1.942c6.047 4.366 12.798 7.688 19.966 9.824l1.964.564-.177 1.941c-.189 2.662.568 5.306 2.14 7.475 1.432 2.036 3.461 3.589 5.813 4.45 2.351.861 4.914.989 7.341.366 1.11-.295 2.169-.754 3.141-1.359l51.124-32.27c1.256-.782 2.332-1.814 3.16-3.031.829-1.217 1.391-2.592 1.65-4.037.262-1.472.223-2.981-.114-4.439-.338-1.457-.966-2.833-1.849-4.046-1.433-2.036-3.461-3.588-5.813-4.449s-4.914-.989-7.341-.366c-1.112.291-2.171.75-3.141 1.359l-19.633 12.329c-3.211 2.014-6.713 3.533-10.386 4.505-8.048 2.056-16.539 1.625-24.331-1.235-7.793-2.861-14.512-8.013-19.254-14.764-2.906-4.036-4.967-8.606-6.062-13.44-1.096-4.835-1.204-9.837-.319-14.714.867-4.786 2.735-9.341 5.483-13.373 2.749-4.032 6.318-7.452 10.479-10.043l51.281-32.27c3.192-2.009 6.674-3.528 10.327-4.504 8.058-2.07 16.564-1.644 24.369 1.221 7.805 2.864 14.533 8.03 19.274 14.797 2.918 4.031 4.991 8.599 6.097 13.434s1.223 9.84.343 14.72c-.306 1.596-.713 3.172-1.217 4.718l-.982 2.913-2.611-1.942c-6.06-4.399-12.831-7.748-20.026-9.902l-1.963-.563.177-1.942c.227-2.675-.511-5.344-2.081-7.534-1.441-2-3.464-3.52-5.8-4.356-2.336-.835-4.874-.948-7.276-.323-1.111.291-2.17.75-3.141 1.359l-51.222 32.212c-1.251.782-2.324 1.812-3.152 3.025s-1.393 2.583-1.658 4.023c-.257 1.475-.215 2.987.122 4.446.337 1.46.963 2.839 1.841 4.058 1.426 2.018 3.438 3.558 5.77 4.418s4.873.999 7.286.398c1.109-.3 2.167-.757 3.141-1.36l19.633-12.31c3.209-2.035 6.72-3.562 10.406-4.524 8.055-2.074 16.561-1.653 24.367 1.209 7.805 2.861 14.534 8.024 19.276 14.79 2.916 4.032 4.988 8.6 6.094 13.434 1.106 4.835 1.223 9.84.346 14.72-.867 4.787-2.734 9.341-5.483 13.373-2.748 4.032-6.317 7.453-10.479 10.043l-51.222 32.27c-3.217 2.02-6.725 3.545-10.405 4.524z" fill="#fff"/><g filter="url(#a)"><path d="m155.332 92.4351c3.912-1.0276 11.604.0891 17.448 2.7366l-2.036 11.7523s-9.395-3.522-12.636-7.8991c-.918-1.2402 1.195-3.7665 1.195-3.7665s-3.2.111-3.522 2.869c-.321 2.7576 1.399 5.3236 15.191 10.0656 13.792 4.743 12.691 10.776 24.066 18.334 12.102 8.043 21.675 12.507 35.671 19.318 13.995 6.81 33.131 9.1 41.924 8.48 8.531-.602 15.667-2.665 20.249-4.027l4.581-19.817 2.105.371.743-4.211c12.633 2.228 23.41 14.984 20.81 29.722-4.134 23.441-31.471 24.173-50.421 21.23-46.321-8.17-127.72-57.482-124.277-77.008 1.3-7.3691 4.997-7.1224 8.909-8.1499z" fill="#000"/></g><path d="m172 109.438 3.528-20.0024 119.644 41.7264 2.106.371c1.414 12.093-4.581 19.817-4.581 19.817-18.887 8.61-50.127 1.1-62.174-4.453-20.837-9.604-45.456-25.385-58.523-37.459z" fill="#ff3e00"/><path d="m181.346 68.7519c-6.129 16.287-6.747 25.9475-6.747 25.9475 7.122 8.8546 41.958 33.4526 74.5 39.1916 22.108 3.899 35.98 5.26 47.993-1.305l1.299-7.369 4.457-25.2662c4.827-27.3716-30.658-47.7418-44.344-50.1555-7.307-1.6507-18.95-3.3422-27.372-4.8276-28.424-5.0133-43.656 7.4972-49.786 23.7842z" fill="#000"/><path d="m302.61 163.54c17.035-4.474 18.715-16.548 16.712-21.605 4.15 7.245.633 20.186-18.134 25.115-12.479 3.277-38.986 1.874-89.555-29.997 35.956 20.026 66.525 32.909 90.977 26.487z" fill="#fff"/></svg>