<svg width="64"
     height="64"
     viewBox="0 0 64 64"
     fill="none"
     xmlns="http://www.w3.org/2000/svg">
  <g clip-path="url(#clip0)">
    <path d="M63.9299 41.1201C63.9979 37.9251 63.2029 14.0181 63.0639 11.8541C62.9249 9.69012 58.9839 9.03712 56.9079 9.00412C54.8319 8.97112 49.8879 9.20912 48.9879 9.20912C48.0899 9.20912 38.3379 9.13912 31.5249 9.20912C24.7119 9.27912 9.42792 9.44912 6.66092 9.44912C3.89392 9.44912 1.03492 9.79912 0.678925 10.2731C-0.740075 12.1641 0.504925 24.8721 0.504925 33.5281C0.504925 42.1841 0.919925 46.9931 1.29992 48.1951C1.67992 49.3971 3.20292 52.6951 3.75592 53.2101C4.30892 53.7251 5.34592 53.6571 9.39292 53.7251C13.4389 53.7951 13.7849 54.0001 23.3629 54.0001C32.9409 54.0001 42.8329 53.6901 51.2729 53.4501C59.7129 53.2101 60.5049 53.0721 62.5459 51.6641C64.5859 50.2561 63.8599 44.3141 63.9289 41.1191L63.9299 41.1201ZM62.4399 29.4741C62.1979 29.1991 60.2959 26.3481 59.9159 26.3841C59.5359 26.4171 59.6059 27.1391 59.6739 27.4821C59.7439 27.8251 62.3019 30.5721 62.3019 30.7791C62.3019 30.9861 62.4749 32.8061 62.3719 32.7371C62.2669 32.6671 60.3649 29.1651 59.9159 29.3711C59.4659 29.5771 59.4659 30.3671 59.5009 30.6411C59.5359 30.9171 62.3369 33.9051 62.3369 34.2491C62.3369 34.5931 62.4739 36.3441 62.3369 36.0011C62.1969 35.6581 60.0189 32.1881 59.6389 32.3941C59.2589 32.6001 59.1889 33.2541 59.3619 33.6311C59.5349 34.0091 62.2669 37.0311 62.3019 37.4091C62.3359 37.7871 62.5419 40.1231 62.3359 39.9511C62.1279 39.7791 60.2959 36.2071 59.4989 36.0351C58.7039 35.8631 58.5989 36.4821 58.9459 36.7911C59.2919 37.1011 60.6759 39.4711 61.0559 40.1571C61.4359 40.8441 62.4389 41.7371 62.4739 41.9431C62.5089 42.1491 62.5439 45.1031 62.3359 44.9661C62.1289 44.8291 60.6409 41.2911 59.7079 40.1921C58.7739 39.0921 58.2899 38.5421 58.0129 38.8521C57.7359 39.1621 57.8749 39.6761 58.1509 40.0891C58.4279 40.5011 61.0209 44.6231 61.2289 44.9661C61.4369 45.3091 61.6089 45.6191 61.5389 45.8591C61.4689 46.0991 61.1249 46.4091 61.1249 46.6491C61.1249 46.8891 61.0199 46.9591 60.9849 46.7191C60.9509 46.4791 57.7349 41.6341 57.1819 40.8441C56.6289 40.0541 56.5599 39.8481 56.0419 40.0881C55.5239 40.3281 56.0759 41.0481 56.2479 41.2881C56.4209 41.5281 60.5709 47.4721 60.6049 47.9181C60.6399 48.3651 60.0849 48.8801 59.8099 48.7421C59.5349 48.6041 55.5899 42.1471 55.0029 41.2881C54.4149 40.4281 54.1729 40.4281 53.8629 40.8081C53.5509 41.1851 54.2769 41.8721 54.7959 42.7651C55.3159 43.6581 58.0129 47.9171 58.3939 48.3291C58.7739 48.7421 58.8439 49.2231 58.8439 49.2231C58.8439 49.2231 57.7039 49.6011 57.4609 49.3951C57.2189 49.1891 52.7229 41.7351 52.3429 41.7351C51.9629 41.7351 51.6169 42.2501 51.7209 42.4221C51.8249 42.5941 56.5279 49.4291 56.0779 49.4621C55.6279 49.4971 54.4879 49.7021 54.2109 49.4971C53.9339 49.2921 50.8909 43.6231 50.3709 43.5891C49.8509 43.5551 49.5769 44.4131 49.6109 44.5511C49.6459 44.6881 53.0349 49.2911 52.7929 49.4631C52.5509 49.6351 51.8249 49.8751 51.4099 49.5661C50.9949 49.2561 48.2629 43.8301 47.9169 43.6921C47.5709 43.5541 46.7419 44.1041 46.9499 44.3101C47.1569 44.5171 50.5119 49.7721 50.0279 49.7721C49.5449 49.7721 48.8529 49.8751 48.6459 49.6001C48.4389 49.3251 45.5679 44.6201 45.2559 44.5161C44.9459 44.4131 44.2889 44.6191 44.4619 45.0311C44.6349 45.4441 48.1969 49.7711 47.6779 49.7711C47.1579 49.7711 45.7079 50.0811 45.4979 49.7381C45.2879 49.3951 42.8359 45.0681 42.3879 44.9641C41.9399 44.8601 41.5919 45.4111 41.6609 45.6511C41.7299 45.8911 44.3579 49.7381 44.0469 49.7731C43.7349 49.8071 42.4549 49.8761 42.2129 49.7031C41.9709 49.5331 40.1029 45.6171 39.7579 45.5831C39.4129 45.5481 38.8939 46.0291 38.9639 46.2351C39.0339 46.4411 41.1769 49.7391 40.7619 49.8071C40.3469 49.8771 39.6219 49.9791 39.3099 49.7371C38.9999 49.4971 36.9929 46.0971 36.6129 46.0271C36.2329 45.9591 35.5059 46.2671 35.6449 46.5771C35.7829 46.8871 37.8929 49.8411 37.5469 49.8751C37.2009 49.9091 35.9209 50.0471 35.7469 49.8751C35.5749 49.7031 33.3969 46.8871 33.1889 46.7851C32.9819 46.6811 32.1859 46.9551 32.3939 47.1621C32.6009 47.3691 34.5739 49.7051 34.1579 49.7721C33.7439 49.8421 24.5449 50.1851 18.5619 50.2541C12.5789 50.3241 9.12193 50.3241 6.83892 49.9791C4.55592 49.6341 3.62392 48.8451 3.10492 48.3991C2.57892 47.9571 2.19893 43.3191 2.12993 38.3731C2.06192 33.4281 1.71592 21.9901 1.64692 19.1031C1.57792 16.2161 1.33692 12.7151 1.75092 11.9591C1.98692 11.5291 4.41492 11.4441 12.1269 11.0991C19.8389 10.7541 27.6199 10.7911 37.7519 10.6891C47.8859 10.5851 53.1069 10.4131 55.7699 10.5851C58.4329 10.7571 61.1299 11.1001 61.6139 12.0281C62.0979 12.9551 62.3059 20.3751 62.0979 20.2031C61.8899 20.0311 60.8529 18.7951 60.6109 19.0691C60.3679 19.3441 60.1259 19.7561 60.3329 19.9961C60.5399 20.2361 62.1659 21.5421 62.1999 21.8861C62.2002 21.8886 62.2004 21.891 62.2007 21.8935C62.2349 22.2379 62.3022 22.9146 62.1999 22.7091C62.0949 22.5031 60.9899 21.1291 60.6769 21.4391C60.3639 21.7491 60.1239 22.2621 60.4349 22.5371C60.7449 22.8121 62.2679 24.4951 62.3369 24.8731C62.4069 25.2511 62.3719 26.1101 62.2329 25.8691C62.0949 25.6291 60.4689 23.2241 60.0529 23.5691C59.6389 23.9111 59.8129 24.7361 59.8809 24.9091C59.9489 25.0821 62.3709 27.1751 62.3709 27.3471C62.3709 27.5191 62.6849 29.7531 62.4429 29.4771L62.4399 29.4741ZM13.2639 18.1041C14.0589 18.8611 20.3189 23.9101 24.7109 27.2071C29.1029 30.5041 30.3129 30.8471 33.4949 30.7791C36.6769 30.7111 38.5089 29.3711 41.4149 27.6891C44.3189 26.0051 52.4109 18.1051 53.4489 16.6961C54.4869 15.2881 53.8289 15.1161 53.1039 14.8061C52.3779 14.4981 49.5419 14.4981 39.4789 14.7041C29.4159 14.9101 17.7609 15.0141 15.5139 15.0471C13.2669 15.0801 11.6869 15.3631 11.5369 15.5971C11.0519 16.3531 12.4699 17.3491 13.2649 18.1051L13.2639 18.1041ZM33.0439 18.4141C40.5839 18.4481 49.1939 18.0711 49.5059 18.4141C49.8159 18.7571 44.0059 24.2541 40.4459 26.3841C36.8859 28.5141 35.2579 29.5771 32.0759 29.1311C28.8939 28.6841 22.9119 23.6011 20.6289 21.9181C18.3459 20.2351 16.9639 19.0321 17.0689 18.7911C17.1459 18.6111 25.5069 18.3791 33.0459 18.4131L33.0439 18.4141ZM57.1139 17.4521C56.1799 17.2801 52.9989 21.2991 50.9939 23.8061C48.9889 26.3131 46.8579 28.9661 46.8089 29.1301C46.6029 29.8181 47.2939 29.9551 49.2989 31.7071C51.3039 33.4591 53.7959 37.0311 54.7989 38.2671C55.8019 39.5051 56.4239 39.7791 57.1509 39.2641C57.8769 38.7491 57.7039 38.1991 57.8079 35.8291C57.9109 33.4591 58.0479 25.1461 58.2219 21.7791C58.3939 18.4141 58.0479 17.6241 57.1139 17.4521ZM56.4239 37.4771C56.0769 37.2711 53.1379 33.1491 52.4459 32.5311C51.7539 31.9131 50.5789 30.9851 50.4759 30.5391C50.4129 30.2711 56.5259 23.0171 56.7339 23.2571C56.9419 23.4971 56.7689 37.6831 56.4239 37.4771ZM47.3969 35.5191C45.9089 33.6991 44.9069 31.9471 43.7989 31.9811C42.6919 32.0151 40.6519 33.2861 38.9229 34.4541C37.1929 35.6221 35.6379 36.3091 34.0809 36.3091C32.5239 36.3091 28.9279 34.4541 28.4439 34.0761C27.9599 33.6981 25.4209 32.8931 24.8469 32.9761C23.6709 33.1491 17.5849 41.1181 17.0309 41.8061C16.4779 42.4921 17.7909 43.7291 18.6209 43.8321C19.4509 43.9351 21.7339 43.8321 32.6609 43.3851C43.5909 42.9381 48.8459 42.5611 49.8149 42.3551C50.7829 42.1491 50.8179 41.2901 50.6099 40.6381C50.4019 39.9861 48.8829 37.3381 47.3959 35.5181L47.3969 35.5191ZM48.9519 40.9811C48.7449 41.1871 41.2059 41.8051 31.7649 42.1831C22.3239 42.5611 20.7679 42.4231 20.8719 42.2531C20.9759 42.0831 25.8169 36.5831 26.3019 36.5161C26.6089 36.4721 31.6619 38.9201 33.9089 38.9891C36.1569 39.0591 38.7509 38.0961 40.9289 36.5161C43.1089 34.9361 44.2829 34.1121 44.6289 34.1461C44.9749 34.1801 47.7759 38.0621 48.3989 39.1611C49.0209 40.2611 49.1589 40.7751 48.9519 40.9811ZM16.7219 25.7311C14.4719 23.5661 8.92192 18.8511 8.31792 18.8611C5.69092 18.8941 6.48592 22.9131 6.65792 28.1341C6.83192 33.3541 7.62792 40.0541 8.04192 41.8391C8.45692 43.6251 9.77192 43.6591 10.8419 43.3851C11.9119 43.1111 12.7449 41.7021 14.8549 39.0571C16.9649 36.4121 20.0419 32.1531 20.3189 30.2971C20.5959 28.4411 18.9709 27.8941 16.7229 25.7301L16.7219 25.7311ZM12.3999 40.0531C11.4659 41.1871 11.5699 41.2211 11.3279 41.1871C11.0859 41.1531 11.3279 30.7791 11.2239 28.8571C11.1199 26.9351 10.9139 24.7691 11.0859 24.3911C11.2009 24.1391 14.3359 26.8311 16.0309 28.2381C17.7259 29.6451 18.6249 30.4351 18.6939 30.7781C18.7639 31.1221 13.3339 38.9181 12.3999 40.0521V40.0531ZM34.9469 31.9831C33.2509 32.2571 31.4449 31.6881 31.0039 31.6031C30.2779 31.4671 30.1389 32.3601 30.5889 32.7731C31.0389 33.1831 32.0069 33.4591 34.5659 33.4251C37.1239 33.3911 38.8529 32.3951 39.1299 31.9481C39.4069 31.5001 38.9919 30.8481 38.5079 30.7781C38.0229 30.7101 36.6399 31.7061 34.9449 31.9811L34.9469 31.9831ZM6.27992 47.0951C5.89992 46.7521 6.27992 44.4501 6.07392 44.0721C5.86692 43.6941 4.88192 43.7161 4.72392 44.0721C4.48392 44.6221 4.55192 46.4081 4.82892 47.3691C5.10592 48.3301 5.83092 48.9151 6.79892 48.7771C7.76692 48.6391 7.73292 47.7121 7.62892 47.4721C7.52492 47.2321 6.65892 47.4381 6.27892 47.0951H6.27992ZM4.82992 15.1861C5.03692 14.3621 6.38592 14.3961 6.76692 14.1901C7.14692 13.9841 7.21692 14.0531 7.14692 13.6061C7.07692 13.1591 6.62692 12.6791 5.24492 12.9191C3.86292 13.1591 3.16992 14.3951 3.20492 15.4591C3.23992 16.5251 3.15692 18.8141 3.48193 18.9991C3.96592 19.2731 4.51892 19.2731 4.72692 19.0321C4.93493 18.7911 4.62292 16.0101 4.82992 15.1861ZM59.9899 14.1211C60.2299 13.8131 60.4039 13.5711 59.5399 12.3011C58.6759 11.0311 56.7599 10.6781 56.4269 10.8591C55.3549 11.4431 55.9429 12.6451 56.9469 12.6791C57.9489 12.7131 58.4329 13.9491 58.7789 14.3621C59.1249 14.7751 59.7469 14.4321 59.9889 14.1221L59.9899 14.1211Z"
          fill="black" />
    <path fill-rule="evenodd"
          clip-rule="evenodd"
          d="M62.4399 29.474C62.1979 29.199 60.2959 26.348 59.9159 26.384C59.5359 26.417 59.6059 27.139 59.6739 27.482C59.7439 27.825 62.3019 30.572 62.3019 30.779C62.3019 30.986 62.4749 32.806 62.3719 32.737C62.2669 32.667 60.3649 29.165 59.9159 29.371C59.4659 29.577 59.4659 30.367 59.5009 30.641C59.5359 30.917 62.3369 33.905 62.3369 34.249C62.3369 34.593 62.4739 36.344 62.3369 36.001C62.1969 35.658 60.0189 32.188 59.6389 32.394C59.2589 32.6 59.1889 33.254 59.3619 33.631C59.5349 34.009 62.2669 37.031 62.3019 37.409C62.3359 37.787 62.5419 40.123 62.3359 39.951C62.1279 39.779 60.2959 36.207 59.4989 36.035C58.7039 35.863 58.5989 36.482 58.9459 36.791C59.2919 37.101 60.6759 39.471 61.0559 40.157C61.4359 40.844 62.4389 41.737 62.4739 41.943C62.5089 42.149 62.5439 45.103 62.3359 44.966C62.1289 44.829 60.6409 41.291 59.7079 40.192C58.7739 39.092 58.2899 38.542 58.0129 38.852C57.7359 39.162 57.8749 39.676 58.1509 40.089C58.4279 40.501 61.0209 44.623 61.2289 44.966C61.4369 45.309 61.6089 45.619 61.5389 45.859C61.4689 46.099 61.1249 46.409 61.1249 46.649C61.1249 46.889 61.0199 46.959 60.9849 46.719C60.9509 46.479 57.7349 41.634 57.1819 40.844C56.6289 40.054 56.5599 39.848 56.0419 40.088C55.5239 40.328 56.0759 41.048 56.2479 41.288C56.4209 41.528 60.5709 47.472 60.6049 47.918C60.6399 48.365 60.0849 48.88 59.8099 48.742C59.5349 48.604 55.5899 42.147 55.0029 41.288C54.4149 40.428 54.1729 40.428 53.8629 40.808C53.5509 41.185 54.2769 41.872 54.7959 42.765C55.3159 43.658 58.0129 47.917 58.3939 48.329C58.7739 48.742 58.8439 49.223 58.8439 49.223C58.8439 49.223 57.7039 49.601 57.4609 49.395C57.2189 49.189 52.7229 41.735 52.3429 41.735C51.9629 41.735 51.6169 42.25 51.7209 42.422C51.8249 42.594 56.5279 49.429 56.0779 49.462C55.6279 49.497 54.4879 49.702 54.2109 49.497C53.9339 49.292 50.8909 43.623 50.3709 43.589C49.8509 43.555 49.5769 44.413 49.6109 44.551C49.6459 44.688 53.0349 49.291 52.7929 49.463C52.5509 49.635 51.8249 49.875 51.4099 49.566C50.9949 49.256 48.2629 43.83 47.9169 43.692C47.5709 43.554 46.7419 44.104 46.9499 44.31C47.1569 44.517 50.5119 49.772 50.0279 49.772C49.5449 49.772 48.8529 49.875 48.6459 49.6C48.4389 49.325 45.5679 44.62 45.2559 44.516C44.9459 44.413 44.2889 44.619 44.4619 45.031C44.6349 45.444 48.1969 49.771 47.6779 49.771C47.1579 49.771 45.7079 50.081 45.4979 49.738C45.2879 49.395 42.8359 45.068 42.3879 44.964C41.9399 44.86 41.5919 45.411 41.6609 45.651C41.7299 45.891 44.3579 49.738 44.0469 49.773C43.7349 49.807 42.4549 49.876 42.2129 49.703C41.9709 49.533 40.1029 45.617 39.7579 45.583C39.4129 45.548 38.8939 46.029 38.9639 46.235C39.0339 46.441 41.1769 49.739 40.7619 49.807C40.3469 49.877 39.6219 49.979 39.3099 49.737C38.9999 49.497 36.9929 46.097 36.6129 46.027C36.2329 45.959 35.5059 46.267 35.6449 46.577C35.7829 46.887 37.8929 49.841 37.5469 49.875C37.2009 49.909 35.9209 50.047 35.7469 49.875C35.5749 49.703 33.3969 46.887 33.1889 46.785C32.9819 46.681 32.1859 46.955 32.3939 47.162C32.6009 47.369 34.5739 49.705 34.1579 49.772C33.7439 49.842 24.5449 50.185 18.5619 50.254C12.5789 50.324 9.12192 50.324 6.83892 49.979C4.55592 49.634 3.62392 48.845 3.10492 48.399C2.57892 47.957 2.19892 43.319 2.12992 38.373C2.06192 33.428 1.71592 21.99 1.64692 19.103C1.57792 16.216 1.33692 12.715 1.75092 11.959C1.98692 11.529 4.41492 11.444 12.1269 11.099C19.8389 10.754 27.6199 10.791 37.7519 10.689C47.8859 10.585 53.1069 10.413 55.7699 10.585C58.4329 10.757 61.1299 11.1 61.6139 12.028C62.0979 12.955 62.3059 20.375 62.0979 20.203C61.8899 20.031 60.8529 18.795 60.6109 19.069C60.3679 19.344 60.1259 19.756 60.3329 19.996C60.5399 20.236 62.1659 21.542 62.1999 21.886L62.2007 21.8934C62.2349 22.2378 62.3022 22.9146 62.1999 22.709C62.0949 22.503 60.9899 21.129 60.6769 21.439C60.3639 21.749 60.1239 22.262 60.4349 22.537C60.7449 22.812 62.2679 24.495 62.3369 24.873C62.4069 25.251 62.3719 26.11 62.2329 25.869C62.0949 25.629 60.4689 23.224 60.0529 23.569C59.6389 23.911 59.8129 24.736 59.8809 24.909C59.9489 25.082 62.3709 27.175 62.3709 27.347C62.3709 27.519 62.6849 29.753 62.4429 29.477L62.4399 29.474ZM24.7109 27.207C20.3189 23.91 14.0589 18.861 13.2639 18.104L13.2649 18.105C12.4699 17.349 11.0519 16.353 11.5369 15.597C11.6869 15.363 13.2669 15.08 15.5139 15.047C17.7609 15.014 29.4159 14.91 39.4789 14.704C49.5419 14.498 52.3779 14.498 53.1039 14.806C53.8289 15.116 54.4869 15.288 53.4489 16.696C52.4109 18.105 44.3189 26.005 41.4149 27.689C38.5089 29.371 36.6769 30.711 33.4949 30.779C30.3129 30.847 29.1029 30.504 24.7109 27.207ZM50.9939 23.806C52.9989 21.299 56.1799 17.28 57.1139 17.452C58.0479 17.624 58.3939 18.414 58.2219 21.779C58.0479 25.146 57.9109 33.459 57.8079 35.829C57.7039 38.199 57.8769 38.749 57.1509 39.264C56.4239 39.779 55.8019 39.505 54.7989 38.267C53.7959 37.031 51.3039 33.459 49.2989 31.707C47.2939 29.955 46.6029 29.818 46.8089 29.13C46.8579 28.966 48.9889 26.313 50.9939 23.806ZM43.7989 31.981C44.9069 31.947 45.9089 33.699 47.3969 35.519L47.3959 35.518C48.8829 37.338 50.4019 39.986 50.6099 40.638C50.8179 41.29 50.7829 42.149 49.8149 42.355C48.8459 42.561 43.5909 42.938 32.6609 43.385C21.7339 43.832 19.4509 43.935 18.6209 43.832C17.7909 43.729 16.4779 42.492 17.0309 41.806C17.5849 41.118 23.6709 33.149 24.8469 32.976C25.4209 32.893 27.9599 33.698 28.4439 34.076C28.9279 34.454 32.5239 36.309 34.0809 36.309C35.6379 36.309 37.1929 35.622 38.9229 34.454C40.6519 33.286 42.6919 32.015 43.7989 31.981ZM8.31792 18.861C8.92192 18.851 14.4719 23.566 16.7219 25.731L16.7229 25.73C18.9709 27.894 20.5959 28.441 20.3189 30.297C20.0419 32.153 16.9649 36.412 14.8549 39.057C12.7449 41.702 11.9119 43.111 10.8419 43.385C9.77192 43.659 8.45692 43.625 8.04192 41.839C7.62792 40.054 6.83192 33.354 6.65792 28.134C6.48592 22.913 5.69092 18.894 8.31792 18.861ZM31.0039 31.603C31.4449 31.688 33.2509 32.257 34.9469 31.983L34.9449 31.981C36.6399 31.706 38.0229 30.71 38.5079 30.778C38.9919 30.848 39.4069 31.5 39.1299 31.948C38.8529 32.395 37.1239 33.391 34.5659 33.425C32.0069 33.459 31.0389 33.183 30.5889 32.773C30.1389 32.36 30.2779 31.467 31.0039 31.603ZM6.07392 44.072C6.27992 44.45 5.89992 46.752 6.27992 47.095H6.27892C6.65892 47.438 7.52492 47.232 7.62892 47.472C7.73292 47.712 7.76692 48.639 6.79892 48.777C5.83092 48.915 5.10592 48.33 4.82892 47.369C4.55192 46.408 4.48392 44.622 4.72392 44.072C4.88192 43.716 5.86692 43.694 6.07392 44.072ZM6.76692 14.19C6.38592 14.396 5.03692 14.362 4.82992 15.186C4.62292 16.01 4.93492 18.791 4.72692 19.032C4.51892 19.273 3.96592 19.273 3.48192 18.999C3.15692 18.814 3.23992 16.525 3.20492 15.459C3.16992 14.395 3.86292 13.159 5.24492 12.919C6.62692 12.679 7.07692 13.159 7.14692 13.606C7.21692 14.053 7.14692 13.984 6.76692 14.19ZM59.5399 12.301C60.4039 13.571 60.2299 13.813 59.9899 14.121L59.9889 14.122C59.7469 14.432 59.1249 14.775 58.7789 14.362C58.4329 13.949 57.9489 12.713 56.9469 12.679C55.9429 12.645 55.3549 11.443 56.4269 10.859C56.7599 10.678 58.6759 11.031 59.5399 12.301Z"
          fill="url(#paint0_linear)" />
  </g>
  <defs>
    <linearGradient id="paint0_linear"
                    x1="1.5144"
                    y1="10.512"
                    x2="37.9105"
                    y2="66.3431"
                    gradientUnits="userSpaceOnUse">
      <stop stop-color="#F68714" />
      <stop offset="1"
            stop-color="#FF3E00" />
    </linearGradient>
    <clipPath id="clip0">
      <rect width="64"
            height="64"
            fill="white" />
    </clipPath>
  </defs>
</svg>