<svg width="64"
     height="65"
     viewBox="0 0 64 65"
     fill="none"
     xmlns="http://www.w3.org/2000/svg">
  <path d="M47.1306 15.5602C47.1306 13.8116 45.7342 10.9917 41.3372 9.4342C36.9401 7.87667 34.1448 7.80893 29.0536 7.90803C24.2031 8.00236 20.2595 9.08797 18.5501 10.1422C16.8406 11.1965 14.0817 13.4565 15.0657 15.7922C19.0093 16.3429 41.512 17.401 47.1306 15.5602ZM45.8305 15.5602C40.9105 16.6929 19.5589 16.3536 15.9644 15.7399C15.2925 14.9459 15.2345 12.9427 17.5725 11.3064C19.9105 9.67004 22.3886 8.33279 28.9141 8.14412C31.7106 8.06333 35.9982 7.971 40.2207 9.4342C44.4432 10.8974 46.5722 12.974 45.8305 15.5602ZM18.5962 11.5685C18.4334 11.5685 17.5492 12.3448 16.9212 13.1313C16.2932 13.9179 16.451 13.9751 16.5955 14.0019C16.9912 14.0754 17.0607 13.813 17.2002 13.5614C17.3397 13.3097 17.9215 12.7327 18.2939 12.1872C18.6662 11.642 18.759 11.5685 18.5962 11.5685ZM44.7455 15.3342C45.0712 15.3028 45.1873 14.9879 45.3268 14.3482C45.4663 13.7084 45.0245 12.9113 44.8617 12.8378C44.6988 12.7643 44.2643 12.8395 44.187 12.9008C44.0942 12.9743 44.3965 13.2678 44.4199 14.0335C44.4432 14.7993 44.1409 15.135 44.1642 15.2398C44.187 15.3444 44.4193 15.3655 44.7455 15.3342Z"
        fill="#232021" />
  <path d="M37.0446 9.35542C33.0433 8.71565 29.7644 8.82253 26.6222 9.34488C23.3422 9.89032 20.0617 10.9604 18.8291 13.2573C17.948 14.7205 18.8291 15.6922 18.8291 15.6922H19.819C19.819 15.6922 19.108 14.9982 20.0389 13.5403C20.9692 12.0824 24.8778 10.8028 26.4366 10.4355C28.8897 9.8577 31.136 9.54409 36.0215 9.72222C40.907 9.90036 42.4186 12.7748 42.7215 13.4565C43.0238 14.1382 42.87 15.0187 42.0954 15.5602H43.21C43.9371 14.6306 43.5357 13.5824 43.21 12.9005C42.8843 12.2188 41.0465 9.99519 37.0446 9.35542Z"
        fill="#232021" />
  <path fill-rule="evenodd"
        clip-rule="evenodd"
        d="M17.5725 11.3062C15.2345 12.9425 15.2925 14.9458 15.9643 15.7398L18.829 15.6921C18.829 15.6921 17.9479 14.7204 18.829 13.2572C20.0616 10.9603 23.3422 9.8902 26.6222 9.34477C29.7643 8.82241 33.0432 8.71553 37.0446 9.3553C41.0465 9.99508 42.8843 12.2187 43.21 12.9004C43.5356 13.5823 43.937 14.6305 43.21 15.56H45.8305C46.5721 12.9739 44.4432 10.8973 40.2206 9.43408C35.9981 7.97088 31.7106 8.06321 28.9141 8.144C22.3885 8.33267 19.9105 9.66992 17.5725 11.3062ZM16.9211 13.1312C17.5491 12.3447 18.4333 11.5684 18.5961 11.5684C18.759 11.5684 18.6662 11.6419 18.2938 12.1871C17.9215 12.7326 17.3396 13.3096 17.2001 13.5612C17.0606 13.8129 16.9912 14.0753 16.5955 14.0018C16.451 13.975 16.2932 13.9178 16.9211 13.1312ZM45.3268 14.348C45.1873 14.9878 45.0711 15.3027 44.7455 15.334C44.4193 15.3654 44.187 15.3443 44.1642 15.2397C44.1408 15.1348 44.4432 14.7991 44.4198 14.0334C44.3965 13.2677 44.0941 12.9742 44.187 12.9006C44.2642 12.8394 44.6988 12.7642 44.8616 12.8377C45.0245 12.9112 45.4663 13.7083 45.3268 14.348Z"
        fill="#DD1D45" />
  <path d="M60.6968 43.8095C60.757 40.9808 60.0531 19.8145 59.9301 17.8986C59.807 15.9827 56.3178 15.4046 54.4798 15.3753C52.6418 15.3461 48.2646 15.5568 47.4678 15.5568C46.6727 15.5568 38.0387 15.4949 32.0068 15.5568C25.9748 15.6188 12.443 15.7693 9.99322 15.7693C7.54344 15.7693 5.0122 16.0792 4.69701 16.4989C3.44069 18.1731 4.54296 29.4242 4.54296 37.0879C4.54296 44.7515 4.91038 49.0092 5.24682 50.0734C5.58325 51.1376 6.93165 54.0575 7.42126 54.5135C7.91086 54.9694 8.82898 54.9092 12.412 54.9694C15.9942 55.0314 16.3005 55.2129 24.7805 55.2129C33.2604 55.2129 42.0184 54.9384 49.4908 54.726C56.9632 54.5135 57.6644 54.3913 59.4715 53.1447C61.2776 51.8981 60.6348 46.6373 60.6959 43.8086L60.6968 43.8095ZM59.3776 33.4986C59.1633 33.2551 57.9035 31.6128 57.567 31.6447C57.2306 31.6739 57.2926 32.3131 57.3528 32.6168C57.4148 32.9205 59.2554 34.4707 59.2554 34.654C59.2554 34.8373 59.4086 36.4486 59.3174 36.3875C59.2244 36.3256 57.9646 34.1069 57.567 34.2892C57.1686 34.4716 57.1686 35.1711 57.1996 35.4136C57.2306 35.658 59.2864 37.4216 59.2864 37.7262C59.2864 38.0308 59.4077 39.581 59.2864 39.2773C59.1625 38.9737 57.6582 36.7833 57.3218 36.9657C56.9854 37.1481 56.9234 37.7271 57.0766 38.0609C57.2297 38.3955 59.2244 40.1893 59.2554 40.5239C59.2855 40.8586 59.4679 42.9268 59.2855 42.7745C59.1014 42.6222 57.9035 40.3415 57.1979 40.1893C56.494 40.037 56.401 40.585 56.7082 40.8586C57.0146 41.1331 57.8158 42.3495 58.1523 42.9569C58.4887 43.5651 59.3767 44.3558 59.4077 44.5381C59.4387 44.7205 59.4697 47.3359 59.2855 47.2146C59.1023 47.0933 58.2089 44.8427 57.3829 43.8697C56.556 42.8958 56.1275 42.4089 55.8822 42.6833C55.637 42.9578 55.76 43.4129 56.0044 43.7785C56.2496 44.1433 58.1213 46.9109 58.3054 47.2146C58.4896 47.5183 58.6419 47.7927 58.5799 48.0052C58.5179 48.2177 58.2134 48.4922 58.2134 48.7046C58.2134 48.9171 58.1204 48.9791 58.0894 48.7666C58.0593 48.5541 55.6361 45.1464 55.1465 44.447C54.6569 43.7475 54.5958 43.5651 54.1372 43.7776C53.6786 43.9901 54.1673 44.6276 54.3196 44.8401C54.4727 45.0525 57.7229 49.4333 57.753 49.8282C57.784 50.2239 57.2926 50.6799 57.0491 50.5577C56.8056 50.4355 53.737 45.6006 53.2173 44.8401C52.6967 44.0786 52.4824 44.0786 52.208 44.4151C51.9317 44.7489 52.5745 45.3571 53.034 46.1477C53.4944 46.9384 55.4581 49.8273 55.7954 50.192C56.1319 50.5577 56.1939 50.9835 56.1939 50.9835C56.1939 50.9835 55.1845 51.3182 54.9694 51.1358C54.7551 50.9534 51.1987 45.2358 50.8622 45.2358C50.5258 45.2358 50.2195 45.6918 50.3115 45.8441C50.4036 45.9963 54.1434 51.1659 53.745 51.1952C53.3465 51.2261 52.3372 51.4076 52.092 51.2261C51.8467 51.0446 49.5767 46.9074 49.1163 46.8773C48.6559 46.8472 48.4133 47.6068 48.4434 47.729C48.4744 47.8503 51.0508 51.0438 50.8366 51.196C50.6223 51.3483 49.9795 51.5608 49.6121 51.2872C49.2447 51.0128 47.25 47.0906 46.9436 46.9685C46.6373 46.8463 45.9033 47.3332 46.0875 47.5156C46.2708 47.6989 48.8171 51.4696 48.3885 51.4696C47.9609 51.4696 47.3482 51.5608 47.165 51.3173C46.9817 51.0739 44.8639 47.7901 44.5877 47.698C44.3132 47.6068 43.7316 47.7892 43.8847 48.1539C44.0379 48.5196 46.7675 51.4687 46.308 51.4687C45.8476 51.4687 44.5638 51.7432 44.3779 51.4395C44.1919 51.1358 42.4451 48.1867 42.0485 48.0946C41.6519 48.0026 40.9197 47.6086 40.9807 47.8211C41.0418 48.0335 43.3686 51.4395 43.0932 51.4705C42.817 51.5006 41.6837 51.5617 41.4695 51.4085C41.2552 51.258 39.6014 47.7909 39.2959 47.7608C38.9905 47.7299 38.531 48.1557 38.5929 48.3381C38.6549 48.5205 40.5522 51.4404 40.1848 51.5006C39.8174 51.5626 39.1755 51.6529 38.8993 51.4386C38.6248 51.2261 36.8479 48.2159 36.5115 48.1539C36.175 48.0937 35.5314 48.3664 35.6544 48.6409C35.7766 48.9154 37.6447 51.5307 37.3384 51.5608C37.0321 51.5909 35.8988 51.7131 35.7447 51.5608C35.5925 51.4085 33.6642 48.9154 33.48 48.825C33.2967 48.733 32.592 48.9756 32.7761 49.1588C32.9594 49.3421 34.7062 51.4103 34.3379 51.4696C33.9714 51.5316 25.827 51.8353 20.5299 51.8964C15.2328 51.9583 12.1721 51.9583 10.1508 51.6529C8.12954 51.3474 7.30439 50.6489 6.84489 50.254C6.37919 49.8627 6.04276 45.7564 5.98167 41.3774C5.92146 36.9993 5.61513 26.8726 5.55404 24.3166C5.49295 21.7605 5.27958 18.6609 5.64611 17.9916C5.85506 17.6109 8.00471 17.5356 14.8326 17.2302C21.6605 16.9247 28.5494 16.9575 37.5199 16.8672C46.4921 16.7751 51.1146 16.6228 53.4723 16.7751C55.83 16.9274 58.2178 17.231 58.6463 18.0527C59.0748 18.8734 59.259 25.4427 59.0748 25.2905C58.8907 25.1382 57.9725 24.0439 57.7583 24.2865C57.5431 24.5299 57.753 25.7765 57.5122 25.1072C57.6954 25.3197 59.135 26.476 59.1651 26.7805C59.1653 26.7827 59.1656 26.7849 59.1658 26.7871C59.1961 27.092 59.2557 27.6911 59.1651 27.5092C59.0722 27.3268 58.0938 26.1103 57.8167 26.3848C57.5396 26.6592 57.7512 27.9952 57.6025 27.3569C57.8769 27.6004 59.2253 29.0904 59.2864 29.4251C59.3484 29.7597 59.3174 30.5203 59.1943 30.3069C59.0722 30.0944 58.0567 28.8469 57.6883 29.1524C57.3218 29.4552 57.4759 30.1856 57.5361 30.3388C57.5963 30.4919 59.3165 31.4632 59.3165 31.6155C59.3165 31.7677 59.5945 33.7456 59.3803 33.5013L59.3776 33.4986ZM9.6559 49.0995C9.31946 48.7958 9.6559 46.7577 9.47352 46.4231C9.29025 46.0884 8.41817 46.1079 8.27828 46.4231C8.0658 46.91 8.126 48.4913 8.37125 49.3421C8.61649 50.1929 9.25837 50.7109 10.1154 50.5887C10.9724 50.4665 10.9423 49.6458 10.8502 49.4333C10.7582 49.2208 9.99145 49.4032 9.65502 49.0995H9.6559ZM8.37213 20.8486C8.5554 20.1191 9.74975 20.1492 10.0871 19.9668C10.4235 19.7844 10.4855 19.8455 10.4235 19.4498C10.3615 19.054 9.96312 18.629 8.73956 18.8415C7.51599 19.054 6.90244 20.1483 6.93343 21.0903C6.96441 22.0341 6.89093 24.0607 7.17867 24.2245C7.60718 24.4671 8.09679 24.4671 8.28094 24.2537C8.46509 24.0403 8.18886 21.5782 8.37213 20.8486ZM57.2085 19.9057C57.421 19.633 57.575 19.4188 56.8101 18.2944C56.0451 17.17 54.3488 16.8574 54.0539 17.0177C53.1048 17.5347 53.6254 18.5989 54.5143 18.629C55.4015 18.6591 55.83 19.7534 56.1363 20.1191C56.4426 20.4847 56.9933 20.1811 57.2076 19.9066L57.2085 19.9057Z"
        fill="black" />
  <path fill-rule="evenodd"
        clip-rule="evenodd"
        d="M57.5671 31.6445C57.9035 31.6126 59.1634 33.255 59.3777 33.4984L59.3803 33.5011C59.5946 33.7454 59.3166 31.7675 59.3166 31.6153C59.3166 31.463 57.5963 30.4918 57.5361 30.3386C57.4759 30.1854 57.3219 29.455 57.6884 29.1522C58.0567 28.8468 59.0722 30.0942 59.1944 30.3067C59.3175 30.5201 59.3484 29.7596 59.2865 29.4249C59.229 29.1102 58.0334 27.774 57.6627 27.4131C57.6631 27.5595 57.6569 27.5903 57.6025 27.3567C57.6189 27.3712 57.6391 27.3902 57.6627 27.4131C57.6618 27.1595 57.6411 26.5586 57.8168 26.3846C58.0939 26.1101 59.0722 27.3266 59.1652 27.509C59.2557 27.6909 59.1961 27.0918 59.1658 26.7869L59.1652 26.7803C59.1389 26.5144 58.0379 25.5991 57.6371 25.2297C57.6258 25.3408 57.5968 25.3421 57.5122 25.107C57.5355 25.1339 57.5789 25.1761 57.6371 25.2297C57.6581 25.0245 57.6188 24.4442 57.7583 24.2863C57.9726 24.0437 58.8907 25.138 59.0749 25.2903C59.259 25.4426 59.0749 18.8732 58.6464 18.0525C58.2178 17.2309 55.83 16.9272 53.4723 16.7749C51.1146 16.6226 46.4922 16.7749 37.5199 16.867C28.5495 16.9573 21.6605 16.9245 14.8326 17.23C8.00476 17.5354 5.85511 17.6107 5.64617 17.9914C5.27963 18.6607 5.493 21.7603 5.55409 24.3164C5.61518 26.8724 5.92152 36.9991 5.98172 41.3772C6.04281 45.7562 6.37925 49.8625 6.84494 50.2538C7.30444 50.6487 8.1296 51.3472 10.1509 51.6527C12.1721 51.9581 15.2328 51.9581 20.5299 51.8962C25.827 51.8351 33.9714 51.5314 34.338 51.4694C34.7063 51.4101 32.9595 49.3419 32.7762 49.1586C32.592 48.9754 33.2968 48.7328 33.4801 48.8249C33.6642 48.9152 35.5925 51.4083 35.7448 51.5606C35.8989 51.7129 37.0321 51.5907 37.3384 51.5606C37.6448 51.5305 35.7767 48.9152 35.6545 48.6407C35.5314 48.3662 36.1751 48.0936 36.5115 48.1538C36.848 48.2157 38.6249 51.2259 38.8993 51.4384C39.1756 51.6527 39.8174 51.5624 40.1849 51.5004C40.5523 51.4402 38.655 48.5203 38.593 48.3379C38.531 48.1555 38.9905 47.7297 39.296 47.7607C39.6014 47.7908 41.2553 51.2578 41.4695 51.4083C41.6838 51.5615 42.817 51.5004 43.0933 51.4703C43.3686 51.4393 41.0419 48.0333 40.9808 47.8209C40.9197 47.6084 41.6519 48.0024 42.0485 48.0944C42.4452 48.1865 44.192 51.1356 44.3779 51.4393C44.5639 51.743 45.8476 51.4685 46.308 51.4685C46.7675 51.4685 44.0379 48.5194 43.8848 48.1538C43.7316 47.789 44.3133 47.6066 44.5878 47.6978C44.864 47.7899 46.9818 51.0737 47.165 51.3171C47.3483 51.5606 47.961 51.4694 48.3886 51.4694C48.8171 51.4694 46.2708 47.6987 46.0876 47.5154C45.9034 47.333 46.6374 46.8461 46.9437 46.9683C47.25 47.0904 49.2447 51.0126 49.6122 51.287C49.9796 51.5606 50.6224 51.3481 50.8366 51.1958C51.0509 51.0436 48.4745 47.8501 48.4435 47.7288C48.4134 47.6066 48.656 46.847 49.1164 46.8771C49.5767 46.9072 51.8468 51.0445 52.092 51.226C52.3373 51.4074 53.3466 51.226 53.745 51.195C54.1434 51.1657 50.4037 45.9961 50.3116 45.8439C50.2195 45.6916 50.5258 45.2356 50.8623 45.2356C51.1987 45.2356 54.7552 50.9533 54.9695 51.1356C55.1846 51.318 56.1939 50.9834 56.1939 50.9834C56.1939 50.9834 56.1319 50.5575 55.7955 50.1918C55.4582 49.8271 53.4945 46.9382 53.0341 46.1475C52.5746 45.3569 51.9318 44.7487 52.208 44.4149C52.4825 44.0784 52.6967 44.0785 53.2173 44.8399C53.737 45.6004 56.8057 50.4353 57.0492 50.5575C57.2926 50.6797 57.784 50.2237 57.753 49.828C57.7229 49.4331 54.4728 45.0523 54.3196 44.8399C54.1673 44.6274 53.6786 43.9899 54.1372 43.7774C54.5958 43.5649 54.6569 43.7473 55.1465 44.4468C55.6361 45.1462 58.0594 48.5539 58.0895 48.7664C58.1205 48.9789 58.2134 48.9169 58.2134 48.7044C58.2134 48.492 58.518 48.2175 58.58 48.005C58.6419 47.7925 58.4896 47.5181 58.3055 47.2144C58.1213 46.9107 56.2497 44.1431 56.0044 43.7783C55.7601 43.4127 55.637 42.9576 55.8823 42.6831C56.1275 42.4087 56.556 42.8956 57.3829 43.8695C58.209 44.8425 59.1023 47.0931 59.2856 47.2144C59.4697 47.3357 59.4387 44.7203 59.4078 44.538C59.3768 44.3556 58.4888 43.5649 58.1523 42.9567C57.8159 42.3493 57.0146 41.1329 56.7083 40.8584C56.4011 40.5848 56.494 40.0368 57.1979 40.1891C57.9035 40.3414 59.1014 42.622 59.2856 42.7743C59.468 42.9266 59.2856 40.8584 59.2555 40.5237C59.2245 40.1891 57.2298 38.3953 57.0766 38.0607C56.9234 37.7269 56.9854 37.1479 57.3219 36.9655C57.6583 36.7831 59.1625 38.9735 59.2865 39.2772C59.4078 39.5808 59.2865 38.0306 59.2865 37.726C59.2865 37.4214 57.2307 35.6578 57.1997 35.4135C57.1687 35.1709 57.1687 34.4714 57.5671 34.289C57.9646 34.1067 59.2245 36.3254 59.3175 36.3873C59.4086 36.4484 59.2555 34.8371 59.2555 34.6538C59.2555 34.4705 57.4148 32.9203 57.3528 32.6166C57.2926 32.3129 57.2307 31.6737 57.5671 31.6445ZM9.47357 46.4229C9.65596 46.7575 9.31952 48.7956 9.65596 49.0993H9.65507C9.99151 49.403 10.7582 49.2206 10.8503 49.4331C10.9424 49.6456 10.9725 50.4663 10.1155 50.5885C9.25843 50.7107 8.61655 50.1927 8.3713 49.3419C8.12606 48.4911 8.06585 46.9098 8.27834 46.4229C8.41822 46.1077 9.2903 46.0882 9.47357 46.4229ZM10.0871 19.9666C9.7498 20.149 8.55546 20.1189 8.37219 20.8484C8.18892 21.578 8.46515 24.0401 8.28099 24.2535C8.09684 24.4669 7.60724 24.4669 7.17872 24.2243C6.89098 24.0605 6.96447 22.0339 6.93348 21.0901C6.90249 20.1481 7.51605 19.0538 8.73961 18.8413C9.96317 18.6288 10.3616 19.0538 10.4236 19.4496C10.4855 19.8453 10.4236 19.7842 10.0871 19.9666ZM56.8101 18.2942C57.5751 19.4186 57.421 19.6328 57.2085 19.9055L57.2076 19.9064C56.9934 20.1809 56.4427 20.4845 56.1364 20.1189C55.83 19.7532 55.4015 18.6589 54.5144 18.6288C53.6255 18.5987 53.1049 17.5345 54.054 17.0175C54.3488 16.8572 56.0452 17.1698 56.8101 18.2942Z"
        fill="#DD1D45" />
  <path d="M39.2584 41.7178C39.2728 41.0423 39.1047 35.9873 39.0753 35.5298C39.0459 35.0722 38.2126 34.9342 37.7737 34.9272C37.3347 34.9202 36.2894 34.9705 36.0991 34.9705C35.9092 34.9705 33.8472 34.9557 32.4067 34.9705C30.9661 34.9853 27.7345 35.0213 27.1494 35.0213C26.5644 35.0213 25.9598 35.0953 25.8846 35.1955C25.5845 35.5953 25.8478 38.2823 25.8478 40.1126C25.8478 41.9428 25.9355 42.9596 26.0159 43.2138C26.0962 43.4679 26.4182 44.1652 26.5352 44.2741C26.6521 44.383 26.8714 44.3686 27.7271 44.383C28.5826 44.3978 28.6557 44.4412 30.6809 44.4412C32.7061 44.4412 34.7976 44.3756 36.5822 44.3249C38.3668 44.2741 38.5342 44.245 38.9658 43.9472C39.3971 43.6495 39.2438 42.3934 39.2584 41.7178ZM38.9434 39.2554C38.8922 39.1972 38.49 38.5944 38.4097 38.602C38.3293 38.609 38.3441 38.7617 38.3585 38.8342C38.3733 38.9067 38.9142 39.4875 38.9142 39.5313C38.9142 39.5751 38.9508 39.9599 38.929 39.9453C38.9068 39.9305 38.5046 39.19 38.4097 39.2336C38.3145 39.2771 38.3145 39.4442 38.3219 39.5021C38.3293 39.5605 38.9216 40.1923 38.9216 40.265C38.9216 40.3377 38.9506 40.708 38.9216 40.6354C38.892 40.5629 38.4315 39.8292 38.3511 39.8728C38.2708 39.9163 38.256 40.0546 38.2926 40.1343C38.3291 40.2143 38.9068 40.8532 38.9142 40.9332C38.9214 41.0131 38.9649 41.507 38.9214 41.4706C38.8774 41.4343 38.49 40.679 38.3215 40.6426C38.1534 40.6063 38.1312 40.7371 38.2046 40.8025C38.2778 40.868 38.5704 41.3691 38.6507 41.5142C38.7311 41.6595 38.9432 41.8483 38.9506 41.8918C38.958 41.9354 38.9654 42.56 38.9214 42.531C38.8776 42.502 38.563 41.754 38.3657 41.5216C38.1682 41.289 38.0659 41.1727 38.0073 41.2383C37.9488 41.3038 37.9781 41.4125 38.0365 41.4998C38.0951 41.5869 38.6433 42.4585 38.6873 42.531C38.7313 42.6035 38.7677 42.6691 38.7529 42.7198C38.7381 42.7706 38.6653 42.8361 38.6653 42.8869C38.6653 42.9376 38.6431 42.9524 38.6357 42.9017C38.6285 42.8509 37.9485 41.8265 37.8316 41.6595C37.7147 41.4924 37.7001 41.4489 37.5906 41.4996C37.481 41.5503 37.5978 41.7026 37.6341 41.7533C37.6707 41.8041 38.5482 43.0609 38.5554 43.1552C38.5628 43.2497 38.4454 43.3586 38.3873 43.3294C38.3291 43.3002 37.495 41.935 37.3709 41.7533C37.2466 41.5715 37.1954 41.5715 37.1298 41.6518C37.0639 41.7316 37.2174 41.8768 37.3271 42.0656C37.4371 42.2544 38.0073 43.155 38.0879 43.2421C38.1682 43.3294 38.183 43.4311 38.183 43.4311C38.183 43.4311 37.942 43.511 37.8906 43.4675C37.8394 43.4239 36.8888 41.8478 36.8084 41.8478C36.7281 41.8478 36.6549 41.9567 36.6769 41.9931C36.6989 42.0295 37.6933 43.4747 37.5982 43.4817C37.503 43.4891 37.262 43.5324 37.2034 43.4891C37.1449 43.4457 36.5014 42.247 36.3915 42.2399C36.2815 42.2327 36.2236 42.4141 36.2308 42.4433C36.2382 42.4722 36.9548 43.4455 36.9036 43.4819C36.8524 43.5182 36.6989 43.569 36.6112 43.5036C36.5234 43.4381 35.9458 42.2908 35.8726 42.2616C35.7995 42.2325 35.6242 42.3488 35.6681 42.3923C35.7119 42.4361 36.4213 43.5472 36.319 43.5472C36.2168 43.5472 36.0705 43.569 36.0268 43.5108C35.983 43.4527 35.3759 42.4579 35.31 42.4359C35.2444 42.4141 35.1055 42.4576 35.1421 42.5448C35.1787 42.6321 35.9318 43.547 35.8221 43.547C35.7121 43.547 35.4055 43.6125 35.3611 43.54C35.3167 43.4675 34.7983 42.5526 34.7036 42.5306C34.6088 42.5086 34.5352 42.6251 34.5498 42.6758C34.5644 42.7266 35.1201 43.54 35.0543 43.5474C34.9884 43.5546 34.7177 43.5692 34.6666 43.5326C34.6154 43.4967 34.2204 42.6687 34.1475 42.6615C34.0745 42.6541 33.9648 42.7558 33.9796 42.7993C33.9944 42.8429 34.4475 43.5402 34.3598 43.5546C34.272 43.5694 34.1187 43.591 34.0527 43.5398C33.9872 43.4891 33.5628 42.7702 33.4825 42.7554C33.4021 42.741 33.2484 42.8061 33.2778 42.8716C33.307 42.9372 33.7531 43.5618 33.68 43.569C33.6068 43.5762 33.3362 43.6053 33.2994 43.569C33.263 43.5326 32.8025 42.9372 32.7585 42.9156C32.7147 42.8936 32.5464 42.9516 32.5904 42.9953C32.6342 43.0391 33.0514 43.533 32.9634 43.5472C32.8759 43.562 30.9308 43.6345 29.6658 43.6491C28.4007 43.6639 27.6698 43.6639 27.187 43.591C26.7043 43.518 26.5073 43.3512 26.3975 43.2569C26.2863 43.1634 26.206 42.1828 26.1914 41.137C26.177 40.0914 26.1038 37.6729 26.0892 37.0625C26.0747 36.4521 26.0237 35.7118 26.1112 35.552C26.1611 35.4611 26.6745 35.4431 28.3051 35.3701C29.9358 35.2972 31.581 35.305 33.7233 35.2835C35.8661 35.2615 36.97 35.2251 37.5331 35.2615C38.0961 35.2978 38.6664 35.3704 38.7687 35.5666C38.8711 35.7626 38.915 37.3315 38.8711 37.2951C38.8271 37.2587 38.6078 36.9974 38.5566 37.0553C38.5053 37.1135 38.4541 37.2006 38.4979 37.2513C38.5416 37.3021 38.8854 37.5782 38.8926 37.651L38.8928 37.6525C38.9 37.7253 38.9142 37.8684 38.8926 37.825C38.8704 37.7814 38.6368 37.4909 38.5706 37.5564C38.5044 37.622 38.4537 37.7305 38.5194 37.7886C38.585 37.8468 38.907 38.2026 38.9216 38.2825C38.9364 38.3625 38.929 38.5441 38.8996 38.4931C38.8704 38.4424 38.5266 37.9339 38.4387 38.0068C38.3511 38.0791 38.3879 38.2536 38.4023 38.2901C38.4167 38.3267 38.9288 38.7693 38.9288 38.8056C38.9288 38.842 38.9952 39.3144 38.944 39.256L38.9434 39.2554ZM28.5456 36.8513C28.7136 37.0113 30.0373 38.0789 30.9659 38.776C31.8946 39.4732 32.1504 39.5457 32.8232 39.5313C33.496 39.5169 33.8834 39.2336 34.4978 38.8779C35.1118 38.5219 36.8228 36.8515 37.0423 36.5536C37.2618 36.2559 37.1227 36.2195 36.9694 36.154C36.8158 36.0888 36.2162 36.0888 34.0885 36.1324C31.9607 36.1759 29.4964 36.1979 29.0213 36.2049C28.5462 36.2119 28.2121 36.2717 28.1804 36.3212C28.0778 36.4811 28.3775 36.6914 28.5456 36.8513ZM32.7279 36.9168C34.3221 36.924 36.1426 36.8443 36.2086 36.9168C36.2741 36.9894 35.0457 38.1516 34.2929 38.602C33.5402 39.0524 33.196 39.2771 32.5232 39.1828C31.8504 39.0883 30.5855 38.0136 30.1028 37.6577C29.6201 37.3019 29.3279 37.0475 29.3501 36.9965C29.3664 36.9585 31.1338 36.9096 32.7279 36.9168ZM37.8172 36.7134C37.6197 36.6771 36.9472 37.5268 36.5232 38.0569C36.0993 38.587 35.6487 39.148 35.6383 39.1826C35.5948 39.3281 35.7409 39.3571 36.1648 39.7275C36.5888 40.098 37.1157 40.8532 37.3277 41.1146C37.5398 41.3763 37.6713 41.4343 37.8251 41.3254C37.9786 41.2165 37.942 41.1002 37.964 40.5991C37.9858 40.098 38.0147 38.3403 38.0515 37.6283C38.0879 36.9168 38.0147 36.7498 37.8172 36.7134ZM37.6713 40.9475C37.598 40.904 36.9765 40.0324 36.8302 39.9017C36.6839 39.7711 36.4355 39.5749 36.4137 39.4806C36.4004 39.4239 37.6929 37.8901 37.7369 37.9408C37.7809 37.9916 37.7443 40.9911 37.6713 40.9475ZM35.7627 40.5335C35.448 40.1487 35.2601 40.0499 34.9662 39.9453C34.5142 39.7844 33.1524 39.5313 32.8232 39.5313C33.1373 39.5313 32.494 39.5313 32.8232 39.5313C32.0978 39.5468 31.4005 40.0266 31.0688 40.2432C30.8054 40.4153 29.4592 41.7174 29.3421 41.8629C29.2251 42.0079 29.5027 42.2695 29.6782 42.2912C29.8537 42.313 30.3365 42.2912 32.6469 42.1967C34.9579 42.1022 36.069 42.0225 36.2739 41.9789C36.4786 41.9354 36.486 41.7538 36.442 41.6159C36.398 41.478 36.0771 40.9184 35.7627 40.5335ZM36.0915 41.6884C36.0477 41.732 34.4536 41.8626 32.4574 41.9426C30.4612 42.0225 30.1322 41.9933 30.1542 41.9574C30.1762 41.9214 31.1998 40.7585 31.3023 40.7443C31.7325 40.414 32.3481 39.9812 32.8232 39.9958C33.2985 40.0106 34.1076 39.9952 35.0926 40.3367C35.1657 40.3439 35.8428 41.0712 35.9745 41.3036C36.106 41.5362 36.1352 41.6449 36.0915 41.6884ZM29.2767 38.4639C28.801 38.0062 27.6275 37.0092 27.4998 37.0113C26.9443 37.0183 27.1124 37.8681 27.1488 38.972C27.1856 40.0758 27.3539 41.4924 27.4414 41.8698C27.5292 42.2475 27.8072 42.2547 28.0334 42.1967C28.2597 42.1388 28.4358 41.8409 28.882 41.2816C29.3281 40.7223 29.9787 39.8218 30.0373 39.4294C30.0958 39.037 29.752 38.9215 29.2767 38.4639ZM28.3629 41.4922C28.1654 41.732 28.1874 41.7392 28.1362 41.732C28.085 41.7248 28.1362 39.5313 28.1142 39.1249C28.0922 38.7185 28.0487 38.2605 28.085 38.1806C28.1094 38.1273 28.7722 38.6965 29.1306 38.994C29.489 39.2915 29.6791 39.4586 29.6937 39.5311C29.7085 39.6038 28.5604 41.2524 28.3629 41.4922ZM27.0689 42.9812C26.9885 42.9086 27.0689 42.4219 27.0253 42.342C26.9815 42.2621 26.7733 42.2667 26.7398 42.342C26.6891 42.4583 26.7035 42.8359 26.7621 43.0391C26.8206 43.2423 26.9739 43.366 27.1786 43.3368C27.3833 43.3076 27.3761 43.1116 27.3541 43.0609C27.3321 43.0101 27.1492 43.0537 27.0689 42.9812ZM26.7623 36.2343C26.806 36.0601 27.0913 36.0673 27.1718 36.0237C27.2522 35.9802 27.267 35.9947 27.2522 35.9002C27.2374 35.8057 27.1422 35.7042 26.85 35.755C26.5578 35.8057 26.4113 36.0671 26.4187 36.292C26.4261 36.5174 26.4085 37.0014 26.4772 37.0405C26.5796 37.0985 26.6965 37.0985 26.7405 37.0475C26.7845 36.9965 26.7185 36.4085 26.7623 36.2343ZM38.4253 36.0091C38.4761 35.944 38.5129 35.8928 38.3302 35.6243C38.1475 35.3558 37.7424 35.2811 37.672 35.3194C37.4453 35.4429 37.5696 35.697 37.7819 35.7042C37.9938 35.7114 38.0961 35.9728 38.1693 36.0601C38.2424 36.1474 38.3742 36.0747 38.4253 36.0091Z"
        fill="black" />
  <path fill-rule="evenodd"
        clip-rule="evenodd"
        d="M38.9434 39.2554C38.8923 39.1973 38.4901 38.5945 38.4097 38.6021C38.3294 38.6091 38.3442 38.7617 38.3586 38.8343C38.3734 38.9068 38.9142 39.4876 38.9142 39.5314C38.9142 39.5751 38.9508 39.96 38.929 39.9454C38.9068 39.9306 38.5047 39.1901 38.4097 39.2337C38.3146 39.2772 38.3146 39.4443 38.322 39.5022C38.3294 39.5606 38.9216 40.1923 38.9216 40.2651C38.9216 40.3378 38.9506 40.708 38.9216 40.6355C38.892 40.563 38.4315 39.8293 38.3512 39.8729C38.2708 39.9164 38.256 40.0547 38.2926 40.1344C38.3292 40.2143 38.9068 40.8533 38.9142 40.9332C38.9214 41.0132 38.965 41.5071 38.9214 41.4707C38.8775 41.4343 38.4901 40.6791 38.3216 40.6427C38.1535 40.6063 38.1313 40.7372 38.2046 40.8026C38.2778 40.8681 38.5704 41.3692 38.6508 41.5143C38.7311 41.6595 38.9432 41.8483 38.9506 41.8919C38.958 41.9355 38.9654 42.5601 38.9214 42.5311C38.8777 42.5021 38.563 41.754 38.3658 41.5217C38.1683 41.2891 38.0659 41.1728 38.0074 41.2383C37.9488 41.3039 37.9782 41.4126 38.0366 41.4999C38.0951 41.587 38.6434 42.4586 38.6874 42.5311C38.7313 42.6036 38.7677 42.6692 38.7529 42.7199C38.7381 42.7707 38.6654 42.8362 38.6654 42.8869C38.6654 42.9377 38.6432 42.9525 38.6358 42.9017C38.6286 42.851 37.9486 41.8266 37.8317 41.6595C37.7147 41.4925 37.7001 41.4489 37.5906 41.4997C37.4811 41.5504 37.5978 41.7027 37.6342 41.7534C37.6708 41.8042 38.5482 43.061 38.5554 43.1553C38.5628 43.2498 38.4455 43.3587 38.3873 43.3295C38.3292 43.3003 37.4951 41.935 37.3709 41.7534C37.2466 41.5716 37.1954 41.5716 37.1299 41.6519C37.0639 41.7316 37.2174 41.8769 37.3272 42.0657C37.4371 42.2545 38.0074 43.1551 38.0879 43.2422C38.1683 43.3295 38.1831 43.4312 38.1831 43.4312C38.1831 43.4312 37.942 43.5111 37.8907 43.4676C37.8395 43.424 36.8889 41.8479 36.8085 41.8479C36.7282 41.8479 36.655 41.9568 36.677 41.9932C36.699 42.0296 37.6934 43.4748 37.5982 43.4817C37.5031 43.4891 37.262 43.5325 37.2035 43.4891C37.1449 43.4458 36.5015 42.2471 36.3915 42.2399C36.2816 42.2327 36.2237 42.4142 36.2308 42.4433C36.2382 42.4723 36.9548 43.4456 36.9037 43.4819C36.8525 43.5183 36.699 43.5691 36.6112 43.5037C36.5235 43.4382 35.9458 42.2909 35.8727 42.2617C35.7995 42.2325 35.6242 42.3488 35.6682 42.3924C35.712 42.4362 36.4214 43.5473 36.319 43.5473C36.2169 43.5473 36.0706 43.5691 36.0268 43.5109C35.983 43.4528 35.376 42.4579 35.31 42.4359C35.2445 42.4142 35.1056 42.4577 35.1421 42.5448C35.1787 42.6322 35.9319 43.5471 35.8221 43.5471C35.7122 43.5471 35.4056 43.6126 35.3612 43.5401C35.3168 43.4676 34.7983 42.5527 34.7036 42.5307C34.6089 42.5087 34.5353 42.6252 34.5499 42.6759C34.5645 42.7267 35.1201 43.5401 35.0544 43.5475C34.9884 43.5547 34.7178 43.5693 34.6666 43.5327C34.6154 43.4967 34.2205 42.6687 34.1475 42.6615C34.0746 42.6541 33.9648 42.7559 33.9796 42.7994C33.9944 42.843 34.4476 43.5403 34.3598 43.5547C34.2721 43.5695 34.1188 43.591 34.0528 43.5399C33.9872 43.4891 33.5629 42.7702 33.4825 42.7554C33.4022 42.7411 33.2485 42.8062 33.2779 42.8717C33.307 42.9373 33.7532 43.5619 33.68 43.5691C33.6069 43.5762 33.3362 43.6054 33.2994 43.5691C33.2631 43.5327 32.8025 42.9373 32.7586 42.9157C32.7148 42.8937 32.5465 42.9516 32.5905 42.9954C32.6342 43.0392 33.0514 43.5331 32.9635 43.5473C32.8759 43.5621 30.9309 43.6346 29.6658 43.6492C28.4008 43.664 27.6698 43.664 27.1871 43.591C26.7044 43.5181 26.5073 43.3513 26.3976 43.257C26.2864 43.1635 26.206 42.1828 26.1914 41.1371C26.177 40.0915 26.1039 37.673 26.0893 37.0626C26.0747 36.4522 26.0238 35.7119 26.1113 35.5521C26.1612 35.4611 26.6746 35.4432 28.3052 35.3702C29.9358 35.2973 31.5811 35.3051 33.7234 35.2835C35.8661 35.2615 36.97 35.2252 37.5331 35.2615C38.0962 35.2979 38.6664 35.3704 38.7688 35.5667C38.8711 35.7627 38.9151 37.3315 38.8711 37.2952C38.8271 37.2588 38.6079 36.9975 38.5567 37.0554C38.5053 37.1136 38.4541 37.2007 38.4979 37.2514C38.5417 37.3022 38.8855 37.5783 38.8927 37.651L38.8928 37.6526C38.9001 37.7254 38.9143 37.8685 38.8927 37.8251C38.8705 37.7815 38.6368 37.491 38.5707 37.5565C38.5045 37.6221 38.4537 37.7305 38.5195 37.7887C38.585 37.8468 38.9071 38.2027 38.9216 38.2826C38.9364 38.3625 38.929 38.5442 38.8997 38.4932C38.8705 38.4425 38.5267 37.9339 38.4387 38.0069C38.3512 38.0792 38.388 38.2536 38.4023 38.2902C38.4167 38.3268 38.9288 38.7693 38.9288 38.8057C38.9288 38.8421 38.9952 39.3144 38.9441 39.2561L38.9434 39.2554ZM30.966 38.7761C30.0373 38.079 28.7137 37.0114 28.5456 36.8514C28.3775 36.6915 28.0779 36.4811 28.1804 36.3213C28.2122 36.2718 28.5462 36.212 29.0213 36.205C29.4965 36.198 31.9608 36.176 34.0885 36.1325C36.2163 36.0889 36.8159 36.0889 36.9694 36.154C37.1227 36.2196 37.2618 36.2559 37.0424 36.5537C36.8229 36.8516 35.1119 38.522 34.4979 38.878C33.8834 39.2337 33.4961 39.517 32.8233 39.5314C33.1525 39.5314 34.5142 39.7845 34.9663 39.9454C35.2601 40.05 35.4481 40.1488 35.7627 40.5336C36.0771 40.9184 36.3981 41.4781 36.4421 41.616C36.4861 41.7538 36.4787 41.9355 36.274 41.979C36.0691 42.0226 34.958 42.1023 32.6469 42.1968C30.3365 42.2913 29.8538 42.3131 29.6783 42.2913C29.5028 42.2695 29.2252 42.008 29.3421 41.8629C29.4592 41.7175 30.8055 40.4153 31.0689 40.2433C31.4005 40.0267 32.0979 39.5469 32.8233 39.5314C32.1505 39.5458 31.8946 39.4732 30.966 38.7761ZM36.5233 38.057C36.9472 37.5269 37.6198 36.6771 37.8173 36.7135C38.0148 36.7499 38.0879 36.9169 38.0516 37.6284C38.0148 38.3403 37.9858 40.098 37.964 40.5992C37.942 41.1003 37.9786 41.2166 37.8251 41.3255C37.6714 41.4343 37.5399 41.3764 37.3278 41.1146C37.1157 40.8533 36.5888 40.098 36.1649 39.7276C35.7409 39.3572 35.5948 39.3282 35.6384 39.1827C35.6487 39.148 36.0993 38.5871 36.5233 38.057ZM27.4998 37.0114C27.6275 37.0093 28.801 38.0063 29.2768 38.464C29.7521 38.9216 30.0959 39.037 30.0373 39.4295C29.9788 39.8219 29.3281 40.7224 28.882 41.2817C28.4359 41.8409 28.2597 42.1389 28.0335 42.1968C27.8073 42.2547 27.5292 42.2475 27.4415 41.8699C27.3539 41.4925 27.1856 40.0758 27.1488 38.9721C27.1125 37.8682 26.9444 37.0184 27.4998 37.0114ZM27.0253 42.3421C27.0689 42.422 26.9886 42.9087 27.0689 42.9812C27.1493 43.0538 27.3321 43.0102 27.3541 43.061C27.3761 43.1117 27.3833 43.3077 27.1786 43.3369C26.974 43.3661 26.8207 43.2424 26.7621 43.0392C26.7035 42.836 26.6892 42.4584 26.7399 42.3421C26.7733 42.2668 26.9816 42.2621 27.0253 42.3421ZM27.1719 36.0238C27.0913 36.0673 26.8061 36.0602 26.7623 36.2344C26.7185 36.4086 26.7845 36.9966 26.7405 37.0476C26.6966 37.0985 26.5796 37.0985 26.4773 37.0406C26.4086 37.0015 26.4261 36.5175 26.4187 36.2921C26.4113 36.0671 26.5579 35.8058 26.8501 35.755C27.1423 35.7043 27.2374 35.8058 27.2522 35.9003C27.267 35.9948 27.2522 35.9802 27.1719 36.0238ZM38.3302 35.6244C38.5129 35.8929 38.4761 35.9441 38.4254 36.0092C38.3742 36.0747 38.2425 36.1475 38.1693 36.0602C38.0962 35.9728 37.9938 35.7115 37.782 35.7043C37.5697 35.6971 37.4454 35.443 37.672 35.3195C37.7424 35.2812 38.1476 35.3558 38.3302 35.6244Z"
        fill="url(#paint0_linear)" />
  <path d="M20.8055 30.5488C19.9709 29.5242 17.5674 28.0142 15.3752 27.7275C13.183 27.4407 10.424 28.2771 8.82154 30.0371C7.21912 31.7972 6.63574 33.735 6.49883 35.8182C6.36193 37.9015 7.63578 39.9162 7.73187 39.9396C8.11034 40.0241 12.2323 39.4721 12.4639 39.3669C12.6955 39.2617 12.5351 39.2239 12.9368 38.6162C13.3386 38.0086 13.5086 38.2194 13.6479 38.0558C13.7871 37.8922 13.8899 35.414 13.8014 35.1936C13.7129 34.9731 13.2047 34.522 12.6997 33.7497C12.4086 33.2793 12.3018 32.7181 12.3998 32.1746C12.4978 31.631 12.7937 31.1436 13.2303 30.8067C14.2933 29.8918 15.5653 29.8857 16.2987 30.2878C17.0321 30.6899 18.0756 31.8029 18.0836 32.9212C18.0916 34.0394 16.8169 34.4999 16.7139 34.5981C16.6109 34.6963 15.9501 38.1943 15.9871 38.2879C16.1964 38.7049 16.2796 39.1737 16.2263 39.6366C16.1504 40.4143 15.6471 41.2397 14.3012 41.4557C12.9552 41.6718 12.245 40.3432 12.1791 40.2549C12.1131 40.1667 8.75417 40.734 8.50088 40.9377C8.24758 41.1414 8.5975 41.9149 9.31466 42.7246C10.2395 43.6573 11.4174 44.2975 12.7015 44.5653C13.922 44.7883 15.1741 44.7653 16.3843 44.4974C17.5945 44.2296 18.7385 43.7225 19.7492 43.0057C22.55 40.9966 22.7784 38.9755 22.9242 36.5546C23.0699 34.1336 21.6387 31.5712 20.8055 30.5488V30.5488ZM21.1779 35.9283C21.102 37.8066 20.9272 39.494 19.4245 40.8909C17.9219 42.2878 16.0328 43.0323 14.831 43.1435C13.6292 43.2546 12.2248 43.1954 11.1286 42.6825C10.0324 42.1696 9.29523 41.3336 9.3817 41.2655C9.46816 41.1974 11.8006 40.7207 11.8875 40.7858C11.9745 40.8509 12.9263 42.2991 14.3755 42.0922C15.8247 41.8852 16.6659 41.04 16.7936 39.9003C16.8922 39.3136 16.833 38.7107 16.6222 38.1536C16.6222 38.1536 17.2036 35.061 17.2567 35.0272C17.3098 34.9934 18.9384 34.1609 18.737 32.5863C18.5357 31.0116 17.2432 30.0735 16.4628 29.7046C15.6824 29.3357 13.7154 29.2343 12.3149 30.5368C11.7691 31.0455 11.4184 31.7295 11.3234 32.4708C11.2283 33.212 11.395 33.964 11.7946 34.5966C12.3952 35.4578 12.7295 35.6615 12.7295 35.6615L12.6492 37.4157C12.4265 37.5475 12.2399 37.7324 12.1058 37.9539C11.99 38.1405 11.9078 38.3461 11.863 38.5613C11.863 38.5613 8.83185 39.1183 8.08967 38.9725C7.99274 38.9529 6.84416 36.9463 7.1459 35.3409C7.44764 33.7355 8.03014 32.0001 9.11622 30.7188C10.2023 29.4374 12.707 28.0338 15.0891 28.2516C17.4712 28.4695 19.4477 30.3947 19.9062 31.099C20.3646 31.8033 21.2501 34.0492 21.1779 35.9283V35.9283ZM8.88538 33.373C8.78557 33.3845 8.21498 34.0737 7.93245 35.1589C7.75034 35.8237 7.83793 36.5344 8.17617 37.1363C8.33413 37.1358 8.48563 37.0742 8.59914 36.9645C8.64333 36.881 8.30094 36.4252 8.39919 35.3564C8.46629 34.6995 8.71652 34.0753 9.12133 33.5548C9.15045 33.5037 8.98077 33.3546 8.88538 33.373V33.373ZM14.0484 40.0246C13.8099 40.1673 13.555 40.2805 13.2892 40.3617C13.0583 40.5088 13.5179 41.1538 14.4912 41.0253C14.7091 40.9912 14.9166 40.909 15.0987 40.7848C15.2808 40.6605 15.433 40.4972 15.5443 40.3067C15.6555 40.1162 15.7231 39.9032 15.7421 39.6831C15.7611 39.4631 15.731 39.2414 15.6541 39.0341C15.3753 38.1633 14.6323 38.057 14.0099 38.3233C13.3874 38.5897 13.4621 39.0891 13.4931 39.1377C13.5241 39.1864 13.8031 39.1454 14.0904 39.2293C14.3776 39.3133 14.3258 39.8282 14.0484 40.0246V40.0246ZM14.2394 38.9944C14.0291 38.9395 13.8332 38.9276 13.9139 38.8045C13.9946 38.6815 14.7663 38.2419 15.132 38.9076C15.4977 39.5733 15.225 40.0727 14.7478 40.4548C14.2706 40.837 13.842 40.5109 13.8936 40.439C13.9452 40.3671 14.4755 40.3027 14.6174 39.8476C14.676 39.6843 14.6694 39.5045 14.599 39.3456C14.5286 39.1867 14.3998 39.0609 14.2394 38.9944V38.9944ZM16.6741 34.1025C17.3039 33.2617 17.7383 32.0634 16.5605 31.0555C15.3827 30.0475 14.3148 30.5879 13.7536 31.1083C12.406 32.3511 12.8432 33.8731 13.7083 34.543C14.5734 35.2129 16.0435 34.9471 16.6741 34.1025V34.1025ZM14.1793 31.3841C14.6453 30.9895 15.4189 30.6139 16.0858 31.3905C16.2537 31.5623 16.3834 31.7676 16.4664 31.993C16.5494 32.2184 16.5838 32.4588 16.5673 32.6982C16.5508 32.9376 16.4838 33.1706 16.3707 33.382C16.2576 33.5933 16.101 33.7781 15.9112 33.9242C15.064 34.6887 14.1989 34.2532 13.7858 33.7219C13.3727 33.1907 13.3926 32.0449 14.1793 31.3841ZM15.2324 33.725C16.302 33.4929 16.2674 32.4144 15.9557 31.9455C15.8782 31.8336 15.7777 31.7397 15.6608 31.67C15.544 31.6004 15.4136 31.5568 15.2786 31.5421C15.1435 31.5274 15.007 31.542 14.8782 31.5849C14.7495 31.6278 14.6316 31.698 14.5325 31.7907C13.401 32.746 14.1591 33.9563 15.2324 33.725ZM15.1231 32.2285C15.1702 32.169 15.2357 32.1269 15.3094 32.1089C15.3831 32.0908 15.4607 32.0978 15.5302 32.1287C15.6407 32.2004 15.7219 32.3094 15.7589 32.4358C15.796 32.5622 15.7864 32.6977 15.732 32.8174C15.5944 33.2893 15.2876 33.3122 15.2097 33.2869C15.1237 33.231 15.0515 33.1561 14.9988 33.0679C14.9462 32.9797 14.9144 32.8807 14.9061 32.7784C14.8977 32.6761 14.9129 32.5733 14.9505 32.478C14.9881 32.3826 15.0472 32.2973 15.1231 32.2285V32.2285ZM17.4399 41.1492C17.3765 41.1668 17.2645 41.4954 17.2645 41.4954C17.6002 41.5751 17.9434 41.6184 18.2882 41.6246C18.3183 41.6055 18.3866 41.4122 18.3655 41.3637C18.0671 41.2536 17.7561 41.1816 17.4399 41.1492V41.1492ZM18.0059 40.463C17.8888 40.4627 17.8134 40.7875 17.8338 40.8298C17.8869 40.9132 18.7391 40.9922 18.808 40.9679C18.8769 40.9435 18.9224 40.7908 18.9299 40.7209C18.9373 40.651 18.1261 40.458 18.0029 40.4584L18.0059 40.463ZM18.048 39.7393C18.0008 39.7467 17.901 40.1098 17.901 40.1098C17.9444 40.1473 19.1512 40.365 19.1846 40.3665C19.2545 40.2991 19.296 40.2075 19.3005 40.1103C18.8937 39.9486 18.4736 39.8229 18.0451 39.7347L18.048 39.7393ZM18.2392 38.8979C18.1772 38.9179 18.1123 39.2491 18.1558 39.2767C18.2331 39.3674 19.9872 39.4709 20.0206 39.4724C20.0541 39.4739 20.1121 39.2644 20.0988 39.2078C19.4852 39.063 18.8631 38.958 18.2362 38.8933L18.2392 38.8979ZM18.4126 38.0288C18.3665 38.0582 18.2788 38.3843 18.3293 38.4075C18.3798 38.4307 20.166 38.5235 20.2103 38.5115C20.2409 38.4879 20.2648 38.4567 20.2796 38.421C20.2945 38.3853 20.2997 38.3463 20.2948 38.3079C19.6743 38.1661 19.0442 38.0713 18.4097 38.0241L18.4126 38.0288ZM18.7504 37.1168C18.6733 37.1334 18.6078 37.4485 18.6552 37.477C18.7025 37.5054 20.313 37.6842 20.3405 37.6764C20.368 37.6686 20.4181 37.4772 20.3911 37.4195C19.8515 37.2763 19.3021 37.1736 18.7474 37.1122L18.7504 37.1168ZM18.8889 36.2438C18.8177 36.2696 18.725 36.6185 18.7686 36.6461C19.3923 36.749 20.0226 36.8067 20.6544 36.8187C20.7006 36.7893 20.7055 36.6136 20.681 36.5445C20.6565 36.4755 18.9563 36.2171 18.886 36.2392L18.8889 36.2438ZM19.119 35.1985C19.0511 35.2092 18.9116 35.5814 19.0128 35.6179C19.1139 35.6543 20.5442 35.759 20.5442 35.759C20.5442 35.759 20.5956 35.5341 20.5441 35.4888C20.0741 35.363 19.5973 35.2645 19.116 35.1939L19.119 35.1985ZM19.4384 34.2884C19.3115 34.3237 19.2761 34.6198 19.3235 34.6482C19.7386 34.7014 20.1583 34.7071 20.5745 34.6652C20.6276 34.6314 20.6128 34.491 20.5689 34.4017C20.525 34.3125 19.5609 34.2462 19.4355 34.2838L19.4384 34.2884ZM19.6273 33.5657C19.5741 33.5996 19.5321 33.8087 19.5618 33.8452C19.8436 33.8994 20.1326 33.9048 20.416 33.861C20.4714 33.8257 20.4538 33.635 20.4173 33.5931C20.1559 33.5434 19.8887 33.5326 19.6243 33.5611L19.6273 33.5657ZM20.2187 32.6647C19.9725 32.5952 19.7175 32.5623 19.4619 32.5673C19.3999 32.5872 19.3993 32.9328 19.4264 32.9448C19.7101 32.9746 19.9963 32.9684 20.2782 32.9263C20.3057 32.8828 20.2633 32.7144 20.2157 32.6601L20.2187 32.6647Z"
        fill="black" />
  <path fill-rule="evenodd"
        clip-rule="evenodd"
        d="M20.8684 35.9202C20.7844 37.7777 20.6029 39.4468 19.1043 40.835C17.6057 42.2231 15.7263 42.9679 14.5324 43.0833C13.3384 43.1988 11.944 43.1467 10.8578 42.6447C9.77162 42.1426 9.04343 41.3194 9.1296 41.2516C9.21578 41.1839 11.5342 40.7019 11.6202 40.7658C11.7062 40.8298 12.6448 42.2573 14.0848 42.046C15.5249 41.8347 16.3641 40.9951 16.4963 39.8677C16.5969 39.2871 16.5409 38.6913 16.3341 38.1413C16.3341 38.1413 16.9257 35.0809 16.9786 35.0472C17.0315 35.0135 18.6526 34.183 18.4599 32.627C18.2672 31.071 16.9881 30.1493 16.2148 29.7882C15.4415 29.427 13.4886 29.3359 12.0919 30.6302C11.5475 31.1356 11.1961 31.8136 11.0983 32.547C11.0005 33.2803 11.1626 34.023 11.5565 34.6467C12.1489 35.4954 12.48 35.6953 12.48 35.6953L12.3921 37.4301C12.1704 37.5615 11.9842 37.7452 11.8501 37.9648C11.7342 38.1498 11.6516 38.3534 11.6061 38.5664C11.6061 38.5664 8.59348 39.1312 7.85713 38.9905C7.76097 38.9715 6.62964 36.9927 6.93668 35.404C7.24372 33.8153 7.83017 32.0967 8.91461 30.8248C9.99904 29.5529 12.4928 28.1535 14.8573 28.3579C17.2219 28.5624 19.1757 30.4568 19.6277 31.1511C20.0798 31.8453 20.9487 34.0618 20.8684 35.9202ZM7.71859 35.2204C8.00417 34.1461 8.57397 33.4621 8.67314 33.4503C8.76794 33.4316 8.93575 33.5783 8.9066 33.629C8.50221 34.1454 8.25084 34.7638 8.18118 35.4136C8.07869 36.4708 8.41659 36.9199 8.37232 37.0027C8.25909 37.1117 8.10837 37.1732 7.95151 37.1745C7.61839 36.5809 7.53468 35.8786 7.71859 35.2204ZM16.9565 41.4426C16.9565 41.4426 17.0692 41.1172 17.1323 41.0995C17.4462 41.13 17.7546 41.1999 18.0505 41.3074C18.0712 41.3551 18.0024 41.5466 17.9725 41.5657C17.6302 41.5611 17.2895 41.5198 16.9565 41.4426ZM17.525 40.7819C17.5048 40.7402 17.5813 40.4186 17.6975 40.4184L17.6946 40.4138C17.8169 40.4129 18.6216 40.6 18.6139 40.6691C18.6062 40.7383 18.5603 40.8895 18.4917 40.9139C18.4232 40.9383 17.5773 40.8641 17.525 40.7819ZM17.595 40.0697C17.595 40.0697 17.6957 39.7102 17.7427 39.7027L17.7398 39.6981C18.165 39.7834 18.5815 39.9057 18.9848 40.0637C18.9798 40.1598 18.9382 40.2506 18.8684 40.3176C18.8353 40.3163 17.6379 40.1065 17.595 40.0697ZM17.8519 39.2447C17.8088 39.2176 17.8748 38.8899 17.9364 38.8699L17.9335 38.8653C18.5557 38.9264 19.173 39.0274 19.7816 39.1676C19.7946 39.2236 19.736 39.431 19.7028 39.4297C19.6696 39.4284 17.9282 39.3341 17.8519 39.2447ZM18.0281 38.3845C17.9781 38.3618 18.0667 38.039 18.1127 38.0097L18.1098 38.0051C18.7396 38.0488 19.3649 38.1397 19.9805 38.277C19.9851 38.315 19.9798 38.3535 19.9649 38.3889C19.95 38.4243 19.9261 38.4553 19.8956 38.4787C19.8515 38.4907 18.0782 38.4072 18.0281 38.3845ZM18.3561 37.463C18.3092 37.4351 18.3756 37.1232 18.4522 37.1064L18.4493 37.1019C18.9998 37.1601 19.545 37.2591 20.0802 37.3982C20.1067 37.4551 20.0561 37.6446 20.0288 37.6524C20.0014 37.6602 18.403 37.4909 18.3561 37.463ZM18.4725 36.6409C18.4294 36.6138 18.523 36.2685 18.5938 36.2426L18.5909 36.2381C18.6609 36.216 20.3481 36.4635 20.3721 36.5317C20.3961 36.5998 20.3904 36.7736 20.3444 36.8029C19.717 36.794 19.0915 36.7398 18.4725 36.6409ZM18.7197 35.6232C18.6195 35.5875 18.7597 35.2189 18.8271 35.2081L18.8242 35.2035C19.3018 35.2711 19.7748 35.3663 20.241 35.4885C20.292 35.5331 20.2398 35.7557 20.2398 35.7557C20.2398 35.7557 18.82 35.6588 18.7197 35.6232ZM19.0328 34.663C18.9859 34.6351 19.0224 34.3422 19.1485 34.3067L19.1456 34.3022C19.2703 34.2645 20.2275 34.3255 20.2707 34.4136C20.3138 34.5016 20.3279 34.6403 20.275 34.674C19.8615 34.7174 19.4448 34.7137 19.0328 34.663ZM19.2731 33.8679C19.2438 33.832 19.2865 33.625 19.3394 33.5913L19.3365 33.5867C19.5992 33.5574 19.8645 33.5668 20.1239 33.6147C20.1599 33.656 20.1765 33.8444 20.1213 33.8796C19.8396 33.9242 19.5527 33.9202 19.2731 33.8679ZM19.1798 32.6049C19.4336 32.5988 19.6867 32.63 19.9309 32.6977L19.928 32.6931C19.975 32.7466 20.0163 32.9129 19.9888 32.9561C19.7086 32.999 19.4244 33.0065 19.1428 32.9783C19.116 32.9665 19.1182 32.6249 19.1798 32.6049Z"
        fill="url(#paint1_linear)" />
  <path d="M27.8271 28.014C27.7049 27.864 27.353 27.6429 27.0321 27.601C26.7111 27.559 26.3072 27.6814 26.0726 27.9391C25.838 28.1968 25.7526 28.4805 25.7325 28.7855C25.7125 29.0905 25.899 29.3854 25.9131 29.3889C25.9685 29.4012 26.5719 29.3204 26.6058 29.305C26.6398 29.2896 26.6163 29.2841 26.6751 29.1951C26.7339 29.1061 26.7588 29.137 26.7792 29.1131C26.7996 29.0891 26.8146 28.7263 26.8017 28.694C26.7887 28.6617 26.7143 28.5957 26.6404 28.4826C26.5978 28.4138 26.5821 28.3316 26.5965 28.252C26.6108 28.1724 26.6541 28.1011 26.7181 28.0518C26.8737 27.9178 27.0599 27.9169 27.1673 27.9758C27.2746 28.0347 27.4274 28.1976 27.4286 28.3613C27.4298 28.525 27.2431 28.5925 27.2281 28.6068C27.213 28.6212 27.1162 29.1333 27.1217 29.147C27.1523 29.2081 27.1645 29.2767 27.1567 29.3445C27.1456 29.4584 27.0719 29.5792 26.8748 29.6108C26.6778 29.6425 26.5738 29.4479 26.5642 29.435C26.5545 29.4221 26.0627 29.5052 26.0256 29.535C25.9886 29.5648 26.0398 29.678 26.1448 29.7966C26.2802 29.9331 26.4526 30.0269 26.6406 30.0661C26.8193 30.0987 27.0026 30.0953 27.1798 30.0561C27.357 30.0169 27.5245 29.9427 27.6724 29.8377C28.0825 29.5436 28.1159 29.2477 28.1373 28.8933C28.1586 28.5388 27.9491 28.1637 27.8271 28.014V28.014ZM27.8816 28.8016C27.8705 29.0766 27.8449 29.3236 27.6249 29.5281C27.4049 29.7326 27.1283 29.8416 26.9524 29.8579C26.7765 29.8742 26.5708 29.8655 26.4104 29.7904C26.2499 29.7153 26.1419 29.5929 26.1546 29.583C26.1673 29.573 26.5087 29.5032 26.5215 29.5127C26.5342 29.5223 26.6735 29.7343 26.8857 29.704C27.0979 29.6737 27.221 29.5499 27.2397 29.3831C27.2542 29.2972 27.2455 29.2089 27.2146 29.1274C27.2146 29.1274 27.2998 28.6746 27.3075 28.6697C27.3153 28.6647 27.5537 28.5428 27.5243 28.3123C27.4948 28.0818 27.3056 27.9444 27.1913 27.8904C27.077 27.8364 26.7891 27.8216 26.584 28.0123C26.5041 28.0867 26.4528 28.1869 26.4389 28.2954C26.425 28.4039 26.4494 28.514 26.5079 28.6066C26.5958 28.7327 26.6447 28.7625 26.6447 28.7625L26.633 29.0193C26.6004 29.0386 26.5731 29.0657 26.5534 29.0981C26.5365 29.1255 26.5244 29.1556 26.5179 29.1871C26.5179 29.1871 26.0741 29.2686 25.9654 29.2473C25.9513 29.2444 25.7831 28.9506 25.8273 28.7156C25.8715 28.4805 25.9567 28.2265 26.1157 28.0389C26.2747 27.8513 26.6414 27.6458 26.9902 27.6777C27.3389 27.7096 27.6283 27.9915 27.6954 28.0946C27.7625 28.1977 27.8922 28.5265 27.8816 28.8016V28.8016ZM26.0819 28.4275C26.0673 28.4292 25.9838 28.5301 25.9424 28.6889C25.9158 28.7863 25.9286 28.8903 25.9781 28.9784C26.0012 28.9784 26.0234 28.9694 26.04 28.9533C26.0465 28.9411 25.9964 28.8743 26.0108 28.7179C26.0206 28.6217 26.0572 28.5303 26.1165 28.4541C26.1207 28.4466 26.0959 28.4248 26.0819 28.4275V28.4275ZM26.8378 29.4013C26.8029 29.4222 26.7656 29.4388 26.7267 29.4506C26.6929 29.4722 26.7602 29.5666 26.9026 29.5478C26.9346 29.5428 26.9649 29.5308 26.9916 29.5126C27.0183 29.4944 27.0405 29.4705 27.0568 29.4426C27.0731 29.4147 27.083 29.3835 27.0858 29.3513C27.0886 29.3191 27.0842 29.2866 27.0729 29.2563C27.0321 29.1288 26.9233 29.1132 26.8322 29.1522C26.7411 29.1912 26.752 29.2643 26.7565 29.2715C26.7611 29.2786 26.8019 29.2726 26.844 29.2849C26.886 29.2972 26.8784 29.3725 26.8378 29.4013V29.4013ZM26.8658 29.2505C26.835 29.2424 26.8063 29.2407 26.8181 29.2227C26.8299 29.2047 26.9429 29.1403 26.9965 29.2378C27.05 29.3352 27.0101 29.4083 26.9402 29.4643C26.8703 29.5202 26.8076 29.4725 26.8152 29.462C26.8227 29.4514 26.9004 29.442 26.9211 29.3754C26.9297 29.3515 26.9287 29.3252 26.9184 29.3019C26.9081 29.2786 26.8893 29.2602 26.8658 29.2505V29.2505ZM27.2222 28.5343C27.3144 28.4112 27.378 28.2357 27.2056 28.0882C27.0332 27.9406 26.8768 28.0197 26.7947 28.0959C26.5974 28.2779 26.6614 28.5007 26.788 28.5988C26.9147 28.6968 27.1299 28.6579 27.2222 28.5343V28.5343ZM26.857 28.1363C26.9252 28.0785 27.0385 28.0235 27.1361 28.1372C27.1607 28.1624 27.1797 28.1924 27.1918 28.2254C27.204 28.2584 27.209 28.2936 27.2066 28.3287C27.2042 28.3637 27.1944 28.3979 27.1778 28.4288C27.1613 28.4597 27.1383 28.4868 27.1105 28.5082C26.9865 28.6201 26.8599 28.5563 26.7994 28.4786C26.7389 28.4008 26.7418 28.233 26.857 28.1363ZM27.0112 28.479C27.1678 28.445 27.1627 28.2871 27.1171 28.2185C27.1057 28.2021 27.091 28.1884 27.0739 28.1782C27.0568 28.168 27.0377 28.1616 27.0179 28.1594C26.9982 28.1573 26.9782 28.1594 26.9593 28.1657C26.9405 28.172 26.9232 28.1823 26.9087 28.1958C26.743 28.3357 26.854 28.5129 27.0112 28.479ZM26.9952 28.2599C27.0021 28.2512 27.0116 28.2451 27.0224 28.2424C27.0332 28.2398 27.0446 28.2408 27.0548 28.2453C27.0709 28.2558 27.0828 28.2718 27.0882 28.2903C27.0937 28.3088 27.0923 28.3286 27.0843 28.3461C27.0642 28.4152 27.0192 28.4186 27.0078 28.4149C26.9952 28.4067 26.9847 28.3957 26.977 28.3828C26.9693 28.3699 26.9646 28.3554 26.9634 28.3404C26.9622 28.3254 26.9644 28.3104 26.9699 28.2964C26.9754 28.2825 26.984 28.27 26.9952 28.2599V28.2599ZM27.3344 29.5659C27.3251 29.5685 27.3087 29.6166 27.3087 29.6166C27.3578 29.6283 27.4081 29.6346 27.4585 29.6355C27.4629 29.6327 27.473 29.6044 27.4699 29.5974C27.4262 29.5812 27.3806 29.5707 27.3344 29.5659V29.5659ZM27.4172 29.4655C27.4001 29.4654 27.389 29.513 27.392 29.5192C27.3998 29.5314 27.5246 29.543 27.5346 29.5394C27.5447 29.5358 27.5514 29.5135 27.5525 29.5032C27.5536 29.493 27.4348 29.4648 27.4168 29.4648L27.4172 29.4655ZM27.4234 29.3595C27.4165 29.3606 27.4019 29.4138 27.4019 29.4138C27.4082 29.4193 27.5849 29.4511 27.5898 29.4514C27.6 29.4415 27.6061 29.4281 27.6068 29.4138C27.5472 29.3902 27.4857 29.3718 27.423 29.3589L27.4234 29.3595ZM27.4514 29.2363C27.4423 29.2393 27.4328 29.2878 27.4392 29.2918C27.4505 29.3051 27.7073 29.3202 27.7122 29.3205C27.7171 29.3207 27.7256 29.29 27.7236 29.2817C27.6338 29.2605 27.5427 29.2451 27.4509 29.2357L27.4514 29.2363ZM27.4768 29.1091C27.47 29.1134 27.4572 29.1611 27.4646 29.1645C27.4719 29.1679 27.7335 29.1815 27.7399 29.1798C27.7444 29.1763 27.7479 29.1718 27.7501 29.1665C27.7523 29.1613 27.753 29.1556 27.7523 29.15C27.6615 29.1292 27.5692 29.1153 27.4763 29.1084L27.4768 29.1091ZM27.5262 28.9756C27.5149 28.978 27.5053 29.0242 27.5123 29.0283C27.5192 29.0325 27.755 29.0586 27.759 29.0575C27.763 29.0564 27.7704 29.0283 27.7664 29.0199C27.6874 28.9989 27.607 28.9839 27.5258 28.9749L27.5262 28.9756ZM27.5465 28.8478C27.5361 28.8516 27.5225 28.9026 27.5289 28.9067C27.6202 28.9217 27.7125 28.9302 27.805 28.9319C27.8117 28.9276 27.8124 28.9019 27.8089 28.8918C27.8053 28.8817 27.5564 28.8439 27.5461 28.8471L27.5465 28.8478ZM27.5802 28.6947C27.5702 28.6963 27.5498 28.7508 27.5646 28.7561C27.5794 28.7615 27.7888 28.7768 27.7888 28.7768C27.7888 28.7768 27.7964 28.7439 27.7888 28.7372C27.72 28.7188 27.6502 28.7044 27.5797 28.6941L27.5802 28.6947ZM27.6269 28.5615C27.6084 28.5667 27.6032 28.61 27.6101 28.6142C27.6709 28.622 27.7323 28.6228 27.7933 28.6167C27.801 28.6117 27.7989 28.5912 27.7925 28.5781C27.786 28.565 27.6449 28.5553 27.6265 28.5608L27.6269 28.5615ZM27.6546 28.4557C27.6468 28.4607 27.6407 28.4913 27.645 28.4966C27.6863 28.5046 27.7286 28.5053 27.7701 28.4989C27.7782 28.4938 27.7756 28.4658 27.7703 28.4597C27.732 28.4524 27.6929 28.4509 27.6542 28.455L27.6546 28.4557ZM27.7412 28.3238C27.7051 28.3136 27.6678 28.3088 27.6304 28.3095C27.6213 28.3124 27.6212 28.363 27.6252 28.3648C27.6667 28.3692 27.7086 28.3682 27.7499 28.3621C27.7539 28.3557 27.7477 28.3311 27.7407 28.3231L27.7412 28.3238Z"
        fill="black" />
  <path fill-rule="evenodd"
        clip-rule="evenodd"
        d="M27.8364 28.8004C27.8241 29.0723 27.7976 29.3167 27.5782 29.5199C27.3588 29.7232 27.0836 29.8322 26.9088 29.8491C26.734 29.866 26.5299 29.8584 26.3709 29.7849C26.2118 29.7114 26.1052 29.5908 26.1178 29.5809C26.1305 29.571 26.4699 29.5004 26.4825 29.5098C26.4951 29.5192 26.6325 29.7282 26.8433 29.6972C27.0541 29.6663 27.177 29.5434 27.1963 29.3783C27.2111 29.2933 27.2029 29.2061 27.1726 29.1256C27.1726 29.1256 27.2592 28.6775 27.267 28.6726C27.2747 28.6677 27.512 28.5461 27.4838 28.3183C27.4556 28.0904 27.2684 27.9555 27.1551 27.9026C27.0419 27.8498 26.756 27.8364 26.5515 28.0259C26.4718 28.0999 26.4204 28.1992 26.4061 28.3065C26.3918 28.4139 26.4155 28.5226 26.4731 28.6139C26.5599 28.7382 26.6084 28.7675 26.6084 28.7675L26.5955 29.0214C26.563 29.0407 26.5358 29.0676 26.5161 29.0997C26.4992 29.1268 26.4871 29.1566 26.4804 29.1878C26.4804 29.1878 26.0394 29.2705 25.9316 29.2499C25.9175 29.2471 25.7518 28.9574 25.7968 28.7248C25.8417 28.4922 25.9276 28.2406 26.0864 28.0544C26.2451 27.8682 26.6102 27.6633 26.9564 27.6933C27.3026 27.7232 27.5886 28.0005 27.6548 28.1022C27.721 28.2038 27.8482 28.5283 27.8364 28.8004ZM25.9113 28.6979C25.9531 28.5407 26.0365 28.4405 26.051 28.4388C26.0649 28.4361 26.0895 28.4575 26.0852 28.4649C26.026 28.5406 25.9892 28.6311 25.979 28.7262C25.964 28.881 26.0135 28.9468 26.007 28.9589C25.9904 28.9748 25.9683 28.9838 25.9454 28.984C25.8966 28.8971 25.8843 28.7943 25.9113 28.6979ZM27.2637 29.6089C27.2637 29.6089 27.2802 29.5612 27.2895 29.5587C27.3354 29.5631 27.3806 29.5734 27.4239 29.5891C27.4269 29.5961 27.4169 29.6241 27.4125 29.6269C27.3624 29.6262 27.3125 29.6202 27.2637 29.6089ZM27.347 29.5122C27.344 29.5061 27.3552 29.459 27.3722 29.4589L27.3718 29.4583C27.3897 29.4581 27.5075 29.4855 27.5064 29.4957C27.5052 29.5058 27.4985 29.5279 27.4885 29.5315C27.4785 29.5351 27.3546 29.5242 27.347 29.5122ZM27.3572 29.4079C27.3572 29.4079 27.372 29.3553 27.3788 29.3542L27.3784 29.3535C27.4407 29.366 27.5016 29.3839 27.5607 29.407C27.5599 29.4211 27.5539 29.4344 27.5436 29.4442C27.5388 29.444 27.3635 29.4133 27.3572 29.4079ZM27.3948 29.2871C27.3885 29.2831 27.3982 29.2352 27.4072 29.2322L27.4068 29.2316C27.4979 29.2405 27.5882 29.2553 27.6773 29.2758C27.6792 29.284 27.6707 29.3144 27.6658 29.3142C27.6609 29.314 27.406 29.3002 27.3948 29.2871ZM27.4206 29.1612C27.4133 29.1579 27.4263 29.1106 27.433 29.1063L27.4326 29.1056C27.5248 29.112 27.6163 29.1253 27.7065 29.1454C27.7071 29.151 27.7063 29.1566 27.7042 29.1618C27.702 29.167 27.6985 29.1715 27.694 29.175C27.6876 29.1767 27.4279 29.1645 27.4206 29.1612ZM27.4686 29.0263C27.4618 29.0222 27.4715 28.9765 27.4827 28.9741L27.4823 28.9734C27.5629 28.9819 27.6427 28.9964 27.721 29.0168C27.7249 29.0251 27.7175 29.0528 27.7135 29.054C27.7095 29.0551 27.4755 29.0304 27.4686 29.0263ZM27.4857 28.9059C27.4794 28.9019 27.4931 28.8514 27.5034 28.8476L27.503 28.8469C27.5133 28.8437 27.7603 28.8799 27.7638 28.8899C27.7673 28.8999 27.7665 28.9253 27.7597 28.9296C27.6679 28.9283 27.5763 28.9204 27.4857 28.9059ZM27.5219 28.7569C27.5072 28.7517 27.5277 28.6977 27.5376 28.6961L27.5372 28.6955C27.6071 28.7054 27.6763 28.7193 27.7446 28.7372C27.7521 28.7437 27.7444 28.7763 27.7444 28.7763C27.7444 28.7763 27.5366 28.7621 27.5219 28.7569ZM27.5677 28.6163C27.5608 28.6122 27.5662 28.5694 27.5847 28.5642L27.5842 28.5635C27.6025 28.558 27.7426 28.5669 27.7489 28.5798C27.7553 28.5927 27.7573 28.613 27.7496 28.6179C27.689 28.6243 27.628 28.6238 27.5677 28.6163ZM27.6029 28.4999C27.5986 28.4947 27.6049 28.4644 27.6126 28.4594L27.6122 28.4588C27.6506 28.4545 27.6895 28.4558 27.7274 28.4629C27.7327 28.4689 27.7351 28.4965 27.7271 28.5016C27.6858 28.5082 27.6438 28.5076 27.6029 28.4999ZM27.5892 28.315C27.6264 28.3141 27.6634 28.3187 27.6992 28.3286L27.6988 28.3279C27.7056 28.3358 27.7117 28.3601 27.7077 28.3664C27.6667 28.3727 27.625 28.3738 27.5838 28.3697C27.5799 28.368 27.5802 28.3179 27.5892 28.315Z"
        fill="url(#paint2_linear)" />
  <path d="M33.3188 27.9566C33.1966 27.8066 32.8447 27.5856 32.5238 27.5436C32.2028 27.5016 31.7989 27.624 31.5643 27.8817C31.3297 28.1394 31.2443 28.4231 31.2242 28.7281C31.2042 29.0331 31.3907 29.3281 31.4048 29.3315C31.4602 29.3439 32.0636 29.263 32.0975 29.2476C32.1315 29.2322 32.108 29.2267 32.1668 29.1377C32.2256 29.0488 32.2505 29.0796 32.2709 29.0557C32.2913 29.0317 32.3063 28.6689 32.2934 28.6366C32.2804 28.6044 32.206 28.5383 32.1321 28.4253C32.0895 28.3564 32.0738 28.2742 32.0882 28.1947C32.1025 28.1151 32.1458 28.0437 32.2098 27.9944C32.3654 27.8604 32.5516 27.8595 32.659 27.9184C32.7663 27.9773 32.9191 28.1402 32.9203 28.304C32.9215 28.4677 32.7348 28.5351 32.7198 28.5495C32.7047 28.5638 32.6079 29.076 32.6134 29.0897C32.644 29.1507 32.6562 29.2193 32.6484 29.2871C32.6373 29.401 32.5636 29.5218 32.3665 29.5534C32.1695 29.5851 32.0655 29.3906 32.0558 29.3776C32.0462 29.3647 31.5544 29.4478 31.5173 29.4776C31.4803 29.5074 31.5315 29.6207 31.6365 29.7392C31.7719 29.8758 31.9443 29.9695 32.1323 30.0087C32.311 30.0414 32.4943 30.038 32.6715 29.9988C32.8487 29.9596 33.0162 29.8853 33.1641 29.7804C33.5742 29.4862 33.6076 29.1903 33.629 28.8359C33.6503 28.4815 33.4408 28.1063 33.3188 27.9566V27.9566ZM33.3733 28.7442C33.3622 29.0192 33.3366 29.2662 33.1166 29.4708C32.8966 29.6753 32.62 29.7843 32.4441 29.8005C32.2682 29.8168 32.0625 29.8081 31.9021 29.7331C31.7416 29.658 31.6336 29.5356 31.6463 29.5256C31.659 29.5156 32.0004 29.4458 32.0132 29.4554C32.0259 29.4649 32.1652 29.6769 32.3774 29.6466C32.5896 29.6163 32.7127 29.4926 32.7314 29.3257C32.7459 29.2398 32.7372 29.1516 32.7063 29.07C32.7063 29.07 32.7915 28.6172 32.7992 28.6123C32.807 28.6073 33.0454 28.4855 33.016 28.2549C32.9865 28.0244 32.7973 27.887 32.683 27.833C32.5687 27.779 32.2808 27.7642 32.0757 27.9549C31.9958 28.0293 31.9445 28.1295 31.9306 28.238C31.9167 28.3465 31.9411 28.4566 31.9996 28.5492C32.0875 28.6753 32.1364 28.7052 32.1364 28.7052L32.1247 28.962C32.0921 28.9813 32.0648 29.0083 32.0451 29.0408C32.0282 29.0681 32.0161 29.0982 32.0096 29.1297C32.0096 29.1297 31.5658 29.2112 31.4571 29.1899C31.443 29.187 31.2748 28.8932 31.319 28.6582C31.3631 28.4232 31.4484 28.1691 31.6074 27.9815C31.7664 27.7939 32.1331 27.5884 32.4819 27.6203C32.8306 27.6522 33.12 27.9341 33.1871 28.0372C33.2542 28.1403 33.3839 28.4691 33.3733 28.7442V28.7442ZM31.5736 28.3701C31.559 28.3718 31.4755 28.4727 31.4341 28.6316C31.4075 28.7289 31.4203 28.8329 31.4698 28.9211C31.4929 28.921 31.5151 28.912 31.5317 28.8959C31.5382 28.8837 31.4881 28.817 31.5025 28.6605C31.5123 28.5643 31.5489 28.4729 31.6082 28.3967C31.6124 28.3892 31.5876 28.3674 31.5736 28.3701V28.3701ZM32.3295 29.3439C32.2946 29.3648 32.2573 29.3814 32.2184 29.3933C32.1846 29.4148 32.2519 29.5092 32.3943 29.4904C32.4263 29.4854 32.4566 29.4734 32.4833 29.4552C32.51 29.437 32.5322 29.4131 32.5485 29.3852C32.5648 29.3573 32.5747 29.3261 32.5775 29.2939C32.5803 29.2617 32.5759 29.2293 32.5646 29.1989C32.5238 29.0714 32.415 29.0559 32.3239 29.0949C32.2328 29.1338 32.2437 29.207 32.2482 29.2141C32.2528 29.2212 32.2936 29.2152 32.3357 29.2275C32.3777 29.2398 32.3701 29.3152 32.3295 29.3439V29.3439ZM32.3575 29.1931C32.3267 29.1851 32.298 29.1833 32.3098 29.1653C32.3216 29.1473 32.4346 29.0829 32.4882 29.1804C32.5417 29.2779 32.5018 29.351 32.4319 29.4069C32.362 29.4629 32.2993 29.4151 32.3069 29.4046C32.3144 29.3941 32.3921 29.3846 32.4128 29.318C32.4214 29.2941 32.4204 29.2678 32.4101 29.2445C32.3998 29.2213 32.381 29.2028 32.3575 29.1931V29.1931ZM32.7139 28.4769C32.8061 28.3538 32.8697 28.1784 32.6973 28.0308C32.5249 27.8832 32.3685 27.9624 32.2864 28.0385C32.0891 28.2205 32.1531 28.4433 32.2797 28.5414C32.4064 28.6395 32.6216 28.6006 32.7139 28.4769V28.4769ZM32.3487 28.0789C32.4169 28.0212 32.5302 27.9662 32.6278 28.0799C32.6524 28.105 32.6714 28.1351 32.6835 28.1681C32.6957 28.2011 32.7007 28.2363 32.6983 28.2713C32.6959 28.3064 32.6861 28.3405 32.6695 28.3714C32.653 28.4024 32.63 28.4294 32.6022 28.4508C32.4782 28.5627 32.3516 28.499 32.2911 28.4212C32.2306 28.3434 32.2335 28.1757 32.3487 28.0789ZM32.5029 28.4216C32.6595 28.3877 32.6544 28.2298 32.6088 28.1611C32.5974 28.1447 32.5827 28.131 32.5656 28.1208C32.5485 28.1106 32.5294 28.1042 32.5096 28.1021C32.4899 28.0999 32.4699 28.102 32.451 28.1083C32.4322 28.1146 32.4149 28.1249 32.4004 28.1385C32.2347 28.2783 32.3457 28.4555 32.5029 28.4216ZM32.4869 28.2026C32.4938 28.1938 32.5033 28.1877 32.5141 28.185C32.5249 28.1824 32.5363 28.1834 32.5465 28.1879C32.5626 28.1984 32.5745 28.2144 32.5799 28.2329C32.5854 28.2514 32.584 28.2712 32.576 28.2888C32.5559 28.3579 32.5109 28.3612 32.4995 28.3575C32.4869 28.3493 32.4764 28.3383 32.4687 28.3254C32.461 28.3125 32.4563 28.298 32.4551 28.2831C32.4539 28.2681 32.4561 28.253 32.4616 28.2391C32.4671 28.2251 32.4757 28.2126 32.4869 28.2026V28.2026ZM32.8261 29.5086C32.8168 29.5111 32.8004 29.5593 32.8004 29.5593C32.8495 29.5709 32.8998 29.5773 32.9502 29.5782C32.9546 29.5754 32.9647 29.5471 32.9616 29.54C32.9179 29.5239 32.8723 29.5133 32.8261 29.5086V29.5086ZM32.9089 29.4081C32.8918 29.4081 32.8807 29.4556 32.8837 29.4618C32.8915 29.474 33.0163 29.4856 33.0263 29.482C33.0364 29.4785 33.0431 29.4561 33.0442 29.4459C33.0453 29.4356 32.9265 29.4074 32.9085 29.4074L32.9089 29.4081ZM32.9151 29.3022C32.9082 29.3032 32.8936 29.3564 32.8936 29.3564C32.8999 29.3619 33.0766 29.3938 33.0815 29.394C33.0917 29.3841 33.0978 29.3707 33.0985 29.3565C33.0389 29.3328 32.9774 29.3144 32.9147 29.3015L32.9151 29.3022ZM32.9431 29.179C32.934 29.1819 32.9245 29.2304 32.9309 29.2344C32.9422 29.2477 33.199 29.2629 33.2039 29.2631C33.2088 29.2633 33.2173 29.2326 33.2153 29.2243C33.1255 29.2031 33.0344 29.1878 32.9426 29.1783L32.9431 29.179ZM32.9685 29.0517C32.9617 29.056 32.9489 29.1038 32.9563 29.1072C32.9636 29.1106 33.2252 29.1242 33.2316 29.1224C33.2361 29.1189 33.2396 29.1144 33.2418 29.1092C33.244 29.1039 33.2447 29.0982 33.244 29.0926C33.1532 29.0718 33.0609 29.0579 32.968 29.051L32.9685 29.0517ZM33.0179 28.9182C33.0066 28.9206 32.997 28.9668 33.004 28.9709C33.0109 28.9751 33.2467 29.0013 33.2507 29.0001C33.2547 28.999 33.2621 28.971 33.2581 28.9625C33.1791 28.9416 33.0987 28.9265 33.0175 28.9175L33.0179 28.9182ZM33.0382 28.7904C33.0278 28.7942 33.0142 28.8453 33.0206 28.8493C33.1119 28.8644 33.2042 28.8728 33.2967 28.8746C33.3034 28.8703 33.3041 28.8445 33.3006 28.8344C33.297 28.8243 33.0481 28.7865 33.0378 28.7897L33.0382 28.7904ZM33.0719 28.6374C33.0619 28.6389 33.0415 28.6934 33.0563 28.6988C33.0711 28.7041 33.2805 28.7194 33.2805 28.7194C33.2805 28.7194 33.2881 28.6865 33.2805 28.6799C33.2117 28.6614 33.1419 28.647 33.0714 28.6367L33.0719 28.6374ZM33.1186 28.5041C33.1001 28.5093 33.0949 28.5526 33.1018 28.5568C33.1626 28.5646 33.224 28.5654 33.285 28.5593C33.2927 28.5543 33.2906 28.5338 33.2841 28.5207C33.2777 28.5077 33.1366 28.498 33.1182 28.5035L33.1186 28.5041ZM33.1463 28.3983C33.1385 28.4033 33.1324 28.4339 33.1367 28.4392C33.178 28.4472 33.2203 28.448 33.2618 28.4416C33.2699 28.4364 33.2673 28.4085 33.262 28.4023C33.2237 28.3951 33.1846 28.3935 33.1459 28.3976L33.1463 28.3983ZM33.2329 28.2664C33.1968 28.2562 33.1595 28.2514 33.1221 28.2521C33.113 28.2551 33.1129 28.3057 33.1169 28.3074C33.1584 28.3118 33.2003 28.3109 33.2416 28.3047C33.2456 28.2983 33.2394 28.2737 33.2324 28.2657L33.2329 28.2664Z"
        fill="black" />
  <path fill-rule="evenodd"
        clip-rule="evenodd"
        d="M33.3281 28.7428C33.3158 29.0147 33.2893 29.2591 33.0699 29.4623C32.8505 29.6655 32.5753 29.7746 32.4005 29.7915C32.2257 29.8084 32.0216 29.8008 31.8626 29.7273C31.7035 29.6538 31.5969 29.5332 31.6095 29.5233C31.6222 29.5134 31.9616 29.4428 31.9742 29.4522C31.9868 29.4616 32.1242 29.6705 32.335 29.6396C32.5458 29.6087 32.6687 29.4858 32.688 29.3207C32.7028 29.2357 32.6946 29.1485 32.6643 29.068C32.6643 29.068 32.7509 28.6199 32.7587 28.615C32.7664 28.61 33.0037 28.4884 32.9755 28.2606C32.9473 28.0328 32.7601 27.8979 32.6468 27.845C32.5336 27.7922 32.2477 27.7788 32.0432 27.9683C31.9635 28.0423 31.9121 28.1416 31.8978 28.2489C31.8835 28.3563 31.9072 28.465 31.9648 28.5563C32.0516 28.6806 32.1001 28.7099 32.1001 28.7099L32.0872 28.9638C32.0547 28.9831 32.0275 29.01 32.0078 29.0421C31.9909 29.0692 31.9788 29.099 31.9721 29.1302C31.9721 29.1302 31.5311 29.2129 31.4233 29.1923C31.4092 29.1895 31.2435 28.8998 31.2885 28.6672C31.3334 28.4346 31.4193 28.183 31.5781 27.9968C31.7368 27.8106 32.1019 27.6057 32.4481 27.6356C32.7943 27.6656 33.0803 27.9429 33.1465 28.0446C33.2127 28.1462 33.3399 28.4707 33.3281 28.7428ZM31.403 28.6403C31.4448 28.483 31.5282 28.3829 31.5427 28.3812C31.5566 28.3784 31.5812 28.3999 31.5769 28.4073C31.5177 28.4829 31.4809 28.5735 31.4707 28.6686C31.4557 28.8234 31.5052 28.8891 31.4987 28.9013C31.4821 28.9172 31.46 28.9262 31.4371 28.9264C31.3883 28.8395 31.376 28.7367 31.403 28.6403ZM32.7554 29.5513C32.7554 29.5513 32.7719 29.5036 32.7812 29.501C32.8271 29.5055 32.8723 29.5157 32.9156 29.5315C32.9186 29.5385 32.9086 29.5665 32.9042 29.5693C32.8541 29.5686 32.8042 29.5626 32.7554 29.5513ZM32.8387 29.4545C32.8357 29.4484 32.8469 29.4014 32.8639 29.4013L32.8635 29.4007C32.8814 29.4005 32.9992 29.4279 32.9981 29.438C32.9969 29.4482 32.9902 29.4703 32.9802 29.4739C32.9702 29.4774 32.8463 29.4666 32.8387 29.4545ZM32.8489 29.3503C32.8489 29.3503 32.8637 29.2976 32.8705 29.2965L32.8701 29.2959C32.9324 29.3084 32.9933 29.3263 33.0524 29.3494C33.0516 29.3635 33.0456 29.3768 33.0353 29.3866C33.0305 29.3864 32.8552 29.3557 32.8489 29.3503ZM32.8865 29.2295C32.8802 29.2255 32.8899 29.1775 32.8989 29.1746L32.8985 29.174C32.9896 29.1829 33.0799 29.1977 33.169 29.2182C33.1709 29.2264 33.1624 29.2568 33.1575 29.2566C33.1526 29.2564 32.8977 29.2426 32.8865 29.2295ZM32.9123 29.1036C32.905 29.1002 32.918 29.053 32.9247 29.0487L32.9243 29.048C33.0165 29.0544 33.108 29.0677 33.1981 29.0878C33.1988 29.0934 33.198 29.099 33.1959 29.1042C33.1937 29.1094 33.1902 29.1139 33.1857 29.1174C33.1793 29.1191 32.9196 29.1069 32.9123 29.1036ZM32.9603 28.9686C32.9535 28.9646 32.9632 28.9189 32.9744 28.9164L32.974 28.9158C33.0546 28.9243 33.1344 28.9388 33.2127 28.9592C33.2166 28.9675 33.2092 28.9952 33.2052 28.9964C33.2012 28.9975 32.9672 28.9727 32.9603 28.9686ZM32.9774 28.8483C32.9711 28.8443 32.9848 28.7938 32.9951 28.79L32.9947 28.7893C33.005 28.7861 33.252 28.8223 33.2555 28.8323C33.259 28.8423 33.2582 28.8677 33.2514 28.872C33.1596 28.8707 33.068 28.8628 32.9774 28.8483ZM33.0136 28.6993C32.9989 28.6941 33.0194 28.6401 33.0293 28.6385L33.0289 28.6378C33.0988 28.6477 33.168 28.6617 33.2363 28.6796C33.2438 28.6861 33.2361 28.7187 33.2361 28.7187C33.2361 28.7187 33.0283 28.7045 33.0136 28.6993ZM33.0594 28.5587C33.0525 28.5546 33.0579 28.5117 33.0764 28.5066L33.0759 28.5059C33.0942 28.5004 33.2343 28.5093 33.2406 28.5222C33.247 28.5351 33.249 28.5554 33.2413 28.5603C33.1807 28.5667 33.1197 28.5661 33.0594 28.5587ZM33.0946 28.4423C33.0903 28.4371 33.0966 28.4068 33.1043 28.4018L33.1039 28.4011C33.1423 28.3968 33.1812 28.3982 33.2191 28.4052C33.2244 28.4113 33.2268 28.4389 33.2188 28.444C33.1775 28.4506 33.1355 28.45 33.0946 28.4423ZM33.0809 28.2574C33.1181 28.2565 33.1551 28.2611 33.1909 28.271L33.1905 28.2703C33.1973 28.2782 33.2034 28.3025 33.1994 28.3088C33.1584 28.3151 33.1167 28.3162 33.0755 28.3121C33.0716 28.3103 33.0719 28.2603 33.0809 28.2574Z"
        fill="url(#paint3_linear)" />
  <path d="M38.8105 28.014C38.6883 27.864 38.3364 27.6429 38.0155 27.601C37.6945 27.559 37.2906 27.6814 37.056 27.9391C36.8214 28.1968 36.736 28.4805 36.7159 28.7855C36.6959 29.0905 36.8824 29.3854 36.8965 29.3889C36.9519 29.4012 37.5553 29.3204 37.5892 29.305C37.6232 29.2896 37.5997 29.2841 37.6585 29.1951C37.7173 29.1061 37.7422 29.137 37.7626 29.1131C37.783 29.0891 37.798 28.7263 37.7851 28.694C37.7721 28.6617 37.6977 28.5957 37.6238 28.4826C37.5812 28.4138 37.5655 28.3316 37.5799 28.252C37.5942 28.1724 37.6375 28.1011 37.7015 28.0518C37.8571 27.9178 38.0433 27.9169 38.1507 27.9758C38.258 28.0347 38.4108 28.1976 38.412 28.3613C38.4132 28.525 38.2265 28.5925 38.2115 28.6068C38.1964 28.6212 38.0996 29.1333 38.1051 29.147C38.1357 29.2081 38.1479 29.2767 38.1401 29.3445C38.129 29.4584 38.0553 29.5792 37.8582 29.6108C37.6612 29.6425 37.5572 29.4479 37.5475 29.435C37.5379 29.4221 37.0461 29.5052 37.009 29.535C36.972 29.5648 37.0232 29.678 37.1282 29.7966C37.2636 29.9331 37.436 30.0269 37.624 30.0661C37.8027 30.0987 37.986 30.0953 38.1632 30.0561C38.3404 30.0169 38.5079 29.9427 38.6558 29.8377C39.0659 29.5436 39.0993 29.2477 39.1207 28.8933C39.142 28.5388 38.9325 28.1637 38.8105 28.014V28.014ZM38.865 28.8016C38.8539 29.0766 38.8283 29.3236 38.6083 29.5281C38.3883 29.7326 38.1117 29.8416 37.9358 29.8579C37.7599 29.8742 37.5542 29.8655 37.3938 29.7904C37.2333 29.7153 37.1253 29.5929 37.138 29.583C37.1507 29.573 37.4921 29.5032 37.5049 29.5127C37.5176 29.5223 37.6569 29.7343 37.8691 29.704C38.0813 29.6737 38.2044 29.5499 38.2231 29.3831C38.2376 29.2972 38.2289 29.2089 38.198 29.1274C38.198 29.1274 38.2832 28.6746 38.2909 28.6697C38.2987 28.6647 38.5371 28.5428 38.5077 28.3123C38.4782 28.0818 38.289 27.9444 38.1747 27.8904C38.0604 27.8364 37.7725 27.8216 37.5674 28.0123C37.4875 28.0867 37.4362 28.1869 37.4223 28.2954C37.4084 28.4039 37.4328 28.514 37.4913 28.6066C37.5792 28.7327 37.6281 28.7625 37.6281 28.7625L37.6164 29.0193C37.5838 29.0386 37.5565 29.0657 37.5368 29.0981C37.5199 29.1255 37.5078 29.1556 37.5013 29.1871C37.5013 29.1871 37.0575 29.2686 36.9488 29.2473C36.9347 29.2444 36.7665 28.9506 36.8107 28.7156C36.8548 28.4805 36.9401 28.2265 37.0991 28.0389C37.2581 27.8513 37.6248 27.6458 37.9736 27.6777C38.3223 27.7096 38.6117 27.9915 38.6788 28.0946C38.7459 28.1977 38.8756 28.5265 38.865 28.8016V28.8016ZM37.0653 28.4275C37.0507 28.4292 36.9672 28.5301 36.9258 28.6889C36.8992 28.7863 36.912 28.8903 36.9615 28.9784C36.9846 28.9784 37.0068 28.9694 37.0234 28.9533C37.0299 28.9411 36.9798 28.8743 36.9942 28.7179C37.004 28.6217 37.0406 28.5303 37.0999 28.4541C37.1041 28.4466 37.0793 28.4248 37.0653 28.4275V28.4275ZM37.8212 29.4013C37.7863 29.4222 37.749 29.4388 37.7101 29.4506C37.6763 29.4722 37.7436 29.5666 37.886 29.5478C37.918 29.5428 37.9483 29.5308 37.975 29.5126C38.0017 29.4944 38.0239 29.4705 38.0402 29.4426C38.0565 29.4147 38.0664 29.3835 38.0692 29.3513C38.072 29.3191 38.0676 29.2866 38.0563 29.2563C38.0155 29.1288 37.9067 29.1132 37.8156 29.1522C37.7244 29.1912 37.7354 29.2643 37.7399 29.2715C37.7445 29.2786 37.7853 29.2726 37.8274 29.2849C37.8694 29.2972 37.8618 29.3725 37.8212 29.4013V29.4013ZM37.8492 29.2505C37.8184 29.2424 37.7897 29.2407 37.8015 29.2227C37.8133 29.2047 37.9263 29.1403 37.9799 29.2378C38.0334 29.3352 37.9935 29.4083 37.9236 29.4643C37.8537 29.5202 37.791 29.4725 37.7986 29.462C37.8061 29.4514 37.8838 29.442 37.9045 29.3754C37.9131 29.3515 37.9121 29.3252 37.9018 29.3019C37.8915 29.2786 37.8727 29.2602 37.8492 29.2505V29.2505ZM38.2056 28.5343C38.2978 28.4112 38.3614 28.2357 38.189 28.0882C38.0166 27.9406 37.8602 28.0197 37.7781 28.0959C37.5808 28.2779 37.6448 28.5007 37.7714 28.5988C37.8981 28.6968 38.1133 28.6579 38.2056 28.5343V28.5343ZM37.8404 28.1363C37.9086 28.0785 38.0219 28.0235 38.1195 28.1372C38.1441 28.1624 38.1631 28.1924 38.1752 28.2254C38.1874 28.2584 38.1924 28.2936 38.19 28.3287C38.1876 28.3637 38.1778 28.3979 38.1612 28.4288C38.1447 28.4597 38.1217 28.4868 38.0939 28.5082C37.9699 28.6201 37.8433 28.5563 37.7828 28.4786C37.7223 28.4008 37.7252 28.233 37.8404 28.1363ZM37.9946 28.479C38.1512 28.445 38.1461 28.2871 38.1004 28.2185C38.0891 28.2021 38.0744 28.1884 38.0573 28.1782C38.0402 28.168 38.0211 28.1616 38.0013 28.1594C37.9816 28.1573 37.9616 28.1594 37.9427 28.1657C37.9239 28.172 37.9066 28.1823 37.8921 28.1958C37.7264 28.3357 37.8374 28.5129 37.9946 28.479ZM37.9786 28.2599C37.9855 28.2512 37.995 28.2451 38.0058 28.2424C38.0166 28.2398 38.028 28.2408 38.0382 28.2453C38.0543 28.2558 38.0662 28.2718 38.0716 28.2903C38.0771 28.3088 38.0757 28.3286 38.0677 28.3461C38.0476 28.4152 38.0026 28.4186 37.9912 28.4149C37.9786 28.4067 37.9681 28.3957 37.9604 28.3828C37.9527 28.3699 37.948 28.3554 37.9468 28.3404C37.9456 28.3254 37.9478 28.3104 37.9533 28.2964C37.9588 28.2825 37.9674 28.27 37.9786 28.2599V28.2599ZM38.3178 29.5659C38.3085 29.5685 38.2921 29.6166 38.2921 29.6166C38.3412 29.6283 38.3915 29.6346 38.4419 29.6355C38.4463 29.6327 38.4564 29.6044 38.4533 29.5974C38.4096 29.5812 38.364 29.5707 38.3178 29.5659V29.5659ZM38.4006 29.4655C38.3835 29.4654 38.3724 29.513 38.3754 29.5192C38.3832 29.5314 38.508 29.543 38.518 29.5394C38.5281 29.5358 38.5348 29.5135 38.5359 29.5032C38.537 29.493 38.4182 29.4648 38.4002 29.4648L38.4006 29.4655ZM38.4068 29.3595C38.3999 29.3606 38.3853 29.4138 38.3853 29.4138C38.3916 29.4193 38.5683 29.4511 38.5732 29.4514C38.5834 29.4415 38.5895 29.4281 38.5902 29.4138C38.5306 29.3902 38.4691 29.3718 38.4064 29.3589L38.4068 29.3595ZM38.4348 29.2363C38.4257 29.2393 38.4162 29.2878 38.4226 29.2918C38.4339 29.3051 38.6907 29.3202 38.6956 29.3205C38.7005 29.3207 38.709 29.29 38.707 29.2817C38.6172 29.2605 38.5261 29.2451 38.4343 29.2357L38.4348 29.2363ZM38.4602 29.1091C38.4534 29.1134 38.4406 29.1611 38.448 29.1645C38.4553 29.1679 38.7169 29.1815 38.7233 29.1798C38.7278 29.1763 38.7313 29.1718 38.7335 29.1665C38.7357 29.1613 38.7364 29.1556 38.7357 29.15C38.6449 29.1292 38.5526 29.1153 38.4597 29.1084L38.4602 29.1091ZM38.5096 28.9756C38.4983 28.978 38.4887 29.0242 38.4957 29.0283C38.5026 29.0325 38.7384 29.0586 38.7424 29.0575C38.7464 29.0564 38.7538 29.0283 38.7498 29.0199C38.6708 28.9989 38.5904 28.9839 38.5092 28.9749L38.5096 28.9756ZM38.5299 28.8478C38.5195 28.8516 38.5059 28.9026 38.5123 28.9067C38.6036 28.9217 38.6959 28.9302 38.7884 28.9319C38.7951 28.9276 38.7958 28.9019 38.7923 28.8918C38.7887 28.8817 38.5398 28.8439 38.5295 28.8471L38.5299 28.8478ZM38.5636 28.6947C38.5536 28.6963 38.5332 28.7508 38.548 28.7561C38.5628 28.7615 38.7722 28.7768 38.7722 28.7768C38.7722 28.7768 38.7798 28.7439 38.7722 28.7372C38.7034 28.7188 38.6336 28.7044 38.5631 28.6941L38.5636 28.6947ZM38.6103 28.5615C38.5918 28.5667 38.5866 28.61 38.5935 28.6142C38.6543 28.622 38.7157 28.6228 38.7767 28.6167C38.7844 28.6117 38.7823 28.5912 38.7758 28.5781C38.7694 28.565 38.6283 28.5553 38.6099 28.5608L38.6103 28.5615ZM38.638 28.4557C38.6302 28.4607 38.6241 28.4913 38.6284 28.4966C38.6697 28.5046 38.712 28.5053 38.7535 28.4989C38.7616 28.4938 38.759 28.4658 38.7537 28.4597C38.7154 28.4524 38.6763 28.4509 38.6376 28.455L38.638 28.4557ZM38.7246 28.3238C38.6885 28.3136 38.6512 28.3088 38.6138 28.3095C38.6047 28.3124 38.6046 28.363 38.6086 28.3648C38.6501 28.3692 38.692 28.3682 38.7333 28.3621C38.7373 28.3557 38.7311 28.3311 38.7241 28.3231L38.7246 28.3238Z"
        fill="black" />
  <path fill-rule="evenodd"
        clip-rule="evenodd"
        d="M38.8198 28.8004C38.8075 29.0723 38.781 29.3167 38.5616 29.5199C38.3422 29.7232 38.067 29.8322 37.8922 29.8491C37.7174 29.866 37.5133 29.8584 37.3543 29.7849C37.1952 29.7114 37.0886 29.5908 37.1012 29.5809C37.1139 29.571 37.4533 29.5004 37.4659 29.5098C37.4785 29.5192 37.6159 29.7282 37.8267 29.6972C38.0375 29.6663 38.1604 29.5434 38.1797 29.3783C38.1945 29.2933 38.1863 29.2061 38.156 29.1256C38.156 29.1256 38.2426 28.6775 38.2504 28.6726C38.2581 28.6677 38.4954 28.5461 38.4672 28.3183C38.439 28.0904 38.2518 27.9555 38.1385 27.9026C38.0253 27.8498 37.7394 27.8364 37.5349 28.0259C37.4552 28.0999 37.4038 28.1992 37.3895 28.3065C37.3752 28.4139 37.3989 28.5226 37.4565 28.6139C37.5433 28.7382 37.5918 28.7675 37.5918 28.7675L37.5789 29.0214C37.5464 29.0407 37.5192 29.0676 37.4995 29.0997C37.4826 29.1268 37.4705 29.1566 37.4638 29.1878C37.4638 29.1878 37.0228 29.2705 36.9149 29.2499C36.9009 29.2471 36.7352 28.9574 36.7802 28.7248C36.8251 28.4922 36.911 28.2406 37.0698 28.0544C37.2285 27.8682 37.5936 27.6633 37.9398 27.6933C38.286 27.7232 38.572 28.0005 38.6382 28.1022C38.7044 28.2038 38.8316 28.5283 38.8198 28.8004ZM36.8947 28.6979C36.9365 28.5407 37.0199 28.4405 37.0344 28.4388C37.0483 28.4361 37.0729 28.4575 37.0686 28.4649C37.0094 28.5406 36.9726 28.6311 36.9624 28.7262C36.9474 28.881 36.9969 28.9468 36.9904 28.9589C36.9738 28.9748 36.9517 28.9838 36.9288 28.984C36.88 28.8971 36.8677 28.7943 36.8947 28.6979ZM38.2471 29.6089C38.2471 29.6089 38.2636 29.5612 38.2729 29.5587C38.3188 29.5631 38.364 29.5734 38.4073 29.5891C38.4103 29.5961 38.4003 29.6241 38.3959 29.6269C38.3458 29.6262 38.2959 29.6202 38.2471 29.6089ZM38.3304 29.5122C38.3274 29.5061 38.3386 29.459 38.3556 29.4589L38.3552 29.4583C38.3731 29.4581 38.4909 29.4855 38.4898 29.4957C38.4886 29.5058 38.4819 29.5279 38.4719 29.5315C38.4619 29.5351 38.338 29.5242 38.3304 29.5122ZM38.3406 29.4079C38.3406 29.4079 38.3554 29.3553 38.3622 29.3542L38.3618 29.3535C38.424 29.366 38.485 29.3839 38.5441 29.407C38.5433 29.4211 38.5373 29.4344 38.527 29.4442C38.5222 29.444 38.3469 29.4133 38.3406 29.4079ZM38.3782 29.2871C38.3719 29.2831 38.3816 29.2352 38.3906 29.2322L38.3902 29.2316C38.4813 29.2405 38.5716 29.2553 38.6607 29.2758C38.6626 29.284 38.6541 29.3144 38.6492 29.3142C38.6443 29.314 38.3894 29.3002 38.3782 29.2871ZM38.404 29.1612C38.3967 29.1579 38.4097 29.1106 38.4164 29.1063L38.416 29.1056C38.5082 29.112 38.5997 29.1253 38.6898 29.1454C38.6905 29.151 38.6897 29.1566 38.6876 29.1618C38.6854 29.167 38.6819 29.1715 38.6774 29.175C38.671 29.1767 38.4113 29.1645 38.404 29.1612ZM38.452 29.0263C38.4452 29.0222 38.4549 28.9765 38.4661 28.9741L38.4657 28.9734C38.5463 28.9819 38.6261 28.9964 38.7044 29.0168C38.7083 29.0251 38.7009 29.0528 38.6969 29.054C38.6929 29.0551 38.4589 29.0304 38.452 29.0263ZM38.4691 28.9059C38.4628 28.9019 38.4765 28.8514 38.4868 28.8476L38.4864 28.8469C38.4967 28.8437 38.7437 28.8799 38.7472 28.8899C38.7507 28.8999 38.7499 28.9253 38.7431 28.9296C38.6513 28.9283 38.5597 28.9204 38.4691 28.9059ZM38.5053 28.7569C38.4906 28.7517 38.5111 28.6977 38.521 28.6961L38.5206 28.6955C38.5905 28.7054 38.6597 28.7193 38.728 28.7372C38.7355 28.7437 38.7278 28.7763 38.7278 28.7763C38.7278 28.7763 38.52 28.7621 38.5053 28.7569ZM38.5511 28.6163C38.5442 28.6122 38.5496 28.5694 38.5681 28.5642L38.5676 28.5635C38.5859 28.558 38.726 28.5669 38.7323 28.5798C38.7387 28.5927 38.7407 28.613 38.733 28.6179C38.6724 28.6243 38.6114 28.6238 38.5511 28.6163ZM38.5863 28.4999C38.582 28.4947 38.5883 28.4644 38.596 28.4594L38.5956 28.4588C38.634 28.4545 38.6729 28.4558 38.7108 28.4629C38.7161 28.4689 38.7185 28.4965 38.7105 28.5016C38.6692 28.5082 38.6272 28.5076 38.5863 28.4999ZM38.5726 28.315C38.6098 28.3141 38.6468 28.3187 38.6826 28.3286L38.6822 28.3279C38.689 28.3358 38.6951 28.3601 38.6911 28.3664C38.6501 28.3727 38.6084 28.3738 38.5672 28.3697C38.5633 28.368 38.5636 28.3179 38.5726 28.315Z"
        fill="url(#paint4_linear)" />
  <path d="M55.3736 30.1587C54.539 29.134 52.1356 27.6241 49.9433 27.3373C47.7511 27.0506 44.9921 27.8869 43.3897 29.647C41.7872 31.407 41.2039 33.3449 41.0669 35.4281C40.93 37.5113 42.2039 39.5261 42.3 39.5495C42.6785 39.634 46.8004 39.082 47.032 38.9768C47.2636 38.8715 47.1032 38.8337 47.505 38.2261C47.9067 37.6185 48.0767 37.8293 48.216 37.6657C48.3552 37.5021 48.458 35.0238 48.3695 34.8034C48.281 34.583 47.7728 34.1318 47.2678 33.3595C46.9768 32.8892 46.8699 32.328 46.9679 31.7844C47.0659 31.2408 47.3618 30.7535 47.7984 30.4166C48.8614 29.5016 50.1334 29.4955 50.8668 29.8976C51.6002 30.2998 52.6437 31.4128 52.6517 32.531C52.6597 33.6493 51.385 34.1098 51.282 34.2079C51.179 34.3061 50.5183 37.8041 50.5552 37.8978C50.7645 38.3147 50.8477 38.7835 50.7944 39.2465C50.7185 40.0242 50.2152 40.8495 48.8693 41.0656C47.5233 41.2817 46.8132 39.953 46.7472 39.8648C46.6813 39.7766 43.3223 40.3439 43.069 40.5476C42.8157 40.7513 43.1656 41.5247 43.8828 42.3345C44.8076 43.2672 45.9855 43.9074 47.2696 44.1752C48.4901 44.3982 49.7422 44.3751 50.9524 44.1073C52.1627 43.8395 53.3066 43.3323 54.3173 42.6155C57.1181 40.6065 57.3466 38.5854 57.4923 36.1644C57.638 33.7435 56.2068 31.181 55.3736 30.1587V30.1587ZM55.746 35.5382C55.6701 37.4165 55.4953 39.1039 53.9926 40.5008C52.49 41.8977 50.6009 42.6421 49.3991 42.7533C48.1974 42.8645 46.7929 42.8053 45.6967 42.2924C44.6005 41.7795 43.8633 40.9434 43.9498 40.8753C44.0363 40.8072 46.3687 40.3306 46.4556 40.3957C46.5426 40.4608 47.4944 41.909 48.9436 41.702C50.3928 41.4951 51.234 40.6498 51.3617 39.5102C51.4603 38.9234 51.4011 38.3206 51.1903 37.7634C51.1903 37.7634 51.7717 34.6709 51.8248 34.6371C51.878 34.6032 53.5065 33.7708 53.3051 32.1961C53.1038 30.6215 51.8113 29.6833 51.0309 29.3144C50.2505 28.9455 48.2835 28.8442 46.883 30.1467C46.3372 30.6553 45.9865 31.3394 45.8915 32.0806C45.7965 32.8219 45.9631 33.5738 46.3627 34.2064C46.9633 35.0676 47.2976 35.2714 47.2976 35.2714L47.2173 37.0255C46.9946 37.1574 46.808 37.3423 46.674 37.5638C46.5581 37.7504 46.4759 37.9559 46.4311 38.1711C46.4311 38.1711 43.4 38.7282 42.6578 38.5824C42.5609 38.5628 41.4123 36.5561 41.714 34.9507C42.0158 33.3453 42.5983 31.6099 43.6843 30.3286C44.7704 29.0473 47.2751 27.6436 49.6572 27.8615C52.0393 28.0794 54.0158 30.0046 54.4743 30.7089C54.9327 31.4132 55.8182 33.6591 55.746 35.5382V35.5382ZM43.4535 32.9829C43.3537 32.9944 42.7831 33.6835 42.5006 34.7687C42.3185 35.4336 42.406 36.1442 42.7443 36.7462C42.9022 36.7456 43.0537 36.6841 43.1673 36.5744C43.2114 36.4909 42.8691 36.035 42.9673 34.9663C43.0344 34.3094 43.2846 33.6851 43.6894 33.1647C43.7186 33.1136 43.5489 32.9644 43.4535 32.9829V32.9829ZM48.6165 39.6344C48.378 39.7771 48.1231 39.8903 47.8573 39.9716C47.6264 40.1187 48.086 40.7636 49.0593 40.6352C49.2772 40.6011 49.4847 40.5189 49.6668 40.3946C49.849 40.2703 50.0011 40.1071 50.1124 39.9165C50.2237 39.726 50.2912 39.5131 50.3102 39.293C50.3292 39.0729 50.2992 38.8512 50.2222 38.6439C49.9434 37.7731 49.2004 37.6669 48.578 37.9332C47.9555 38.1995 48.0302 38.699 48.0612 38.7476C48.0922 38.7962 48.3712 38.7552 48.6585 38.8392C48.9457 38.9232 48.894 39.4381 48.6165 39.6344V39.6344ZM48.8075 38.6043C48.5972 38.5494 48.4013 38.5374 48.482 38.4144C48.5627 38.2914 49.3344 37.8518 49.7001 38.5175C50.0658 39.1832 49.7931 39.6825 49.3159 40.0647C48.8387 40.4469 48.4102 40.1208 48.4617 40.0489C48.5133 39.9769 49.0436 39.9125 49.1855 39.4575C49.2441 39.2942 49.2375 39.1144 49.1671 38.9555C49.0967 38.7966 48.9679 38.6708 48.8075 38.6043V38.6043ZM51.2422 33.7123C51.872 32.8715 52.3065 31.6732 51.1287 30.6653C49.9508 29.6574 48.8829 30.1978 48.3217 30.7182C46.9741 31.9609 47.4114 33.483 48.2764 34.1529C49.1415 34.8228 50.6116 34.5569 51.2422 33.7123V33.7123ZM48.7474 30.994C49.2134 30.5994 49.987 30.2237 50.6539 31.0004C50.8218 31.1721 50.9515 31.3775 51.0345 31.6029C51.1175 31.8283 51.1519 32.0686 51.1354 32.308C51.1189 32.5474 51.0519 32.7805 50.9388 32.9918C50.8257 33.2032 50.6691 33.388 50.4793 33.5341C49.6321 34.2986 48.7671 33.8631 48.3539 33.3318C47.9408 32.8005 47.9607 31.6547 48.7474 30.994ZM49.8005 33.3349C50.8701 33.1028 50.8355 32.0243 50.5238 31.5554C50.4463 31.4435 50.3458 31.3495 50.2289 31.2799C50.1121 31.2103 49.9817 31.1667 49.8467 31.152C49.7116 31.1373 49.5751 31.1519 49.4464 31.1948C49.3176 31.2377 49.1997 31.3079 49.1006 31.4006C47.9691 32.3559 48.7272 33.5661 49.8005 33.3349ZM49.6912 31.8384C49.7383 31.7789 49.8038 31.7368 49.8775 31.7187C49.9512 31.7007 50.0289 31.7076 50.0983 31.7385C50.2088 31.8102 50.29 31.9192 50.327 32.0457C50.3641 32.1721 50.3545 32.3075 50.3001 32.4273C50.1625 32.8992 49.8557 32.9221 49.7779 32.8967C49.6918 32.8408 49.6196 32.7659 49.5669 32.6778C49.5143 32.5896 49.4826 32.4905 49.4742 32.3882C49.4658 32.286 49.481 32.1832 49.5186 32.0878C49.5563 31.9925 49.6153 31.9071 49.6912 31.8384V31.8384ZM52.008 40.759C51.9446 40.7767 51.8326 41.1053 51.8326 41.1053C52.1683 41.1849 52.5116 41.2282 52.8564 41.2345C52.8864 41.2154 52.9547 41.022 52.9336 40.9736C52.6352 40.8635 52.3242 40.7914 52.008 40.759V40.759ZM52.574 40.0728C52.4569 40.0725 52.3815 40.3974 52.4019 40.4397C52.4551 40.5231 53.3072 40.6021 53.3761 40.5777C53.445 40.5534 53.4906 40.4006 53.498 40.3308C53.5054 40.2609 52.6942 40.0679 52.5711 40.0682L52.574 40.0728ZM52.6162 39.3492C52.5689 39.3565 52.4691 39.7196 52.4691 39.7196C52.5125 39.7571 53.7193 39.9749 53.7527 39.9764C53.8226 39.909 53.8641 39.8173 53.8686 39.7202C53.4618 39.5585 53.0417 39.4328 52.6132 39.3446L52.6162 39.3492ZM52.8073 38.5078C52.7453 38.5277 52.6804 38.8589 52.724 38.8865C52.8013 38.9773 54.5553 39.0808 54.5888 39.0823C54.6222 39.0838 54.6802 38.8742 54.6669 38.8176C54.0533 38.6729 53.4312 38.5679 52.8044 38.5032L52.8073 38.5078ZM52.9808 37.6386C52.9346 37.6681 52.8469 37.9942 52.8974 38.0173C52.9479 38.0405 54.7341 38.1333 54.7784 38.1214C54.809 38.0978 54.8329 38.0666 54.8478 38.0309C54.8626 37.9952 54.8678 37.9562 54.863 37.9177C54.2424 37.776 53.6123 37.6811 52.9778 37.634L52.9808 37.6386ZM53.3185 36.7267C53.2414 36.7432 53.176 37.0584 53.2233 37.0868C53.2706 37.1153 54.8811 37.294 54.9086 37.2863C54.9362 37.2785 54.9862 37.087 54.9592 37.0293C54.4196 36.8862 53.8702 36.7835 53.3155 36.722L53.3185 36.7267ZM53.457 35.8537C53.3858 35.8795 53.2932 36.2283 53.3367 36.2559C53.9605 36.3589 54.5907 36.4166 55.2225 36.4286C55.2687 36.3991 55.2736 36.2234 55.2491 36.1544C55.2246 36.0853 53.5244 35.827 53.4541 35.849L53.457 35.8537ZM53.6871 34.8084C53.6192 34.8191 53.4797 35.1912 53.5809 35.2277C53.6821 35.2642 55.1123 35.3689 55.1123 35.3689C55.1123 35.3689 55.1638 35.144 55.1122 35.0987C54.6422 34.9728 54.1654 34.8744 53.6841 34.8038L53.6871 34.8084ZM54.0065 33.8983C53.8796 33.9336 53.8443 34.2296 53.8916 34.2581C54.3067 34.3113 54.7264 34.317 55.1426 34.2751C55.1957 34.2412 55.1809 34.1009 55.137 34.0116C55.0932 33.9223 54.129 33.8561 54.0036 33.8937L54.0065 33.8983ZM54.1954 33.1756C54.1423 33.2094 54.1002 33.4186 54.1299 33.455C54.4117 33.5093 54.7007 33.5147 54.9841 33.4709C55.0395 33.4356 55.0219 33.2449 54.9855 33.203C54.724 33.1533 54.4568 33.1425 54.1924 33.171L54.1954 33.1756ZM54.7868 32.2746C54.5406 32.205 54.2856 32.1722 54.03 32.1772C53.968 32.1971 53.9674 32.5426 53.9945 32.5547C54.2782 32.5845 54.5644 32.5783 54.8463 32.5362C54.8738 32.4927 54.8314 32.3243 54.7838 32.2699L54.7868 32.2746Z"
        fill="black" />
  <path fill-rule="evenodd"
        clip-rule="evenodd"
        d="M55.4365 35.53C55.3525 37.3875 55.1711 39.0567 53.6724 40.4448C52.1738 41.833 50.2944 42.5777 49.1005 42.6932C47.9065 42.8087 46.5121 42.7566 45.4259 42.2545C44.3397 41.7525 43.6115 40.9292 43.6977 40.8615C43.7839 40.7937 46.1023 40.3117 46.1883 40.3757C46.2744 40.4397 47.2129 41.8671 48.653 41.6558C50.093 41.4446 50.9323 40.6049 51.0644 39.4775C51.165 38.8969 51.109 38.3011 50.9022 37.7512C50.9022 37.7512 51.4939 34.6908 51.5467 34.6571C51.5996 34.6234 53.2207 33.7928 53.028 32.2368C52.8353 30.6808 51.5562 29.7592 50.7829 29.3981C50.0096 29.0369 48.0567 28.9458 46.66 30.2401C46.1156 30.7455 45.7642 31.4235 45.6664 32.1568C45.5687 32.8902 45.7307 33.6329 46.1246 34.2565C46.717 35.1052 47.0481 35.3052 47.0481 35.3052L46.9602 37.0399C46.7385 37.1714 46.5523 37.355 46.4182 37.5747C46.3023 37.7597 46.2197 37.9633 46.1742 38.1763C46.1742 38.1763 43.1616 38.7411 42.4252 38.6003C42.3291 38.5813 41.1978 36.6026 41.5048 35.0139C41.8118 33.4252 42.3983 31.7066 43.4827 30.4347C44.5672 29.1628 47.0609 27.7634 49.4255 27.9678C51.79 28.1722 53.7439 30.0667 54.1959 30.7609C54.6479 31.4552 55.5168 33.6717 55.4365 35.53ZM42.2867 34.8303C42.5723 33.756 43.1421 33.072 43.2413 33.0602C43.3361 33.0415 43.5039 33.1882 43.4747 33.2388C43.0703 33.7553 42.819 34.3737 42.7493 35.0235C42.6468 36.0806 42.9847 36.5298 42.9404 36.6126C42.8272 36.7215 42.6765 36.7831 42.5196 36.7844C42.1865 36.1908 42.1028 35.4885 42.2867 34.8303ZM51.5246 41.0525C51.5246 41.0525 51.6374 40.7271 51.7004 40.7093C52.0143 40.7399 52.3228 40.8097 52.6186 40.9172C52.6393 40.965 52.5706 41.1565 52.5407 41.1755C52.1983 41.1709 51.8576 41.1297 51.5246 41.0525ZM52.0931 40.3918C52.0729 40.35 52.1494 40.0285 52.2656 40.0283L52.2627 40.0237C52.385 40.0228 53.1897 40.2099 53.182 40.279C53.1743 40.3481 53.1284 40.4993 53.0599 40.5237C52.9913 40.5481 52.1454 40.474 52.0931 40.3918ZM52.1631 39.6795C52.1631 39.6795 52.2638 39.32 52.3108 39.3126L52.3079 39.308C52.7331 39.3933 53.1497 39.5156 53.5529 39.6736C53.5479 39.7697 53.5063 39.8605 53.4366 39.9274C53.4034 39.9261 52.206 39.7164 52.1631 39.6795ZM52.42 38.8546C52.3769 38.8275 52.4429 38.4998 52.5045 38.4798L52.5016 38.4752C53.1238 38.5363 53.7411 38.6372 54.3497 38.7775C54.3627 38.8334 54.3041 39.0409 54.2709 39.0396C54.2378 39.0382 52.4964 38.944 52.42 38.8546ZM52.5962 37.9944C52.5462 37.9717 52.6348 37.6489 52.6808 37.6196L52.6779 37.615C53.3077 37.6587 53.9331 37.7495 54.5486 37.8869C54.5533 37.9248 54.5479 37.9634 54.533 37.9988C54.5181 38.0342 54.4942 38.0651 54.4637 38.0886C54.4196 38.1006 52.6463 38.0171 52.5962 37.9944ZM52.9242 37.0729C52.8773 37.045 52.9437 36.733 53.0203 36.7163L53.0174 36.7117C53.568 36.7699 54.1131 36.869 54.6483 37.008C54.6749 37.0649 54.6242 37.2545 54.5969 37.2623C54.5695 37.2701 52.9711 37.1008 52.9242 37.0729ZM53.0406 36.2508C52.9975 36.2237 53.0911 35.8784 53.162 35.8525L53.159 35.8479C53.229 35.8258 54.9162 36.0734 54.9402 36.1416C54.9642 36.2097 54.9585 36.3835 54.9125 36.4128C54.2852 36.4038 53.6596 36.3497 53.0406 36.2508ZM53.2879 35.233C53.1876 35.1974 53.3278 34.8288 53.3952 34.8179L53.3923 34.8134C53.8699 34.8809 54.343 34.9761 54.8091 35.0984C54.8601 35.1429 54.8079 35.3656 54.8079 35.3656C54.8079 35.3656 53.3882 35.2686 53.2879 35.233ZM53.6009 34.2728C53.554 34.2449 53.5905 33.9521 53.7167 33.9166L53.7138 33.912C53.8385 33.8743 54.7956 33.9354 54.8388 34.0234C54.882 34.1115 54.896 34.2502 54.8431 34.2839C54.4296 34.3273 54.0129 34.3236 53.6009 34.2728ZM53.8412 33.4777C53.8119 33.4419 53.8546 33.2349 53.9075 33.2012L53.9046 33.1966C54.1673 33.1672 54.4326 33.1767 54.692 33.2246C54.728 33.2659 54.7446 33.4543 54.6894 33.4895C54.4078 33.5341 54.1209 33.5301 53.8412 33.4777ZM53.7479 32.2147C54.0017 32.2086 54.2548 32.2399 54.499 32.3076L54.4961 32.303C54.5431 32.3565 54.5844 32.5228 54.5569 32.566C54.2768 32.6089 53.9925 32.6163 53.711 32.5881C53.6841 32.5764 53.6863 32.2347 53.7479 32.2147Z"
        fill="url(#paint5_linear)" />
  <path d="M33.9613 19.9834C34.2705 19.9728 34.7077 20.2811 34.8876 20.4366C35.0875 20.1634 35.0675 19.477 34.8876 19.1571C34.7077 18.8372 34.2545 18.4774 33.7548 18.3508C33.3549 18.2495 32.9306 18.393 32.7685 18.4774C32.7685 18.4774 31.0759 19.477 30.4295 19.9301C29.7831 20.3832 29.6298 21.059 30.1362 21.9226C30.6427 22.7863 31.4713 22.7756 31.8222 22.6623C32.1798 22.4646 32.9364 22.0399 33.1017 21.9226C33.3083 21.776 33.6681 21.7627 33.828 22.0692C33.956 22.3145 33.797 22.5668 33.7014 22.6623C33.055 23.0777 31.7356 23.9231 31.629 23.9818C31.4957 24.0551 31.3358 24.115 31.0759 23.9818C30.8679 23.8751 30.8515 23.5864 30.8693 23.4553C30.6081 23.498 30.1029 23.131 29.883 22.9422C29.7098 23.9684 30.0363 24.6482 30.6893 24.968C31.2118 25.2239 31.7467 25.1102 31.9488 25.0213C32.7196 24.5393 34.3119 23.5406 34.5144 23.402C34.7677 23.2287 35.2341 22.1359 34.5144 21.3295C33.9387 20.6845 33.1461 20.7364 32.8218 20.8431L31.7622 21.4895C31.609 21.5828 31.2571 21.6987 31.0759 21.4162C30.8946 21.1336 31.0225 20.8764 31.1092 20.7831L33.2749 19.4303C33.386 19.377 33.6521 19.3117 33.828 19.477C34.004 19.6422 33.9902 19.8835 33.9613 19.9834Z"
        fill="#C4C4C4" />
  <path fill-rule="evenodd"
        clip-rule="evenodd"
        d="M32.7687 18.4773C32.3983 17.8502 32.3983 17.8502 32.3983 17.8502L32.3785 17.8619C32.3657 17.8695 32.347 17.8806 32.323 17.8948C32.2749 17.9233 32.2057 17.9645 32.1207 18.0153C31.9507 18.1168 31.7172 18.2569 31.4631 18.4115C30.9624 18.716 30.3573 19.0913 30.0116 19.3337C29.5676 19.6449 29.2275 20.0836 29.1324 20.6521C29.0395 21.2073 29.2005 21.7663 29.5082 22.2909C29.5121 22.2976 29.516 22.3042 29.5199 22.3108C29.3333 22.4182 29.2016 22.6043 29.165 22.8209C29.0622 23.43 29.0962 24.0032 29.3047 24.5012C29.518 25.0106 29.8927 25.3886 30.3692 25.622C31.1334 25.9963 31.8999 25.8384 32.2421 25.688C32.2742 25.6738 32.3053 25.6574 32.3351 25.6388C33.0939 25.1643 34.707 24.1528 34.9259 24.003C35.1465 23.852 35.2914 23.6135 35.377 23.438C35.4771 23.2332 35.5596 22.9833 35.6 22.7093C35.6712 22.226 35.6147 21.622 35.2388 21.0746C35.331 21.0239 35.4121 20.9533 35.4755 20.8666C35.7181 20.535 35.7614 20.0966 35.7585 19.8069C35.7553 19.4967 35.6958 19.108 35.5225 18.7999C35.2351 18.2889 34.6068 17.8152 33.9338 17.6447C33.294 17.4826 32.6791 17.7029 32.4324 17.8313C32.4209 17.8373 32.4095 17.8436 32.3983 17.8502L32.7687 18.4773ZM31.3779 20.8686C31.3779 20.8686 31.3783 20.8685 31.379 20.8683C31.3783 20.8685 31.3779 20.8686 31.3779 20.8686ZM31.5926 23.5447C31.5926 23.5446 31.5926 23.5444 31.5925 23.5441C31.5926 23.5445 31.5926 23.5447 31.5926 23.5447Z"
        fill="black" />
  <path d="M33.8281 20.0657C34.0955 20.0565 34.4735 20.3231 34.6291 20.4576C34.802 20.2213 34.7847 19.6278 34.6291 19.3512C34.4735 19.0746 34.0817 18.7634 33.6495 18.6539C33.3038 18.5663 32.9369 18.6904 32.7967 18.7634C32.7967 18.7634 31.0556 19.7835 30.774 20.0196C30.4924 20.2558 30.0825 20.9958 30.5205 21.7426C30.9584 22.4894 31.6749 22.4802 31.9784 22.3822C32.2876 22.2113 32.9419 21.844 33.0848 21.7426C33.2634 21.6158 33.5746 21.6043 33.7129 21.8694C33.8235 22.0814 33.686 22.2996 33.6034 22.3822C33.0444 22.7414 31.9035 23.4725 31.8113 23.5232C31.696 23.5866 31.5577 23.6385 31.333 23.5232C31.1532 23.431 31.139 23.1813 31.1543 23.068C30.9285 23.1049 30.4917 22.7875 30.3015 22.6243C30.1517 23.5117 30.434 24.0995 30.9988 24.3761C31.4505 24.5973 31.9131 24.499 32.0879 24.4222C32.7544 24.0053 34.1312 23.1417 34.3064 23.0219C34.5254 22.8721 34.9288 21.927 34.3064 21.2297C33.8085 20.6719 33.1232 20.7169 32.8428 20.8091L31.9265 21.368C31.794 21.4487 31.4897 21.549 31.333 21.3047C31.1762 21.0603 31.2869 20.8379 31.3618 20.7572L33.2346 19.5874C33.3306 19.5413 33.5608 19.4849 33.7129 19.6278C33.865 19.7707 33.8531 19.9793 33.8281 20.0657Z"
        fill="white" />
  <defs>
    <linearGradient id="paint0_linear"
                    x1="30.6976"
                    y1="35.8729"
                    x2="38.2002"
                    y2="44.8994"
                    gradientUnits="userSpaceOnUse">
      <stop stop-color="#140F2D" />
      <stop offset="0.717153"
            stop-color="#4B1334" />
      <stop offset="1"
            stop-color="#DD1D45" />
    </linearGradient>
    <linearGradient id="paint1_linear"
                    x1="9.09278"
                    y1="31.6793"
                    x2="25.0433"
                    y2="33.2449"
                    gradientUnits="userSpaceOnUse">
      <stop stop-color="#140F2D" />
      <stop offset="0.717153"
            stop-color="#4B1334" />
      <stop offset="1"
            stop-color="#DD1D45" />
    </linearGradient>
    <linearGradient id="paint2_linear"
                    x1="26.1125"
                    y1="28.1795"
                    x2="28.4477"
                    y2="28.4087"
                    gradientUnits="userSpaceOnUse">
      <stop stop-color="#140F2D" />
      <stop offset="0.717153"
            stop-color="#4B1334" />
      <stop offset="1"
            stop-color="#DD1D45" />
    </linearGradient>
    <linearGradient id="paint3_linear"
                    x1="31.6042"
                    y1="28.1219"
                    x2="33.9394"
                    y2="28.3511"
                    gradientUnits="userSpaceOnUse">
      <stop stop-color="#140F2D" />
      <stop offset="0.717153"
            stop-color="#4B1334" />
      <stop offset="1"
            stop-color="#DD1D45" />
    </linearGradient>
    <linearGradient id="paint4_linear"
                    x1="37.0959"
                    y1="28.1795"
                    x2="39.4311"
                    y2="28.4087"
                    gradientUnits="userSpaceOnUse">
      <stop stop-color="#140F2D" />
      <stop offset="0.717153"
            stop-color="#4B1334" />
      <stop offset="1"
            stop-color="#DD1D45" />
    </linearGradient>
    <linearGradient id="paint5_linear"
                    x1="43.6609"
                    y1="31.2892"
                    x2="59.6115"
                    y2="32.8548"
                    gradientUnits="userSpaceOnUse">
      <stop stop-color="#140F2D" />
      <stop offset="0.717153"
            stop-color="#4B1334" />
      <stop offset="1"
            stop-color="#DD1D45" />
    </linearGradient>
  </defs>
</svg>