<svg fill="none" height="65" viewBox="0 0 64 65" width="64" xmlns="http://www.w3.org/2000/svg" xmlns:xlink="http://www.w3.org/1999/xlink"><linearGradient id="a"><stop offset="0" stop-color="#140f2d"/><stop offset=".717153" stop-color="#4b1334"/><stop offset="1" stop-color="#dd1d45"/></linearGradient><linearGradient id="b" gradientUnits="userSpaceOnUse" x1="30.6976" x2="38.2002" xlink:href="#a" y1="35.8729" y2="44.8994"/><linearGradient id="c" gradientUnits="userSpaceOnUse" x1="9.09278" x2="25.0433" xlink:href="#a" y1="31.6793" y2="33.2449"/><linearGradient id="d" gradientUnits="userSpaceOnUse" x1="26.1125" x2="28.4477" xlink:href="#a" y1="28.1795" y2="28.4087"/><linearGradient id="e" gradientUnits="userSpaceOnUse" x1="31.6042" x2="33.9394" xlink:href="#a" y1="28.1219" y2="28.3511"/><linearGradient id="f" gradientUnits="userSpaceOnUse" x1="37.0959" x2="39.4311" xlink:href="#a" y1="28.1795" y2="28.4087"/><linearGradient id="g" gradientUnits="userSpaceOnUse" x1="43.6609" x2="59.6115" xlink:href="#a" y1="31.2892" y2="32.8548"/><path d="m47.1306 15.5602c0-1.7486-1.3964-4.5685-5.7934-6.126-4.3971-1.55753-7.1924-1.62527-12.2836-1.52617-4.8505.09433-8.7941 1.17994-10.5035 2.23417-1.7095 1.0543-4.4684 3.3143-3.4844 5.65 3.9436.5507 26.4463 1.6088 32.0649-.232zm-1.3001 0c-4.92 1.1327-26.2716.7934-29.8661.1797-.6719-.794-.7299-2.7972 1.6081-4.4335 2.338-1.63636 4.8161-2.97361 11.3416-3.16228 2.7965-.08079 7.0841-.17312 11.3066 1.29008s6.3515 3.5398 5.6098 6.126zm-27.2343-3.9917c-.1628 0-1.047.7763-1.675 1.5628-.628.7866-.4702.8438-.3257.8706.3957.0735.4652-.1889.6047-.4405.1395-.2517.7213-.8287 1.0937-1.3742.3723-.5452.4651-.6187.3023-.6187zm26.1493 3.7657c.3257-.0314.4418-.3463.5813-.986.1395-.6398-.3023-1.4369-.4651-1.5104-.1629-.0735-.5974.0017-.6747.063-.0928.0735.2095.367.2329 1.1327.0233.7658-.279 1.1015-.2557 1.2063.0228.1046.2551.1257.5813.0944z" fill="#232021"/><path d="m37.0446 9.35542c-4.0013-.63977-7.2802-.53289-10.4224-.01054-3.28.54544-6.5605 1.61552-7.7931 3.91242-.8811 1.4632 0 2.4349 0 2.4349h.9899s-.711-.694.2199-2.1519c.9303-1.4579 4.8389-2.7375 6.3977-3.1048 2.4531-.5778 4.6994-.89141 9.5849-.71328 4.8855.17814 6.3971 3.05258 6.7 3.73428.3023.6817.1485 1.5622-.6261 2.1037h1.1146c.7271-.9296.3257-1.9778 0-2.6597-.3257-.6817-2.1635-2.90531-6.1654-3.54508z" fill="#232021"/><path clip-rule="evenodd" d="m17.5725 11.3062c-2.338 1.6363-2.28 3.6396-1.6082 4.4336l2.8647-.0477s-.8811-.9717 0-2.4349c1.2326-2.2969 4.5132-3.367 7.7932-3.91243 3.1421-.52236 6.421-.62924 10.4224.01053 4.0019.63978 5.8397 2.8634 6.1654 3.5451.3256.6819.727 1.7301 0 2.6596h2.6205c.7416-2.5861-1.3873-4.6627-5.6099-6.12592-4.2225-1.4632-8.51-1.37087-11.3065-1.29008-6.5256.18867-9.0036 1.52592-11.3416 3.1622zm-.6514 1.825c.628-.7865 1.5122-1.5628 1.675-1.5628.1629 0 .0701.0735-.3023.6187-.3723.5455-.9542 1.1225-1.0937 1.3741-.1395.2517-.2089.5141-.6046.4406-.1445-.0268-.3023-.084.3256-.8706zm28.4057 1.2168c-.1395.6398-.2557.9547-.5813.986-.3262.0314-.5585.0103-.5813-.0943-.0234-.1049.279-.4406.2556-1.2063-.0233-.7657-.3257-1.0592-.2328-1.1328.0772-.0612.5118-.1364.6746-.0629.1629.0735.6047.8706.4652 1.5103z" fill="#dd1d45" fill-rule="evenodd"/><path d="m60.6968 43.8095c.0602-2.8287-.6437-23.995-.7667-25.9109-.1231-1.9159-3.6123-2.494-5.4503-2.5233-1.838-.0292-6.2152.1815-7.012.1815-.7951 0-9.4291-.0619-15.461 0-6.032.062-19.5638.2125-22.01358.2125s-4.98102.3099-5.29621.7296c-1.25632 1.6742-.15405 12.9253-.15405 20.589 0 7.6636.36742 11.9213.70386 12.9855.33643 1.0642 1.68483 3.9841 2.17444 4.4401.4896.4559 1.40772.3957 4.99074.4559 3.5822.062 3.8885.2435 12.3685.2435 8.4799 0 17.2379-.2745 24.7103-.4869 7.4724-.2125 8.1736-.3347 9.9807-1.5813 1.8061-1.2466 1.1633-6.5074 1.2244-9.3361zm-1.3192-10.3109c-.2143-.2435-1.4741-1.8858-1.8106-1.8539-.3364.0292-.2744.6684-.2142.9721.062.3037 1.9026 1.8539 1.9026 2.0372s.1532 1.7946.062 1.7335c-.093-.0619-1.3528-2.2806-1.7504-2.0983-.3984.1824-.3984.8819-.3674 1.1244.031.2444 2.0868 2.008 2.0868 2.3126s.1213 1.8548 0 1.5511c-.1239-.3036-1.6282-2.494-1.9646-2.3116s-.3984.7614-.2452 1.0952c.1531.3346 2.1478 2.1284 2.1788 2.463.0301.3347.2125 2.4029.0301 2.2506-.1841-.1523-1.382-2.433-2.0876-2.5852-.7039-.1523-.7969.3957-.4897.6693.3064.2745 1.1076 1.4909 1.4441 2.0983.3364.6082 1.2244 1.3989 1.2554 1.5812.031.1824.062 2.7978-.1222 2.6765-.1832-.1213-1.0766-2.3719-1.9026-3.3449-.8269-.9739-1.2554-1.4608-1.5007-1.1864-.2452.2745-.1222.7296.1222 1.0952.2452.3648 2.1169 3.1324 2.301 3.4361.1842.3037.3365.5781.2745.7906s-.3665.487-.3665.6994c0 .2125-.093.2745-.124.062-.0301-.2125-2.4533-3.6202-2.9429-4.3196-.4896-.6995-.5507-.8819-1.0093-.6694s.0301.85.1824 1.0625c.1531.2124 3.4033 4.5932 3.4334 4.9881.031.3957-.4604.8517-.7039.7295s-3.3121-4.9571-3.8318-5.7176c-.5206-.7615-.7349-.7615-1.0093-.425-.2763.3338.3665.942.826 1.7326.4604.7907 2.4241 3.6796 2.7614 4.0443.3365.3657.3985.7915.3985.7915s-1.0094.3347-1.2245.1523c-.2143-.1824-3.7707-5.9-4.1072-5.9-.3364 0-.6427.456-.5507.6083.0921.1522 3.8319 5.3218 3.4335 5.3511-.3985.0309-1.4078.2124-1.653.0309-.2453-.1815-2.5153-4.3187-2.9757-4.3488s-.703.7295-.6729.8517c.031.1213 2.6074 3.3148 2.3932 3.467-.2143.1523-.8571.3648-1.2245.0912-.3674-.2744-2.3621-4.1966-2.6685-4.3187-.3063-.1222-1.0403.3647-.8561.5471.1833.1833 2.7296 3.954 2.301 3.954-.4276 0-1.0403.0912-1.2235-.1523-.1833-.2434-2.3011-3.5272-2.5773-3.6193-.2745-.0912-.8561.0912-.703.4559.1532.3657 2.8828 3.3148 2.4233 3.3148-.4604 0-1.7442.2745-1.9301-.0292-.186-.3037-1.9328-3.2528-2.3294-3.3449-.3966-.092-1.1288-.486-1.0678-.2735.0611.2124 2.3879 3.6184 2.1125 3.6494-.2762.0301-1.4095.0912-1.6237-.062-.2143-.1505-1.8681-3.6176-2.1736-3.6477-.3054-.0309-.7649.3949-.703.5773.062.1824 1.9593 3.1023 1.5919 3.1625-.3674.062-1.0093.1523-1.2855-.062-.2745-.2125-2.0514-3.2227-2.3878-3.2847-.3365-.0602-.9801.2125-.8571.487.1222.2745 1.9903 2.8898 1.684 2.9199s-1.4396.1523-1.5937 0c-.1522-.1523-2.0805-2.6454-2.2647-2.7358-.1833-.092-.888.1506-.7039.3338.1833.1833 1.9301 2.2515 1.5618 2.3108-.3665.062-8.5109.3657-13.808.4268-5.2971.0619-8.3578.0619-10.3791-.2435-2.02126-.3055-2.84641-1.004-3.30591-1.3989-.4657-.3913-.80213-4.4976-.86322-8.8766-.06021-4.3781-.36654-14.5048-.42763-17.0608-.06109-2.5561-.27446-5.6557.09207-6.325.20895-.3807 2.3586-.456 9.18649-.7614 6.8279-.3055 13.7168-.2727 22.6873-.363 8.9722-.0921 13.5947-.2444 15.9524-.0921s4.7455.4559 5.174 1.2776c.4285.8207.6127 7.39.4285 7.2378-.1841-.1523-1.1023-1.2466-1.3165-1.004-.2152.2434-.0053 1.49-.2461.8207.1832.2125 1.6228 1.3688 1.6529 1.6733.0002.0022.0005.0044.0007.0066.0303.3049.0899.904-.0007.7221-.0929-.1824-1.0713-1.3989-1.3484-1.1244-.2771.2744-.0655 1.6104-.2142.9721.2744.2435 1.6228 1.7335 1.6839 2.0682.062.3346.031 1.0952-.0921.8818-.1221-.2125-1.1376-1.46-1.506-1.1545-.3665.3028-.2124 1.0332-.1522 1.1864.0602.1531 1.7804 1.1244 1.7804 1.2767 0 .1522.278 2.1301.0638 1.8858zm-49.7217 15.6009c-.33644-.3037 0-2.3418-.18238-2.6764-.18327-.3347-1.05535-.3152-1.19524 0-.21248.4869-.15228 2.0682.09297 2.919.24524.8508.88712 1.3688 1.74415 1.2466.857-.1222.8269-.9429.7348-1.1554-.092-.2125-.85875-.0301-1.19518-.3338zm-1.28377-28.2509c.18327-.7295 1.37762-.6994 1.71497-.8818.3364-.1824.3984-.1213.3364-.517-.062-.3958-.46038-.8208-1.68394-.6083-1.22357.2125-1.83712 1.3068-1.80613 2.2488.03098.9438-.0425 2.9704.24524 3.1342.42851.2426.91812.2426 1.10227.0292s-.09208-2.6755.09119-3.4051zm48.83637-.9429c.2125-.2727.3665-.4869-.3984-1.6113-.765-1.1244-2.4613-1.437-2.7562-1.2767-.9491.517-.4285 1.5812.4604 1.6113.8872.0301 1.3157 1.1244 1.622 1.4901.3063.3656.857.062 1.0713-.2125z" fill="#000"/><path clip-rule="evenodd" d="m57.5671 31.6445c.3364-.0319 1.5963 1.6105 1.8106 1.8539l.0026.0027c.2143.2443-.0637-1.7336-.0637-1.8858 0-.1523-1.7203-1.1235-1.7805-1.2767s-.2142-.8836.1523-1.1864c.3683-.3054 1.3838.942 1.506 1.1545.1231.2134.154-.5471.0921-.8818-.0575-.3147-1.2531-1.6509-1.6238-2.0118.0004.1464-.0058.1772-.0602-.0564.0164.0145.0366.0335.0602.0564-.0009-.2536-.0216-.8545.1541-1.0285.2771-.2745 1.2554.942 1.3484 1.1244.0905.1819.0309-.4172.0006-.7221l-.0006-.0066c-.0263-.2659-1.1273-1.1812-1.5281-1.5506-.0113.1111-.0403.1124-.1249-.1227.0233.0269.0667.0691.1249.1227.021-.2052-.0183-.7855.1212-.9434.2143-.2426 1.1324.8517 1.3166 1.004.1841.1523 0-6.4171-.4285-7.2378-.4286-.8216-2.8164-1.1253-5.1741-1.2776s-6.9801 0-15.9524.0921c-8.9704.0903-15.8594.0575-22.6873.363-6.82784.3054-8.97749.3807-9.18643.7614-.36654.6693-.15317 3.7689-.09208 6.325.06109 2.556.36743 12.6827.42763 17.0608.06109 4.379.39753 8.4853.86322 8.8766.4595.3949 1.28466 1.0934 3.30596 1.3989 2.0212.3054 5.0819.3054 10.379.2435 5.2971-.0611 13.4415-.3648 13.8081-.4268.3683-.0593-1.3785-2.1275-1.5618-2.3108-.1842-.1832.5206-.4258.7039-.3337.1841.0903 2.1124 2.5834 2.2647 2.7357.1541.1523 1.2873.0301 1.5936 0 .3064-.0301-1.5617-2.6454-1.6839-2.9199-.1231-.2745.5206-.5471.857-.4869.3365.0619 2.1134 3.0721 2.3878 3.2846.2763.2143.9181.124 1.2856.062.3674-.0602-1.5299-2.9801-1.5919-3.1625s.3975-.6082.703-.5772c.3054.0301 1.9593 3.4971 2.1735 3.6476.2143.1532 1.3475.0921 1.6238.062.2753-.031-2.0514-3.437-2.1125-3.6494-.0611-.2125.6711.1815 1.0677.2735.3967.0921 2.1435 3.0412 2.3294 3.3449.186.3037 1.4697.0292 1.9301.0292.4595 0-2.2701-2.9491-2.4232-3.3147-.1532-.3648.4285-.5472.703-.456.2762.0921 2.394 3.3759 2.5772 3.6193.1833.2435.796.1523 1.2236.1523.4285 0-2.1178-3.7707-2.301-3.954-.1842-.1824.5498-.6693.8561-.5471.3063.1221 2.301 4.0443 2.6685 4.3187.3674.2736 1.0102.0611 1.2244-.0912.2143-.1522-2.3621-3.3457-2.3931-3.467-.0301-.1222.2125-.8818.6729-.8517.4603.0301 2.7304 4.1674 2.9756 4.3489.2453.1814 1.2546 0 1.653-.031.3984-.0293-3.3413-5.1989-3.4334-5.3511-.0921-.1523.2142-.6083.5507-.6083.3364 0 3.8929 5.7177 4.1072 5.9.2151.1824 1.2244-.1522 1.2244-.1522s-.062-.4259-.3984-.7916c-.3373-.3647-2.301-3.2536-2.7614-4.0443-.4595-.7906-1.1023-1.3988-.8261-1.7326.2745-.3365.4887-.3364 1.0093.425.5197.7605 3.5884 5.5954 3.8319 5.7176.2434.1222.7348-.3338.7038-.7295-.0301-.3949-3.2802-4.7757-3.4334-4.9881-.1523-.2125-.641-.85-.1824-1.0625s.5197-.0301 1.0093.6694c.4896.6994 2.9129 4.1071 2.943 4.3196.031.2125.1239.1505.1239-.062 0-.2124.3046-.4869.3666-.6994.0619-.2125-.0904-.4869-.2745-.7906-.1842-.3037-2.0558-3.0713-2.3011-3.4361-.2443-.3656-.3674-.8207-.1221-1.0952.2452-.2744.6737.2125 1.5006 1.1864.8261.973 1.7194 3.2236 1.9027 3.3449.1841.1213.1531-2.4941.1222-2.6764-.031-.1824-.919-.9731-1.2555-1.5813-.3364-.6074-1.1377-1.8238-1.444-2.0983-.3072-.2736-.2143-.8216.4896-.6693.7056.1523 1.9035 2.4329 2.0877 2.5852.1824.1523 0-1.9159-.0301-2.2506-.031-.3346-2.0257-2.1284-2.1789-2.463-.1532-.3338-.0912-.9128.2453-1.0952.3364-.1824 1.8406 2.008 1.9646 2.3117.1213.3036 0-1.2466 0-1.5512s-2.0558-2.0682-2.0868-2.3125c-.031-.2426-.031-.9421.3674-1.1245.3975-.1823 1.6574 2.0364 1.7504 2.0983.0911.0611-.062-1.5502-.062-1.7335s-1.8407-1.7335-1.9027-2.0372c-.0602-.3037-.1221-.9429.2143-.9721zm-48.09353 14.7784c.18239.3346-.15405 2.3727.18239 2.6764h-.00089c.33644.3037 1.10313.1213 1.19523.3338s.1222 1.0332-.7348 1.1554c-.85707.1222-1.49895-.3958-1.7442-1.2466-.24524-.8508-.30545-2.4321-.09296-2.919.13988-.3152 1.01196-.3347 1.19523 0zm.61353-26.4563c-.3373.1824-1.53164.1523-1.71491.8818-.18327.7296.09296 3.1917-.0912 3.4051-.18415.2134-.67375.2134-1.10227-.0292-.28774-.1638-.21425-2.1904-.24524-3.1342-.03099-.942.58257-2.0363 1.80613-2.2488s1.62199.2125 1.68399.6083c.0619.3957 0 .3346-.3365.517zm46.723-1.6724c.765 1.1244.6109 1.3386.3984 1.6113l-.0009.0009c-.2142.2745-.7649.5781-1.0712.2125-.3064-.3657-.7349-1.46-1.622-1.4901-.8889-.0301-1.4095-1.0943-.4604-1.6113.2948-.1603 1.9912.1523 2.7561 1.2767z" fill="#dd1d45" fill-rule="evenodd"/><path d="m39.2584 41.7178c.0144-.6755-.1537-5.7305-.1831-6.188-.0294-.4576-.8627-.5956-1.3016-.6026-.439-.007-1.4843.0433-1.6746.0433-.1899 0-2.2519-.0148-3.6924 0-1.4406.0148-4.6722.0508-5.2573.0508-.585 0-1.1896.074-1.2648.1742-.3001.3998-.0368 3.0868-.0368 4.9171 0 1.8302.0877 2.847.1681 3.1012.0803.2541.4023.9514.5193 1.0603.1169.1089.3362.0945 1.1919.1089.8555.0148.9286.0582 2.9538.0582s4.1167-.0656 5.9013-.1163c1.7846-.0508 1.952-.0799 2.3836-.3777.4313-.2977.278-1.5538.2926-2.2294zm-.315-2.4624c-.0512-.0582-.4534-.661-.5337-.6534-.0804.007-.0656.1597-.0512.2322.0148.0725.5557.6533.5557.6971s.0366.4286.0148.414c-.0222-.0148-.4244-.7553-.5193-.7117-.0952.0435-.0952.2106-.0878.2685.0074.0584.5997.6902.5997.7629s.029.443 0 .3704c-.0296-.0725-.4901-.8062-.5705-.7626-.0803.0435-.0951.1818-.0585.2615.0365.08.6142.7189.6216.7989.0072.0799.0507.5738.0072.5374-.044-.0363-.4314-.7916-.5999-.828-.1681-.0363-.1903.0945-.1169.1599.0732.0655.3658.5666.4461.7117.0804.1453.2925.3341.2999.3776.0074.0436.0148.6682-.0292.6392-.0438-.029-.3584-.777-.5557-1.0094-.1975-.2326-.2998-.3489-.3584-.2833-.0585.0655-.0292.1742.0292.2615.0586.0871.6068.9587.6508 1.0312s.0804.1381.0656.1888c-.0148.0508-.0876.1163-.0876.1671 0 .0507-.0222.0655-.0296.0148-.0072-.0508-.6872-1.0752-.8041-1.2422-.1169-.1671-.1315-.2106-.241-.1599-.1096.0507.0072.203.0435.2537.0366.0508.9141 1.3076.9213 1.4019.0074.0945-.11.2034-.1681.1742-.0582-.0292-.8923-1.3944-1.0164-1.5761-.1243-.1818-.1755-.1818-.2411-.1015-.0659.0798.0876.225.1973.4138.11.1888.6802 1.0894.7608 1.1765.0803.0873.0951.189.0951.189s-.241.0799-.2924.0364c-.0512-.0436-1.0018-1.6197-1.0822-1.6197-.0803 0-.1535.1089-.1315.1453s1.0164 1.4816.9213 1.4886c-.0952.0074-.3362.0507-.3948.0074-.0585-.0434-.702-1.2421-.8119-1.2492-.11-.0072-.1679.1742-.1607.2034.0074.0289.724 1.0022.6728 1.0386-.0512.0363-.2047.0871-.2924.0217-.0878-.0655-.6654-1.2128-.7386-1.242-.0731-.0291-.2484.0872-.2045.1307.0438.0438.7532 1.1549.6509 1.1549-.1022 0-.2485.0218-.2922-.0364-.0438-.0581-.6509-1.0529-.7168-1.0749-.0656-.0218-.2045.0217-.1679.1089.0366.0873.7897 1.0022.68 1.0022-.11 0-.4166.0655-.461-.007s-.5628-.9874-.6575-1.0094c-.0948-.022-.1684.0945-.1538.1452.0146.0508.5703.8642.5045.8716-.0659.0072-.3366.0218-.3877-.0148-.0512-.0359-.4462-.8639-.5191-.8711-.073-.0074-.1827.0943-.1679.1378.0148.0436.4679.7409.3802.7553-.0878.0148-.2411.0364-.3071-.0148-.0655-.0507-.4899-.7696-.5702-.7844-.0804-.0144-.2341.0507-.2047.1162.0292.0656.4753.6902.4022.6974-.0732.0072-.3438.0363-.3806 0-.0364-.0364-.4969-.6318-.5409-.6534-.0438-.022-.2121.036-.1681.0797.0438.0438.461.5377.373.5519-.0875.0148-2.0326.0873-3.2976.1019-1.2651.0148-1.996.0148-2.4788-.0581-.4827-.073-.6797-.2398-.7895-.3341-.1112-.0935-.1915-1.0741-.2061-2.1199-.0144-1.0456-.0876-3.4641-.1022-4.0745-.0145-.6104-.0655-1.3507.022-1.5105.0499-.0909.5633-.1089 2.1939-.1819 1.6307-.0729 3.2759-.0651 5.4182-.0866 2.1428-.022 3.2467-.0584 3.8098-.022.563.0363 1.1333.1089 1.2356.3051.1024.196.1463 1.7649.1024 1.7285-.044-.0364-.2633-.2977-.3145-.2398-.0513.0582-.1025.1453-.0587.196.0437.0508.3875.3269.3947.3997l.0002.0015c.0072.0728.0214.2159-.0002.1725-.0222-.0436-.2558-.3341-.322-.2686-.0662.0656-.1169.1741-.0512.2322.0656.0582.3876.414.4022.4939.0148.08.0074.2616-.022.2106-.0292-.0507-.373-.5592-.4609-.4863-.0876.0723-.0508.2468-.0364.2833.0144.0366.5265.4792.5265.5155 0 .0364.0664.5088.0152.4504zm-10.3978-2.4041c.168.16 1.4917 1.2276 2.4203 1.9247.9287.6972 1.1845.7697 1.8573.7553s1.0602-.2977 1.6746-.6534c.614-.356 2.325-2.0264 2.5445-2.3243.2195-.2977.0804-.3341-.0729-.3996-.1536-.0652-.7532-.0652-2.8809-.0216-2.1278.0435-4.5921.0655-5.0672.0725s-.8092.0668-.8409.1163c-.1026.1599.1971.3702.3652.5301zm4.1823.0655c1.5942.0072 3.4147-.0725 3.4807 0 .0655.0726-1.1629 1.2348-1.9157 1.6852-.7527.4504-1.0969.6751-1.7697.5808-.6728-.0945-1.9377-1.1692-2.4204-1.5251-.4827-.3558-.7749-.6102-.7527-.6612.0163-.038 1.7837-.0869 3.3778-.0797zm5.0893-.2034c-.1975-.0363-.87.8134-1.294 1.3435-.4239.5301-.8745 1.0911-.8849 1.1257-.0435.1455.1026.1745.5265.5449.424.3705.9509 1.1257 1.1629 1.3871.2121.2617.3436.3197.4974.2108.1535-.1089.1169-.2252.1389-.7263.0218-.5011.0507-2.2588.0875-2.9708.0364-.7115-.0368-.8785-.2343-.9149zm-.1459 4.2341c-.0733-.0435-.6948-.9151-.8411-1.0458-.1463-.1306-.3947-.3268-.4165-.4211-.0133-.0567 1.2792-1.5905 1.3232-1.5398.044.0508.0074 3.0503-.0656 3.0067zm-1.9086-.414c-.3147-.3848-.5026-.4836-.7965-.5882-.452-.1609-1.8138-.414-2.143-.414-.7254.0155-1.4227.4953-1.7544.7119-.2634.1721-1.6096 1.4742-1.7267 1.6197-.117.145.1606.4066.3361.4283.1755.0218.6583 0 2.9687-.0945 2.311-.0945 3.4221-.1742 3.627-.2178.2047-.0435.2121-.2251.1681-.363s-.3649-.6975-.6793-1.0824zm.3288 1.1549c-.0438.0436-1.6379.1742-3.6341.2542-1.9962.0799-2.3252.0507-2.3032.0148.022-.036 1.0456-1.1989 1.1481-1.2131.4302-.3303 1.0458-.7631 1.5209-.7485.4753.0148 1.2844-.0006 2.2694.3409.0731.0072.7502.7345.8819.9669.1315.2326.1607.3413.117.3848zm-6.8148-3.2245c-.4757-.4577-1.6492-1.4547-1.7769-1.4526-.5555.007-.3874.8568-.351 1.9607.0368 1.1038.2051 2.5204.2926 2.8978.0878.3777.3658.3849.592.3269.2263-.0579.4024-.3558.8486-.9151.4461-.5593 1.0967-1.4598 1.1553-1.8522.0585-.3924-.2853-.5079-.7606-.9655zm-.9138 3.0283c-.1975.2398-.1755.247-.2267.2398s0-2.2007-.022-2.6071-.0655-.8644-.0292-.9443c.0244-.0533.6872.5159 1.0456.8134s.5485.4646.5631.5371c.0148.0727-1.1333 1.7213-1.3308 1.9611zm-1.294 1.489c-.0804-.0726 0-.5593-.0436-.6392-.0438-.0799-.252-.0753-.2855 0-.0507.1163-.0363.4939.0223.6971.0585.2032.2118.3269.4165.2977s.1975-.2252.1755-.2759c-.022-.0508-.2049-.0072-.2852-.0797zm-.3066-6.7469c.0437-.1742.329-.167.4095-.2106.0804-.0435.0952-.029.0804-.1235s-.11-.196-.4022-.1452c-.2922.0507-.4387.3121-.4313.537.0074.2254-.0102.7094.0585.7485.1024.058.2193.058.2633.007s-.022-.639.0218-.8132zm11.663-.2252c.0508-.0651.0876-.1163-.0951-.3848s-.5878-.3432-.6582-.3049c-.2267.1235-.1024.3776.1099.3848.2119.0072.3142.2686.3874.3559.0731.0873.2049.0146.256-.051z" fill="#000"/><path clip-rule="evenodd" d="m38.9434 39.2554c-.0511-.0581-.4533-.6609-.5337-.6533-.0803.007-.0655.1596-.0511.2322.0148.0725.5556.6533.5556.6971 0 .0437.0366.4286.0148.414-.0222-.0148-.4243-.7553-.5193-.7117-.0951.0435-.0951.2106-.0877.2685.0074.0584.5996.6901.5996.7629 0 .0727.029.4429 0 .3704-.0296-.0725-.4901-.8062-.5704-.7626-.0804.0435-.0952.1818-.0586.2615.0366.0799.6142.7189.6216.7988.0072.08.0508.5739.0072.5375-.0439-.0364-.4313-.7916-.5998-.828-.1681-.0364-.1903.0945-.117.1599.0732.0655.3658.5666.4462.7117.0803.1452.2924.334.2998.3776s.0148.6682-.0292.6392c-.0437-.029-.3584-.7771-.5556-1.0094-.1975-.2326-.2999-.3489-.3584-.2834-.0586.0656-.0292.1743.0292.2616.0585.0871.6068.9587.6508 1.0312.0439.0725.0803.1381.0655.1888-.0148.0508-.0875.1163-.0875.167 0 .0508-.0222.0656-.0296.0148-.0072-.0507-.6872-1.0751-.8041-1.2422-.117-.167-.1316-.2106-.2411-.1598-.1095.0507.0072.203.0436.2537.0366.0508.914 1.3076.9212 1.4019.0074.0945-.1099.2034-.1681.1742-.0581-.0292-.8922-1.3945-1.0164-1.5761-.1243-.1818-.1755-.1818-.241-.1015-.066.0797.0875.225.1973.4138.1099.1888.6802 1.0894.7607 1.1765.0804.0873.0952.189.0952.189s-.2411.0799-.2924.0364c-.0512-.0436-1.0018-1.6197-1.0822-1.6197-.0803 0-.1535.1089-.1315.1453s1.0164 1.4816.9212 1.4885c-.0951.0074-.3362.0508-.3947.0074-.0586-.0433-.702-1.242-.812-1.2492-.1099-.0072-.1678.1743-.1607.2034.0074.029.724 1.0023.6729 1.0386-.0512.0364-.2047.0872-.2925.0218-.0877-.0655-.6654-1.2128-.7385-1.242-.0732-.0292-.2485.0871-.2045.1307.0438.0438.7532 1.1549.6508 1.1549-.1021 0-.2484.0218-.2922-.0364-.0438-.0581-.6508-1.053-.7168-1.075-.0655-.0217-.2044.0218-.1679.1089.0366.0874.7898 1.0023.68 1.0023-.1099 0-.4165.0655-.4609-.007s-.5629-.9874-.6576-1.0094-.1683.0945-.1537.1452c.0146.0508.5702.8642.5045.8716-.066.0072-.3366.0218-.3878-.0148-.0512-.036-.4461-.864-.5191-.8712-.0729-.0074-.1827.0944-.1679.1379.0148.0436.468.7409.3802.7553-.0877.0148-.241.0363-.307-.0148-.0656-.0508-.4899-.7697-.5703-.7845-.0803-.0143-.234.0508-.2046.1163.0291.0656.4753.6902.4021.6974-.0731.0071-.3438.0363-.3806 0-.0363-.0364-.4969-.6318-.5408-.6534-.0438-.022-.2121.0359-.1681.0797.0437.0438.4609.5377.373.5519-.0876.0148-2.0326.0873-3.2977.1019-1.265.0148-1.996.0148-2.4787-.0582-.4827-.0729-.6798-.2397-.7895-.334-.1112-.0935-.1916-1.0742-.2062-2.1199-.0144-1.0456-.0875-3.4641-.1021-4.0745s-.0655-1.3507.022-1.5105c.0499-.091.5633-.1089 2.1939-.1819 1.6306-.0729 3.2759-.0651 5.4182-.0867 2.1427-.022 3.2466-.0583 3.8097-.022.5631.0364 1.1333.1089 1.2357.3052.1023.196.1463 1.7648.1023 1.7285-.044-.0364-.2632-.2977-.3144-.2398-.0514.0582-.1026.1453-.0588.196.0438.0508.3876.3269.3948.3996l.0001.0016c.0073.0728.0215.2159-.0001.1725-.0222-.0436-.2559-.3341-.322-.2686-.0662.0656-.117.174-.0512.2322.0655.0581.3876.414.4021.4939.0148.0799.0074.2616-.0219.2106-.0292-.0507-.373-.5593-.461-.4863-.0875.0723-.0507.2467-.0364.2833.0144.0366.5265.4791.5265.5155s.0664.5087.0153.4504zm-7.9774-.4793c-.9287-.6971-2.2523-1.7647-2.4204-1.9247-.1681-.1599-.4677-.3703-.3652-.5301.0318-.0495.3658-.1093.8409-.1163.4752-.007 2.9395-.029 5.0672-.0725 2.1278-.0436 2.7274-.0436 2.8809.0215.1533.0656.2924.1019.073.3997-.2195.2979-1.9305 1.9683-2.5445 2.3243-.6145.3557-1.0018.639-1.6746.6534.3292 0 1.6909.2531 2.143.414.2938.1046.4818.2034.7964.5882.3144.3848.6354.9445.6794 1.0824.044.1378.0366.3195-.1681.363-.2049.0436-1.316.1233-3.6271.2178-2.3104.0945-2.7931.1163-2.9686.0945s-.4531-.2833-.3362-.4284c.1171-.1454 1.4634-1.4476 1.7268-1.6196.3316-.2166 1.029-.6964 1.7544-.7119-.6728.0144-.9287-.0582-1.8573-.7553zm5.5573-.7191c.4239-.5301 1.0965-1.3799 1.294-1.3435s.2706.2034.2343.9149c-.0368.7119-.0658 2.4696-.0876 2.9708-.022.5011.0146.6174-.1389.7263-.1537.1088-.2852.0509-.4973-.2109-.2121-.2613-.739-1.0166-1.1629-1.387-.424-.3704-.5701-.3994-.5265-.5449.0103-.0347.4609-.5956.8849-1.1257zm-9.0235-1.0456c.1277-.0021 1.3012.9949 1.777 1.4526.4753.4576.8191.573.7605.9655-.0585.3924-.7092 1.2929-1.1553 1.8522-.4461.5592-.6223.8572-.8485.9151s-.5043.0507-.592-.3269c-.0876-.3774-.2559-1.7941-.2927-2.8978-.0363-1.1039-.2044-1.9537.351-1.9607zm-.4745 5.3307c.0436.0799-.0367.5666.0436.6391.0804.0726.2632.029.2852.0798.022.0507.0292.2467-.1755.2759-.2046.0292-.3579-.0945-.4165-.2977s-.0729-.5808-.0222-.6971c.0334-.0753.2417-.08.2854 0zm.1466-6.3183c-.0806.0435-.3658.0364-.4096.2106s.0222.7622-.0218.8132c-.0439.0509-.1609.0509-.2632-.007-.0687-.0391-.0512-.5231-.0586-.7485-.0074-.225.1392-.4863.4314-.5371.2922-.0507.3873.0508.4021.1453s0 .0799-.0803.1235zm11.1583-.3994c.1827.2685.1459.3197.0952.3848-.0512.0655-.1829.1383-.2561.051-.0731-.0874-.1755-.3487-.3873-.3559-.2123-.0072-.3366-.2613-.11-.3848.0704-.0383.4756.0363.6582.3049z" fill="url(#b)" fill-rule="evenodd"/><path d="m20.8055 30.5488c-.8346-1.0246-3.2381-2.5346-5.4303-2.8213-2.1922-.2868-4.9512.5496-6.55366 2.3096-1.60242 1.7601-2.1858 3.6979-2.32271 5.7811-.1369 2.0833 1.13695 4.098 1.23304 4.1214.37847.0845 4.50043-.4675 4.73203-.5727s.0712-.143.4729-.7507c.4018-.6076.5718-.3968.7111-.5604.1392-.1636.242-2.6418.1535-2.8622-.0885-.2205-.5967-.6716-1.1017-1.4439-.2911-.4704-.3979-1.0316-.2999-1.5751.098-.5436.3939-1.031.8305-1.3679 1.063-.9149 2.335-.921 3.0684-.5189s1.7769 1.5151 1.7849 2.6334c.008 1.1182-1.2667 1.5787-1.3697 1.6769s-.7638 3.5962-.7268 3.6898c.2093.417.2925.8858.2392 1.3487-.0759.7777-.5792 1.6031-1.9251 1.8191-1.346.2161-2.0562-1.1125-2.1221-1.2008-.066-.0882-3.42493.4791-3.67822.6828-.2533.2037.09662.9772.81378 1.7869.92484.9327 2.10274 1.5729 3.38684 1.8407 1.2205.223 2.4726.2 3.6828-.0679 1.2102-.2678 2.3542-.7749 3.3649-1.4917 2.8008-2.0091 3.0292-4.0302 3.175-6.4511.1457-2.421-1.2855-4.9834-2.1187-6.0058zm.3724 5.3795c-.0759 1.8783-.2507 3.5657-1.7534 4.9626-1.5026 1.3969-3.3917 2.1414-4.5935 2.2526-1.2018.1111-2.6062.0519-3.7024-.461s-1.83337-1.3489-1.7469-1.417c.08646-.0681 2.4189-.5448 2.5058-.4797.087.0651 1.0388 1.5133 2.488 1.3064 1.4492-.207 2.2904-1.0522 2.4181-2.1919.0986-.5867.0394-1.1896-.1714-1.7467 0 0 .5814-3.0926.6345-3.1264s1.6817-.8663 1.4803-2.4409c-.2013-1.5747-1.4938-2.5128-2.2742-2.8817s-2.7474-.4703-4.1479.8322c-.5458.5087-.8965 1.1927-.9915 1.934-.0951.7412.0716 1.4932.4712 2.1258.6006.8612.9349 1.0649.9349 1.0649l-.0803 1.7542c-.2227.1318-.4093.3167-.5434.5382-.1158.1866-.198.3922-.2428.6074 0 0-3.03115.557-3.77333.4112-.09693-.0196-1.24551-2.0262-.94377-3.6316s.88424-3.3408 1.97032-4.6221c1.08608-1.2814 3.59078-2.685 5.97288-2.4672 2.3821.2179 4.3586 2.1431 4.8171 2.8474.4584.7043 1.3439 2.9502 1.2717 4.8293zm-12.29252-2.5553c-.09981.0115-.6704.7007-.95293 1.7859-.18211.6648-.09452 1.3755.24372 1.9774.15796-.0005.30946-.0621.42297-.1718.04419-.0835-.2982-.5393-.19995-1.6081.0671-.6569.31733-1.2811.72214-1.8016.02912-.0511-.14056-.2002-.23595-.1818zm5.16302 6.6516c-.2385.1427-.4934.2559-.7592.3371-.2309.1471.2287.7921 1.202.6636.2179-.0341.4254-.1163.6075-.2405.1821-.1243.3343-.2876.4456-.4781.1112-.1905.1788-.4035.1978-.6236.019-.22-.0111-.4417-.088-.649-.2788-.8708-1.0218-.9771-1.6442-.7108-.6225.2664-.5478.7658-.5168.8144.031.0487.31.0077.5973.0916.2872.084.2354.5989-.042.7953zm.191-1.0302c-.2103-.0549-.4062-.0668-.3255-.1899.0807-.123.8524-.5626 1.2181.1031s.093 1.1651-.3842 1.5472c-.4772.3822-.9058.0561-.8542-.0158s.5819-.1363.7238-.5914c.0586-.1633.052-.3431-.0184-.502s-.1992-.2847-.3596-.3512zm2.4347-4.8919c.6298-.8408 1.0642-2.0391-.1136-3.047-1.1778-1.008-2.2457-.4676-2.8069.0528-1.3476 1.2428-.9104 2.7648-.0453 3.4347s2.3352.4041 2.9658-.4405zm-2.4948-2.7184c.466-.3946 1.2396-.7702 1.9065.0064.1679.1718.2976.3771.3806.6025s.1174.4658.1009.7052-.0835.4724-.1966.6838c-.1131.2113-.2697.3961-.4595.5422-.8472.7645-1.7123.329-2.1254-.2023-.4131-.5312-.3932-1.677.3935-2.3378zm1.0531 2.3409c1.0696-.2321 1.035-1.3106.7233-1.7795-.0775-.1119-.178-.2058-.2949-.2755-.1168-.0696-.2472-.1132-.3822-.1279-.1351-.0147-.2716-.0001-.4004.0428-.1287.0429-.2466.1131-.3457.2058-1.1315.9553-.3734 2.1656.6999 1.9343zm-.1093-1.4965c.0471-.0595.1126-.1016.1863-.1196.0737-.0181.1513-.0111.2208.0198.1105.0717.1917.1807.2287.3071.0371.1264.0275.2619-.0269.3816-.1376.4719-.4444.4948-.5223.4695-.086-.0559-.1582-.1308-.2109-.219-.0526-.0882-.0844-.1872-.0927-.2895-.0084-.1023.0068-.2051.0444-.3004.0376-.0954.0967-.1807.1726-.2495zm2.3168 8.9207c-.0634.0176-.1754.3462-.1754.3462.3357.0797.6789.123 1.0237.1292.0301-.0191.0984-.2124.0773-.2609-.2984-.1101-.6094-.1821-.9256-.2145zm.566-.6862c-.1171-.0003-.1925.3245-.1721.3668.0531.0834.9053.1624.9742.1381.0689-.0244.1144-.1771.1219-.247.0074-.0699-.8038-.2629-.927-.2625zm.0421-.7237c-.0472.0074-.147.3705-.147.3705.0434.0375 1.2502.2552 1.2836.2567.0699-.0674.1114-.159.1159-.2562-.4068-.1617-.8269-.2874-1.2554-.3756zm.1912-.8414c-.062.02-.1269.3512-.0834.3788.0773.0907 1.8314.1942 1.8648.1957.0335.0015.0915-.208.0782-.2646-.6136-.1448-1.2357-.2498-1.8626-.3145zm.1734-.8691c-.0461.0294-.1338.3555-.0833.3787s1.8367.116 1.881.104c.0306-.0236.0545-.0548.0693-.0905.0149-.0357.0201-.0747.0152-.1131-.6205-.1418-1.2506-.2366-1.8851-.2838zm.3378-.912c-.0771.0166-.1426.3317-.0952.3602.0473.0284 1.6578.2072 1.6853.1994s.0776-.1992.0506-.2569c-.5396-.1432-1.089-.2459-1.6437-.3073zm.1385-.873c-.0712.0258-.1639.3747-.1203.4023.6237.1029 1.254.1606 1.8858.1726.0462-.0294.0511-.2051.0266-.2742-.0245-.069-1.7247-.3274-1.795-.3053zm.2301-1.0453c-.0679.0107-.2074.3829-.1062.4194.1011.0364 1.5314.1411 1.5314.1411s.0514-.2249-.0001-.2702c-.47-.1258-.9468-.2243-1.4281-.2949zm.3194-.9101c-.1269.0353-.1623.3314-.1149.3598.4151.0532.8348.0589 1.251.017.0531-.0338.0383-.1742-.0056-.2635-.0439-.0892-1.008-.1555-1.1334-.1179zm.1889-.7227c-.0532.0339-.0952.243-.0655.2795.2818.0542.5708.0596.8542.0158.0554-.0353.0378-.226.0013-.2679-.2614-.0497-.5286-.0605-.793-.032zm.5914-.901c-.2462-.0695-.5012-.1024-.7568-.0974-.062.0199-.0626.3655-.0355.3775.2837.0298.5699.0236.8518-.0185.0275-.0435-.0149-.2119-.0625-.2662z" fill="#000"/><path clip-rule="evenodd" d="m20.8684 35.9202c-.084 1.8575-.2655 3.5266-1.7641 4.9148-1.4986 1.3881-3.378 2.1329-4.5719 2.2483-1.194.1155-2.5884.0634-3.6746-.4386-1.08618-.5021-1.81437-1.3253-1.7282-1.3931.08618-.0677 2.4046-.5497 2.4906-.4858.086.064 1.0246 1.4915 2.4646 1.2802 1.4401-.2113 2.2793-1.0509 2.4115-2.1783.1006-.5806.0446-1.1764-.1622-1.7264 0 0 .5916-3.0604.6445-3.0941s1.674-.8642 1.4813-2.4202-1.4718-2.4777-2.2451-2.8388c-.7733-.3612-2.7262-.4523-4.1229.842-.5444.5054-.8958 1.1834-.9936 1.9168-.0978.7333.0643 1.476.4582 2.0997.5924.8487.9235 1.0486.9235 1.0486l-.0879 1.7348c-.2217.1314-.4079.3151-.542.5347-.1159.185-.1985.3886-.244.6016 0 0-3.01262.5648-3.74897.4241-.09616-.019-1.22749-1.9978-.92045-3.5865s.89349-3.3073 1.97793-4.5792c1.08443-1.2719 3.57819-2.6713 5.94269-2.4669 2.3646.2045 4.3184 2.0989 4.7704 2.7932.4521.6942 1.321 2.9107 1.2407 4.7691zm-13.14981-.6998c.28558-1.0743.85538-1.7583.95455-1.7701.0948-.0187.26261.128.23346.1787-.40439.5164-.65576 1.1348-.72542 1.7846-.10249 1.0572.23541 1.5063.19114 1.5891-.11323.109-.26395.1705-.42081.1718-.33312-.5936-.41683-1.2959-.23292-1.9541zm9.23791 6.2222s.1127-.3254.1758-.3431c.3139.0305.6223.1004.9182.2079.0207.0477-.0481.2392-.078.2583-.3423-.0046-.683-.0459-1.016-.1231zm.5685-.6607c-.0202-.0417.0563-.3633.1725-.3635l-.0029-.0046c.1223-.0009.927.1862.9193.2553-.0077.0692-.0536.2204-.1222.2448-.0685.0244-.9144-.0498-.9667-.132zm.07-.7122s.1007-.3595.1477-.367l-.0029-.0046c.4252.0853.8417.2076 1.245.3656-.005.0961-.0466.1869-.1164.2539-.0331-.0013-1.2305-.2111-1.2734-.2479zm.2569-.825c-.0431-.0271.0229-.3548.0845-.3748l-.0029-.0046c.6222.0611 1.2395.1621 1.8481.3023.013.056-.0456.2634-.0788.2621s-1.7746-.0956-1.8509-.185zm.1762-.8602c-.05-.0227.0386-.3455.0846-.3748l-.0029-.0046c.6298.0437 1.2551.1346 1.8707.2719.0046.038-.0007.0765-.0156.1119s-.0388.0664-.0693.0898c-.0441.012-1.8174-.0715-1.8675-.0942zm.328-.9215c-.0469-.0279.0195-.3398.0961-.3566l-.0029-.0045c.5505.0582 1.0957.1572 1.6309.2963.0265.0569-.0241.2464-.0514.2542-.0274.0078-1.6258-.1615-1.6727-.1894zm.1164-.8221c-.0431-.0271.0505-.3724.1213-.3983l-.0029-.0045c.07-.0221 1.7572.2254 1.7812.2936.024.0681.0183.2419-.0277.2712-.6274-.0089-1.2529-.0631-1.8719-.162zm.2472-1.0177c-.1002-.0357.04-.4043.1074-.4151l-.0029-.0046c.4776.0676.9506.1628 1.4168.285.051.0446-.0012.2672-.0012.2672s-1.4198-.0969-1.5201-.1325zm.3131-.9602c-.0469-.0279-.0104-.3208.1157-.3563l-.0029-.0045c.1247-.0377 1.0819.0233 1.1251.1114.0431.088.0572.2267.0043.2604-.4135.0434-.8302.0397-1.2422-.011zm.2403-.7951c-.0293-.0359.0134-.2429.0663-.2766l-.0029-.0046c.2627-.0293.528-.0199.7874.028.036.0413.0526.2297-.0026.2649-.2817.0446-.5686.0406-.8482-.0117zm-.0933-1.263c.2538-.0061.5069.0251.7511.0928l-.0029-.0046c.047.0535.0883.2198.0608.263-.2802.0429-.5644.0504-.846.0222-.0268-.0118-.0246-.3534.037-.3734z" fill="url(#c)" fill-rule="evenodd"/><path d="m27.8271 28.014c-.1222-.15-.4741-.3711-.795-.413-.321-.042-.7249.0804-.9595.3381s-.32.5414-.3401.8464c-.02.305.1665.5999.1806.6034.0554.0123.6588-.0685.6927-.0839.034-.0154.0105-.0209.0693-.1099s.0837-.0581.1041-.082c.0204-.024.0354-.3868.0225-.4191-.013-.0323-.0874-.0983-.1613-.2114-.0426-.0688-.0583-.151-.0439-.2306.0143-.0796.0576-.1509.1216-.2002.1556-.134.3418-.1349.4492-.076.1073.0589.2601.2218.2613.3855s-.1855.2312-.2005.2455c-.0151.0144-.1119.5265-.1064.5402.0306.0611.0428.1297.035.1975-.0111.1139-.0848.2347-.2819.2663-.197.0317-.301-.1629-.3106-.1758-.0097-.0129-.5015.0702-.5386.1-.037.0298.0142.143.1192.2616.1354.1365.3078.2303.4958.2695.1787.0326.362.0292.5392-.01s.3447-.1134.4926-.2184c.4101-.2941.4435-.59.4649-.9444.0213-.3545-.1882-.7296-.3102-.8793zm.0545.7876c-.0111.275-.0367.522-.2567.7265s-.4966.3135-.6725.3298-.3816.0076-.542-.0675c-.1605-.0751-.2685-.1975-.2558-.2074.0127-.01.3541-.0798.3669-.0703.0127.0096.152.2216.3642.1913s.3353-.1541.354-.3209c.0145-.0859.0058-.1742-.0251-.2557 0 0 .0852-.4528.0929-.4577.0078-.005.2462-.1269.2168-.3574-.0295-.2305-.2187-.3679-.333-.4219s-.4022-.0688-.6073.1219c-.0799.0744-.1312.1746-.1451.2831s.0105.2186.069.3112c.0879.1261.1368.1559.1368.1559l-.0117.2568c-.0326.0193-.0599.0464-.0796.0788-.0169.0274-.029.0575-.0355.089 0 0-.4438.0815-.5525.0602-.0141-.0029-.1823-.2967-.1381-.5317.0442-.2351.1294-.4891.2884-.6767s.5257-.3931.8745-.3612c.3487.0319.6381.3138.7052.4169s.1968.4319.1862.707zm-1.7997-.3741c-.0146.0017-.0981.1026-.1395.2614-.0266.0974-.0138.2014.0357.2895.0231 0 .0453-.009.0619-.0251.0065-.0122-.0436-.079-.0292-.2354.0098-.0962.0464-.1876.1057-.2638.0042-.0075-.0206-.0293-.0346-.0266zm.7559.9738c-.0349.0209-.0722.0375-.1111.0493-.0338.0216.0335.116.1759.0972.032-.005.0623-.017.089-.0352s.0489-.0421.0652-.07.0262-.0591.029-.0913-.0016-.0647-.0129-.095c-.0408-.1275-.1496-.1431-.2407-.1041s-.0802.1121-.0757.1193c.0046.0071.0454.0011.0875.0134.042.0123.0344.0876-.0062.1164zm.028-.1508c-.0308-.0081-.0595-.0098-.0477-.0278s.1248-.0824.1784.0151c.0535.0974.0136.1705-.0563.2265-.0699.0559-.1326.0082-.125-.0023.0075-.0106.0852-.02.1059-.0866.0086-.0239.0076-.0502-.0027-.0735s-.0291-.0417-.0526-.0514zm.3564-.7162c.0922-.1231.1558-.2986-.0166-.4461-.1724-.1476-.3288-.0685-.4109.0077-.1973.182-.1333.4048-.0067.5029.1267.098.3419.0591.4342-.0645zm-.3652-.398c.0682-.0578.1815-.1128.2791.0009.0246.0252.0436.0552.0557.0882.0122.033.0172.0682.0148.1033-.0024.035-.0122.0692-.0288.1001-.0165.0309-.0395.058-.0673.0794-.124.1119-.2506.0481-.3111-.0296-.0605-.0778-.0576-.2456.0576-.3423zm.1542.3427c.1566-.034.1515-.1919.1059-.2605-.0114-.0164-.0261-.0301-.0432-.0403s-.0362-.0166-.056-.0188c-.0197-.0021-.0397 0-.0586.0063-.0188.0063-.0361.0166-.0506.0301-.1657.1399-.0547.3171.1025.2832zm-.016-.2191c.0069-.0087.0164-.0148.0272-.0175.0108-.0026.0222-.0016.0324.0029.0161.0105.028.0265.0334.045.0055.0185.0041.0383-.0039.0558-.0201.0691-.0651.0725-.0765.0688-.0126-.0082-.0231-.0192-.0308-.0321s-.0124-.0274-.0136-.0424.001-.03.0065-.044c.0055-.0139.0141-.0264.0253-.0365zm.3392 1.306c-.0093.0026-.0257.0507-.0257.0507.0491.0117.0994.018.1498.0189.0044-.0028.0145-.0311.0114-.0381-.0437-.0162-.0893-.0267-.1355-.0315zm.0828-.1004c-.0171-.0001-.0282.0475-.0252.0537.0078.0122.1326.0238.1426.0202.0101-.0036.0168-.0259.0179-.0362.0011-.0102-.1177-.0384-.1357-.0384zm.0062-.106c-.0069.0011-.0215.0543-.0215.0543.0063.0055.183.0373.1879.0376.0102-.0099.0163-.0233.017-.0376-.0596-.0236-.1211-.042-.1838-.0549zm.028-.1232c-.0091.003-.0186.0515-.0122.0555.0113.0133.2681.0284.273.0287.0049.0002.0134-.0305.0114-.0388-.0898-.0212-.1809-.0366-.2727-.046zm.0254-.1272c-.0068.0043-.0196.052-.0122.0554.0073.0034.2689.017.2753.0153.0045-.0035.008-.008.0102-.0133.0022-.0052.0029-.0109.0022-.0165-.0908-.0208-.1831-.0347-.276-.0416zm.0494-.1335c-.0113.0024-.0209.0486-.0139.0527.0069.0042.2427.0303.2467.0292s.0114-.0292.0074-.0376c-.079-.021-.1594-.036-.2406-.045zm.0203-.1278c-.0104.0038-.024.0548-.0176.0589.0913.015.1836.0235.2761.0252.0067-.0043.0074-.03.0039-.0401-.0036-.0101-.2525-.0479-.2628-.0447zm.0337-.1531c-.01.0016-.0304.0561-.0156.0614.0148.0054.2242.0207.2242.0207s.0076-.0329 0-.0396c-.0688-.0184-.1386-.0328-.2091-.0431zm.0467-.1332c-.0185.0052-.0237.0485-.0168.0527.0608.0078.1222.0086.1832.0025.0077-.005.0056-.0255-.0008-.0386-.0065-.0131-.1476-.0228-.166-.0173zm.0277-.1058c-.0078.005-.0139.0356-.0096.0409.0413.008.0836.0087.1251.0023.0081-.0051.0055-.0331.0002-.0392-.0383-.0073-.0774-.0088-.1161-.0047zm.0866-.1319c-.0361-.0102-.0734-.015-.1108-.0143-.0091.0029-.0092.0535-.0052.0553.0415.0044.0834.0034.1247-.0027.004-.0064-.0022-.031-.0092-.039z" fill="#000"/><path clip-rule="evenodd" d="m27.8364 28.8004c-.0123.2719-.0388.5163-.2582.7195-.2194.2033-.4946.3123-.6694.3292s-.3789.0093-.5379-.0642c-.1591-.0735-.2657-.1941-.2531-.204.0127-.0099.3521-.0805.3647-.0711s.15.2184.3608.1874c.2108-.0309.3337-.1538.353-.3189.0148-.085.0066-.1722-.0237-.2527 0 0 .0866-.4481.0944-.453.0077-.0049.245-.1265.2168-.3543-.0282-.2279-.2154-.3628-.3287-.4157-.1132-.0528-.3991-.0662-.6036.1233-.0797.074-.1311.1733-.1454.2806-.0143.1074.0094.2161.067.3074.0868.1243.1353.1536.1353.1536l-.0129.2539c-.0325.0193-.0597.0462-.0794.0783-.0169.0271-.029.0569-.0357.0881 0 0-.441.0827-.5488.0621-.0141-.0028-.1798-.2925-.1348-.5251.0449-.2326.1308-.4842.2896-.6704.1587-.1862.5238-.3911.87-.3611.3462.0299.6322.3072.6984.4089.0662.1016.1934.4261.1816.6982zm-1.9251-.1025c.0418-.1572.1252-.2574.1397-.2591.0139-.0027.0385.0187.0342.0261-.0592.0757-.096.1662-.1062.2613-.015.1548.0345.2206.028.2327-.0166.0159-.0387.0249-.0616.0251-.0488-.0869-.0611-.1897-.0341-.2861zm1.3524.911s.0165-.0477.0258-.0502c.0459.0044.0911.0147.1344.0304.003.007-.007.035-.0114.0378-.0501-.0007-.1-.0067-.1488-.018zm.0833-.0967c-.003-.0061.0082-.0532.0252-.0533l-.0004-.0006c.0179-.0002.1357.0272.1346.0374-.0012.0101-.0079.0322-.0179.0358s-.1339-.0073-.1415-.0193zm.0102-.1043s.0148-.0526.0216-.0537l-.0004-.0007c.0623.0125.1232.0304.1823.0535-.0008.0141-.0068.0274-.0171.0372-.0048-.0002-.1801-.0309-.1864-.0363zm.0376-.1208c-.0063-.004.0034-.0519.0124-.0549l-.0004-.0006c.0911.0089.1814.0237.2705.0442.0019.0082-.0066.0386-.0115.0384s-.2598-.014-.271-.0271zm.0258-.1259c-.0073-.0033.0057-.0506.0124-.0549l-.0004-.0007c.0922.0064.1837.0197.2739.0398.0006.0056-.0002.0112-.0023.0164-.0022.0052-.0057.0097-.0102.0132-.0064.0017-.2661-.0105-.2734-.0138zm.048-.1349c-.0068-.0041.0029-.0498.0141-.0522l-.0004-.0007c.0806.0085.1604.023.2387.0434.0039.0083-.0035.036-.0075.0372-.004.0011-.238-.0236-.2449-.0277zm.0171-.1204c-.0063-.004.0074-.0545.0177-.0583l-.0004-.0007c.0103-.0032.2573.033.2608.043s.0027.0354-.0041.0397c-.0918-.0013-.1834-.0092-.274-.0237zm.0362-.149c-.0147-.0052.0058-.0592.0157-.0608l-.0004-.0006c.0699.0099.1391.0238.2074.0417.0075.0065-.0002.0391-.0002.0391s-.2078-.0142-.2225-.0194zm.0458-.1406c-.0069-.0041-.0015-.0469.017-.0521l-.0005-.0007c.0183-.0055.1584.0034.1647.0163.0064.0129.0084.0332.0007.0381-.0606.0064-.1216.0059-.1819-.0016zm.0352-.1164c-.0043-.0052.002-.0355.0097-.0405l-.0004-.0006c.0384-.0043.0773-.003.1152.0041.0053.006.0077.0336-.0003.0387-.0413.0066-.0833.006-.1242-.0017zm-.0137-.1849c.0372-.0009.0742.0037.11.0136l-.0004-.0007c.0068.0079.0129.0322.0089.0385-.041.0063-.0827.0074-.1239.0033-.0039-.0017-.0036-.0518.0054-.0547z" fill="url(#d)" fill-rule="evenodd"/><path d="m33.3188 27.9566c-.1222-.15-.4741-.371-.795-.413-.321-.042-.7249.0804-.9595.3381s-.32.5414-.3401.8464c-.02.305.1665.6.1806.6034.0554.0124.6588-.0685.6927-.0839.034-.0154.0105-.0209.0693-.1099.0588-.0889.0837-.0581.1041-.082.0204-.024.0354-.3868.0225-.4191-.013-.0322-.0874-.0983-.1613-.2113-.0426-.0689-.0583-.1511-.0439-.2306.0143-.0796.0576-.151.1216-.2003.1556-.134.3418-.1349.4492-.076.1073.0589.2601.2218.2613.3856.0012.1637-.1855.2311-.2005.2455-.0151.0143-.1119.5265-.1064.5402.0306.061.0428.1296.035.1974-.0111.1139-.0848.2347-.2819.2663-.197.0317-.301-.1628-.3107-.1758-.0096-.0129-.5014.0702-.5385.1-.037.0298.0142.1431.1192.2616.1354.1366.3078.2303.4958.2695.1787.0327.362.0293.5392-.0099s.3447-.1135.4926-.2184c.4101-.2942.4435-.5901.4649-.9445.0213-.3544-.1882-.7296-.3102-.8793zm.0545.7876c-.0111.275-.0367.522-.2567.7266-.22.2045-.4966.3135-.6725.3297-.1759.0163-.3816.0076-.542-.0674-.1605-.0751-.2685-.1975-.2558-.2075s.3541-.0798.3669-.0702c.0127.0095.152.2215.3642.1912s.3353-.154.354-.3209c.0145-.0859.0058-.1741-.0251-.2557 0 0 .0852-.4528.0929-.4577.0078-.005.2462-.1268.2168-.3574-.0295-.2305-.2187-.3679-.333-.4219s-.4022-.0688-.6073.1219c-.0799.0744-.1312.1746-.1451.2831s.0105.2186.069.3112c.0879.1261.1368.156.1368.156l-.0117.2568c-.0326.0193-.0599.0463-.0796.0788-.0169.0273-.029.0574-.0355.0889 0 0-.4438.0815-.5525.0602-.0141-.0029-.1823-.2967-.1381-.5317.0441-.235.1294-.4891.2884-.6767s.5257-.3931.8745-.3612c.3487.0319.6381.3138.7052.4169s.1968.4319.1862.707zm-1.7997-.3741c-.0146.0017-.0981.1026-.1395.2615-.0266.0973-.0138.2013.0357.2895.0231-.0001.0453-.0091.0619-.0252.0065-.0122-.0436-.0789-.0292-.2354.0098-.0962.0464-.1876.1057-.2638.0042-.0075-.0206-.0293-.0346-.0266zm.7559.9738c-.0349.0209-.0722.0375-.1111.0494-.0338.0215.0335.1159.1759.0971.032-.005.0623-.017.089-.0352s.0489-.0421.0652-.07.0262-.0591.029-.0913-.0016-.0646-.0129-.095c-.0408-.1275-.1496-.143-.2407-.104-.0911.0389-.0802.1121-.0757.1192.0046.0071.0454.0011.0875.0134.042.0123.0344.0877-.0062.1164zm.028-.1508c-.0308-.008-.0595-.0098-.0477-.0278s.1248-.0824.1784.0151c.0535.0975.0136.1706-.0563.2265-.0699.056-.1326.0082-.125-.0023.0075-.0105.0852-.02.1059-.0866.0086-.0239.0076-.0502-.0027-.0735-.0103-.0232-.0291-.0417-.0526-.0514zm.3564-.7162c.0922-.1231.1558-.2985-.0166-.4461s-.3288-.0684-.4109.0077c-.1973.182-.1333.4048-.0067.5029.1267.0981.3419.0592.4342-.0645zm-.3652-.398c.0682-.0577.1815-.1127.2791.001.0246.0251.0436.0552.0557.0882.0122.033.0172.0682.0148.1032-.0024.0351-.0122.0692-.0288.1001-.0165.031-.0395.058-.0673.0794-.124.1119-.2506.0482-.3111-.0296s-.0576-.2455.0576-.3423zm.1542.3427c.1566-.0339.1515-.1918.1059-.2605-.0114-.0164-.0261-.0301-.0432-.0403s-.0362-.0166-.056-.0187c-.0197-.0022-.0397-.0001-.0586.0062-.0188.0063-.0361.0166-.0506.0302-.1657.1398-.0547.317.1025.2831zm-.016-.219c.0069-.0088.0164-.0149.0272-.0176.0108-.0026.0222-.0016.0324.0029.0161.0105.028.0265.0334.045.0055.0185.0041.0383-.0039.0559-.0201.0691-.0651.0724-.0765.0687-.0126-.0082-.0231-.0192-.0308-.0321s-.0124-.0274-.0136-.0423c-.0012-.015.001-.0301.0065-.044.0055-.014.0141-.0265.0253-.0365zm.3392 1.306c-.0093.0025-.0257.0507-.0257.0507.0491.0116.0994.018.1498.0189.0044-.0028.0145-.0311.0114-.0382-.0437-.0161-.0893-.0267-.1355-.0314zm.0828-.1005c-.0171 0-.0282.0475-.0252.0537.0078.0122.1326.0238.1426.0202.0101-.0035.0168-.0259.0179-.0361.0011-.0103-.1177-.0385-.1357-.0385zm.0062-.1059c-.0069.001-.0215.0542-.0215.0542.0063.0055.183.0374.1879.0376.0102-.0099.0163-.0233.017-.0375-.0596-.0237-.1211-.0421-.1838-.055zm.028-.1232c-.0091.0029-.0186.0514-.0122.0554.0113.0133.2681.0285.273.0287s.0134-.0305.0114-.0388c-.0898-.0212-.1809-.0365-.2727-.046zm.0254-.1273c-.0068.0043-.0196.0521-.0122.0555.0073.0034.2689.017.2753.0152.0045-.0035.008-.008.0102-.0132.0022-.0053.0029-.011.0022-.0166-.0908-.0208-.1831-.0347-.276-.0416zm.0494-.1335c-.0113.0024-.0209.0486-.0139.0527.0069.0042.2427.0304.2467.0292.004-.0011.0114-.0291.0074-.0376-.079-.0209-.1594-.036-.2406-.045zm.0203-.1278c-.0104.0038-.024.0549-.0176.0589.0913.0151.1836.0235.2761.0253.0067-.0043.0074-.0301.0039-.0402-.0036-.0101-.2525-.0479-.2628-.0447zm.0337-.153c-.01.0015-.0304.056-.0156.0614.0148.0053.2242.0206.2242.0206s.0076-.0329 0-.0395c-.0688-.0185-.1386-.0329-.2091-.0432zm.0467-.1333c-.0185.0052-.0237.0485-.0168.0527.0608.0078.1222.0086.1832.0025.0077-.005.0056-.0255-.0009-.0386-.0064-.013-.1475-.0227-.1659-.0172zm.0277-.1058c-.0078.005-.0139.0356-.0096.0409.0413.008.0836.0088.1251.0024.0081-.0052.0055-.0331.0002-.0393-.0383-.0072-.0774-.0088-.1161-.0047zm.0866-.1319c-.0361-.0102-.0734-.015-.1108-.0143-.0091.003-.0092.0536-.0052.0553.0415.0044.0834.0035.1247-.0027.004-.0064-.0022-.031-.0092-.039z" fill="#000"/><path clip-rule="evenodd" d="m33.3281 28.7428c-.0123.2719-.0388.5163-.2582.7195s-.4946.3123-.6694.3292-.3789.0093-.5379-.0642c-.1591-.0735-.2657-.1941-.2531-.204.0127-.0099.3521-.0805.3647-.0711s.15.2183.3608.1874.3337-.1538.353-.3189c.0148-.085.0066-.1722-.0237-.2527 0 0 .0866-.4481.0944-.453.0077-.005.245-.1266.2168-.3544s-.2154-.3627-.3287-.4156c-.1132-.0528-.3991-.0662-.6036.1233-.0797.074-.1311.1733-.1454.2806-.0143.1074.0094.2161.067.3074.0868.1243.1353.1536.1353.1536l-.0129.2539c-.0325.0193-.0597.0462-.0794.0783-.0169.0271-.029.0569-.0357.0881 0 0-.441.0827-.5488.0621-.0141-.0028-.1798-.2925-.1348-.5251.0449-.2326.1308-.4842.2896-.6704.1587-.1862.5238-.3911.87-.3612.3462.03.6322.3073.6984.409.0662.1016.1934.4261.1816.6982zm-1.9251-.1025c.0418-.1573.1252-.2574.1397-.2591.0139-.0028.0385.0187.0342.0261-.0592.0756-.096.1662-.1062.2613-.015.1548.0345.2205.028.2327-.0166.0159-.0387.0249-.0616.0251-.0488-.0869-.0611-.1897-.0341-.2861zm1.3524.911s.0165-.0477.0258-.0503c.0459.0045.0911.0147.1344.0305.003.007-.007.035-.0114.0378-.0501-.0007-.1-.0067-.1488-.018zm.0833-.0968c-.003-.0061.0082-.0531.0252-.0532l-.0004-.0006c.0179-.0002.1357.0272.1346.0373-.0012.0102-.0079.0323-.0179.0359-.01.0035-.1339-.0073-.1415-.0194zm.0102-.1042s.0148-.0527.0216-.0538l-.0004-.0006c.0623.0125.1232.0304.1823.0535-.0008.0141-.0068.0274-.0171.0372-.0048-.0002-.1801-.0309-.1864-.0363zm.0376-.1208c-.0063-.004.0034-.052.0124-.0549l-.0004-.0006c.0911.0089.1814.0237.2705.0442.0019.0082-.0066.0386-.0115.0384s-.2598-.014-.271-.0271zm.0258-.1259c-.0073-.0034.0057-.0506.0124-.0549l-.0004-.0007c.0922.0064.1837.0197.2738.0398.0007.0056-.0001.0112-.0022.0164-.0022.0052-.0057.0097-.0102.0132-.0064.0017-.2661-.0105-.2734-.0138zm.048-.135c-.0068-.004.0029-.0497.0141-.0522l-.0004-.0006c.0806.0085.1604.023.2387.0434.0039.0083-.0035.036-.0075.0372-.004.0011-.238-.0237-.2449-.0278zm.0171-.1203c-.0063-.004.0074-.0545.0177-.0583l-.0004-.0007c.0103-.0032.2573.033.2608.043s.0027.0354-.0041.0397c-.0918-.0013-.1834-.0092-.274-.0237zm.0362-.149c-.0147-.0052.0058-.0592.0157-.0608l-.0004-.0007c.0699.0099.1391.0239.2074.0418.0075.0065-.0002.0391-.0002.0391s-.2078-.0142-.2225-.0194zm.0458-.1406c-.0069-.0041-.0015-.047.017-.0521l-.0005-.0007c.0183-.0055.1584.0034.1647.0163.0064.0129.0084.0332.0007.0381-.0606.0064-.1216.0058-.1819-.0016zm.0352-.1164c-.0043-.0052.002-.0355.0097-.0405l-.0004-.0007c.0384-.0043.0773-.0029.1152.0041.0053.0061.0077.0337-.0003.0388-.0413.0066-.0833.006-.1242-.0017zm-.0137-.1849c.0372-.0009.0742.0037.11.0136l-.0004-.0007c.0068.0079.0129.0322.0089.0385-.041.0063-.0827.0074-.1239.0033-.0039-.0018-.0036-.0518.0054-.0547z" fill="url(#e)" fill-rule="evenodd"/><path d="m38.8105 28.014c-.1222-.15-.4741-.3711-.795-.413-.321-.042-.7249.0804-.9595.3381s-.32.5414-.3401.8464c-.02.305.1665.5999.1806.6034.0554.0123.6588-.0685.6927-.0839.034-.0154.0105-.0209.0693-.1099s.0837-.0581.1041-.082c.0204-.024.0354-.3868.0225-.4191-.013-.0323-.0874-.0983-.1613-.2114-.0426-.0688-.0583-.151-.0439-.2306.0143-.0796.0576-.1509.1216-.2002.1556-.134.3418-.1349.4492-.076.1073.0589.2601.2218.2613.3855s-.1855.2312-.2005.2455c-.0151.0144-.1119.5265-.1064.5402.0306.0611.0428.1297.035.1975-.0111.1139-.0848.2347-.2819.2663-.197.0317-.301-.1629-.3107-.1758-.0096-.0129-.5014.0702-.5385.1-.037.0298.0142.143.1192.2616.1354.1365.3078.2303.4958.2695.1787.0326.362.0292.5392-.01s.3447-.1134.4926-.2184c.4101-.2941.4435-.59.4649-.9444.0213-.3545-.1882-.7296-.3102-.8793zm.0545.7876c-.0111.275-.0367.522-.2567.7265s-.4966.3135-.6725.3298-.3816.0076-.542-.0675c-.1605-.0751-.2685-.1975-.2558-.2074.0127-.01.3541-.0798.3669-.0703.0127.0096.152.2216.3642.1913s.3353-.1541.354-.3209c.0145-.0859.0058-.1742-.0251-.2557 0 0 .0852-.4528.0929-.4577.0078-.005.2462-.1269.2168-.3574-.0295-.2305-.2187-.3679-.333-.4219s-.4022-.0688-.6073.1219c-.0799.0744-.1312.1746-.1451.2831s.0105.2186.069.3112c.0879.1261.1368.1559.1368.1559l-.0117.2568c-.0326.0193-.0599.0464-.0796.0788-.0169.0274-.029.0575-.0355.089 0 0-.4438.0815-.5525.0602-.0141-.0029-.1823-.2967-.1381-.5317.0441-.2351.1294-.4891.2884-.6767s.5257-.3931.8745-.3612c.3487.0319.6381.3138.7052.4169s.1968.4319.1862.707zm-1.7997-.3741c-.0146.0017-.0981.1026-.1395.2614-.0266.0974-.0138.2014.0357.2895.0231 0 .0453-.009.0619-.0251.0065-.0122-.0436-.079-.0292-.2354.0098-.0962.0464-.1876.1057-.2638.0042-.0075-.0206-.0293-.0346-.0266zm.7559.9738c-.0349.0209-.0722.0375-.1111.0493-.0338.0216.0335.116.1759.0972.032-.005.0623-.017.089-.0352s.0489-.0421.0652-.07.0262-.0591.029-.0913-.0016-.0647-.0129-.095c-.0408-.1275-.1496-.1431-.2407-.1041-.0912.039-.0802.1121-.0757.1193.0046.0071.0454.0011.0875.0134.042.0123.0344.0876-.0062.1164zm.028-.1508c-.0308-.0081-.0595-.0098-.0477-.0278s.1248-.0824.1784.0151c.0535.0974.0136.1705-.0563.2265-.0699.0559-.1326.0082-.125-.0023.0075-.0106.0852-.02.1059-.0866.0086-.0239.0076-.0502-.0027-.0735s-.0291-.0417-.0526-.0514zm.3564-.7162c.0922-.1231.1558-.2986-.0166-.4461-.1724-.1476-.3288-.0685-.4109.0077-.1973.182-.1333.4048-.0067.5029.1267.098.3419.0591.4342-.0645zm-.3652-.398c.0682-.0578.1815-.1128.2791.0009.0246.0252.0436.0552.0557.0882.0122.033.0172.0682.0148.1033-.0024.035-.0122.0692-.0288.1001-.0165.0309-.0395.058-.0673.0794-.124.1119-.2506.0481-.3111-.0296-.0605-.0778-.0576-.2456.0576-.3423zm.1542.3427c.1566-.034.1515-.1919.1058-.2605-.0113-.0164-.026-.0301-.0431-.0403s-.0362-.0166-.056-.0188c-.0197-.0021-.0397 0-.0586.0063-.0188.0063-.0361.0166-.0506.0301-.1657.1399-.0547.3171.1025.2832zm-.016-.2191c.0069-.0087.0164-.0148.0272-.0175.0108-.0026.0222-.0016.0324.0029.0161.0105.028.0265.0334.045.0055.0185.0041.0383-.0039.0558-.0201.0691-.0651.0725-.0765.0688-.0126-.0082-.0231-.0192-.0308-.0321s-.0124-.0274-.0136-.0424.001-.03.0065-.044c.0055-.0139.0141-.0264.0253-.0365zm.3392 1.306c-.0093.0026-.0257.0507-.0257.0507.0491.0117.0994.018.1498.0189.0044-.0028.0145-.0311.0114-.0381-.0437-.0162-.0893-.0267-.1355-.0315zm.0828-.1004c-.0171-.0001-.0282.0475-.0252.0537.0078.0122.1326.0238.1426.0202.0101-.0036.0168-.0259.0179-.0362.0011-.0102-.1177-.0384-.1357-.0384zm.0062-.106c-.0069.0011-.0215.0543-.0215.0543.0063.0055.183.0373.1879.0376.0102-.0099.0163-.0233.017-.0376-.0596-.0236-.1211-.042-.1838-.0549zm.028-.1232c-.0091.003-.0186.0515-.0122.0555.0113.0133.2681.0284.273.0287.0049.0002.0134-.0305.0114-.0388-.0898-.0212-.1809-.0366-.2727-.046zm.0254-.1272c-.0068.0043-.0196.052-.0122.0554.0073.0034.2689.017.2753.0153.0045-.0035.008-.008.0102-.0133.0022-.0052.0029-.0109.0022-.0165-.0908-.0208-.1831-.0347-.276-.0416zm.0494-.1335c-.0113.0024-.0209.0486-.0139.0527.0069.0042.2427.0303.2467.0292s.0114-.0292.0074-.0376c-.079-.021-.1594-.036-.2406-.045zm.0203-.1278c-.0104.0038-.024.0548-.0176.0589.0913.015.1836.0235.2761.0252.0067-.0043.0074-.03.0039-.0401-.0036-.0101-.2525-.0479-.2628-.0447zm.0337-.1531c-.01.0016-.0304.0561-.0156.0614.0148.0054.2242.0207.2242.0207s.0076-.0329 0-.0396c-.0688-.0184-.1386-.0328-.2091-.0431zm.0467-.1332c-.0185.0052-.0237.0485-.0168.0527.0608.0078.1222.0086.1832.0025.0077-.005.0056-.0255-.0009-.0386-.0064-.0131-.1475-.0228-.1659-.0173zm.0277-.1058c-.0078.005-.0139.0356-.0096.0409.0413.008.0836.0087.1251.0023.0081-.0051.0055-.0331.0002-.0392-.0383-.0073-.0774-.0088-.1161-.0047zm.0866-.1319c-.0361-.0102-.0734-.015-.1108-.0143-.0091.0029-.0092.0535-.0052.0553.0415.0044.0834.0034.1247-.0027.004-.0064-.0022-.031-.0092-.039z" fill="#000"/><path clip-rule="evenodd" d="m38.8198 28.8004c-.0123.2719-.0388.5163-.2582.7195-.2194.2033-.4946.3123-.6694.3292s-.3789.0093-.5379-.0642c-.1591-.0735-.2657-.1941-.2531-.204.0127-.0099.3521-.0805.3647-.0711s.15.2184.3608.1874c.2108-.0309.3337-.1538.353-.3189.0148-.085.0066-.1722-.0237-.2527 0 0 .0866-.4481.0944-.453.0077-.0049.245-.1265.2168-.3543-.0282-.2279-.2154-.3628-.3287-.4157-.1132-.0528-.3991-.0662-.6036.1233-.0797.074-.1311.1733-.1454.2806-.0143.1074.0094.2161.067.3074.0868.1243.1353.1536.1353.1536l-.0129.2539c-.0325.0193-.0597.0462-.0794.0783-.0169.0271-.029.0569-.0357.0881 0 0-.441.0827-.5489.0621-.014-.0028-.1797-.2925-.1347-.5251.0449-.2326.1308-.4842.2896-.6704.1587-.1862.5238-.3911.87-.3611.3462.0299.6322.3072.6984.4089.0662.1016.1934.4261.1816.6982zm-1.9251-.1025c.0418-.1572.1252-.2574.1397-.2591.0139-.0027.0385.0187.0342.0261-.0592.0757-.096.1662-.1062.2613-.015.1548.0345.2206.028.2327-.0166.0159-.0387.0249-.0616.0251-.0488-.0869-.0611-.1897-.0341-.2861zm1.3524.911s.0165-.0477.0258-.0502c.0459.0044.0911.0147.1344.0304.003.007-.007.035-.0114.0378-.0501-.0007-.1-.0067-.1488-.018zm.0833-.0967c-.003-.0061.0082-.0532.0252-.0533l-.0004-.0006c.0179-.0002.1357.0272.1346.0374-.0012.0101-.0079.0322-.0179.0358s-.1339-.0073-.1415-.0193zm.0102-.1043s.0148-.0526.0216-.0537l-.0004-.0007c.0622.0125.1232.0304.1823.0535-.0008.0141-.0068.0274-.0171.0372-.0048-.0002-.1801-.0309-.1864-.0363zm.0376-.1208c-.0063-.004.0034-.0519.0124-.0549l-.0004-.0006c.0911.0089.1814.0237.2705.0442.0019.0082-.0066.0386-.0115.0384s-.2598-.014-.271-.0271zm.0258-.1259c-.0073-.0033.0057-.0506.0124-.0549l-.0004-.0007c.0922.0064.1837.0197.2738.0398.0007.0056-.0001.0112-.0022.0164-.0022.0052-.0057.0097-.0102.0132-.0064.0017-.2661-.0105-.2734-.0138zm.048-.1349c-.0068-.0041.0029-.0498.0141-.0522l-.0004-.0007c.0806.0085.1604.023.2387.0434.0039.0083-.0035.036-.0075.0372-.004.0011-.238-.0236-.2449-.0277zm.0171-.1204c-.0063-.004.0074-.0545.0177-.0583l-.0004-.0007c.0103-.0032.2573.033.2608.043s.0027.0354-.0041.0397c-.0918-.0013-.1834-.0092-.274-.0237zm.0362-.149c-.0147-.0052.0058-.0592.0157-.0608l-.0004-.0006c.0699.0099.1391.0238.2074.0417.0075.0065-.0002.0391-.0002.0391s-.2078-.0142-.2225-.0194zm.0458-.1406c-.0069-.0041-.0015-.0469.017-.0521l-.0005-.0007c.0183-.0055.1584.0034.1647.0163.0064.0129.0084.0332.0007.0381-.0606.0064-.1216.0059-.1819-.0016zm.0352-.1164c-.0043-.0052.002-.0355.0097-.0405l-.0004-.0006c.0384-.0043.0773-.003.1152.0041.0053.006.0077.0336-.0003.0387-.0413.0066-.0833.006-.1242-.0017zm-.0137-.1849c.0372-.0009.0742.0037.11.0136l-.0004-.0007c.0068.0079.0129.0322.0089.0385-.041.0063-.0827.0074-.1239.0033-.0039-.0017-.0036-.0518.0054-.0547z" fill="url(#f)" fill-rule="evenodd"/><path d="m55.3736 30.1587c-.8346-1.0247-3.238-2.5346-5.4303-2.8214-2.1922-.2867-4.9512.5496-6.5536 2.3097-1.6025 1.76-2.1858 3.6979-2.3228 5.7811-.1369 2.0832 1.137 4.098 1.2331 4.1214.3785.0845 4.5004-.4675 4.732-.5727.2316-.1053.0712-.1431.473-.7507.4017-.6076.5717-.3968.711-.5604.1392-.1636.242-2.6419.1535-2.8623s-.5967-.6716-1.1017-1.4439c-.291-.4703-.3979-1.0315-.2999-1.5751s.3939-1.0309.8305-1.3678c1.063-.915 2.335-.9211 3.0684-.519.7334.4022 1.7769 1.5152 1.7849 2.6334.008 1.1183-1.2667 1.5788-1.3697 1.6769-.103.0982-.7637 3.5962-.7268 3.6899.2093.4169.2925.8857.2392 1.3487-.0759.7777-.5792 1.603-1.9251 1.8191-1.346.2161-2.0561-1.1126-2.1221-1.2008-.0659-.0882-3.4249.4791-3.6782.6828s.0966.9771.8138 1.7869c.9248.9327 2.1027 1.5729 3.3868 1.8407 1.2205.223 2.4726.1999 3.6828-.0679 1.2103-.2678 2.3542-.775 3.3649-1.4918 2.8008-2.009 3.0293-4.0301 3.175-6.4511.1457-2.4209-1.2855-4.9834-2.1187-6.0057zm.3724 5.3795c-.0759 1.8783-.2507 3.5657-1.7534 4.9626-1.5026 1.3969-3.3917 2.1413-4.5935 2.2525-1.2017.1112-2.6062.052-3.7024-.4609s-1.8334-1.349-1.7469-1.4171 2.4189-.5447 2.5058-.4796c.087.0651 1.0388 1.5133 2.488 1.3063 1.4492-.2069 2.2904-1.0522 2.4181-2.1918.0986-.5868.0394-1.1896-.1714-1.7468 0 0 .5814-3.0925.6345-3.1263.0532-.0339 1.6817-.8663 1.4803-2.441-.2013-1.5746-1.4938-2.5128-2.2742-2.8817s-2.7474-.4702-4.1479.8323c-.5458.5086-.8965 1.1927-.9915 1.9339-.095.7413.0716 1.4932.4712 2.1258.6006.8612.9349 1.065.9349 1.065l-.0803 1.7541c-.2227.1319-.4093.3168-.5433.5383-.1159.1866-.1981.3921-.2429.6073 0 0-3.0311.5571-3.7733.4113-.0969-.0196-1.2455-2.0263-.9438-3.6317.3018-1.6054.8843-3.3408 1.9703-4.6221 1.0861-1.2813 3.5908-2.685 5.9729-2.4671s4.3586 2.1431 4.8171 2.8474c.4584.7043 1.3439 2.9502 1.2717 4.8293zm-12.2925-2.5553c-.0998.0115-.6704.7006-.9529 1.7858-.1821.6649-.0946 1.3755.2437 1.9775.1579-.0006.3094-.0621.423-.1718.0441-.0835-.2982-.5394-.2-1.6081.0671-.6569.3173-1.2812.7221-1.8016.0292-.0511-.1405-.2003-.2359-.1818zm5.163 6.6515c-.2385.1427-.4934.2559-.7592.3372-.2309.1471.2287.792 1.202.6636.2179-.0341.4254-.1163.6075-.2406.1822-.1243.3343-.2875.4456-.4781.1113-.1905.1788-.4034.1978-.6235s-.011-.4418-.088-.6491c-.2788-.8708-1.0218-.977-1.6442-.7107-.6225.2663-.5478.7658-.5168.8144s.31.0076.5973.0916c.2872.084.2355.5989-.042.7952zm.191-1.0301c-.2103-.0549-.4062-.0669-.3255-.1899s.8524-.5626 1.2181.1031.093 1.165-.3842 1.5472-.9057.0561-.8542-.0158c.0516-.072.5819-.1364.7238-.5914.0586-.1633.052-.3431-.0184-.502s-.1992-.2847-.3596-.3512zm2.4347-4.892c.6298-.8408 1.0643-2.0391-.1135-3.047-1.1779-1.0079-2.2458-.4675-2.807.0529-1.3476 1.2427-.9103 2.7648-.0453 3.4347.8651.6699 2.3352.404 2.9658-.4406zm-2.4948-2.7183c.466-.3946 1.2396-.7703 1.9065.0064.1679.1717.2976.3771.3806.6025s.1174.4657.1009.7051-.0835.4725-.1966.6838c-.1131.2114-.2697.3962-.4595.5423-.8472.7645-1.7122.329-2.1254-.2023-.4131-.5313-.3932-1.6771.3935-2.3378zm1.0531 2.3409c1.0696-.2321 1.035-1.3106.7233-1.7795-.0775-.1119-.178-.2059-.2949-.2755-.1168-.0696-.2472-.1132-.3822-.1279-.1351-.0147-.2716-.0001-.4003.0428-.1288.0429-.2467.1131-.3458.2058-1.1315.9553-.3734 2.1655.6999 1.9343zm-.1093-1.4965c.0471-.0595.1126-.1016.1863-.1197.0737-.018.1514-.0111.2208.0198.1105.0717.1917.1807.2287.3072.0371.1264.0275.2618-.0269.3816-.1376.4719-.4444.4948-.5222.4694-.0861-.0559-.1583-.1308-.211-.2189-.0526-.0882-.0843-.1873-.0927-.2896-.0084-.1022.0068-.205.0444-.3004.0377-.0953.0967-.1807.1726-.2494zm2.3168 8.9206c-.0634.0177-.1754.3463-.1754.3463.3357.0796.679.1229 1.0238.1292.03-.0191.0983-.2125.0772-.2609-.2984-.1101-.6094-.1822-.9256-.2146zm.566-.6862c-.1171-.0003-.1925.3246-.1721.3669.0532.0834.9053.1624.9742.138.0689-.0243.1145-.1771.1219-.2469.0074-.0699-.8038-.2629-.9269-.2626zm.0422-.7236c-.0473.0073-.1471.3704-.1471.3704.0434.0375 1.2502.2553 1.2836.2568.0699-.0674.1114-.1591.1159-.2562-.4068-.1617-.8269-.2874-1.2554-.3756zm.1911-.8414c-.062.0199-.1269.3511-.0833.3787.0773.0908 1.8313.1943 1.8648.1958.0334.0015.0914-.2081.0781-.2647-.6136-.1447-1.2357-.2497-1.8625-.3144zm.1735-.8692c-.0462.0295-.1339.3556-.0834.3787.0505.0232 1.8367.116 1.881.1041.0306-.0236.0545-.0548.0694-.0905.0148-.0357.02-.0747.0152-.1132-.6206-.1417-1.2507-.2366-1.8852-.2837zm.3377-.9119c-.0771.0165-.1425.3317-.0952.3601.0473.0285 1.6578.2072 1.6853.1995.0276-.0078.0776-.1993.0506-.257-.5396-.1431-1.089-.2458-1.6437-.3073zm.1385-.873c-.0712.0258-.1638.3746-.1203.4022.6238.103 1.254.1607 1.8858.1727.0462-.0295.0511-.2052.0266-.2742-.0245-.0691-1.7247-.3274-1.795-.3054zm.2301-1.0453c-.0679.0107-.2074.3828-.1062.4193s1.5314.1412 1.5314.1412.0515-.2249-.0001-.2702c-.47-.1259-.9468-.2243-1.4281-.2949zm.3194-.9101c-.1269.0353-.1622.3313-.1149.3598.4151.0532.8348.0589 1.251.017.0531-.0339.0383-.1742-.0056-.2635-.0438-.0893-1.008-.1555-1.1334-.1179zm.1889-.7227c-.0531.0338-.0952.243-.0655.2794.2818.0543.5708.0597.8542.0159.0554-.0353.0378-.226.0014-.2679-.2615-.0497-.5287-.0605-.7931-.032zm.5914-.901c-.2462-.0696-.5012-.1024-.7568-.0974-.062.0199-.0626.3654-.0355.3775.2837.0298.5699.0236.8518-.0185.0275-.0435-.0149-.2119-.0625-.2663z" fill="#000"/><path clip-rule="evenodd" d="m55.4365 35.53c-.084 1.8575-.2654 3.5267-1.7641 4.9148-1.4986 1.3882-3.378 2.1329-4.5719 2.2484-1.194.1155-2.5884.0634-3.6746-.4387-1.0862-.502-1.8144-1.3253-1.7282-1.393.0862-.0678 2.4046-.5498 2.4906-.4858.0861.064 1.0246 1.4914 2.4647 1.2801 1.44-.2112 2.2793-1.0509 2.4114-2.1783.1006-.5806.0446-1.1764-.1622-1.7263 0 0 .5917-3.0604.6445-3.0941.0529-.0337 1.674-.8643 1.4813-2.4203s-1.4718-2.4776-2.2451-2.8387c-.7733-.3612-2.7262-.4523-4.1229.842-.5444.5054-.8958 1.1834-.9936 1.9167-.0977.7334.0643 1.4761.4582 2.0997.5924.8487.9235 1.0487.9235 1.0487l-.0879 1.7347c-.2217.1315-.4079.3151-.542.5348-.1159.185-.1985.3886-.244.6016 0 0-3.0126.5648-3.749.424-.0961-.019-1.2274-1.9977-.9204-3.5864s.8935-3.3073 1.9779-4.5792c1.0845-1.2719 3.5782-2.6713 5.9428-2.4669 2.3645.2044 4.3184 2.0989 4.7704 2.7931.452.6943 1.3209 2.9108 1.2406 4.7691zm-13.1498-.6997c.2856-1.0743.8554-1.7583.9546-1.7701.0948-.0187.2626.128.2334.1786-.4044.5165-.6557 1.1349-.7254 1.7847-.1025 1.0571.2354 1.5063.1911 1.5891-.1132.1089-.2639.1705-.4208.1718-.3331-.5936-.4168-1.2959-.2329-1.9541zm9.2379 6.2222s.1128-.3254.1758-.3432c.3139.0306.6224.1004.9182.2079.0207.0478-.048.2393-.0779.2583-.3424-.0046-.6831-.0458-1.0161-.123zm.5685-.6607c-.0202-.0418.0563-.3633.1725-.3635l-.0029-.0046c.1223-.0009.927.1862.9193.2553s-.0536.2203-.1221.2447c-.0686.0244-.9145-.0497-.9668-.1319zm.07-.7123s.1007-.3595.1477-.3669l-.0029-.0046c.4252.0853.8418.2076 1.245.3656-.005.0961-.0466.1869-.1163.2538-.0332-.0013-1.2306-.211-1.2735-.2479zm.2569-.8249c-.0431-.0271.0229-.3548.0845-.3748l-.0029-.0046c.6222.0611 1.2395.162 1.8481.3023.013.0559-.0456.2634-.0788.2621-.0331-.0014-1.7745-.0956-1.8509-.185zm.1762-.8602c-.05-.0227.0386-.3455.0846-.3748l-.0029-.0046c.6298.0437 1.2552.1345 1.8707.2719.0047.0379-.0007.0765-.0156.1119s-.0388.0663-.0693.0898c-.0441.012-1.8174-.0715-1.8675-.0942zm.328-.9215c-.0469-.0279.0195-.3399.0961-.3566l-.0029-.0046c.5506.0582 1.0957.1573 1.6309.2963.0266.0569-.0241.2465-.0514.2543-.0274.0078-1.6258-.1615-1.6727-.1894zm.1164-.8221c-.0431-.0271.0505-.3724.1214-.3983l-.003-.0046c.07-.0221 1.7572.2255 1.7812.2937.024.0681.0183.2419-.0277.2712-.6273-.009-1.2529-.0631-1.8719-.162zm.2473-1.0178c-.1003-.0356.0399-.4042.1073-.4151l-.0029-.0045c.4776.0675.9507.1627 1.4168.285.051.0445-.0012.2672-.0012.2672s-1.4197-.097-1.52-.1326zm.313-.9602c-.0469-.0279-.0104-.3207.1158-.3562l-.0029-.0046c.1247-.0377 1.0818.0234 1.125.1114.0432.0881.0572.2268.0043.2605-.4135.0434-.8302.0397-1.2422-.0111zm.2403-.7951c-.0293-.0358.0134-.2428.0663-.2765l-.0029-.0046c.2627-.0294.528-.0199.7874.028.036.0413.0526.2297-.0026.2649-.2816.0446-.5685.0406-.8482-.0118zm-.0933-1.263c.2538-.0061.5069.0252.7511.0929l-.0029-.0046c.047.0535.0883.2198.0608.263-.2801.0429-.5644.0503-.8459.0221-.0269-.0117-.0247-.3534.0369-.3734z" fill="url(#g)" fill-rule="evenodd"/><path d="m33.9613 19.9834c.3092-.0106.7464.2977.9263.4532.1999-.2732.1799-.9596 0-1.2795s-.6331-.6797-1.1328-.8063c-.3999-.1013-.8242.0422-.9863.1266 0 0-1.6926.9996-2.339 1.4527s-.7997 1.1289-.2933 1.9925c.5065.8637 1.3351.853 1.686.7397.3576-.1977 1.1142-.6224 1.2795-.7397.2066-.1466.5664-.1599.7263.1466.128.2453-.031.4976-.1266.5931-.6464.4154-1.9658 1.2608-2.0724 1.3195-.1333.0733-.2932.1332-.5531 0-.208-.1067-.2244-.3954-.2066-.5265-.2612.0427-.7664-.3243-.9863-.5131-.1732 1.0262.1533 1.706.8063 2.0258.5225.2559 1.0574.1422 1.2595.0533.7708-.482 2.3631-1.4807 2.5656-1.6193.2533-.1733.7197-1.2661 0-2.0725-.5757-.645-1.3683-.5931-1.6926-.4864l-1.0596.6464c-.1532.0933-.5051.2092-.6863-.0733-.1813-.2826-.0534-.5398.0333-.6331l2.1657-1.3528c.1111-.0533.3772-.1186.5531.0467.176.1652.1622.4065.1333.5064z" fill="#c4c4c4"/><path clip-rule="evenodd" d="m32.7687 18.4773c-.3704-.6271-.3704-.6271-.3704-.6271l-.0198.0117c-.0128.0076-.0315.0187-.0555.0329-.0481.0285-.1173.0697-.2023.1205-.17.1015-.4035.2416-.6576.3962-.5007.3045-1.1058.6798-1.4515.9222-.444.3112-.7841.7499-.8792 1.3184-.0929.5552.0681 1.1142.3758 1.6388.0039.0067.0078.0133.0117.0199-.1866.1074-.3183.2935-.3549.5101-.1028.6091-.0688 1.1823.1397 1.6803.2133.5094.588.8874 1.0645 1.1208.7642.3743 1.5307.2164 1.8729.066.0321-.0142.0632-.0306.093-.0492.7588-.4745 2.3719-1.486 2.5908-1.6358.2206-.151.3655-.3895.4511-.565.1001-.2048.1826-.4547.223-.7287.0712-.4833.0147-1.0873-.3612-1.6347.0922-.0507.1733-.1213.2367-.208.2426-.3316.2859-.77.283-1.0597-.0032-.3102-.0627-.6989-.236-1.007-.2874-.511-.9157-.9847-1.5887-1.1552-.6398-.1621-1.2547.0582-1.5014.1866-.0115.006-.0229.0123-.0341.0189zm-1.3908 2.3913s.0004-.0001.0011-.0003c-.0007.0002-.0011.0003-.0011.0003zm.2147 2.6761c0-.0001 0-.0003-.0001-.0006.0001.0004.0001.0006.0001.0006z" fill="#000" fill-rule="evenodd"/><path d="m33.8281 20.0657c.2674-.0092.6454.2574.801.3919.1729-.2363.1556-.8298 0-1.1064s-.5474-.5878-.9796-.6973c-.3457-.0876-.7126.0365-.8528.1095 0 0-1.7411 1.0201-2.0227 1.2562-.2816.2362-.6915.9762-.2535 1.723.4379.7468 1.1544.7376 1.4579.6396.3092-.1709.9635-.5382 1.1064-.6396.1786-.1268.4898-.1383.6281.1268.1106.212-.0269.4302-.1095.5128-.559.3592-1.6999 1.0903-1.7921 1.141-.1153.0634-.2536.1153-.4783 0-.1798-.0922-.194-.3419-.1787-.4552-.2258.0369-.6626-.2805-.8528-.4437-.1498.8874.1325 1.4752.6973 1.7518.4517.2212.9143.1229 1.0891.0461.6665-.4169 2.0433-1.2805 2.2185-1.4003.219-.1498.6224-1.0949 0-1.7922-.4979-.5578-1.1832-.5128-1.4636-.4206l-.9163.5589c-.1325.0807-.4368.181-.5935-.0633-.1568-.2444-.0461-.4668.0288-.5475l1.8728-1.1698c.096-.0461.3262-.1025.4783.0404s.1402.3515.1152.4379z" fill="#fff"/></svg>