<?xml version="1.0" ?><svg enable-background="new 0 0 64 64" viewBox="0 0 64 64" xmlns="http://www.w3.org/2000/svg"><path d="M62.468 16.868s.86-1.473.957-2.328c.096-.855.096-1.853-.335-2.233s-2.153.238-3.54.665c-1.387.428-4.162.855-4.162.855s-1.722-5.083-4.497-7.08c-2.774-1.994-6.458-2.042-9.567-1.33-3.11.714-6.937 2.71-8.707 4.8-1.77 2.09-3.3 6.27-3.827 7.933-.527 1.663-1.58 4.56-2.776 4.798-1.196.238-3.445-.618-5.358-1.805-1.914-1.188-6.89-5.226-9.377-7.506S5.25 7.414 4.1 7.652c-1.147.238-2.487 4.37-2.487 7.316 0 2.946 2.63 5.796 2.63 5.796-1.052 3.848-.43 6.556.575 8.55s3.205 3.327 3.205 3.327c-.287 1.33-.144 2.947.335 4.372.478 1.425 2.966 3.23 2.966 3.23s-1.483 1.19-3.827 1.854c-2.344.665-6.793-.048-7.272.048-.478.095-.048 6.033-.048 6.89 0 .854.622 1.52 1.387 2.09.765.57 6.937 3.657 15.596 5.89 8.66 2.233 15.453.285 20.62-1.948 5.167-2.233 10.717-9.074 14.305-14.585 3.588-5.51 5.98-13.444 5.98-13.444s1.34-.713 3.253-2.138c1.914-1.425 2.63-3.848 2.68-5.32.05-1.475-1.53-2.71-1.53-2.71zm-4.306 3.183c.574 0 3.014-1.377 3.3-1.14.288.24-.717 2.09-2.487 3.137-1.77 1.045-3.11 1.568-3.445 1.473-.335-.095-1.555-2.47-1.77-2.435-.215.036-.79.5-.646.82.144.32 1.543 2.173 1.4 2.46-.145.284-.216.427-.432.248-.215-.178-1.543-2.993-1.902-3.064-.36-.072-.86.712-.646 1.068.215.356 1.973 2.637 1.938 2.993-.036.357-.43 1.996-.574 1.747-.144-.25-2.332-4.276-2.548-4.24-.215.036-.718.962-.61 1.247.108.285 2.655 3.99 2.655 4.31 0 .322-.753 1.925-1.005 1.64-.25-.285-2.476-5.024-2.69-5.024-.216 0-.826.784-.79.998.036.214 2.87 4.953 2.942 5.31.072.355-.61 2.386-.86 2.244-.252-.143-2.55-5.88-2.836-5.915-.287-.036-.718.82-.61 1.176.108.356 2.8 5.452 2.835 5.88.037.427-.43 1.175-.573 1.068-.144-.106-3.05-7.268-3.3-7.232-.252.036-.683.748-.432 1.568.25.82 3.193 6.164 3.23 6.592.035.428-.72 1.425-.826 1.247-.11-.178-3.194-6.984-3.48-6.912-.288.07-.683 1.14-.432 1.568.25.43 3.41 5.95 3.41 6.13s-.826 1.46-1.042 1.354c-.215-.107-2.87-6.414-3.158-6.378-.287.036-.825.677-.502 1.39.323.713 3.122 5.452 3.014 5.772-.108.32-.86 1.39-1.005 1.14s-2.978-6.7-3.3-6.7-1.113.714-.826 1.284c.286.57 3.48 6.2 3.336 6.342-.144.143-1.256 1.603-1.435 1.497-.178-.106-3.228-6.626-3.55-6.52-.324.108-.79.607-.54 1.07.252.463 3.41 5.986 3.338 6.164-.072.178-.86.89-1.076.64-.215-.248-3.158-6.092-3.48-6.092-.324 0-1.006.926-.79 1.283.215.356 3.66 5.665 3.516 5.915-.144.25-1.22 1.176-1.363.998-.144-.178-2.8-5.558-3.337-5.523-.538.036-.933.855-.682 1.14.25.285 2.942 4.81 2.942 4.81s-1.292.784-1.507.534c-.214-.25-2.403-5.203-2.618-5.203-.215 0-1.148.57-.754 1.14.395.57 2.583 4.347 2.368 4.525-.215.178-.897.5-1.112.25-.215-.25-2.44-5.203-2.655-5.203s-1.077.355-.862.712c.215.356 2.512 4.988 2.404 5.06-.108.07-1.543.5-1.722.32-.18-.177-2.117-4.31-2.44-4.31-.323 0-.646.5-.574.748.072.25 2.117 3.813 2.01 3.884-.11.07-1.508.285-1.652.178-.144-.107-1.973-4.383-2.26-4.454-.288-.07-.934.5-.79.89.144.393 1.794 3.564 1.615 3.635-.18.07-1.4.143-1.58-.107-.18-.25-1.65-3.706-1.973-3.777-.323-.072-.897.106-.682.64.215.534 1.902 3.563 1.65 3.563s-1.614 0-1.757-.107c-.144-.107-1.615-3.634-1.866-3.706-.25-.07-1.076-.143-.933.32.143.464 1.72 3.172 1.434 3.172s-1.758-.285-2.01-.534c-.25-.25-1.578-3.492-1.865-3.527-.288-.035-.898.286-.826.714.072.428 1.364 2.744 1.04 2.672-.322-.07-1.793-.32-1.83-.5-.035-.177-1.47-3.17-1.72-3.313s-1.113.036-.898.428c.215.393 1.148 2.388 1.005 2.388s-3.515-.998-6.314-2.423-5.31-3.634-4.988-3.706 3.947.213 6.423-.714c2.477-.926 4.953-1.888 5.096-2.174.144-.285-.287-.926-.395-.962-.107-.036-3.12-.962-3.767-3.136-.646-2.173-.144-4.525-.538-4.81-.395-.285-2.404-1.14-3.41-4.24s.11-7.304-.107-7.59c-.215-.284-.562-.866-.91-.77-.36.098-1.53-2.33-1.578-4.61-.048-2.28.957-5.32 1.196-5.32.24 0 6.65 6.176 10.047 9.027s7.368 5.797 9.712 6.177c2.344.38 3.3.475 4.4-1.758 1.1-2.234 2.297-7.697 3.972-10.215 1.674-2.518 5.12-5.368 9.568-6.08s7.798.522 9.568 2.992c1.77 2.47 1.866 5.7 2.296 5.986.43.285 2.343.19 4.64-.618 2.296-.808 3.11-.998 3.253-.998.144 0-.526 1.473-2.01 2.708-1.482 1.235-2.535 2.09-2.535 2.66s.29.996.864.996zM6.11 15.883c-.682-.534-.395-1.817-.215-2.744.18-.926-1.292-.713-1.543.32-.25 1.034.036 2.46.86 3.172.826.713 1.6.67 1.83.5.288-.214-.25-.713-.932-1.248zm20.13 10.155c-.538-.07-1.866.64-3.265-.07-1.4-.714-2.763-2.388-3.373-2.174-.428.15-.86.713.18 1.675 1.04.962 2.977 1.782 4.556 1.782s2.44-1.14 1.902-1.213zm9.83-12.577c-.358-.107-1.865.89-2.582 2.138-.718 1.247-1.794 3.634-.97 4.098.554.31.826-.07 1.257-1.425.43-1.353 1.256-2.92 1.722-3.49.467-.572.933-1.214.574-1.32z"/></svg>