<svg fill="none" height="65" viewBox="0 0 64 65" width="64" xmlns="http://www.w3.org/2000/svg" xmlns:xlink="http://www.w3.org/1999/xlink"><clipPath id="a"><path d="m0 .674316h64v64h-64z"/></clipPath><mask id="b" fill="#fff"><path d="m62.468 17.5423s.86-1.473.957-2.328c.096-.855.096-1.853-.335-2.233s-2.153.238-3.54.665c-1.387.428-4.162.855-4.162.855s-1.722-5.08299-4.497-7.07999c-2.774-1.994-6.458-2.042-9.567-1.33-3.11.714-6.937 2.71-8.707 4.79999-1.77 2.09-3.3 6.27-3.827 7.933s-1.58 4.56-2.776 4.798-3.445-.618-5.358-1.805c-1.914-1.188-6.89-5.226-9.377-7.506-2.48697-2.28-6.02897-6.22299-7.17897-5.98499-1.147.238-2.487 4.36999-2.487 7.31599s2.63 5.796 2.63 5.796c-1.052 3.848-.43 6.556.575 8.55s3.205 3.327 3.205 3.327c-.287 1.33-.144 2.947.335 4.372.478 1.425 2.96597 3.23 2.96597 3.23s-1.48296 1.19-3.82696 1.854c-2.34401.665-6.793005-.048-7.272005.048-.478.095-.048 6.033-.048 6.89 0 .854.622 1.52 1.386995 2.09.765.57 6.937 3.657 15.59597 5.89 8.66 2.233 15.453.285 20.62-1.948s10.717-9.074 14.305-14.585c3.588-5.51 5.98-13.444 5.98-13.444s1.34-.713 3.253-2.138c1.914-1.425 2.63-3.848 2.68-5.32.05-1.475-1.53-2.71-1.53-2.71zm-4.306 3.183c.574 0 3.014-1.377 3.3-1.14.288.24-.717 2.09-2.487 3.137-1.77 1.045-3.11 1.568-3.445 1.473s-1.555-2.47-1.77-2.435c-.215.036-.79.5-.646.82s1.543 2.173 1.4 2.46c-.0009.0019-.0018.0037-.0028.0055-.1431.2804-.2146.4204-.4292.2425-.215-.178-1.543-2.993-1.902-3.064-.36-.072-.86.712-.646 1.068.215.356 1.973 2.637 1.938 2.993-.036.357-.43 1.996-.574 1.747-.144-.25-2.332-4.276-2.548-4.24-.215.036-.718.962-.61 1.247s2.655 3.99 2.655 4.31c0 .322-.753 1.925-1.005 1.64-.25-.285-2.476-5.024-2.69-5.024-.216 0-.826.784-.79.998s2.87 4.953 2.942 5.31c.072.355-.61 2.386-.86 2.244-.252-.143-2.55-5.88-2.836-5.915-.287-.036-.718.82-.61 1.176s2.8 5.452 2.835 5.88c.037.427-.43 1.175-.573 1.068-.144-.106-3.05-7.268-3.3-7.232-.252.036-.683.748-.432 1.568.25.82 3.193 6.164 3.23 6.592.035.428-.72 1.425-.826 1.247-.11-.178-3.194-6.984-3.48-6.912-.288.07-.683 1.14-.432 1.568.25.43 3.41 5.95 3.41 6.13s-.826 1.46-1.042 1.354c-.215-.107-2.87-6.414-3.158-6.378-.287.036-.825.677-.502 1.39s3.122 5.452 3.014 5.772-.86 1.39-1.005 1.14-2.978-6.7-3.3-6.7-1.113.714-.826 1.284c.286.57 3.48 6.2 3.336 6.342-.144.143-1.256 1.603-1.435 1.497-.178-.106-3.228-6.626-3.55-6.52-.324.108-.79.607-.54 1.07.252.463 3.41 5.986 3.338 6.164s-.86.89-1.076.64c-.215-.248-3.158-6.092-3.48-6.092-.324 0-1.006.926-.79 1.283.215.356 3.66 5.665 3.516 5.915s-1.22 1.176-1.363.998c-.144-.178-2.8-5.558-3.337-5.523-.538.036-.933.855-.682 1.14.25.285 2.942 4.81 2.942 4.81s-1.292.784-1.507.534c-.214-.25-2.403-5.203-2.618-5.203s-1.148.57-.754 1.14c.395.57 2.583 4.347 2.368 4.525s-.897.5-1.112.25-2.44-5.203-2.655-5.203-1.077.355-.862.712c.215.356 2.512 4.988 2.404 5.06-.108.07-1.543.5-1.722.32-.18-.177-2.117-4.31-2.44-4.31s-.646.5-.574.748c.072.25 2.117 3.813 2.01 3.884-.11.07-1.508.285-1.652.178s-1.973-4.383-2.26-4.454c-.288-.07-.934.5-.79.89.144.393 1.794 3.564 1.615 3.635-.18.07-1.4.143-1.58-.107s-1.65-3.706-1.973-3.777c-.323-.072-.897.106-.682.64s1.902 3.563 1.65 3.563-1.614 0-1.757-.107c-.144-.107-1.615-3.634-1.866-3.706-.25-.07-1.076-.143-.933.32.143.464 1.72 3.172 1.434 3.172s-1.758-.285-2.01-.534c-.25-.25-1.578-3.492-1.865-3.527-.288-.035-.898.286-.826.714s1.364 2.744 1.04 2.672c-.322-.07-1.793-.32-1.83-.5-.035-.177-1.47-3.17-1.72-3.313s-1.113.036-.898.428c.215.393 1.148 2.388 1.005 2.388s-3.515-.998-6.31397-2.423c-2.799-1.425-5.31-3.634-4.988-3.706s3.947.213 6.423-.714c2.47697-.926 4.95297-1.888 5.09597-2.174.144-.285-.287-.926-.395-.962-.107-.036-3.12-.962-3.76697-3.136-.646-2.173-.144-4.525-.538-4.81-.395-.285-2.404-1.14-3.41-4.24s.11-7.304-.107-7.59c-.215-.284-.562-.866-.91-.77-.36.098-1.53-2.33-1.578-4.61s.957-5.31999 1.196-5.31999c.24 0 6.64997 6.17599 10.04697 9.02699s7.368 5.797 9.712 6.177 3.3.475 4.4-1.758c1.1-2.234 2.297-7.697 3.972-10.215 1.674-2.518 5.12-5.36799 9.568-6.07999s7.798.522 9.568 2.992c1.77 2.46999 1.866 5.69999 2.296 5.98599.43.285 2.343.19 4.64-.618 2.296-.808 3.11-.998 3.253-.998.144 0-.526 1.473-2.01 2.708-1.482 1.235-2.535 2.09-2.535 2.66s.29.996.864.996zm-52.05197-4.168c-.682-.534-.395-1.817-.215-2.744.18-.926-1.29199-.713-1.54299.32-.25 1.034.03599 2.46.85999 3.172.826.713 1.6.67 1.83.5.288-.214-.25-.713-.932-1.248zm20.12997 10.155c-.538-.07-1.866.64-3.265-.07-1.4-.714-2.763-2.388-3.373-2.174-.428.15-.86.713.18 1.675s2.977 1.782 4.556 1.782 2.44-1.14 1.902-1.213zm9.83-12.577c-.358-.107-1.865.89-2.582 2.138-.718 1.247-1.794 3.634-.97 4.098.554.31.826-.07 1.257-1.425.43-1.353 1.256-2.92 1.722-3.49.467-.572.933-1.214.574-1.32z" fill="#fff"/><path clip-rule="evenodd" d="m58.162 20.7253c.574 0 3.014-1.377 3.3-1.14.288.24-.717 2.09-2.487 3.137-1.77 1.045-3.11 1.568-3.445 1.473s-1.555-2.47-1.77-2.435c-.215.036-.79.5-.646.82s1.543 2.173 1.4 2.46l-.0028.0055c-.1431.2804-.2146.4204-.4292.2425-.215-.178-1.543-2.993-1.902-3.064-.36-.072-.86.712-.646 1.068.215.356 1.973 2.637 1.938 2.993-.036.357-.43 1.996-.574 1.747-.144-.25-2.332-4.276-2.548-4.24-.215.036-.718.962-.61 1.247s2.655 3.99 2.655 4.31c0 .322-.753 1.925-1.005 1.64-.25-.285-2.476-5.024-2.69-5.024-.216 0-.826.784-.79.998s2.87 4.953 2.942 5.31c.072.355-.61 2.386-.86 2.244-.252-.143-2.55-5.88-2.836-5.915-.287-.036-.718.82-.61 1.176s2.8 5.452 2.835 5.88c.037.427-.43 1.175-.573 1.068-.144-.106-3.05-7.268-3.3-7.232-.252.036-.683.748-.432 1.568.25.82 3.193 6.164 3.23 6.592.035.428-.72 1.425-.826 1.247-.11-.178-3.194-6.984-3.48-6.912-.288.07-.683 1.14-.432 1.568.25.43 3.41 5.95 3.41 6.13s-.826 1.46-1.042 1.354c-.215-.107-2.87-6.414-3.158-6.378-.287.036-.825.677-.502 1.39s3.122 5.452 3.014 5.772-.86 1.39-1.005 1.14-2.978-6.7-3.3-6.7-1.113.714-.826 1.284c.286.57 3.48 6.2 3.336 6.342-.144.143-1.256 1.603-1.435 1.497-.178-.106-3.228-6.626-3.55-6.52-.324.108-.79.607-.54 1.07.252.463 3.41 5.986 3.338 6.164s-.86.89-1.076.64c-.215-.248-3.158-6.092-3.48-6.092-.324 0-1.006.926-.79 1.283.215.356 3.66 5.665 3.516 5.915s-1.22 1.176-1.363.998c-.144-.178-2.8-5.558-3.337-5.523-.538.036-.933.855-.682 1.14.25.285 2.942 4.81 2.942 4.81s-1.292.784-1.507.534c-.214-.25-2.403-5.203-2.618-5.203s-1.148.57-.754 1.14c.395.57 2.583 4.347 2.368 4.525s-.897.5-1.112.25-2.44-5.203-2.655-5.203-1.077.355-.862.712c.215.356 2.512 4.988 2.404 5.06-.108.07-1.543.5-1.722.32-.18-.177-2.117-4.31-2.44-4.31s-.646.5-.574.748c.072.25 2.117 3.813 2.01 3.884-.11.07-1.508.285-1.652.178s-1.973-4.383-2.26-4.454c-.288-.07-.934.5-.79.89.144.393 1.794 3.564 1.615 3.635-.18.07-1.4.143-1.58-.107s-1.65-3.706-1.973-3.777c-.323-.072-.897.106-.682.64s1.902 3.563 1.65 3.563-1.614 0-1.757-.107c-.144-.107-1.615-3.634-1.866-3.706-.25-.07-1.076-.143-.933.32.143.464 1.72 3.172 1.434 3.172s-1.758-.285-2.01-.534c-.25-.25-1.578-3.492-1.865-3.527-.288-.035-.898.286-.826.714s1.364 2.744 1.04 2.672c-.322-.07-1.793-.32-1.83-.5-.035-.177-1.47-3.17-1.72-3.313s-1.113.036-.898.428c.215.393 1.148 2.388 1.005 2.388s-3.515-.998-6.31397-2.423c-2.799-1.425-5.31-3.634-4.988-3.706s3.947.213 6.423-.714c2.47697-.926 4.95297-1.888 5.09597-2.174.144-.285-.287-.926-.395-.962-.107-.036-3.12-.962-3.76697-3.136-.646-2.173-.144-4.525-.538-4.81-.395-.285-2.404-1.14-3.41-4.24s.11-7.304-.107-7.59c-.215-.284-.562-.866-.91-.77-.36.098-1.53-2.33-1.578-4.61s.957-5.31999 1.196-5.31999c.24 0 6.64997 6.17599 10.04697 9.02699s7.368 5.797 9.712 6.177 3.3.475 4.4-1.758c1.1-2.234 2.297-7.697 3.972-10.215 1.674-2.518 5.12-5.36799 9.568-6.07999s7.798.522 9.568 2.992c1.77 2.46999 1.866 5.69999 2.296 5.98599.43.285 2.343.19 4.64-.618 2.296-.808 3.11-.998 3.253-.998.144 0-.526 1.473-2.01 2.708-1.482 1.235-2.535 2.09-2.535 2.66s.29.996.864.996zm-52.26697-6.912c-.18.927-.467 2.21.215 2.744.682.535 1.22 1.034.932 1.248-.23.17-1.004.213-1.83-.5-.824-.712-1.10999-2.138-.85999-3.172.251-1.033 1.72299-1.246 1.54299-.32zm17.07997 12.829c1.399.71 2.727 0 3.265.07.538.073-.323 1.213-1.902 1.213s-3.516-.82-4.556-1.782-.608-1.525-.18-1.675c.61-.214 1.973 1.46 3.373 2.174zm10.513-10.369c.717-1.248 2.224-2.245 2.582-2.138l.001.001c.359.106-.107.748-.574 1.32-.466.57-1.292 2.137-1.722 3.49-.431 1.355-.703 1.735-1.257 1.425-.824-.464.252-2.851.97-4.098z" fill="#fff" fill-rule="evenodd"/></mask><g clip-path="url(#a)"><g fill="#000"><path d="m62.468 17.5423s.86-1.473.957-2.328c.096-.855.096-1.853-.335-2.233s-2.153.238-3.54.665c-1.387.428-4.162.855-4.162.855s-1.722-5.08299-4.497-7.07999c-2.774-1.994-6.458-2.042-9.567-1.33-3.11.714-6.937 2.71-8.707 4.79999-1.77 2.09-3.3 6.27-3.827 7.933s-1.58 4.56-2.776 4.798-3.445-.618-5.358-1.805c-1.914-1.188-6.89-5.226-9.377-7.506-2.48697-2.28-6.02897-6.22299-7.17897-5.98499-1.147.238-2.487 4.36999-2.487 7.31599s2.63 5.796 2.63 5.796c-1.052 3.848-.43 6.556.575 8.55s3.205 3.327 3.205 3.327c-.287 1.33-.144 2.947.335 4.372.478 1.425 2.96597 3.23 2.96597 3.23s-1.48296 1.19-3.82696 1.854c-2.34401.665-6.793005-.048-7.272005.048-.478.095-.048 6.033-.048 6.89 0 .854.622 1.52 1.386995 2.09.765.57 6.937 3.657 15.59597 5.89 8.66 2.233 15.453.285 20.62-1.948s10.717-9.074 14.305-14.585c3.588-5.51 5.98-13.444 5.98-13.444s1.34-.713 3.253-2.138c1.914-1.425 2.63-3.848 2.68-5.32.05-1.475-1.53-2.71-1.53-2.71zm-4.306 3.183c.574 0 3.014-1.377 3.3-1.14.288.24-.717 2.09-2.487 3.137-1.77 1.045-3.11 1.568-3.445 1.473s-1.555-2.47-1.77-2.435c-.215.036-.79.5-.646.82s1.543 2.173 1.4 2.46c-.0009.0019-.0018.0037-.0028.0055-.1431.2804-.2146.4204-.4292.2425-.215-.178-1.543-2.993-1.902-3.064-.36-.072-.86.712-.646 1.068.215.356 1.973 2.637 1.938 2.993-.036.357-.43 1.996-.574 1.747-.144-.25-2.332-4.276-2.548-4.24-.215.036-.718.962-.61 1.247s2.655 3.99 2.655 4.31c0 .322-.753 1.925-1.005 1.64-.25-.285-2.476-5.024-2.69-5.024-.216 0-.826.784-.79.998s2.87 4.953 2.942 5.31c.072.355-.61 2.386-.86 2.244-.252-.143-2.55-5.88-2.836-5.915-.287-.036-.718.82-.61 1.176s2.8 5.452 2.835 5.88c.037.427-.43 1.175-.573 1.068-.144-.106-3.05-7.268-3.3-7.232-.252.036-.683.748-.432 1.568.25.82 3.193 6.164 3.23 6.592.035.428-.72 1.425-.826 1.247-.11-.178-3.194-6.984-3.48-6.912-.288.07-.683 1.14-.432 1.568.25.43 3.41 5.95 3.41 6.13s-.826 1.46-1.042 1.354c-.215-.107-2.87-6.414-3.158-6.378-.287.036-.825.677-.502 1.39s3.122 5.452 3.014 5.772-.86 1.39-1.005 1.14-2.978-6.7-3.3-6.7-1.113.714-.826 1.284c.286.57 3.48 6.2 3.336 6.342-.144.143-1.256 1.603-1.435 1.497-.178-.106-3.228-6.626-3.55-6.52-.324.108-.79.607-.54 1.07.252.463 3.41 5.986 3.338 6.164s-.86.89-1.076.64c-.215-.248-3.158-6.092-3.48-6.092-.324 0-1.006.926-.79 1.283.215.356 3.66 5.665 3.516 5.915s-1.22 1.176-1.363.998c-.144-.178-2.8-5.558-3.337-5.523-.538.036-.933.855-.682 1.14.25.285 2.942 4.81 2.942 4.81s-1.292.784-1.507.534c-.214-.25-2.403-5.203-2.618-5.203s-1.148.57-.754 1.14c.395.57 2.583 4.347 2.368 4.525s-.897.5-1.112.25-2.44-5.203-2.655-5.203-1.077.355-.862.712c.215.356 2.512 4.988 2.404 5.06-.108.07-1.543.5-1.722.32-.18-.177-2.117-4.31-2.44-4.31s-.646.5-.574.748c.072.25 2.117 3.813 2.01 3.884-.11.07-1.508.285-1.652.178s-1.973-4.383-2.26-4.454c-.288-.07-.934.5-.79.89.144.393 1.794 3.564 1.615 3.635-.18.07-1.4.143-1.58-.107s-1.65-3.706-1.973-3.777c-.323-.072-.897.106-.682.64s1.902 3.563 1.65 3.563-1.614 0-1.757-.107c-.144-.107-1.615-3.634-1.866-3.706-.25-.07-1.076-.143-.933.32.143.464 1.72 3.172 1.434 3.172s-1.758-.285-2.01-.534c-.25-.25-1.578-3.492-1.865-3.527-.288-.035-.898.286-.826.714s1.364 2.744 1.04 2.672c-.322-.07-1.793-.32-1.83-.5-.035-.177-1.47-3.17-1.72-3.313s-1.113.036-.898.428c.215.393 1.148 2.388 1.005 2.388s-3.515-.998-6.31397-2.423c-2.799-1.425-5.31-3.634-4.988-3.706s3.947.213 6.423-.714c2.47697-.926 4.95297-1.888 5.09597-2.174.144-.285-.287-.926-.395-.962-.107-.036-3.12-.962-3.76697-3.136-.646-2.173-.144-4.525-.538-4.81-.395-.285-2.404-1.14-3.41-4.24s.11-7.304-.107-7.59c-.215-.284-.562-.866-.91-.77-.36.098-1.53-2.33-1.578-4.61s.957-5.31999 1.196-5.31999c.24 0 6.64997 6.17599 10.04697 9.02699s7.368 5.797 9.712 6.177 3.3.475 4.4-1.758c1.1-2.234 2.297-7.697 3.972-10.215 1.674-2.518 5.12-5.36799 9.568-6.07999s7.798.522 9.568 2.992c1.77 2.46999 1.866 5.69999 2.296 5.98599.43.285 2.343.19 4.64-.618 2.296-.808 3.11-.998 3.253-.998.144 0-.526 1.473-2.01 2.708-1.482 1.235-2.535 2.09-2.535 2.66s.29.996.864.996zm-52.05197-4.168c-.682-.534-.395-1.817-.215-2.744.18-.926-1.29199-.713-1.54299.32-.25 1.034.03599 2.46.85999 3.172.826.713 1.6.67 1.83.5.288-.214-.25-.713-.932-1.248zm20.12997 10.155c-.538-.07-1.866.64-3.265-.07-1.4-.714-2.763-2.388-3.373-2.174-.428.15-.86.713.18 1.675s2.977 1.782 4.556 1.782 2.44-1.14 1.902-1.213zm9.83-12.577c-.358-.107-1.865.89-2.582 2.138-.718 1.247-1.794 3.634-.97 4.098.554.31.826-.07 1.257-1.425.43-1.353 1.256-2.92 1.722-3.49.467-.572.933-1.214.574-1.32z"/><path clip-rule="evenodd" d="m58.162 20.7253c.574 0 3.014-1.377 3.3-1.14.288.24-.717 2.09-2.487 3.137-1.77 1.045-3.11 1.568-3.445 1.473s-1.555-2.47-1.77-2.435c-.215.036-.79.5-.646.82s1.543 2.173 1.4 2.46l-.0028.0055c-.1431.2804-.2146.4204-.4292.2425-.215-.178-1.543-2.993-1.902-3.064-.36-.072-.86.712-.646 1.068.215.356 1.973 2.637 1.938 2.993-.036.357-.43 1.996-.574 1.747-.144-.25-2.332-4.276-2.548-4.24-.215.036-.718.962-.61 1.247s2.655 3.99 2.655 4.31c0 .322-.753 1.925-1.005 1.64-.25-.285-2.476-5.024-2.69-5.024-.216 0-.826.784-.79.998s2.87 4.953 2.942 5.31c.072.355-.61 2.386-.86 2.244-.252-.143-2.55-5.88-2.836-5.915-.287-.036-.718.82-.61 1.176s2.8 5.452 2.835 5.88c.037.427-.43 1.175-.573 1.068-.144-.106-3.05-7.268-3.3-7.232-.252.036-.683.748-.432 1.568.25.82 3.193 6.164 3.23 6.592.035.428-.72 1.425-.826 1.247-.11-.178-3.194-6.984-3.48-6.912-.288.07-.683 1.14-.432 1.568.25.43 3.41 5.95 3.41 6.13s-.826 1.46-1.042 1.354c-.215-.107-2.87-6.414-3.158-6.378-.287.036-.825.677-.502 1.39s3.122 5.452 3.014 5.772-.86 1.39-1.005 1.14-2.978-6.7-3.3-6.7-1.113.714-.826 1.284c.286.57 3.48 6.2 3.336 6.342-.144.143-1.256 1.603-1.435 1.497-.178-.106-3.228-6.626-3.55-6.52-.324.108-.79.607-.54 1.07.252.463 3.41 5.986 3.338 6.164s-.86.89-1.076.64c-.215-.248-3.158-6.092-3.48-6.092-.324 0-1.006.926-.79 1.283.215.356 3.66 5.665 3.516 5.915s-1.22 1.176-1.363.998c-.144-.178-2.8-5.558-3.337-5.523-.538.036-.933.855-.682 1.14.25.285 2.942 4.81 2.942 4.81s-1.292.784-1.507.534c-.214-.25-2.403-5.203-2.618-5.203s-1.148.57-.754 1.14c.395.57 2.583 4.347 2.368 4.525s-.897.5-1.112.25-2.44-5.203-2.655-5.203-1.077.355-.862.712c.215.356 2.512 4.988 2.404 5.06-.108.07-1.543.5-1.722.32-.18-.177-2.117-4.31-2.44-4.31s-.646.5-.574.748c.072.25 2.117 3.813 2.01 3.884-.11.07-1.508.285-1.652.178s-1.973-4.383-2.26-4.454c-.288-.07-.934.5-.79.89.144.393 1.794 3.564 1.615 3.635-.18.07-1.4.143-1.58-.107s-1.65-3.706-1.973-3.777c-.323-.072-.897.106-.682.64s1.902 3.563 1.65 3.563-1.614 0-1.757-.107c-.144-.107-1.615-3.634-1.866-3.706-.25-.07-1.076-.143-.933.32.143.464 1.72 3.172 1.434 3.172s-1.758-.285-2.01-.534c-.25-.25-1.578-3.492-1.865-3.527-.288-.035-.898.286-.826.714s1.364 2.744 1.04 2.672c-.322-.07-1.793-.32-1.83-.5-.035-.177-1.47-3.17-1.72-3.313s-1.113.036-.898.428c.215.393 1.148 2.388 1.005 2.388s-3.515-.998-6.31397-2.423c-2.799-1.425-5.31-3.634-4.988-3.706s3.947.213 6.423-.714c2.47697-.926 4.95297-1.888 5.09597-2.174.144-.285-.287-.926-.395-.962-.107-.036-3.12-.962-3.76697-3.136-.646-2.173-.144-4.525-.538-4.81-.395-.285-2.404-1.14-3.41-4.24s.11-7.304-.107-7.59c-.215-.284-.562-.866-.91-.77-.36.098-1.53-2.33-1.578-4.61s.957-5.31999 1.196-5.31999c.24 0 6.64997 6.17599 10.04697 9.02699s7.368 5.797 9.712 6.177 3.3.475 4.4-1.758c1.1-2.234 2.297-7.697 3.972-10.215 1.674-2.518 5.12-5.36799 9.568-6.07999s7.798.522 9.568 2.992c1.77 2.46999 1.866 5.69999 2.296 5.98599.43.285 2.343.19 4.64-.618 2.296-.808 3.11-.998 3.253-.998.144 0-.526 1.473-2.01 2.708-1.482 1.235-2.535 2.09-2.535 2.66s.29.996.864.996zm-52.26697-6.912c-.18.927-.467 2.21.215 2.744.682.535 1.22 1.034.932 1.248-.23.17-1.004.213-1.83-.5-.824-.712-1.10999-2.138-.85999-3.172.251-1.033 1.72299-1.246 1.54299-.32zm17.07997 12.829c1.399.71 2.727 0 3.265.07.538.073-.323 1.213-1.902 1.213s-3.516-.82-4.556-1.782-.608-1.525-.18-1.675c.61-.214 1.973 1.46 3.373 2.174zm10.513-10.369c.717-1.248 2.224-2.245 2.582-2.138l.001.001c.359.106-.107.748-.574 1.32-.466.57-1.292 2.137-1.722 3.49-.431 1.355-.703 1.735-1.257 1.425-.824-.464.252-2.851.97-4.098z" fill-rule="evenodd"/><path d="m58.162 20.7253v-.5h-.309l-.1382.2764zm3.3-1.14.3201-.3841-.001-.0009zm-2.487 3.137.2542.4306.0004-.0002zm-5.215-.962-.0803-.4935-.0022.0004zm.322 3.528.3191-.385-.0002-.0001zm-1.902-3.064-.098.4903.001.0002zm-.646 1.068-.4285.2576.0005.0009zm1.938 2.993.4975.0502.0001-.0013zm-.574 1.747-.4332.2496.0004.0007zm-2.548-4.24-.0822-.4932-.0003.0001zm1.04 7.197-.3758.3297.0013.0015zm-.538 1.284-.4901.0989.0001.0005zm-.86 2.244.247-.4348-.0002-.0001zm-2.836-5.915-.0622.4961.0015.0002zm2.225 7.056-.4983.0408.0002.0024zm-.573 1.068.2996-.4003-.0032-.0024zm-3.3-7.232.0707.495.0006-.0001zm-.432 1.568.4783-.1458-.0002-.0005zm3.23 6.592.4984-.0407-.0002-.0024zm-.826 1.247.4297-.2558-.0043-.007zm-3.48-6.912.1181.4859.004-.001zm-.432 1.568.4323-.2513-.001-.0016zm2.368 7.484-.2227.4476.0025.0013zm-3.158-6.378-.062-.4961h-.0002zm-2.619 2.886.4469-.2242-.0003-.0006zm3.336 6.342-.351-.356-.0013.0012zm-1.435 1.497-.2558.4296.0011.0006zm-3.55-6.52-.1563-.4749-.0018.0006zm-.54 1.07-.4399.2376.0008.0014zm2.262 6.804.3784-.3269-.0006-.0006zm-4.27-4.809.428-.2585-.0002-.0003zm2.153 6.913.3898-.3131-.001-.0014zm-3.337-5.523-.0325-.4989h-.0008zm-.682 1.14.3759-.3297-.0006-.0007zm2.942 4.81.2594.4275.4238-.2572-.2535-.4259zm-1.507.534-.3798.3252.0007.0008zm-3.372-4.063-.4113.2843.0004.0005zm-2.261.284-.4283.258.0003.0005zm2.404 5.06.272.4196.0054-.0036zm-1.722.32.3546-.3526-.004-.0039zm-3.014-3.562.4805-.1384-.0003-.001zm2.01 3.884.2685.4219.008-.0053zm-3.912-4.276.1201-.4854-.002-.0004zm-.79.89.4695-.172-.0004-.0012zm1.615 3.635.1813.466.0031-.0012zm-3.553-3.884-.1088.488.0015.0004zm-.789 4.096.2996-.4003-.0014-.001zm-1.866-3.706.1379-.4806-.0031-.0009zm-.933.32.4779-.1472-.0001-.0003zm-.576 2.638-.3535.3536.0021.0021zm-1.865-3.527.0606-.4963h-.0002zm.214 3.386.1085-.4881-.0023-.0005zm-1.83-.5-.4905.097.0008.0037zm-2.618-2.885.4387-.24-.0003-.0004zm-3.87397-4.455-.17508-.4683-.00023.0001zm5.09597-2.174-.4462-.2255-.001.0019zm-.395-.962-.1594.4739.0013.0005zm-3.76697-3.136-.47927.1425.00005.0001zm-.538-4.81.29305-.4051-.00049-.0004zm-3.517-11.83-.39864.3018.00032.0004zm-.91-.77.13134.4825.00163-.0005zm23.77697 3.516.4486.221v-.0001zm3.972-10.215.4163.2769.0001-.0001zm21.432 2.898-.2769.4163.0007.0005zm4.64-.618.166.4717zm1.243 1.71-.3198-.3843-.0003.0002zm-1.671 3.656v.5h.3091l.1381-.2764zm-52.05097-4.17.30861-.3934-.00036-.0003zm-.215-2.744-.49081-.0954-.00002.0001zm-1.54299.32-.48587-.118-.00013.0005zm.85999 3.172-.3269.3783.00019.0002zm1.83.5.2972.4021.00102-.0008zm19.19797 8.907.0673-.4955-.0028-.0003zm-3.265-.07-.2271.4454.0009.0005zm-3.373-2.174.1654.4719.0002-.0001zm16.468-10.333.3536-.3535-.0893-.0894-.1211-.0361zm-2.582 2.138.4333.2495.0003-.0004zm-.97 4.098-.2453.4357.0012.0006zm1.257-1.425.4765.1516v-.0001zm1.722-3.49.3871.3165.0002-.0003zm.574-1.32-.3535.3536.0899.0899.122.036zm22.091 7.089c.1501 0 .3107-.0409.4405-.0804.1416-.0431.2999-.1017.4626-.1667.324-.1294.7034-.2994 1.0557-.4539.3614-.1584.6929-.3.9486-.3881.1298-.0448.2182-.0679.2699-.076.0263-.0041.0234-.0011.0015-.003-.0157-.0014-.1051-.0101-.1978-.0869l.6381-.77c-.1284-.1064-.2705-.1321-.3536-.1394-.0893-.0077-.1745.0006-.2435.0114-.1387.0218-.2923.0674-.4404.1184-.3002.1035-.6682.2617-1.0244.4178-.3652.1602-.7212.3197-1.0251.441-.1512.0605-.28.1075-.3828.1388-.1146.0349-.1559.037-.1493.037zm2.9799-1.2559c-.0738-.0615-.1067-.1332-.1201-.1783-.0066-.0221-.0091-.0394-.0101-.0498-.001-.0106-.0008-.0167-.0007-.0175 0-.0007-.0006.0105-.0066.036-.0058.0248-.0154.0576-.0304.0987-.0619.17-.1911.4172-.3933.7059-.4025.5749-1.0461 1.246-1.8602 1.7276l.5091.8607c.9559-.5655 1.6998-1.3428 2.1703-2.0147.2343-.3347.4129-.6604.5138-.9375.0494-.1357.0897-.2854.0963-.4321.0056-.1258-.0089-.3847-.2279-.5672zm-2.4211 2.3224c-.8707.514-1.6272.8946-2.1989 1.133-.2869.1197-.5174.1995-.6868.2434-.0848.022-.145.0326-.1834.0365-.0466.0046-.0316-.0036.0147.0096l-.2728.962c.1301.0369.2602.0332.358.0233.1059-.0106.2192-.0335.3347-.0634.2314-.0601.5094-.1586.8206-.2884.6246-.2606 1.4231-.664 2.3223-1.1949zm-3.0544 1.4225c.0436.0123.0732.0286.0868.0367.0145.0088.0222.0151.0224.0153.0006.0005-.0024-.0019-.0091-.0086-.0066-.0066-.0154-.0158-.0264-.0282-.0467-.0525-.1098-.1345-.1881-.2464-.1556-.2223-.3389-.5149-.5273-.818-.1839-.2958-.3742-.6041-.5317-.8346-.0777-.1136-.1584-.2248-.2342-.3106-.0365-.0412-.0873-.0945-.1487-.1402-.0323-.024-.1986-.1506-.4304-.1129l.1607.987c-.1129.0184-.2009-.0087-.244-.026-.0445-.0179-.073-.0382-.0832-.0458-.0197-.0147-.0219-.0204-.0038.0001.0333.0377.0858.1071.158.2127.1421.2079.3181.4928.508.7982.1854.2982.3833.6149.5574.8636.0865.1236.1754.2424.2603.3378.0424.0476.0916.0983.146.1432.0467.0386.1348.1048.2545.1387zm-1.9889-2.4471c-.1579.0264-.3045.1085-.403.173-.113.0739-.2305.1698-.3344.2791-.1011.1063-.2093.2461-.2778.4111-.0693.1667-.1158.4073-.0042.6551l.9119-.4104c.0395.0879.011.1505.0157.139.0055-.0131.0275-.0516.079-.1057.0487-.0513.1063-.0981.1571-.1313.0251-.0164.0436-.0263.0538-.031.0141-.0066.0012.0016-.033.0073zm-1.0194 1.5183c.0577.1283.2042.3487.3398.5517.1522.2276.3318.4919.5043.7577.1735.2672.3282.5186.4295.7146.0517.0998.0801.1677.0923.2063.0062.0195.0029.0153.0012-.0058-.0013-.0146-.0073-.095.0413-.1927l.8951.446c.0665-.1335.0662-.2621.0602-.3355-.0066-.0799-.0254-.1536-.0441-.2129-.0375-.1189-.096-.2454-.1577-.3647-.1252-.2421-.3025-.5278-.4789-.7997-.1774-.2733-.3655-.5502-.5118-.769-.0743-.1112-.1372-.2065-.1853-.2826-.024-.038-.0427-.0686-.0565-.0924-.0151-.0261-.019-.0347-.0175-.0314zm1.7428 2.1177c.0417.0345.0563.0613.0358.0324-.0122-.0171-.0309-.0456-.0569-.088-.0516-.0844-.1181-.2013-.1976-.3451-.165-.2985-.3474-.6421-.5589-1.0271-.2024-.3682-.416-.7457-.6046-1.0383-.0935-.145-.1892-.2824-.2808-.3908-.0455-.0538-.0993-.1118-.1598-.1621-.0504-.0419-.1549-.1215-.3011-.1504l-.194.981c-.0564-.0111-.0953-.0309-.1135-.0412-.0194-.011-.03-.0199-.0312-.0209-.0015-.0012.0102.0088.0358.0391.0506.0598.1192.1554.2041.2871.168.2607.3672.6114.5686.978.1922.3499.4046.7479.5602 1.0295.0809.1463.1562.279.2198.383.0316.0516.0638.1019.0949.1457.0227.032.0729.1016.1415.1583zm-2.1228-3.1692c-.2863-.0572-.5286.0652-.6763.1733-.1573.1151-.2879.2702-.3852.4274-.0978.158-.1787.3453-.2144.5404-.0344.1883-.0363.4426.1033.6748l.8571-.5152c.0326.0542.013.077.0233.0204.0091-.0497.0356-.1207.0811-.1942.0459-.0742.0944-.124.1255-.1467.0406-.0298-.0043.0217-.1105.0004zm-1.1721 1.8168c.0674.1116.2349.344.421.6019.1954.2706.4318.597.6603.9231.2295.3275.4449.6461.5993.9008.0778.1284.1337.2302.1676.3032.0171.0368.0239.0564.0257.062.0048.016-.0129-.0295-.0055-.1054l.9952.0978c.0119-.1204-.0155-.2254-.0327-.2822-.0203-.067-.0478-.1332-.0758-.1936-.0564-.1213-.1338-.2589-.2192-.3999-.1722-.2842-.4032-.6249-.6357-.9566-.2334-.3332-.4746-.6661-.6683-.9344-.2028-.2811-.3358-.4673-.3759-.5337zm1.8686 2.6843c-.0135.1332-.1109.5977-.2298 1.0135-.0594.2078-.1146.3687-.1548.4552-.0291.0626-.0198.0189.0421-.0357.033-.029.1657-.1349.3683-.1051.2084.0305.3058.1764.3305.219l-.8657.5006c.0426.0738.16.236.39.2697.2242.033.3802-.0829.4378-.1337.1112-.0979.1751-.2316.2038-.2932.0753-.1619.1479-.3865.2095-.6019.1231-.4307.2406-.9641.2632-1.188zm.3567 1.5476c-.0335-.058-.192-.3472-.4246-.7661-.2292-.4129-.5242-.9407-.8218-1.4601-.2968-.518-.5994-1.0334-.8432-1.4191-.1208-.1912-.2334-.3605-.3269-.4845-.0451-.0599-.097-.1243-.1509-.1775-.0257-.0254-.0677-.0641-.1224-.0984-.035-.022-.1785-.1104-.3737-.0779l.1644.9864c-.1817.0303-.3078-.0525-.3218-.0613-.0189-.0118-.0317-.0221-.038-.0273-.0067-.0056-.0105-.0093-.011-.0098-.0007-.0007.004.004.0149.0169.0103.0124.0237.0291.0401.0509.0681.0903.163.2316.2799.4166.2318.3669.5257.8669.8209 1.3821.2944.5138.5869 1.0372.8152 1.4484.2249.4051.3938.7129.4324.7799zm-3.0638-4.4835c-.164.0274-.2809.119-.3357.1661-.0673.0578-.1265.1249-.1761.188-.1002.1275-.1965.2843-.2768.4412-.0803.1568-.1544.3326-.2012.5012-.0234.0843-.043.1779-.05.2733-.0065.0897-.0047.2169.0448.3475l.9351-.3544c.0225.0594.0164.0953.0175.0796.0007-.0099.0043-.0357.0163-.0788.0239-.0863.0687-.1977.1275-.3125s.1218-.214.1731-.2792c.0121-.0155.0223-.0273.0302-.0359.0081-.0088.012-.0121.0114-.0116-.0005.0004-.0029.0025-.0073.0057-.0043.0031-.0116.0081-.0219.014-.0179.0102-.0598.0317-.1218.042zm-.995 1.9173c.0229.0604.0591.1245.0814.1634.0286.0499.0649.1099.1061.1765.0827.1337.1934.3065.3207.5032.2521.3896.5872.8996.9079 1.3938.325.5007.643.9971.8792 1.3867.1185.1956.2124.3577.2753.477.0318.0604.0514.1018.0618.1267.0053.0125.0052.0139.0031.0068 0-.0001-.013-.0405-.013-.1013h1c0-.0808-.0179-.1478-.0276-.1807-.0117-.0399-.0261-.0776-.0395-.1098-.027-.0646-.0622-.1359-.1002-.2081-.0768-.1457-.1828-.3277-.3047-.5289-.2448-.404-.5703-.9116-.8956-1.4128-.3294-.5077-.6513-.9973-.9072-1.3927-.1267-.1957-.2327-.3615-.3099-.4863-.0388-.0626-.0684-.1117-.0889-.1476-.0269-.0468-.0232-.0451-.0138-.0203zm2.6225 4.1328c0-.0332.0053-.0292-.0137.0378-.0155.0544-.0402.1268-.0737.2127-.0669.1716-.1601.3744-.2601.5588-.1042.1923-.1985.3324-.2621.4014-.0381.0415-.0244.0122.0408-.0128.0405-.0156.1173-.0354.2138-.0163.1024.0203.1781.0746.2246.1272l-.7491.6624c.0779.0882.1891.1634.3302.1914.1352.0268.254.0015.3393-.0313.1545-.0594.2684-.1697.3363-.2435.1486-.1614.2897-.3887.4053-.6019.1198-.2209.2305-.4615.3127-.672.041-.1052.0771-.2087.1038-.3024.0231-.0813.0519-.1977.0519-.3115zm-.1291 1.3103c.0184.021.0163.0234-.0157-.0301-.0251-.042-.0582-.1008-.0994-.1766-.082-.151-.188-.3548-.3111-.5961-.2464-.4829-.5527-1.0979-.8616-1.7112-.3071-.6099-.6162-1.2173-.8628-1.6732-.1226-.2267-.2344-.4246-.3252-.5691-.0443-.0703-.0917-.1411-.1385-.1991-.0223-.0276-.0567-.0676-.1008-.1053-.0222-.019-.0579-.047-.1056-.0722-.0443-.0234-.1306-.0614-.2452-.0614v1c-.1079 0-.1864-.0356-.2221-.0545-.0391-.0207-.0653-.0419-.077-.0519-.023-.0197-.0327-.0331-.0269-.0259.0093.0116.0319.0429.0695.1027.0729.1158.1721.2903.2922.5124.2387.4415.5419 1.0367.8493 1.6472.3056.607.6161 1.2302.864 1.7161.124.243.2347.4562.3231.6189.044.0811.0845.1533.1196.2121.0283.0472.0728.12.1225.1766zm-3.0659-5.1943c-.1609 0-.2879.0662-.3503.1028-.0748.0438-.1429.0976-.2003.1483-.116.1024-.2319.2313-.332.3588-.1004.1277-.1976.2703-.2702.4058-.036.0672-.0719.1436-.0978.2231-.0216.0663-.0572.1952-.0324.3422l.9861-.1659c.0157.0934-.0086.151-.0029.1335.0014-.0044.0089-.0243.0284-.0607.0385-.0717.1005-.1653.1751-.2602.0749-.0953.1497-.1758.2077-.2271.0296-.0261.0443-.0353.0441-.0351-.0007.0003-.0121.0071-.0331.0146-.0196.0069-.0627.0199-.1224.0199zm-1.283 1.581c.0119.0708.0381.1309.0436.144.0116.0275.0251.0563.0384.0835.027.0552.0629.1239.1045.2013.0838.1558.1999.3638.3362.6044.2729.4818.6342 1.1077.9943 1.7344.3612.6283.7216 1.2578.9959 1.7519.1374.2475.2511.4573.3319.6144.0406.0789.0706.1401.0906.1839.0276.0607.018.0502.0095.0081l.9803-.1977c-.0175-.0868-.0577-.1762-.0795-.2242-.0295-.065-.0678-.1424-.1117-.2276-.0881-.1712-.2078-.3919-.3468-.6423-.2784-.5015-.6423-1.1371-1.0032-1.7649-.3618-.6295-.7203-1.2507-.9912-1.7289-.1355-.2393-.2472-.4394-.3256-.5851-.0395-.0734-.0682-.1289-.0868-.1668-.0094-.0193-.0139-.0293-.0151-.0323-.0073-.0174.0111.0205.0208.078zm2.945 5.3264c-.0091-.0451.0002-.0476-.0113.0368-.0092.0667-.0269.1569-.0534.2664-.0529.2179-.1336.4832-.2249.7361-.0925.2566-.1883.4795-.2673.6213-.0426.0765-.0627.0972-.0558.0902.0024-.0024.0408-.0424.1156-.0711.0926-.0354.2355-.0486.3741.0301l-.4939.8696c.1698.0964.3473.084.4773.0343.1123-.043.1909-.1125.2357-.1575.0918-.0922.1654-.2097.2208-.3092.117-.2101.234-.4905.3342-.7684.1015-.2814.1934-.5816.256-.8398.0312-.1287.0569-.2543.0723-.366.0129-.0941.0278-.2377.0007-.3716zm-.1232 1.7097c.0507.0288.0824.0595.0936.0707.0138.0139.0221.0243.0243.0271.0042.0053.0014.0024-.0092-.0148-.0206-.0334-.0515-.089-.093-.1701-.0822-.1602-.19-.3878-.317-.6655-.2534-.5544-.5711-1.2811-.8932-2.0121-.3204-.7273-.6452-1.4588-.9085-2.0115-.131-.275-.2513-.5154-.3508-.6915-.0488-.0863-.1001-.1708-.1511-.2395-.0247-.0334-.0599-.0775-.1042-.1189-.0257-.024-.1366-.1287-.3129-.1503l-.1215.9926c-.1584-.0194-.2475-.1108-.2477-.111-.0189-.0176-.0249-.0275-.017-.0169.0142.0192.0418.0617.0838.1359.0818.1449.19.3596.3186.6296.2559.5373.5749 1.2555.8962 1.9847.3197.7255.6417 1.4621.8989 2.0247.1283.2807.2437.5251.3366.7061.0459.0895.0905.172.1314.2383.0202.0327.0446.0701.0723.1055.0157.0201.0766.0998.1769.1567zm-3.0205-5.9762c-.321-.0403-.553.1647-.6511.2648-.1249.1275-.2294.2884-.3093.4443-.0812.1586-.1497.3368-.1899.5124-.037.1617-.0648.3835-.0004.5958l.9569-.2903c.0104.0343-.0041.0156.0183-.0823.0192-.0839.0562-.1841.1051-.2796.0503-.0981.1006-.1667.1338-.2007.0165-.0168.0158-.0117-.0049-.0007-.0207.0109-.0869.0406-.183.0285zm-1.1507 1.8173c.0276.0911.104.2528.1794.4093.0858.1779.2014.4108.3357.6784.2677.5338.6181 1.2228.9616 1.905.3454.6858.6864 1.3698.9428 1.9079.1285.2697.2335.4979.3066.6694.0367.0861.063.1525.0798.1997.0229.0644.013.0524.0092.0059l.9967-.0815c-.0082-.1001-.0432-.202-.0637-.2595-.0265-.0746-.0617-.162-.1022-.2568-.0812-.1906-.1931-.4335-.3236-.7073-.2616-.5489-.6069-1.2414-.9524-1.9276-.3474-.6898-.6924-1.3683-.9609-1.9035-.1339-.2668-.2466-.4939-.3288-.6644-.0926-.192-.1239-.2675-.1233-.2653zm2.8153 5.778c.0013.0147-.0013.0703-.0322.1675-.0288.0907-.0729.1884-.1226.2751-.0522.0912-.0961.145-.1141.1626-.0123.012.0106-.0152.0681-.0393.0628-.0262.2471-.0749.4255.0586l-.5991.8006c.2141.1602.4443.1116.5598.0633.1103-.0462.1929-.1176.2439-.1673.1086-.106.2059-.2457.2837-.3816.0804-.1403.155-.3029.2079-.4693.0507-.1598.0926-.3578.0754-.5566zm.2215.6221c.0411.0303.0674.0597.0775.0713.0125.0144.0211.0262.0253.0322.0083.0117.0124.0189.0112.0169-.0019-.0033-.0087-.0155-.0216-.0411-.0249-.0496-.0605-.1251-.1066-.2264-.0916-.2013-.2163-.4858-.3645-.8285-.2977-.6884-.6782-1.583-1.0688-2.4889-.3879-.8997-.7814-1.8005-1.0944-2.4753-.1559-.336-.2956-.6242-.4065-.8304-.0543-.1009-.1091-.1959-.1605-.2701-.0241-.0347-.0607-.0843-.1076-.1299-.023-.0224-.0642-.0596-.1222-.092-.0531-.0297-.1723-.0845-.3289-.062l.1425.9898c-.1488.0214-.2589-.031-.3016-.0549-.0476-.0267-.0773-.0546-.0874-.0645-.0212-.0206-.0273-.0321-.0164-.0163.0187.0269.0521.0821.1015.1739.0964.179.2259.4452.3799.7772.3067.6612.6955 1.5509 1.0833 2.4504.3852.8933.7739 1.8069 1.0693 2.49.1484.3432.2763.6352.3722.8458.0476.1046.0894.1938.123.2608.0165.0327.0342.0666.0517.0967.0086.0146.0211.0352.0366.0571.0056.0079.0478.0703.1202.1236zm-3.6671-7.3243c-.2457.0351-.4214.2008-.5194.3161-.1145.1347-.2112.3045-.2821.4919-.1427.3771-.1992.8742-.0379 1.4014l.9562-.2927c-.0896-.2928-.0561-.5618.0169-.7547.037-.0976.0796-.1638.1089-.1983.0459-.054.0186.0092-.1012.0263zm-.8395 2.2088c.0778.2553.3332.7883.636 1.3936.3135.6267.7077 1.3884 1.093 2.1333.3864.7471.7635 1.4769 1.0463 2.0464.1416.2853.2571.5253.3374.7048.0405.0902.0694.1595.0879.2086.0258.0684.0139.0537.0095.0026l.9963-.0862c-.0091-.1046-.0483-.2112-.0698-.2685-.0288-.0766-.0671-.1668-.1112-.2653-.0886-.1978-.2111-.452-.3545-.7407-.2872-.5785-.6684-1.3162-1.0537-2.0611-.3863-.7471-.777-1.5019-1.0868-2.1212-.3205-.6407-.5267-1.0832-.5739-1.2379zm3.2099 6.487c-.002-.0245.0027.021-.0574.1554-.0517.1155-.1287.2467-.2131.3666-.087.1234-.1646.2103-.2093.2497-.0296.0262-.0102.0009.0501-.0208.0323-.0117.1185-.0377.2315-.0141.1341.0281.2397.1121.3001.2136l-.8592.5116c.0737.1238.1977.2209.3545.2537.1356.0283.2488-.0013.3119-.024.1217-.0438.2173-.1212.2728-.1701.1256-.1109.2544-.2666.3651-.4237.1131-.1606.225-.3478.3083-.534.0749-.1674.1609-.407.1414-.6454zm.0977.9434c.0106.0172.0064.0116-.0289-.0618-.0277-.0575-.0658-.1379-.1133-.2391-.0951-.2023-.2253-.4815-.38-.813-.3092-.6621-.7148-1.5292-1.1261-2.3889-.4108-.8584-.8298-1.7149-1.1654-2.3542-.1669-.318-.3182-.5919-.4402-.7876-.0594-.0954-.1217-.1882-.1825-.2611-.0286-.0342-.0737-.0847-.1323-.1291-.0268-.0203-.2084-.1623-.4587-.0993l.2441.9698c-.1245.0313-.2271.0056-.2823-.0152-.0549-.0206-.0914-.0464-.1068-.0581-.0301-.0228-.0416-.0392-.0319-.0275.0159.019.0492.0652.1017.1494.1019.1634.2393.4108.4035.7235.3265.6221.739 1.4647 1.1487 2.3211.4092.855.813 1.7184 1.122 2.3802.1543.3304.2854.6116.3811.8153.0479.1018.0876.1858.1174.2476.022.0457.0548.1142.0792.1537zm-4.0235-7.135c-.158.0384-.2722.1295-.3418.1971-.0749.0727-.1369.1564-.1874.2365-.1014.1609-.1863.3558-.2479.5524-.0618.1972-.107.4176-.1153.6328-.0079.2044.0151.4627.1472.6879l.8626-.5058c.0067.0113-.0151-.0248-.0105-.1435.0041-.1081.0286-.2397.0702-.3723.0418-.1332.0939-.2456.1398-.3184.0108-.0173.0201-.0303.0274-.0396.0074-.0095.0112-.0132.0107-.0127-.0001.0001-.0082.008-.0248.0185-.0165.0104-.0481.0276-.094.0388zm-.7461 2.3051c.1234.2124.9747 1.6977 1.7955 3.1531.4103.7276.8118 1.4455 1.1103 1.992.1495.2738.2715.5015.3555.6648.0424.0824.0725.1435.0912.1841.0045.0097.0078.0172.0102.0228.0025.0059.0034.0081.0031.0075-.0001-.0004-.0008-.0023-.0019-.0055-.0011-.003-.0029-.0087-.0051-.0165-.001-.0035-.0166-.0543-.0166-.1236h1c0-.0749-.0171-.1339-.0211-.1482-.007-.0249-.0148-.0465-.0206-.0618-.0118-.031-.0261-.0634-.0396-.0928-.0278-.0603-.0657-.1366-.1103-.2233-.0898-.1746-.2166-.4111-.3672-.6868-.3018-.5526-.706-1.2753-1.1169-2.0039-.8218-1.4572-1.6755-2.9468-1.802-3.1645zm3.3422 5.8787c0-.0389.0052-.0675.0077-.0799.0029-.014.0057-.0229.0064-.0252.0013-.0041 0 .0008-.0072.0171-.0142.032-.039.0811-.0751.1453-.0714.127-.1719.2858-.2796.4377-.11.155-.2148.2849-.2939.3641-.0422.0422-.0567.0492-.0452.0425.0062-.0036.0392-.0226.0938-.0336.0584-.0117.1607-.0172.2714.0371l-.4405.8978c.2703.1327.5126.0013.5788-.0372.0979-.0571.1834-.1341.2491-.1998.1365-.1367.2786-.3182.4022-.4924.1258-.1774.2453-.3656.3355-.5259.0447-.0795.0861-.1591.118-.2311.0158-.0358.0324-.0767.0459-.1193.0104-.0328.0327-.1075.0327-.1972zm-.3192.9064c.0714.0355.1138.0793.1235.0892.0155.0158.0244.0278.0261.03.0036.0048.0001.0006-.0117-.019-.0226-.0376-.0562-.0991-.1014-.1872-.0894-.1741-.2087-.4222-.3501-.7242-.2825-.6033-.6414-1.3959-1.0062-2.1921-.3631-.7923-.7318-1.5876-1.0287-2.1837-.1476-.2964-.2825-.5538-.3929-.7395-.0538-.0905-.1111-.1799-.168-.2513-.0271-.034-.069-.0828-.1235-.1268-.0289-.0234-.1834-.1502-.4099-.1219l.1241.9922c-.2086.0261-.3404-.0906-.3424-.0922-.0275-.0223-.0381-.0377-.0299-.0274.0137.0171.0432.0596.09.1383.0907.1527.2122.383.3574.6744.2887.5797.6511 1.3612 1.0147 2.1545.3617.7894.7249 1.5914 1.0097 2.1996.1422.3038.2679.5657.366.7568.0485.0945.0942.1795.1343.246.0195.0325.0432.0698.0694.1047.0131.0173.0322.0415.0568.0667.0187.0191.0691.0693.1472.1081zm-3.443-6.4265c-.214.0268-.393.146-.5151.2547-.1335.1188-.2552.2745-.3475.4546-.1872.3656-.2673.8651-.0326 1.3831l.9109-.4126c-.0884-.195-.061-.3725.0118-.5147.0378-.0737.0842-.1296.1222-.1633.0494-.044.0452-.0184-.0252-.0096zm-.8952 2.0924c.1724.3807.9748 1.7822 1.6865 3.0691.363.6563.7089 1.2938.9565 1.7851.1245.2469.2195.4478.2791.5919.0304.0734.0464.12.0532.1443.0036.0126.0013.0076-.0007-.0096-.0006-.0051-.0112-.0793.0211-.175l.9475.3198c.039-.1156.0295-.2185.0247-.2604-.0063-.0539-.0182-.1038-.0294-.1437-.0225-.0805-.0558-.1693-.0923-.2575-.074-.1791-.1824-.4064-.3102-.66-.2569-.5096-.6108-1.1614-.9744-1.8189-.7415-1.3408-1.5002-2.6654-1.6507-2.9977zm2.9957 5.4058c.0001-.0002-.0023.0067-.0093.022-.0066.0147-.0158.0336-.0279.0566-.0243.0463-.0567.1026-.0958.1655-.0786.1263-.1763.2664-.2733.3884-.103.1296-.1826.2099-.2239.2413-.0286.0216.0082-.0159.0946-.0307.0527-.0091.1397-.012.2362.0296.1003.0432.1649.1147.2006.1764l-.865.5017c.0539.0929.1413.1853.2686.2402.1235.0532.2417.0526.329.0376.1557-.0268.2759-.1093.3399-.1578.1439-.109.2862-.2693.4028-.416.1226-.1542.2423-.326.3396-.4825.0905-.1455.1846-.3139.2314-.4525zm-.0988 1.0491c.004.0068-.0054-.0107-.0378-.0791-.0276-.0585-.0647-.1387-.1105-.2384-.0915-.1992-.2148-.4706-.3605-.791-.291-.6398-.6697-1.4715-1.0542-2.2958-.3838-.823-.776-1.6443-1.0938-2.2619-.1581-.3073-.3026-.5737-.4212-.7669-.0581-.0947-.1187-.1861-.178-.2591-.0287-.0352-.0697-.0819-.121-.1242-.0304-.0252-.1603-.1328-.3555-.1328v1c-.175 0-.2798-.095-.2807-.0957-.0217-.0179-.0284-.0283-.0186-.0163.0176.0217.051.069.1015.1512.0985.1605.2293.4.3843.7013.3085.5996.694 1.4064 1.0768 2.2271.3822.8195.759 1.6472 1.0501 2.2871.1453.3194.2696.5929.362.7943.0844.1837.1585.3439.1921.4019zm-3.7325-6.9492c-.23 0-.4417.1115-.5806.2031-.1584.1045-.3166.2465-.4494.4106-.2418.2988-.5219.8404-.2426 1.3952l.8932-.4497c-.0077-.0153-.0357-.1157.1267-.3164.0693-.0856.1513-.1578.2228-.205.0354-.0233.0613-.0359.075-.0414.018-.0072.0002.0036-.0451.0036zm-1.2729 2.0082c.1479.2947 1.0305 1.8676 1.8372 3.3467.4078.7476.7997 1.4774 1.08 2.0274.1408.2764.2495.4998.3177.655.0351.0798.0534.1281.0607.1511.0045.0142-.0013.0001-.005-.0303-.0018-.0144-.0061-.0548.001-.1084.0061-.0461.0294-.1704.1403-.2797l.7021.712c.1154-.1137.1415-.2451.1489-.3009.0084-.0633.0038-.1161.0002-.1453-.0074-.06-.023-.1139-.034-.1489-.0239-.0754-.0596-.1631-.0987-.2519-.08-.1822-.1994-.4263-.3422-.7067-.2871-.5633-.6846-1.3033-1.0931-2.0522-.8257-1.5139-1.6831-3.041-1.8213-3.3163zm3.4306 5.763c-.0599.0595-.1816.2096-.2942.347-.1275.1557-.282.3438-.4367.5234-.1571.1823-.3034.343-.4154.4486-.027.0255-.0494.0453-.0674.0601-.0088.0072-.0157.0126-.0209.0164s-.0075.0053-.007.005c.0002-.0002.0056-.0036.0155-.0083.0094-.0045.0286-.0131.0561-.0206.0447-.0122.1879-.0413.3421.05l-.5095.8604c.1765.1046.3494.0765.4302.0545.0856-.0234.1544-.0622.1978-.0894.0895-.0563.1763-.1318.2493-.2006.1514-.1429.3256-.3362.4869-.5235.1637-.1901.3254-.3871.4525-.5421.0643-.0785.1185-.1448.1614-.1961.049-.0589.066-.0773.064-.0752zm-.8268 1.4222c.0672.0401.1059.0861.1094.09.0061.007.0105.0125.0128.0155.0024.0031.0039.0052.0042.0057.0006.0008-.0009-.0013-.0047-.0072-.0036-.0057-.0085-.0136-.0147-.0239-.0259-.043-.0634-.1099-.1128-.202-.0979-.1824-.2306-.4407-.3884-.7526-.1575-.3112-.3379-.6716-.5312-1.0574-.193-.3853-.3986-.7953-.6054-1.2038-.4126-.8153-.8336-1.6316-1.173-2.2394-.1687-.3019-.3236-.564-.451-.7512-.0618-.0908-.1295-.1826-.1985-.2548-.0327-.0343-.0856-.0854-.1553-.1277-.0528-.0321-.2306-.1299-.4536-.0565l.3127.9498c-.2029.0668-.3552-.0247-.3777-.0383-.0392-.0238-.0566-.0444-.0493-.0367.0112.0117.0422.0492.095.1268.1017.1495.2392.3802.4046.6763.3286.5882.7416 1.3886 1.1539 2.2033.2058.4065.4105.8148.6035 1.2002.1929.3849.3744.7475.533 1.0609.1582.3125.2955.5802.3997.7742.0516.0962.0982.1801.1368.2442.0188.0313.04.0652.062.096.0108.0151.0265.0363.0461.0586.0117.0134.0574.0659.1302.1092zm-3.964-6.5647c-.2835.0945-.5685.3263-.748.6063-.1875.2925-.3131.7324-.0738 1.1756l.8799-.4751c-.0107-.0198-.0122-.0333-.0102-.0504.0028-.0229.0142-.061.0459-.1103.0314-.0491.0751-.0969.123-.1358.0501-.0406.0879-.0578.0994-.0616zm-.821 1.7833c.126.2315.9876 1.7444 1.7926 3.1928.4056.7298.7993 1.4473 1.0864 1.9922.1441.2734.2585.4979.3338.6569.0382.0809.0621.1359.0744.1681.0067.0176.0053.0162.002.0028-.0016-.0062-.0069-.0284-.0094-.0601-.0015-.0186-.0092-.1088.0338-.2152l.927.375c.0453-.112.0383-.2103.036-.2396-.0034-.0424-.0112-.0778-.0166-.0997-.011-.0448-.0261-.0873-.0387-.1201-.0261-.0685-.0629-.1508-.1046-.2389-.0847-.1789-.2072-.4187-.353-.6954-.2926-.5552-.6907-1.2807-1.097-2.0118-.819-1.4734-1.6624-2.9535-1.7884-3.185zm3.3136 5.7375c.0197-.0486.0383-.065.0153-.0363-.0148.0185-.0396.0465-.0745.0815-.0697.0701-.1614.1503-.2548.2181-.0998.0724-.1716.1087-.2044.1194-.016.0052.0085-.0062.0595-.0013.0633.0062.1543.0376.2248.1192l-.7567.6538c.2647.3063.6354.2269.7825.179.178-.0581.3482-.164.4814-.2606.1396-.1013.2718-.2169.3769-.3225.0525-.0528.1028-.1078.1457-.1613.0346-.0432.0937-.1208.1313-.214zm-.2347.5c.0219.0252.0211.0303-.0186-.0367-.0298-.0503-.0699-.1208-.1199-.2111-.0996-.1798-.2319-.4255-.3874-.7167-.3094-.5795-.7097-1.3374-1.1114-2.0839-.4018-.7466-.8104-1.492-1.1401-2.0526-.164-.2788-.314-.5214-.437-.6978-.0602-.0864-.1233-.1706-.185-.2379-.03-.0327-.0722-.0753-.1241-.1136-.034-.025-.1568-.1142-.3343-.1142v1c-.1573 0-.2548-.0777-.2588-.0807-.0219-.0161-.0292-.0258-.0199-.0157.0168.0184.0502.06.1017.1339.1005.1441.2349.3601.3954.633.3194.543.7203 1.274 1.1215 2.0194.4011.7455.797 1.4952 1.1099 2.0811.1557.2915.2911.5431.3948.7303.0517.0934.0972.1738.1343.2364.0272.0458.0746.1256.1233.1818zm-3.8578-6.2645c-.1529 0-.2818.0521-.3694.0984-.0927.049-.1767.1115-.2494.1748-.1453.1265-.2826.2888-.3947.4572-.1113.167-.2141.3641-.271.5659-.0514.1826-.0953.4777.0667.7455l.8556-.5176c.0541.0894.0144.1348.0402.0434.0204-.0722.0679-.1736.1406-.2827.0718-.1078.1523-.1992.2192-.2575.0335-.0292.0542-.0418.06-.0448.0109-.0058-.0258.0174-.0978.0174zm-1.218 2.0415c.1058.1751 1.0396 1.6219 1.8957 3.0023.4344.7003.8541 1.3919 1.1553 1.9217.1514.2663.2678.483.3407.6361.0373.0785.0565.1263.0641.1492.0042.0128-.0007.0015-.0042-.0251-.0019-.0138-.005-.044-.0017-.0842.0031-.0376.014-.1117.0609-.193l.8665.4991c.0924-.1605.0702-.3186.0656-.3532-.0081-.0614-.0242-.1167-.0374-.1566-.0272-.0826-.0675-.1748-.1109-.2661-.0888-.1864-.2196-.4283-.3743-.7004-.311-.5471-.7389-1.2519-1.1747-1.9546-.8842-1.4256-1.7803-2.8112-1.8896-2.9922zm3.5108 5.407c.004-.007-.0399.0528-.1678.1764-.111.1072-.2509.2299-.3905.3401-.1435.1132-.2689.199-.3536.2441-.0466.0248-.0506.0208-.0232.0153.0145-.0029.0648-.012.1341.0009.0783.0146.1813.0584.261.1576l-.7796.6263c.2038.2535.4971.2127.5827.1954.1141-.0231.2187-.0722.2954-.113.1618-.0863.3412-.2143.5025-.3415.1653-.1304.3304-.275.466-.4061.1188-.1148.2635-.2645.3395-.3964zm-.541.933c.0243.0301.0288.044-.0077-.0212-.0249-.0447-.0592-.108-.1025-.1893-.0865-.1623-.2031-.3849-.3425-.6504-.2777-.5289-.6419-1.2208-1.019-1.9068-.3759-.6838-.77-1.3719-1.1073-1.8903-.1673-.2571-.3301-.4873-.4765-.6571-.0721-.0836-.1538-.1686-.2418-.236-.066-.0506-.2347-.1711-.461-.1563l.0651.9979c-.1592.0103-.2442-.0723-.2122-.0478.0099.0077.0405.0348.0927.0954.1022.1184.2361.3042.3955.5493.3163.486.6959 1.1475 1.0691 1.8266.3721.6768.7324 1.3612 1.01 1.8899.1383.2634.257.4901.3454.6559.0441.0828.0822.1533.1122.207.0185.0331.0607.1099.103.1622zm-3.7591-5.7074c-.5099.0341-.8662.4155-1.0417.7347-.0939.1709-.1628.368-.1801.5679-.0166.1921.011.4545.1979.6668l.7505-.6609c.0614.0697.0442.1229.0479.0801.003-.035.0194-.0982.0601-.1722.0399-.0725.0909-.1331.1407-.1726.0495-.0392.0811-.0453.0914-.046zm-1.0245 1.9686c-.0067-.0076.0029.0033.0377.054.0297.0434.0687.1024.1163.1761.095.1471.2187.3441.3619.5753.286.4618.6448 1.0522.9966 1.6351.3516.5827.6956 1.1566.9516 1.5849.1281.2141.2341.3918.3081.516.037.062.066.1107.0857.1439.0099.0165.0175.0292.0225.0378.0026.0042.0045.0075.0058.0096.0006.0011.0011.0019.0014.0024.0002.0003.0003.0005.0004.0007 0 0 .0001.0001.0001.0001s0 .0001.4297-.2556c.4297-.2556.4297-.2556.4297-.2557 0 0 0-.0001-.0001-.0001-.0001-.0002-.0002-.0004-.0004-.0007-.0003-.0005-.0008-.0014-.0014-.0025-.0013-.0021-.0033-.0054-.0058-.0097-.0052-.0086-.0128-.0214-.0227-.038-.0198-.0333-.0489-.0821-.086-.1443-.0741-.1245-.1804-.3025-.3086-.517-.2565-.4291-.6012-1.0042-.9538-1.5885-.3525-.5839-.7136-1.1782-1.0026-1.6449-.1444-.2332-.272-.4364-.3721-.5914-.0889-.1377-.181-.2771-.2423-.3469zm3.3178 4.4803c-.2594-.4274-.2593-.4275-.2593-.4275h.0001c-.0001 0-.0002.0001-.0004.0002-.0003.0002-.001.0006-.002.0012-.0019.0012-.005.003-.0092.0056-.0085.005-.0213.0126-.0379.0223-.0333.0195-.0816.0475-.1405.0804-.1186.0663-.2759.1505-.4367.2262-.166.0782-.3133.1365-.4177.163-.054.0136-.0684.0113-.0547.0119.0071.0004.1281.0057.2304.1247l-.7582.652c.1562.1816.3645.2171.4834.2223.1255.0056.2474-.0169.3447-.0416.1983-.0502.4144-.141.5982-.2276.1891-.089.3682-.1852.4986-.2581.0656-.0367.1199-.068.1581-.0904.0191-.0112.0343-.0202.0449-.0265.0053-.0032.0095-.0057.0124-.0075.0015-.0009.0027-.0016.0036-.0021.0004-.0003.0007-.0005.001-.0007.0002-.0001.0003-.0001.0004-.0002 0 0 .0001-.0001.0001-.0001.0001 0 .0001 0-.2593-.4275zm-1.1271.2089c.0246.0288.0267.0397-.0053-.0177-.0233-.0418-.0545-.1012-.0937-.1785-.078-.154-.1798-.3637-.2988-.6127-.2384-.4989-.5366-1.1367-.8388-1.7751-.3003-.6347-.6036-1.2677-.8462-1.7432-.1205-.2365-.2305-.4427-.3199-.593-.0436-.0732-.0901-.1465-.1361-.2065-.0218-.0284-.0557-.0699-.0993-.1091-.022-.0197-.0579-.0493-.1064-.0761-.0449-.0248-.134-.066-.2534-.066v1c-.1126 0-.1941-.0387-.2304-.0588-.0398-.022-.0661-.0445-.0777-.0548-.0227-.0204-.032-.0341-.026-.0262.0098.0127.0326.046.0699.1087.0722.1215.1703.3043.2885.5361.235.4609.5327 1.0818.8332 1.7167.2986.631.6013 1.2783.8403 1.7784.1197.2505.2256.4688.3091.6336.0416.082.0795.1546.112.2129.0237.0426.0679.1215.1193.1816zm-2.9979-5.3779c-.1159 0-.2203.0333-.2831.0565-.0745.0274-.1509.0638-.2247.105-.1465.0819-.3102.1984-.4535.3436-.1397.1416-.2888.3399-.3546.5882-.0717.2703-.0337.5643.1506.831l.8226-.5686c-.0109-.0158-.009-.019-.0077-.0111.0012.0074-.0004.0105.0011.005.005-.0189.0287-.0701.0999-.1422.0676-.0685.1528-.1301.2294-.173.0378-.0211.0665-.0337.0826-.0396.0278-.0103-.0004.0052-.0626.0052zm-1.1649 1.9248c.181.2613.8157 1.3273 1.3854 2.3653.2831.5158.5426 1.0112.7167 1.3844.0882.1891.1476.3321.1781.4249.0164.0496.0167.0616.0152.0487-.0007-.0057-.0051-.0426.0042-.0958.0086-.0499.04-.1727.1605-.2724l.6377.7703c.1339-.1109.174-.2519.187-.3266.0135-.0778.009-.1462.0041-.1895-.0102-.088-.0352-.1759-.0589-.2478-.0495-.15-.1289-.3357-.2217-.5347-.188-.4029-.4599-.9208-.7463-1.4426-.5694-1.0375-1.2262-2.145-1.4401-2.4538zm2.4601 3.8551c-.0182.0151-.069.0502-.1482.0919-.076.04-.161.0769-.2409.1023-.0846.027-.1378.0329-.1586.0325-.0235-.0005.0585-.005.1336.0824l-.7582.652c.1827.2124.4305.2615.6021.2653.1743.0039.3453-.0349.4849-.0794.2746-.0876.5583-.2404.723-.3767zm-.4141.3091c.0243.0282.026.0384-.0063-.0189-.0236-.0419-.0553-.1015-.095-.1788-.0791-.1541-.1824-.3638-.3032-.6129-.2419-.499-.5446-1.1367-.8514-1.7752-.3049-.6346-.6128-1.2676-.8587-1.7431-.1223-.2364-.2337-.4425-.3241-.5927-.0441-.0732-.091-.1463-.1373-.206-.0219-.0283-.0558-.0695-.0994-.1084-.022-.0196-.0577-.0488-.106-.0754-.0445-.0245-.1335-.0656-.2527-.0656v1c-.1124 0-.1937-.0386-.2296-.0584-.0396-.0218-.0657-.044-.0771-.0541-.0226-.0201-.0318-.0335-.0256-.0255.0101.013.0332.0465.071.1092.0732.1217.1726.3045.2925.5363.2385.461.5406 1.0819.8457 1.7168.3032.631.6105 1.2784.8529 1.7784.1214.2505.2289.4687.3135.6334.0421.082.0804.1545.1132.2126.024.0427.0683.1209.1194.1803zm-3.0341-5.377c-.1454 0-.3083.0485-.4253.0907-.1349.0487-.2883.1185-.4301.2063-.1328.0822-.2999.2071-.4128.3818-.1299.201-.1982.4988-.0221.7912l.8567-.5159c.0238.0396.0417.098.0366.1636-.0046.0592-.0256.095-.0312.1038-.005.0077.0164-.023.0991-.0742.0737-.0456.1627-.0869.2432-.1159.0396-.0143.0719-.0237.0941-.029.0286-.0068.0219-.0024-.0082-.0024zm-1.29 1.4705c.0925.153.7078 1.3727 1.3013 2.5962.2931.6044.5746 1.1966.7753 1.6404.101.2232.1785.4023.2268.5247.0249.0634.0371.0993.0414.1139.003.0106-.0031-.0071-.0066-.0394-.0015-.014-.0062-.0599.0034-.1199.0072-.0448.0404-.2153.2131-.3304l.5547.832c.176-.1173.2115-.2923.2197-.3438.0106-.0665.0059-.1213.0032-.1461-.0059-.0541-.0188-.102-.0267-.1293-.0176-.0614-.0439-.1327-.0718-.2036-.0576-.146-.1434-.3434-.246-.5702-.2063-.456-.4923-1.0576-.7868-1.6647-.5818-1.1995-1.2224-2.4738-1.345-2.6768zm2.5601 4.3819c.0438-.0284.0683-.0326.0038-.0092-.0403.0146-.098.0339-.1696.0561-.1426.0443-.3267.0959-.5122.14-.1887.0448-.3634.0781-.4923.091-.0661.0066-.1012.0057-.1119.0047-.0409-.0038.0759-.0069.1867.1044l-.7091.7052c.1555.1563.3564.1792.4286.186.1024.0097.2097.0042.3049-.0053.1939-.0193.4183-.0642.6242-.1131.2092-.0497.4152-.1074.5776-.1578.081-.0252.1545-.0495.214-.0711.0354-.0128.1283-.0458.1992-.0917zm-1.0995.3831c.0418.0411.0553.0724.0239.0205-.0185-.0307-.0446-.0767-.0787-.1393-.0677-.1242-.157-.2955-.2628-.5014-.2088-.4062-.4821-.9476-.7554-1.4748-.274-.5285-.5573-1.0609-.7945-1.4637-.1176-.1995-.2312-.38-.3315-.5151-.049-.0659-.1063-.1368-.1689-.1961-.0312-.0295-.0757-.0678-.132-.1013-.0507-.0302-.1534-.0823-.2907-.0823v1c-.1171 0-.1964-.044-.2209-.0585-.0162-.0097-.0276-.0182-.0337-.0231-.0064-.005-.01-.0084-.0107-.0091-.001-.0009.0037.0036.0144.0161.0102.0121.0235.0288.0398.0508.0681.0916.1602.2354.2725.4261.2225.3777.4952.8896.7684 1.4165.2738.5282.5387 1.0532.7538 1.4717.1061.2065.2002.3871.2741.5228.0368.0674.071.1283.1008.1776.017.0281.0666.1124.131.1756zm-2.7906-4.4535c-.4037 0-.6955.2866-.8411.4892-.0836.1163-.1537.2503-.1968.39-.0403.1308-.072.3162-.0162.5082l.9603-.2788c.0109.0375.0099.0633.0094.0704-.0005.0077-.0013.0061.0021-.0052.0074-.0238.0247-.0613.0532-.101.0286-.0398.0568-.0655.0744-.0774.0191-.0131.0031.0046-.0453.0046zm-1.0544 1.3864c.0175.061.048.1256.0643.16.0223.047.0508.1036.0831.1664.065.1261.1523.2896.2527.4753.2004.3708.4617.8459.7133 1.3081.2536.4656.4985.9202.673 1.2617.088.1721.1537.3071.1933.3975.0096.0219.0167.0392.0218.0522.0054.0137.0068.0187.0063.017-.0003-.0011-.002-.0067-.004-.0158-.0018-.0081-.0057-.0266-.0078-.0521-.0017-.0209-.005-.0744.0104-.1419.0153-.0666.0627-.2033.2076-.2994l.5529.8332c.1482-.0983.198-.2389.2144-.3111.0167-.073.0137-.1338.0113-.1636-.0052-.0617-.02-.1137-.0278-.1396-.018-.0591-.0441-.1229-.069-.1797-.0521-.1191-.1291-.276-.2189-.4518-.1812-.3544-.4319-.8195-.6852-1.2848-.2552-.4686-.512-.9355-.7119-1.3054-.0998-.1845-.1832-.3409-.2435-.4578-.0302-.0588-.053-.1044-.0685-.1371-.0215-.0453-.0155-.0379-.0069-.0081zm2.222 3.3238c.0305-.0194.0548-.0297.0616-.0325.005-.0021.0088-.0036.011-.0044s.0036-.0012.0038-.0013c.0003-.0001-.0018.0006-.0068.002-.0049.0014-.0116.0032-.0201.0053-.0358.0091-.0894.0207-.1589.0339-.1376.0262-.3172.0548-.4993.0783-.1836.0236-.3592.0407-.4917.0461-.0676.0027-.1117.0019-.135 0-.012-.001-.0074-.0014.0077.0022.0049.0011.0697.0149.1423.0689l-.5964.8026c.0907.0674.1832.092.2246.1018.0514.0121.1009.018.1411.0212.0812.0066.1707.0059.2562.0025.1736-.0071.3813-.028.579-.0535.1991-.0257.3987-.0573.5586-.0877.0793-.0151.1541-.0309.2164-.0466.0307-.0078.0641-.017.0962-.0275.0199-.0066.0833-.0274.1466-.0677zm-1.0854.1985c.0445.033.0714.0653.0781.0733.0103.0124.0165.0214.0179.0235.0029.0043.0011.002-.0066-.0114-.0147-.0257-.0372-.0678-.068-.1289-.061-.1205-.1428-.2912-.2407-.4991-.1981-.4212-.4424-.9534-.7024-1.5087-.2558-.5459-.5195-1.0985-.7387-1.5208-.1089-.2099-.2119-.3975-.3006-.539-.0436-.0694-.0914-.1401-.141-.2-.0246-.0297-.0581-.0671-.0996-.1026-.033-.0283-.1148-.0943-.2365-.1244l-.2401.9708c-.1038-.0257-.1646-.079-.1739-.0869-.0177-.0152-.0247-.0246-.02-.019.0088.0106.0298.0391.064.0936.0668.1064.1549.2653.2601.4681.209.4027.4653.9391.7207 1.4844.251.536.5089 1.0973.7032 1.5102.0983.209.1853.3906.253.5246.0335.0663.0654.127.0934.1758.0137.0238.0304.0516.0487.0784.0056.0082.0531.0817.1326.1407zm-2.4401-4.5385c-.2456-.0597-.4732.0261-.6079.0938-.1542.0775-.3009.1891-.4236.3139-.122.124-.2403.2814-.3157.4618-.0748.179-.1241.4245-.0299.6795l.9381-.3464c.0221.06-.0004.088.0144.0526.0142-.0339.0485-.0878.106-.1463.0568-.0577.1165-.0999.16-.1217.0212-.0107.029-.0117.0229-.0104-.0041.0009-.0423.009-.1005-.0051zm-1.3775 1.5478c.0472.1291.1936.4326.3581.7706.1734.3563.3859.7882.5891 1.2119.2038.4248.3931.8305.5197 1.1316.0645.1533.1062.2644.1265.3321.0115.0384.0079.0363.0057.0105-.0008-.0098-.0056-.0642.0132-.1361.0197-.0752.0888-.2434.2878-.3224l.3687.9296c.2101-.0834.2868-.2621.3108-.3535.0231-.0881.0191-.1643.016-.2014-.0067-.0802-.0276-.1581-.0443-.214-.0363-.1208-.0952-.2722-.1625-.4323-.1369-.3257-.3356-.7506-.5399-1.1766-.2049-.427-.4208-.866-.5916-1.217-.1798-.3693-.2937-.6096-.3184-.677zm1.9032 2.997c.0307-.0119.0374-.0096-.0105-.0019-.0362.0059-.0872.0122-.1504.0179-.1263.0113-.2843.0185-.4418.0166-.1607-.002-.303-.0132-.4048-.0327-.0512-.0098-.0763-.0187-.0824-.0213-.014-.006.0428.0132.0969.0883l-.8115.5843c.099.1376.2334.2092.3212.2468.0959.0409.197.0667.2882.0842.1833.035.391.048.5803.0503.1925.0023.3844-.0063.5432-.0205.0793-.0071.1546-.016.2202-.0266.054-.0087.1381-.0239.2139-.0534zm-.993.0669c.008.011-.0144-.0251-.0799-.1589-.0558-.114-.1276-.2661-.2116-.4461-.1666-.357-.3794-.8191-.5957-1.2734-.2158-.4535-.4408-.9111-.6343-1.2627-.096-.1743-.1909-.3347-.2779-.4587-.0429-.061-.0928-.1262-.148-.1828-.0361-.037-.1493-.1522-.324-.1906l-.2147.9767c-.0786-.0173-.1293-.0507-.1469-.0631-.0111-.0079-.0189-.0144-.0232-.0182-.0044-.0039-.0068-.0063-.0071-.0066-.0002-.0002.004.0041.0127.0151.0085.0106.0194.0251.0327.0441.0559.0796.1303.2028.2204.3664.1785.3242.3929.7595.6074 1.2102.2141.4498.4228.903.5925 1.2666.0841.1802.1593.3397.2196.4628.0505.1033.1135.2299.1665.3035zm-2.27-3.9729c-.2748-.0613-.6401-.0234-.9244.1618-.1532.0998-.302.2563-.3727.4803-.0711.2252-.0441.4576.0425.6727l.9277-.3735c-.0108-.0268-.0112-.0378-.011-.035.0003.0039.0004.0177-.0056.0369-.0135.0426-.0389.059-.0351.0565.0069-.0045.0316-.0166.0736-.0231.0192-.003.0381-.0041.0548-.0038.017.0004.0281.0022.0327.0032zm-1.2546 1.3148c.0646.1603.224.4751.403.8237.1863.3626.4071.7867.6149 1.1971.2084.4117.3961.7949.5156 1.0718.0616.143.0952.2352.1076.2816.0089.0332-.005-.0004-.0009-.0642.002-.0304.0112-.1322.0877-.2371.0979-.1343.2481-.1967.3859-.1967v1c.1536 0 .3158-.0683.422-.2141.085-.1164.099-.2352.1024-.288.0069-.1084-.0175-.2076-.0311-.2583-.0324-.1213-.091-.2699-.1554-.4192-.1328-.3078-.3329-.7151-.5416-1.1275-.2094-.4135-.4349-.8468-.6176-1.2024-.1898-.3695-.3219-.6335-.3648-.7402zm2.1138 2.8762c-.1259 0-.5218 0-.9022-.0131-.1913-.0065-.3703-.0161-.506-.0296-.0688-.0068-.1165-.0137-.1449-.0193-.0144-.0029-.0153-.0038-.0073-.0012.0044.0014.0153.0052.0304.0122.0139.0064.0409.02.0726.0437l-.5991.8006c.0739.0554.1485.0819.184.0936.0438.0143.0871.0244.1241.0318.0744.0148.1586.0255.2415.0337.1678.0167.3719.0271.5704.0339.3993.0137.8105.0137.9365.0137zm-1.4588-.0083c.0384.0285.0626.0556.0711.0654.0109.0124.0177.0219.0202.0253.0048.0067.0048.0075-.0009-.0022-.011-.0185-.0288-.0513-.0544-.1014-.0504-.0987-.1176-.239-.1982-.4116-.1618-.3462-.3636-.792-.5748-1.2498-.2086-.4521-.4243-.9114-.605-1.264-.0896-.1749-.1758-.3338-.2515-.4553-.0371-.0596-.0792-.1224-.1242-.177-.0224-.0271-.0534-.0619-.0921-.0954-.0319-.0276-.1062-.0877-.2165-.1193l-.2757.9612c-.0946-.0271-.1509-.0759-.1624-.0859-.0185-.016-.0269-.0269-.0247-.0242.0042.0051.0195.0255.0469.0695.0533.0855.1244.2149.2102.3824.1703.3323.3784.775.5869 1.2269.206.4464.4146.9069.5769 1.2543.0815.1743.1548.3277.2134.4426.029.0567.0577.1108.0842.1557.013.022.0295.0487.0483.075.0095.0132.0536.0767.1259.1304zm-2.0294-3.7862c-.1786-.05-.5179-.0957-.8182-.0535-.1423.02-.3655.071-.5405.2344-.0968.0903-.1749.2122-.2083.3624-.0325.1459-.0156.2855.0215.4058l.9555-.2951c.0014.0045.0128.045-.0009.1066-.0147.0659-.0498.118-.0853.1512-.0309.0288-.0542.0364-.0503.035.0029-.0011.0176-.0058.0474-.01.061-.0086.1433-.0092.2303-.0018.0879.0076.1542.021.1792.028zm-1.5456.9488c.0519.1684.2038.4722.3574.7721.0827.1612.1748.3381.2689.519.0944.1814.1911.3674.2844.5495.1884.3679.3552.7058.457.9476.0534.127.076.1979.0816.2238.0052.0244-.0125-.032.0055-.1191.0104-.0504.0409-.1498.1338-.2382.1028-.0978.2265-.13.3232-.13v1c.1146 0 .2526-.0375.3662-.1456.1037-.0987.1415-.2133.1561-.2837.0262-.1269.0038-.242-.007-.2925-.0265-.124-.0813-.2683-.1377-.4025-.118-.2804-.3007-.6485-.4886-1.0156-.095-.1854-.1932-.3742-.2874-.5553-.0946-.1818-.1851-.3555-.266-.5134-.081-.1583-.1505-.2968-.2035-.4083-.0265-.0558-.0476-.1022-.0634-.1392-.0078-.0184-.0138-.0332-.0182-.0447-.0022-.0057-.0038-.0101-.0049-.0134-.0006-.0016-.001-.0028-.0013-.0037-.0002-.0005-.0003-.0008-.0003-.001-.0001-.0002-.0001-.0004-.0001-.0003zm1.9118 2.5247c.0007 0-.0072-.0001-.0266-.0016-.0182-.0015-.0419-.0039-.0712-.0075-.0586-.0071-.1328-.018-.2186-.0324-.1715-.0288-.3797-.0701-.5868-.1188-.2087-.0491-.4071-.1036-.5627-.1576-.078-.0271-.1373-.0513-.1781-.0712-.0495-.024-.0415-.0272-.0145-.0006l-.7029.7114c.09.0889.1991.1491.2795.1883.089.0433.1883.0822.2882.1169.2002.0694.4349.1329.6615.1862.2281.0537.4573.0992.6501.1316.179.0301.3633.0553.4821.0553zm-1.6564-.3875c.0269.0269.0319.0407.0109.0073-.0154-.0246-.0368-.0616-.0646-.1132-.0554-.1026-.125-.2418-.2062-.4098-.1629-.3372-.3576-.7591-.5601-1.1882-.1994-.4228-.4053-.8503-.5812-1.1763-.0871-.1613-.174-.3114-.2545-.4273-.0393-.0566-.0875-.1202-.1426-.1757-.0277-.0279-.0667-.0635-.1163-.096-.0462-.0302-.13-.0768-.2434-.0906l-.1211.9926c-.0955-.0116-.1594-.0497-.1837-.0656-.0276-.0182-.0429-.0335-.045-.0357-.004-.004.006.0058.0309.0417.0481.0691.1139.18.1956.3315.1616.2995.3572.7046.5569 1.128.1967.417.3988.8546.5641 1.1967.083.1717.1604.327.2266.4497.033.0611.066.1194.0977.1698.026.0415.0707.11.1289.1682zm-2.1582-3.6698c-.171-.0208-.3412.0131-.4777.0581-.1437.0474-.2907.1206-.423.216-.2415.174-.5616.5265-.4787 1.0192l.9861-.1659c.0044.026-.0055.0421-.0014.035.0073-.0127.0302-.0421.0787-.0771.0471-.034.1022-.0612.1516-.0776.0567-.0186.0707-.0118.0437-.015zm-1.3794 1.2933c.0188.1121.0662.24.1073.3431.0461.1153.1051.2492.1694.3899.1267.2773.2908.6175.4319.9193.1467.3138.2704.5899.3381.7787.0378.1053.0404.136.0391.1203-.0006-.0084-.0022-.0335.0026-.0688.0045-.033.0179-.1006.0649-.1748.053-.0835.1385-.1579.2515-.1945.1029-.0333.1899-.0227.2367-.0123l-.2169.9762c.0671.0149.1711.0254.2881-.0125.1271-.0411.2238-.1246.2851-.2212.1004-.1583.0887-.3219.085-.3698-.0101-.1303-.056-.2721-.0948-.3804-.0857-.2387-.2288-.5548-.3735-.8644-.1504-.3217-.3026-.6363-.4282-.9114-.062-.1355-.1132-.2522-.1503-.3452-.042-.1051-.0508-.1433-.0499-.1381zm1.6392 2.1004c-.2184-.0475-.5795-.1083-1.0173-.2077-.2023-.046-.3797-.0918-.5032-.1334-.0297-.01-.0535-.0188-.0717-.0263-.0091-.0036-.016-.0067-.0211-.009-.0025-.0012-.0043-.0021-.0056-.0027-.0014-.0007-.002-.001-.0019-.001 0 0 .0009.0005.0026.0015.0016.0009.0042.0026.0076.0049.0064.0043.0188.0131.0342.0272.0216.0196.1016.0962.13.2344l-.9795.2014c.033.1607.1288.2604.1762.3035.0538.049.1097.083.1503.1051.0823.0449.176.0806.2601.1088.1728.0582.3902.113.6005.1607.3875.0881.9229.1873 1.0264.2098zm-1.4457-.1084c-.0125-.0634-.0387-.1284-.0477-.1512-.0155-.0393-.0354-.0865-.0579-.1385-.0455-.1046-.1074-.2409-.18-.3967-.1454-.3121-.3379-.7115-.5371-1.1096-.1987-.397-.4066-.7981-.5824-1.1115-.0874-.1558-.1708-.2971-.2437-.4076-.0361-.0548-.0746-.1096-.1136-.1575-.0262-.0323-.0965-.1183-.1998-.1774l-.4965.868c-.0721-.0412-.1018-.0871-.0795-.0597.0095.0117.0275.036.0546.0772.0536.0812.1235.1986.2064.3462.1646.2935.3645.6786.5602 1.0698.1952.3902.3837.7812.5249 1.0844.0708.152.1287.2797.1694.3732.0205.0471.0353.0825.0448.1065.016.0406.0051.0197-.0031-.0216zm-1.9622-3.65c-.1823-.1043-.3947-.1179-.5367-.1144-.1613.004-.3368.0336-.4979.0891-.1485.0512-.3499.1467-.4908.3266-.0765.0976-.1396.2266-.1525.3824-.013.1562.0277.2992.0932.4188l.8768-.4809c.0119.0216.0325.0732.0265.1451-.0059.0716-.0349.1234-.0568.1513-.0194.0248-.0328.0309-.024.0255.0076-.0046.0249-.0135.0535-.0234.0591-.0204.1327-.0332.1968-.0348.0312-.0008.0515.0013.0605.0029.0128.0021-.0082.0009-.0451-.0202zm-1.5849 1.102c.0971.1774.3772.7588.6181 1.3036.1199.2713.2246.521.2895.6984.034.0928.0499.1464.0545.1676.0043.019-.0067-.0172-.0027-.077.0017-.0259.0091-.1193.0733-.2197.0856-.1338.2378-.2249.4109-.2249v1c.1821 0 .3411-.0949.4316-.2363.069-.108.0793-.2127.082-.2533.0059-.0892-.0107-.1686-.0187-.2049-.0198-.0895-.055-.1948-.0918-.2952-.0765-.2089-.1917-.4825-.314-.7591-.2436-.551-.5375-1.1636-.6554-1.3792zm1.4436 1.648c.0287 0 .0497.0027.0544.0033.0075.001.012.0018.012.0018.0001 0-.0052-.001-.0178-.0039-.0247-.0057-.063-.0153-.1158-.0296-.1046-.0282-.2535-.0711-.4403-.1281-.3728-.1136-.8883-.2806-1.487-.4921-1.1995-.4237-2.71993-1.0211-4.09262-1.72l-.45369.8912c1.42631.7261 2.99141 1.3402 4.21331 1.7717.6121.2162 1.1414.3878 1.5285.5058.1932.0589.353.1051.4711.137.0586.0158.1102.029.152.0386.0205.0047.0426.0095.064.0134.0103.0019.0577.0109.1119.0109zm-6.08712-2.3686c-1.36435-.6946-2.66424-1.5838-3.58157-2.3073-.45978-.3627-.81261-.6752-1.02562-.8934-.11203-.1147-.16228-.1801-.17526-.2011-.01491-.0241.03128.0364.03867.1455.00458.0677-.00434.187-.08866.3029-.08582.118-.2002.1646-.2733.181l-.21821-.9759c-.09322.0208-.2222.0761-.31723.2068-.09354.1286-.10629.2645-.10032.3527.01015.15.08001.2668.10841.3127.07364.1192.1886.2493.31044.3741.2547.2608.64418.6031 1.12178.9798.95742.7552 2.31253 1.683 3.74718 2.4134zm-5.10574-2.7724c-.02668.0059-.03271.0039.01221.0018.03489-.0017.08377-.0027.14894-.0031.13087-.0009.30295.0007.51851.0017.42606.0021.99622.0021 1.63631-.0252 1.26928-.0542 2.85906-.2169 4.17324-.7089l-.35063-.9365c-1.16183.4349-2.62254.5932-3.86526.6463-.61591.0263-1.16712.0264-1.58869.0243-.20826-.001-.39155-.0026-.53022-.0017-.06961.0005-.13405.0016-.18884.0042-.04477.002-.11685.0062-.18378.0212zm6.48898-.7336c1.23878-.4632 2.48418-.9378 3.43948-1.3334.4765-.1974.8895-.3786 1.1961-.5313.1522-.0758.2889-.1498.3975-.2197.054-.0347.1103-.0744.1612-.1183.0425-.0367.1204-.1092.1738-.2161l-.8944-.4472c.0203-.0405.0415-.0663.0507-.0768.0054-.0062.0097-.0105.0122-.0129.0013-.0013.0022-.0022.0029-.0028.0006-.0005.0009-.0008.0009-.0008s-.0002.0002-.0008.0007c-.0006.0004-.0014.0011-.0025.002-.0023.0018-.0055.0042-.0097.0073-.0086.0062-.0202.0142-.0355.024-.0638.0411-.1634.0964-.3021.1655-.2753.137-.6629.3078-1.1329.5025-.9378.3883-2.16885.8577-3.40705 1.3206zm5.36718-2.4169c.1121-.2219.088-.4519.0566-.5969-.0342-.1578-.0977-.3084-.1614-.432-.0648-.1257-.14-.2433-.2121-.3373-.0356-.0465-.0761-.0946-.1195-.1374-.0239-.0236-.1137-.1139-.2468-.1582l-.3162.9487c-.0656-.0219-.1068-.0524-.1167-.0597-.008-.006-.0137-.0108-.0168-.0136-.0033-.0028-.0051-.0046-.0055-.005-.0006-.0006.0019.0018.0074.0082.0053.0061.0121.0145.0204.0253.0347.0452.0784.1124.1169.1871.0396.0768.0635.1421.073.1858.0045.0208.0033.0259.0036.018.0004-.0082.0028-.041.0246-.084zm-.6818-1.6614c-.053-.0178-.7869-.244-1.5835-.7213-.8108-.4857-1.5939-1.1769-1.8637-2.0834l-.95849.2852c.3772 1.2675 1.42409 2.1263 2.30829 2.6561.4508.2701.8816.4679 1.2059.6006.1626.0665.2995.1171.4001.1525.0504.0177.0916.0316.1222.0417.0152.005.0277.0091.037.0121.0116.0037.0133.0043.0133.0043zm-3.4472-2.8046c-.30119-1.0131-.3383-2.0827-.34277-2.973-.00216-.43.0036-.8459-.01604-1.1595-.00988-.158-.02753-.3199-.06521-.463-.03324-.1262-.10634-.3369-.3002-.4771l-.58609.8102c-.09536-.0689-.09797-.1438-.08072-.0784.01281.0487.02563.1342.03418.2708.01724.2754.01175.6368.01409 1.102.00453.9003.03942 2.0931.38422 3.253zm-.72471-5.073c-.29527-.213-.7711-.4075-1.42593-1.0231-.62021-.5832-1.32573-1.5011-1.80104-2.9657l-.95117.3086c.53069 1.6354 1.33267 2.695 2.06721 3.3856.69992.6581 1.42609 1.0336 1.52582 1.1056zm-3.22697-3.9888c-.47081-1.4508-.45167-3.1935-.32678-4.6533.06208-.7257.14804-1.3611.20737-1.8517.02903-.24.05298-.4557.06178-.6234.00434-.0829.00599-.1704-.00082-.2511-.00342-.0405-.00988-.0909-.02375-.1441-.0126-.0484-.03947-.1318-.10206-.2143l-.79665.6044c-.04902-.0646-.06494-.1225-.06897-.138-.0053-.0203-.00559-.0305-.00502-.0238.00117.0139.00208.049-.00136.1145-.00677.1291-.02655.313-.05591.5557-.05745.475-.14693 1.138-.21097 1.8865-.12736 1.4888-.16323 3.398.37197 5.0472zm-.18394-7.7375c-.07399-.0977-.25856-.3736-.43759-.5661-.09549-.1028-.22173-.2201-.37595-.3028-.16061-.0862-.38158-.1493-.62807-.0813l.26593.964c-.07249.02-.11958-.0063-.11054-.0015.01544.0083.05463.0362.11627.1025.13522.1454.23165.3025.37266.4888zm-1.43998-.9506c.12666-.0345.22485-.0002.26261.0171.03713.0169.05015.0321.0388.0216-.02218-.0205-.07118-.0766-.1417-.1858-.13713-.2124-.3045-.5452-.46862-.9656-.32819-.8405-.61541-1.9586-.63787-3.0254l-.99977.021c.02554 1.2133.34732 2.4492.70613 3.3681.17938.4594.37501.8577.56001 1.1443.09054.1402.19238.2755.30328.378.05519.0509.13031.1104.22415.1533.09447.0432.24399.085.41565.0383zm-.94678-4.1381c-.02262-1.0748.20477-2.3545.47401-3.3772.13396-.5088.27463-.9401.39247-1.2374.05988-.1511.10836-.2535.14132-.3109.01772-.0309.02053-.0303.00712-.0154-.00673.0075-.02983.0326-.0699.0588-.03763.0246-.12468.0726-.24891.0726v-.99999c-.13916 0-.24264.05399-.29809.09022-.05789.03783-.10019.08023-.1274.11056-.05437.06059-.09761.12873-.13015.18543-.06756.11772-.13643.27068-.20363.44018-.13632.3439-.2887.8151-.42987 1.3513-.28101 1.0673-.53212 2.4477-.50674 3.6528zm.69611-4.8095c-.10564 0-.18028-.0355-.18672-.0383-.02111-.0094-.0336-.0172-.03364-.0172-.00104-.0006.00909.0057.03455.0249.0489.0369.12273.0969.22295.1823.19864.1691.4772.4171.82042.7283.68553.6215 1.61301 1.4803 2.64279 2.4317 2.05428 1.8977 4.51562 4.1635 6.22522 5.5983l.6429-.766c-1.6875-1.4162-4.1296-3.6639-6.18956-5.5669-1.02734-.949-1.95968-1.8124-2.64968-2.438-.34454-.3123-.63268-.56908-.8438-.74884-.10466-.08911-.19646-.16452-.26948-.21953-.0355-.02675-.07541-.05542-.11499-.07959-.01931-.0118-.0482-.02851-.08276-.04382-.0199-.00881-.10505-.04731-.2182-.04731zm9.72557 8.91c1.705 1.4309 3.5628 2.8933 5.2949 4.0481 1.7117 1.1413 3.3697 2.0305 4.6585 2.2395l.16-.9871c-1.0551-.1711-2.5546-.9448-4.2637-2.0844-1.6886-1.1258-3.5148-2.562-5.2068-3.9821zm9.9534 6.2876c.5821.0943 1.1054.1758 1.5703.2051.4675.0294.9088.0088 1.3245-.1203.8668-.2691 1.4627-.9563 2.0338-2.1154l-.8971-.4419c-.529 1.0738-.961 1.4556-1.4332 1.6023-.2538.0788-.5598.1027-.9652.0772-.4079-.0256-.8831-.0985-1.4731-.1941zm4.9286-2.0307c.5704-1.1584 1.1618-3.1399 1.7967-5.0653.65-1.9715 1.3493-3.9004 2.143-5.0937l-.8326-.5538c-.8812 1.3248-1.6179 3.3863-2.2601 5.3344-.6575 1.994-1.2145 3.861-1.7441 4.9366zm3.9398-10.1591c1.6093-2.4206 4.9413-5.17646 9.2307-5.86307l-.1581-.98743c-4.6066.73738-8.1666 3.6815-9.9053 6.2969zm9.2307-5.86307c4.3258-.69245 7.4566.52061 9.0825 2.78957l.8129-.58253c-1.9141-2.67109-5.4834-3.92602-10.0535-3.19447zm9.0825 2.78957c.8311 1.1597 1.2789 2.5135 1.573 3.6463.0732.282.1363.5481.1939.794.0569.2432.1096.4723.1597.6691.0495.1943.1016.3788.1608.5298.0298.0759.0664.1566.1128.2316.044.071.1149.1668.2253.2402l.5538-.8326c.0567.0377.0765.0747.071.0658-.0031-.005-.0144-.0254-.0319-.07-.0352-.09-.075-.2241-.1227-.4114-.047-.1848-.0966-.4004-.1552-.6505-.0579-.2474-.1233-.5232-.1996-.8172-.304-1.1712-.7891-2.6673-1.728-3.97763zm2.4262 6.1115c.2245.1488.5404.2002.8261.2194.313.021.6948.0085 1.1241-.0382.8603-.0936 1.9502-.3286 3.132-.7443l-.3319-.9434c-1.1153.3924-2.1303.6089-2.9083.6935-.3898.0424-.7104.0507-.9488.0346-.2657-.0178-.3502-.0615-.3407-.0552zm5.0822-.5631c1.143-.4023 1.9114-.6486 2.4081-.7937.2487-.0727.4256-.1189.5453-.1464.1382-.0318.1628-.0296.1336-.0296v-1c-.1007 0-.2314.026-.3578.0551-.1449.0333-.3418.0851-.6015.161-.52.1519-1.3067.4045-2.4596.8103zm3.087-.9697c-.1123 0-.2376-.0404-.3371-.1369-.0882-.0856-.1199-.1804-.1318-.2304-.0124-.0521-.0124-.093-.0118-.1118.0007-.021.003-.0356.004-.041.0021-.0124-.0011.0095-.0293.0768-.0516.1236-.1529.3202-.3094.5644-.3115.4859-.8173 1.1224-1.5144 1.7026l.6397.7686c.7868-.6548 1.3581-1.3723 1.7166-1.9316.1785-.2785.3104-.5273.3903-.7185.0376-.0901.0746-.1929.0917-.2907.0068-.039.0223-.1377-.0046-.2505-.0146-.0611-.0505-.1643-.1445-.2555-.1053-.1022-.2381-.1455-.3594-.1455zm-2.3301 1.8239c-.7325.6105-1.3864 1.1492-1.853 1.6063-.2339.2292-.4388.4549-.5879.6746-.1439.2121-.274.4734-.274.7632h1c0 .0048.0016-.0545.1015-.2017.0946-.1395.2456-.3115.4602-.5217.4303-.4216 1.044-.928 1.7934-1.5525zm-2.7149 3.0441c0 .3632.0919.7352.3285 1.0268.2481.3057.6125.4692 1.0355.4692v-1c-.151 0-.2185-.0495-.259-.0993-.0518-.0639-.105-.1898-.105-.3967zm1.8112 1.2196.001-.002-.8944-.4472-.001.002zm-52.18992-4.7873c-.14767-.1156-.24737-.358-.23908-.822.00804-.4494.11312-.9512.20667-1.433l-.98167-.1906c-.08645.4452-.21487 1.0484-.22484 1.6057-.0097.5429.0881 1.2089.62243 1.6273zm-.03243-2.2549c.0699-.3596-.00786-.7293-.30666-.9704-.26867-.2168-.60951-.24-.88107-.192-.54858.097-1.15414.5372-1.33195 1.269l.97173.2361c.07319-.3013.32913-.4841.5343-.5203.10531-.0187.11441.014.07896-.0146-.06558-.0529-.02684-.102-.04694.0014zm-2.51981.1071c-.14586.6033-.13261 1.3004.02809 1.9452.16015.6426.47912 1.2803.991 1.7226l.65381-.7566c-.31212-.2697-.54816-.7009-.6745-1.2079-.1258-.5047-.13055-1.0375-.02641-1.4683zm1.01928 3.668c.47604.4109.95772.6212 1.37879.6951.38959.0684.8032.0295 1.07512-.1715l-.59439-.8042c.04192-.031-.04647.0366-.30788-.0092-.22993-.0404-.54825-.1651-.89821-.4672zm2.45493.5228c.10634-.079.1993-.1914.24756-.3388.04705-.1436.03852-.2803.01202-.39-.04858-.201-.17235-.3731-.27746-.498-.22094-.2626-.56415-.5495-.90373-.8159l-.61721.7868c.34242.2686.60921.4987.75577.6729.07863.0935.07799.1197.0706.0891-.0059-.0244-.01432-.0828.00969-.1561.02522-.077.07199-.1271.10633-.1526zm18.96425 8.0099c-.2328-.0303-.5025.0237-.7055.0654-.2361.0485-.4714.1031-.7376.1402-.5198.0724-1.0863.0655-1.6601-.2257l-.4525.8918c.8252.4188 1.6222.4119 2.2506.3243.308-.0429.593-.1083.8009-.151.241-.0496.3391-.0581.3752-.0534zm-3.1023-.0196c-.6402-.3265-1.2789-.8774-1.8946-1.3776-.2935-.2385-.5924-.4734-.8652-.6333-.1374-.0806-.289-.1548-.4468-.1976-.1583-.0429-.3561-.0631-.5591.0081l.3311.9436c-.0505.0177-.0723.003-.0338.0135.039.0105.1049.0376.2029.0951.198.1161.4418.3041.7403.5467.5683.4617 1.3111 1.1048 2.0709 1.4923zm-3.7655-2.2004c-.3264.1143-.7319.4153-.792.9489-.0584.5181.237 1.0462.7978 1.565l.6791-.7341c-.4792-.4433-.4879-.6776-.4832-.719.0029-.0259.0274-.0815.129-.1171zm.0058 2.5139c.5751.532 1.3758 1.0067 2.2294 1.3488.8541.3422 1.7971.5661 2.6661.5661v-1c-.7099 0-1.5249-.1861-2.2941-.4944-.7696-.3084-1.4575-.7246-1.9223-1.1546zm4.8955 1.9149c.9076 0 1.6327-.3268 2.0691-.6984.2044-.1741.4023-.4068.4694-.6712.0356-.1404.0468-.3486-.08-.5433-.1296-.1988-.3314-.2741-.4892-.2955l-.1345.9909c-.0233-.0032-.1344-.027-.2142-.1495-.0771-.1183-.0573-.2255-.0514-.2487.0077-.0301-.0075.0359-.1485.1559-.2543.2166-.7492.4598-1.4207.4598zm11.8752-14.769c-.1752-.0524-.3447-.0224-.4502.0043-.1202.0304-.2441.08-.364.1379-.2412.1164-.5146.2901-.7896.5009-.5472.4195-1.1546 1.028-1.5549 1.7248l.8671.4982c.3167-.5512.8213-1.0652 1.2963-1.4294.2362-.1811.4514-.3146.6159-.394.083-.0401.1411-.0605.1746-.069.0483-.0122.0041.01-.0815-.0156zm-3.1585 2.3675c-.3692.6413-.8362 1.5843-1.1067 2.4417-.134.4244-.2317.8644-.227 1.2512.0046.3756.113.8433.5517 1.0903l.4907-.8714c-.0006-.0003-.0004-.0002.0003.0003.0006.0005.0009.0009.0007.0007-.0002-.0003-.0048-.0056-.0111-.0204-.0141-.0327-.0309-.0987-.0323-.2117-.0029-.2303.0588-.5519.1806-.9381.241-.7639.671-1.6379 1.0197-2.2436zm-.7808 4.7838c.1838.1029.4148.1898.6732.1588.2722-.0326.4774-.1834.6271-.36.1431-.169.2581-.3871.3601-.6254.1042-.2432.2077-.5388.3172-.8831l-.9529-.3031c-.106.3331-.1982.5932-.2835.7926-.0875.2043-.156.316-.204.3726-.0414.049-.035.0198.0169.0135.0381-.0045.0274.0136-.0658-.0385zm1.9776-1.7098c.2051-.6453.5078-1.3503.8176-1.9651.3136-.6226.6171-1.1178.815-1.3599l-.7742-.633c-.2681.328-.6106.9012-.9339 1.5429-.3272.6495-.6525 1.4044-.8775 2.1122zm1.6328-3.3253c.2316-.2836.4951-.6222.6513-.9168.0723-.1364.1616-.3347.1629-.5459.0007-.1179-.0261-.2655-.1238-.4015-.0993-.1381-.2355-.2142-.3621-.2515l-.2832.959c-.0367-.0108-.1091-.0436-.1669-.1241-.0563-.0784-.0642-.154-.064-.1878.0002-.0432.0112-.0253-.0465.0835-.1038.1959-.3068.4643-.5423.7527zm.5403-1.9897-.001-.001-.7071.7071.001.001zm17.6413 11.0357c-.0385.0753-.0608.1184-.0795.1492-.0218.0361-.0117.0084.0335-.0261.0276-.0212.0709-.0469.1292-.062.0598-.0155.1169-.0149.1646-.0058.0825.0158.1157.053.0874.0295l-.6381.77c.0789.0654.2016.1518.3623.1826.1943.0373.3702-.0193.5017-.1197.1077-.0823.176-.1865.2145-.25.0417-.0687.082-.1482.115-.213zm8.4021-7.2762-.8636-.5042-.1364.2337v.2705zm.957-2.328.9937.1127.0001-.0011zm-3.875-1.568-.2942-.9557-.0006.0002zm-4.162.855-.9471.3209.2694.7952.8298-.1277zm-4.497-7.07999.5841-.81167-.0004-.00032zm-9.567-1.33-.2232-.97476-.0005.00012zm-20.668 15.72599-.5273.8497h.0001zm-16.55597-13.49099-.20266-.97925-.00051.00011zm.143 13.11199.96461.2637.14615-.5346-.37585-.4073zm3.78 11.877.9775.2109.15037-.6968-.60966-.3693zm.335 4.372.94809-.318-.0002-.0006zm2.96597 3.23.6259.78 1.0219-.82-1.0605-.7694zm-3.82696 1.854-.27256-.9621-.00038.0001zm-7.272005.048.194932.9808.001577-.0003zm16.934965 14.87-.2497.9683zm34.925-16.533-.838-.5457v.0001zm5.98-13.444-.4697-.8828-.3675.1956-.1202.3986zm3.253-2.138-.5971-.8021-.0002.0002zm2.68-5.32.9995.034v-.0001zm-1.53-2.71h-1v.4876l.3842.3003zm-7.954 7.496.8907.4547-1.7812-.9095zm-.0028.0055-.8906-.4547 1.7812.9096zm7.9568-7.5035c.8636.5042.8637.5041.8637.504.0001 0 .0001-.0001.0002-.0002.0001-.0002.0002-.0003.0003-.0005.0002-.0005.0005-.001.0009-.0016.0006-.0011.0015-.0027.0026-.0046.0022-.0037.0052-.0089.009-.0154.0074-.013.0179-.0314.0311-.0547.0262-.0464.063-.1124.1072-.1938.0879-.1621.2066-.3885.3294-.6453.2254-.4716.5367-1.1904.6063-1.8032l-1.9873-.2254c-.0275.2422-.1947.6874-.4235 1.166-.1044.2184-.2067.4137-.283.5544-.038.0701-.0691.1259-.0903.1634-.0106.0187-.0187.0328-.0238.0417-.0026.0045-.0045.0077-.0055.0096-.0006.0009-.0009.0015-.001.0017s-.0001.0002-.0001.0001c0 0 0 0 .0001-.0001 0 0 0-.0001.0001-.0001 0-.0001 0-.0002.8636.504zm1.9508-2.2164c.0515-.4591.0835-1.003.031-1.5093-.0469-.4523-.1838-1.1317-.6984-1.5854l-1.3227 1.5002c-.0542-.0478-.0513-.075-.0293-.0152.0214.0578.0456.1572.0611.3066.0312.3015.0152.6841-.0292 1.0799zm-.6674-3.0947c-.4243-.374-.9728-.3779-1.2471-.3653-.34.0156-.7125.0884-1.0626.1737-.6963.1698-1.5318.4496-2.1859.651l.5885 1.9114c.7328-.2256 1.4519-.4683 2.0711-.6193.3076-.075.5331-.1121.6805-.1189.2132-.0098.0416.0517-.1672-.1324zm-4.4962.4596c-.6318.1949-1.6205.3998-2.488.5602-.4261.0787-.81.1444-1.0874.1904-.1386.0229-.2503.041-.327.0532-.0384.0061-.068.0107-.0878.0138-.0099.0016-.0174.0027-.0222.0035-.0025.0004-.0043.0006-.0054.0008-.0006.0001-.001.0002-.0012.0002s-.0002 0-.0003 0v.0001c0-.0001.0001-.0001.1521.9883.1521.9884.1522.9884.1522.9884.0001 0 .0001-.0001.0002-.0001h.0005c.0005-.0001.0011-.0002.0018-.0003.0016-.0003.0038-.0006.0066-.001.0057-.0009.014-.0022.0248-.0039.0215-.0034.0529-.0083.0931-.0147.0805-.0128.1964-.0315.3396-.0553.2863-.0474.6828-.1152 1.1238-.1967.8668-.1602 1.9591-.3828 2.7143-.6158zm-3.8672 1.8105c.9472-.3209.9471-.321.947-.3213 0 0-.0001-.0003-.0002-.0005-.0001-.0004-.0002-.0008-.0004-.0014-.0004-.001-.0009-.0024-.0014-.0041-.0012-.0034-.0028-.008-.0048-.0138-.004-.0116-.0097-.0279-.017-.0488-.0147-.0417-.0361-.1015-.0639-.1773-.0557-.1516-.1376-.3678-.2443-.6323-.213-.528-.5271-1.254-.9325-2.0469-.7913-1.54756-2.0044-3.50038-3.5954-4.64526l-1.1682 1.62334c1.1841.85213 2.2194 2.43932 2.9829 3.93242.372.7276.6618 1.3972.8584 1.8846.0981.2432.1725.4397.2218.5739.0246.0671.043.1184.0549.1522.0059.0168.0102.0293.0129.037.0013.0039.0023.0066.0028.0082.0003.0007.0004.0012.0005.0013 0 .0001 0 .0001 0 0 0 0-.0001-.0001-.0001-.0001 0-.0002-.0001-.0003.947-.3212zm-3.9133-7.89198c-3.1084-2.23434-7.1353-2.23445-10.3739-1.49277l.4465 1.94953c2.9794-.68232 6.3204-.58643 8.7601 1.16722zm-10.3744-1.49265c-1.6552.38-3.4742 1.09317-5.1089 1.97955-1.6245.88083-3.1416 1.97294-4.1375 3.14878l1.5262 1.2926c.7742-.9141 2.0556-1.86503 3.5646-2.6832 1.4987-.81262 3.1483-1.45445 4.6031-1.78844zm-9.2464 5.12833c-.9809 1.1584-1.8525 2.8341-2.531 4.3685-.6871 1.5535-1.2138 3.0492-1.4861 3.9087l1.9065.6042c.2546-.8035.7564-2.2292 1.4087-3.704.6606-1.4939 1.4391-2.9531 2.2281-3.8848zm-4.0171 8.2772c-.2594.8185-.6359 1.8991-1.0792 2.79-.2227.4475-.443.8075-.6484 1.0547-.224.2695-.3283.2822-.2903.2746l.3903 1.9616c.636-.1266 1.1118-.5652 1.4381-.9578.3449-.415.645-.9278.9009-1.4421.5139-1.0329.9275-2.2323 1.1951-3.0768zm-2.0179 4.1193c-.3225.0642-.9688-.0108-1.8848-.3312-.8718-.305-1.8465-.7816-2.7508-1.3427l-1.0545 1.6994c1.0087.6259 2.115 1.1708 3.1449 1.5311.9858.3448 2.062.5788 2.9355.405zm-4.6355-1.6738c-1.8336-1.1381-6.7549-5.1257-9.2286-7.3935l-1.3515 1.4742c2.5003 2.2922 7.5309 6.3806 9.5254 7.6186zm-9.2286-7.3935c-.6069-.5564-1.282-1.2179-1.98463-1.9072-.697-.6838-1.41981-1.3939-2.10256-2.02616-.6776-.62748-1.34689-1.20772-1.93804-1.62038-.29448-.20556-.60134-.39221-.90363-.51995-.27855-.11772-.68841-.24454-1.12857-.15345l.40533 1.9585c-.15266.03159-.20027-.02407-.05529.0372.12125.05124.29921.1514.53737.31766.47413.33096 1.0614.83438 1.72393 1.44788.65737.6087 1.35825 1.297 2.06078 1.9863.69695.6838 1.3972 1.3702 2.03381 1.9538zm-8.05794-6.22703c-.39907.0828-.70871.31003-.92798.52197-.22652.21895-.42314.48594-.5933.76283-.34085.55463-.64452 1.26279-.89758 2.01983-.505788 1.513-.864965 3.3903-.864965 4.9905h1.999995c0-1.3458.31083-3.0074.76179-4.3564.22531-.674.47171-1.2276.7047-1.60675.11676-.18999.21301-.30786.27932-.37195.07354-.07109.05669-.02505-.05564-.00175zm-3.283825 8.29513c0 1.7451.768025 3.384 1.460675 4.5225.35415.5821.70732 1.0637.97263 1.4007.13303.169.24498.3029.32526.3964.04017.0467.0725.0834.09567.1094.01159.013.0209.0233.02776.0308.00343.0038.00625.0069.00844.0093.0011.0012.00203.0022.00281.0031.00039.0004.00074.0008.00105.0011.00015.0002.00035.0004.00043.0005.00019.0002.00037.0004.73527-.6778.73491-.6782.73507-.678.73522-.6778.00004 0 .00018.0002.00025.0003.00015.0001.00026.0002.00033.0003.00014.0002.00012.0001-.00004 0-.00034-.0004-.00129-.0015-.00284-.0032-.00309-.0034-.00855-.0094-.01622-.018-.01535-.0172-.03953-.0446-.07128-.0816-.06354-.0739-.15707-.1856-.2706-.3299-.22781-.2894-.53214-.7044-.83549-1.2031-.62235-1.0229-1.16933-2.282-1.16933-3.483zm2.665395 5.5323c-1.11944 4.0947-.46587 7.0565.64662 9.2638l1.78597-.9002c-.89751-1.7807-1.48794-4.2349-.50338-7.8362zm.64662 9.2638c.58631 1.1633 1.49683 2.0956 2.21938 2.7185.36732.3167.70052.5658.94382.7369.12193.0858.22208.1525.29362.199.03579.0232.06449.0414.08525.0544.01038.0066.01878.0118.0251.0157.00316.0019.0058.0035.0079.0048.00106.0006.00198.0012.00276.0017.00039.0002.00075.0004.00108.0006.00016.0001.00038.0003.00046.0003.00021.0001.00041.0003.51861-.855.51821-.8552.5184-.8551.51857-.855.00005 0 .00022.0001.00031.0002.00019.0001.00035.0002.00048.0002.00025.0002.00037.0003.00036.0003-.00002 0-.00055-.0004-.00159-.001-.00207-.0013-.00614-.0038-.01212-.0075-.01196-.0075-.0315-.0199-.05783-.037-.0527-.0342-.13228-.0872-.23229-.1575-.20062-.1412-.48022-.35-.78853-.6158-.6287-.5421-1.32068-1.2733-1.73937-2.104zm3.12048 2.666c-.3316 1.5367-.16081 3.3384.36462 4.9015l1.89577-.6372c-.43257-1.2869-.54778-2.7192-.30539-3.8425zm.36442 4.9009c.17512.5221.50593 1.0111.83723 1.4187.34073.4191.73332.8138 1.09479 1.1475.36357.3356.70913.622.96333.8241.1275.1014.2331.1826.3078.2391.0374.0282.0672.0504.0881.0659.0105.0078.0188.0139.0248.0182.003.0022.0054.004.0072.0053.0009.0007.0017.0012.0023.0017.0003.0002.0005.0004.0007.0005s.0003.0002.0004.0003c.0001 0 .0002.0001.5874-.8093.5873-.8094.5874-.8093.5875-.8093 0 0 .0001.0001.0001.0001.0001.0001.0001.0001.0001.0001s-.0001-.0001-.0004-.0003c-.0006-.0004-.0018-.0013-.0035-.0026-.0035-.0025-.0092-.0067-.0171-.0125-.0157-.0116-.0399-.0296-.0714-.0535-.0632-.0478-.1557-.1188-.269-.2089-.2273-.1808-.5335-.4348-.8517-.7285-.3203-.2957-.6393-.6194-.89952-.9395-.26964-.3317-.42908-.6027-.49296-.7931zm3.91405 2.912c-.6258-.7799-.6256-.7801-.6255-.7802s.0003-.0002.0004-.0003c.0002-.0002.0004-.0003.0005-.0004.0004-.0003.0006-.0005.0008-.0006.0003-.0003.0002-.0002-.0002.0001-.0007.0006-.0029.0023-.0065.0051-.0071.0055-.0197.0152-.0376.0287-.036.0269-.0932.0688-.1705.1225-.1547.1074-.389.2612-.6932.4356-.61014.3497-1.49123.7764-2.56772 1.0814l.54511 1.9243c1.26751-.3591 2.29991-.8594 3.01731-1.2706.3595-.2061.6425-.3913.839-.5278.0984-.0683.1754-.1245.2297-.1653.0272-.0203.0487-.0369.0645-.0491.0079-.0061.0143-.0112.0193-.0151.0025-.002.0046-.0036.0063-.005.0009-.0007.0017-.0014.0024-.0019.0003-.0003.0007-.0005.001-.0008.0001-.0001.0003-.0003.0004-.0003.0002-.0002.0004-.0003-.6255-.7803zm-4.0999.892c-.991.2811-2.53282.2846-4.0058.201-.71651-.0407-1.37484-.0986-1.90241-.1421-.25906-.0213-.495555-.04-.684713-.0499-.137199-.0072-.394934-.0211-.6026521.0205l.3930191 1.961c-.087967.0176-.10189.005.105056.0158.154986.0081.362968.0242.62499.0458.51458.0425 1.20481.1032 1.95343.1457 1.45727.0827 3.31195.1101 4.66495-.2738zm-7.1939975.0292c-.5303485.1054-.7424785.5397-.7885755.6373-.075039.1589-.114015.3216-.137063.4391-.048528.2472-.073457.5495-.087524.8545-.02874.6232-.01872 1.4326.005288 2.2389.024179.812.06341 1.6458.096257 2.3246.033893.7004.05855 1.1939.05855 1.3764h1.999995c0-.246-.02909-.8161-.06088-1.4731-.03284-.6786-.07124-1.4959-.09481-2.2874-.023736-.7972-.031594-1.5437-.00652-2.0873.01284-.2784.03274-.4623.05218-.5614.01094-.0557.01174-.0311-.01708.0299-.015.0318-.055807.112-.138458.1999-.086362.0919-.247897.2218-.491495.2702zm-.8530675 7.8708c0 1.3742.99959 2.3033 1.789518 2.8919l1.194967-1.6038c-.74008-.5514-.98449-.9543-.98449-1.2881zm1.789518 2.8919c.275677.2054.885807.5423 1.697717.942.8432.4152 1.97732.9333 3.35627 1.502 2.75771 1.1372 6.50956 2.4828 10.88976 3.6124l.4994-1.9366c-4.2787-1.1034-7.94238-2.4178-10.62667-3.5248-1.34205-.5534-2.43555-1.0535-3.23535-1.4473-.8311-.4092-1.27934-.6719-1.38616-.7515zm15.943747 6.0564c8.9536 2.3087 15.9851.2841 21.2664-1.9983l-.7934-1.8359c-5.0526 2.1836-11.6071 4.0549-19.9736 1.8976zm21.2664-1.9983c2.7742-1.199 5.5669-3.588 8.0814-6.3015 2.53-2.7302 4.8487-5.8662 6.665-8.6559l-1.6761-1.0912c-1.7717 2.7213-4.0221 5.7613-6.4558 8.3877-2.4492 2.643-5.0151 4.7909-7.4079 5.825zm14.7463-14.9573c1.8487-2.839 3.3728-6.2731 4.4287-8.9693.5301-1.3537.9466-2.5328 1.2309-3.3746.1423-.4211.2516-.7582.3256-.9911.037-.1164.0653-.2068.0844-.2687.0096-.0309.0169-.0547.0219-.071.0025-.0082.0044-.0145.0057-.0189.0007-.0022.0012-.0039.0016-.0052.0002-.0006.0003-.0011.0004-.0015.0001-.0001.0001-.0003.0002-.0004 0-.0002.0001-.0003-.9574-.289-.9574-.2886-.9574-.2887-.9574-.2888v.0001c0 .0001-.0001.0003-.0002.0007-.0002.0007-.0005.0018-.001.0034-.001.0033-.0026.0085-.0047.0155-.0043.014-.0109.0355-.0197.064-.0177.057-.0443.1425-.0797.2537-.0708.2226-.1764.5483-.3145.9572-.2763.818-.682 1.9667-1.1984 3.2853-1.0371 2.6483-2.503 5.9362-4.2424 8.6072zm5.142-13.9897c.4698.8828.4699.8828.47.8827 0 0 .0001-.0001.0002-.0001.0002-.0001.0004-.0002.0006-.0003.0005-.0003.001-.0006.0016-.0009.0012-.0006.0027-.0014.0046-.0024.0036-.002.0086-.0047.0149-.0081.0125-.0068.0301-.0164.0526-.0288.0449-.0248.1094-.0608.192-.1081.165-.0946.4024-.2343.7-.419.5951-.3693 1.432-.9196 2.4139-1.651l-1.1947-1.6039c-.9312.6935-1.7207 1.2123-2.2739 1.5557-.2765.1716-.4937.2993-.6397.3829-.0729.0418-.1281.0726-.1639.0923-.0179.0099-.0309.017-.039.0214-.004.0022-.0068.0037-.0083.0045-.0007.0004-.0012.0006-.0013.0007 0 0 0 0 .0001-.0001.0001 0 .0002-.0001.0003-.0001 0 0 .0001-.0001.0001-.0001.0001 0 .0002-.0001.4699.8827zm3.8502-1.3359c2.2339-1.6632 3.0257-4.4216 3.0823-6.0881l-1.9989-.0679c-.0434 1.2774-.6837 3.365-2.2777 4.5518zm3.0823-6.0882c.0369-1.0905-.5193-2.0016-.9604-2.5611-.2321-.2944-.4637-.5311-.6372-.6946-.0874-.0823-.1617-.1477-.2163-.1941-.0273-.0232-.0499-.0418-.0667-.0555-.0085-.0069-.0155-.0126-.021-.017-.0028-.0022-.0052-.0041-.0072-.0057-.001-.0007-.0019-.0015-.0027-.0021-.0004-.0003-.0008-.0006-.0011-.0009-.0002-.0001-.0005-.0003-.0006-.0004-.0002-.0002-.0004-.0004-.6163.7875-.6158.7879-.616.7877-.6162.7875-.0001 0-.0003-.0002-.0004-.0003-.0003-.0002-.0005-.0004-.0008-.0005-.0004-.0004-.0007-.0006-.001-.0008-.0004-.0004-.0006-.0005-.0004-.0003.0005.0003.0023.0018.0054.0043.0063.0051.0177.0145.0335.0279.0316.0269.0803.0696.1403.1261.1212.1142.2814.2784.4381.4771.3364.4267.5451.8706.5321 1.2551zm-1.5295-2.7439v-.002h-2v.002zm-9.8445 7.0412-.0028.0055 1.7811.9097.0028-.0055zm-.0001.0001c-.0004.0008-.0008.0016-.0013.0025-.0005.001-.001.002-.0015.003l1.7813.9094c.0017-.0034.0007-.0015.0028-.0055z" mask="url(#b)"/></g><path clip-rule="evenodd" d="m58.1621 20.7252c.574 0 3.014-1.377 3.3-1.14.288.24-.717 2.09-2.487 3.137-1.77 1.045-3.11 1.568-3.445 1.473s-1.555-2.47-1.77-2.435c-.215.036-.79.5-.646.82s1.543 2.173 1.4 2.46l-.0028.0055c-.1431.2804-.2146.4204-.4292.2425-.215-.178-1.543-2.993-1.902-3.064-.36-.072-.86.712-.646 1.068.215.356 1.973 2.637 1.938 2.993-.036.357-.43 1.996-.574 1.747-.144-.25-2.332-4.276-2.548-4.24-.215.036-.718.962-.61 1.247s2.655 3.99 2.655 4.31c0 .322-.753 1.925-1.005 1.64-.25-.285-2.476-5.024-2.69-5.024-.216 0-.826.784-.79.998s2.87 4.953 2.942 5.31c.072.355-.61 2.386-.86 2.244-.252-.143-2.55-5.88-2.836-5.915-.287-.036-.718.82-.61 1.176s2.8 5.452 2.835 5.88c.037.427-.43 1.175-.573 1.068-.144-.106-3.05-7.268-3.3-7.232-.252.036-.683.748-.432 1.568.25.82 3.193 6.164 3.23 6.592.035.428-.72 1.425-.826 1.247-.11-.178-3.194-6.984-3.48-6.912-.288.07-.683 1.14-.432 1.568.25.43 3.41 5.95 3.41 6.13s-.826 1.46-1.042 1.354c-.215-.107-2.87-6.414-3.158-6.378-.287.036-.825.677-.502 1.39s3.122 5.452 3.014 5.772-.86 1.39-1.005 1.14-2.978-6.7-3.3-6.7-1.113.714-.826 1.284c.286.57 3.48 6.2 3.336 6.342-.144.143-1.256 1.603-1.435 1.497-.178-.106-3.228-6.626-3.55-6.52-.324.108-.79.607-.54 1.07.252.463 3.41 5.986 3.338 6.164s-.86.89-1.076.64c-.215-.248-3.158-6.092-3.48-6.092-.324 0-1.006.926-.79 1.283.215.356 3.66 5.665 3.516 5.915s-1.22 1.176-1.363.998c-.144-.178-2.8-5.558-3.337-5.523-.538.036-.933.855-.682 1.14.25.285 2.942 4.81 2.942 4.81s-1.292.784-1.507.534c-.214-.25-2.403-5.203-2.618-5.203s-1.148.57-.754 1.14c.395.57 2.583 4.347 2.368 4.525s-.897.5-1.112.25-2.44-5.203-2.655-5.203-1.077.355-.862.712c.215.356 2.512 4.988 2.404 5.06-.108.07-1.543.5-1.722.32-.18-.177-2.117-4.31-2.44-4.31s-.646.5-.574.748c.072.25 2.117 3.813 2.01 3.884-.11.07-1.508.285-1.652.178s-1.973-4.383-2.26-4.454c-.288-.07-.934.5-.79.89.144.393 1.794 3.564 1.615 3.635-.18.07-1.4.143-1.58-.107s-1.65-3.706-1.973-3.777c-.323-.072-.897.106-.682.64s1.902 3.563 1.65 3.563-1.614 0-1.757-.107c-.144-.107-1.615-3.634-1.866-3.706-.25-.07-1.076-.143-.933.32.143.464 1.72 3.172 1.434 3.172s-1.758-.285-2.01-.534c-.25-.25-1.578-3.492-1.865-3.527-.288-.035-.898.286-.826.714s1.364 2.744 1.04 2.672c-.322-.07-1.793-.32-1.83-.5-.035-.177-1.47-3.17-1.72-3.313s-1.113.036-.898.428c.215.393 1.148 2.388 1.005 2.388s-3.515-.998-6.31402-2.423c-2.799-1.425-5.31-3.634-4.988-3.706s3.947.213 6.423-.714c2.47702-.926 4.95302-1.888 5.09602-2.174.144-.285-.287-.926-.395-.962-.107-.036-3.12-.962-3.76702-3.136-.646-2.173-.144-4.525-.538-4.81-.395-.285-2.404-1.14-3.41-4.24s.11-7.304-.107-7.59c-.215-.284-.562-.866-.91-.77-.36.098-1.53-2.33-1.578-4.61s.957-5.31997 1.196-5.31997c.24 0 6.65002 6.17597 10.04702 9.02697s7.368 5.797 9.712 6.177 3.3.475 4.4-1.758c1.1-2.234 2.297-7.697 3.972-10.215 1.674-2.518 5.12-5.36797 9.568-6.07997s7.798.522 9.568 2.992c1.77 2.46997 1.866 5.69997 2.296 5.98597.43.285 2.343.19 4.64-.618 2.296-.808 3.11-.998 3.253-.998.144 0-.526 1.473-2.01 2.708-1.482 1.235-2.535 2.09-2.535 2.66s.29.996.864.996zm-52.26702-6.912c-.18.927-.467 2.21.215 2.744.682.535 1.22 1.034.932 1.248-.23.17-1.004.213-1.83-.5-.824-.712-1.11-2.138-.86-3.172.251-1.033 1.723-1.246 1.543-.32zm17.08002 12.829c1.399.71 2.727 0 3.265.07.538.073-.323 1.213-1.902 1.213s-3.516-.82-4.556-1.782-.608-1.525-.18-1.675c.61-.214 1.973 1.46 3.373 2.174zm10.513-10.369c.717-1.248 2.224-2.245 2.582-2.138l.001.001c.359.106-.107.748-.574 1.32-.466.57-1.292 2.137-1.722 3.49-.431 1.355-.703 1.735-1.257 1.425-.824-.464.252-2.851.97-4.098z" fill="#1da1f2" fill-rule="evenodd"/></g></svg>