<svg width="64" height="65" viewBox="0 0 64 65" fill="none" xmlns="http://www.w3.org/2000/svg">
<g clip-path="url(#clip0)">
<mask id="path-1-inside-1" fill="white">
<path d="M61.138 19.8344C59.176 14.1804 54.225 10.1944 50.722 9.63736C47.219 9.08036 38.672 8.52536 31.525 8.71036C24.378 8.89536 11.348 9.96236 6.86499 11.0284C2.37999 12.0944 0.883987 14.7844 0.276987 17.0084C-0.330013 19.2314 0.229987 26.4624 0.324987 31.7944C0.419987 37.1264 0.994987 41.3284 1.81999 45.0974C2.65999 48.9444 5.13599 53.1174 7.28499 54.4604C9.43499 55.8044 16.065 56.3144 22.932 56.5924C29.798 56.8704 40.962 56.3604 47.78 56.1754C54.6 55.9914 57.355 54.9714 59.644 53.4414C61.932 51.9114 63.848 45.4214 63.988 38.5154C64.128 31.6104 63.1 25.4904 61.138 19.8344ZM62.026 33.9264C61.886 33.6484 59.69 29.2914 58.943 28.5034C58.196 27.7134 57.963 28.2704 57.915 28.5484C57.868 28.8264 59.223 30.6344 59.41 31.0514C59.597 31.4684 61.98 35.8714 61.98 36.3354C61.98 36.7994 61.84 40.0434 61.652 39.9514C61.465 39.8584 58.149 31.9784 57.822 32.0714C57.495 32.1644 56.842 32.7214 57.075 33.1834C57.308 33.6454 61.185 41.1094 61.185 41.4804C61.185 41.8504 60.578 44.3084 60.391 43.9374C60.205 43.5674 56.701 35.0844 56.375 35.0374C56.048 34.9914 55.675 35.9644 55.675 36.1494C55.675 36.3344 59.925 45.0494 59.925 45.0494C59.925 45.0494 58.94 47.5544 58.8 47.5544C58.66 47.5544 54.69 37.7744 54.363 37.8194C54.036 37.8654 53.849 38.7464 53.849 38.7464C53.849 38.7464 57.959 48.6194 57.867 48.7584C57.774 48.8984 56.607 50.4284 56.513 50.2414C56.42 50.0564 53.337 40.6464 52.777 40.6464C52.217 40.6464 51.843 40.9244 51.937 41.3414C52.029 41.7584 55.907 50.2874 55.672 50.5194C55.439 50.7514 54.224 51.2614 54.037 51.0754C53.85 50.8914 50.44 42.6404 50.207 42.5474C49.974 42.4544 49.507 42.7324 49.507 42.9174C49.507 43.1034 53.102 51.7714 53.102 51.7714C53.102 51.7714 50.72 52.5594 50.627 52.3744C50.534 52.1884 47.357 43.9374 47.077 43.8904C46.797 43.8434 46.143 44.3074 46.19 44.5854C46.238 44.8654 49.647 52.4204 49.414 52.5124C49.18 52.6054 47.124 52.6974 46.984 52.6054C46.844 52.5124 44.51 45.4674 44.276 45.4204C44.043 45.3744 43.296 45.8374 43.249 45.9764C43.201 46.1164 45.817 52.8844 45.629 52.8364C45.443 52.7914 43.995 52.9304 43.902 52.7444C43.809 52.5594 41.752 45.7444 41.612 45.7444C41.472 45.7444 40.586 46.0244 40.586 46.1624C40.586 46.3004 43.061 53.0694 42.874 53.0694C42.687 53.0694 41.006 53.0694 40.866 52.9294C40.726 52.7914 38.716 46.7194 38.484 46.6724C38.25 46.6264 37.316 46.8574 37.364 47.1364C37.41 47.4144 39.604 52.9764 39.371 52.9764C39.138 52.9764 37.363 52.9764 37.176 52.7914C36.989 52.6064 35.121 46.7194 34.794 46.7194C34.467 46.7194 33.674 46.8124 33.766 47.3224C33.86 47.8324 36.288 53.0224 36.008 53.0224C35.728 53.0224 34.092 53.2084 33.858 53.0224C33.625 52.8384 31.618 46.7194 31.198 46.7194C30.778 46.7194 30.168 47.1824 30.168 47.4614C30.168 47.7394 32.831 53.1614 32.644 53.1614C32.457 53.1614 31.056 53.1614 30.916 53.0234C30.776 52.8834 28.58 47.4134 28.346 47.4134C28.114 47.4134 27.086 47.4134 27.226 47.7384C27.366 48.0624 29.936 53.0224 29.701 53.0224C29.468 53.0224 28.206 53.0224 28.066 52.9764C27.926 52.9304 26.056 47.7384 25.684 47.7384C25.31 47.7384 24.376 48.1084 24.47 48.3414C24.563 48.5734 26.852 53.0234 26.665 53.0234C26.478 53.0234 24.798 52.9334 24.798 52.9334C24.798 52.9334 23.023 48.4834 22.743 48.4374C22.463 48.3924 21.623 48.7624 21.715 49.0414C21.809 49.3194 23.865 52.8884 23.63 52.9354C23.396 52.9814 22.09 53.0284 21.95 52.8424C21.81 52.6574 20.408 49.4124 20.22 49.4124C20.032 49.4124 18.913 49.5524 19.1 49.8764C19.287 50.1994 20.735 52.9814 20.595 52.9814C20.455 52.9814 19.147 52.9814 18.915 52.7964C18.681 52.6114 17.793 49.8294 17.465 49.8294C17.139 49.8294 16.345 50.0614 16.532 50.3854C16.719 50.7084 17.7 52.7954 17.512 52.7954C17.326 52.7954 16.252 52.8404 16.112 52.6094C15.972 52.3774 15.038 49.9214 14.712 49.9214C14.384 49.9214 13.402 50.1994 13.59 50.4774C13.777 50.7554 14.618 52.5174 14.43 52.5174C14.244 52.5174 13.217 52.3774 13.217 52.3774C13.217 52.3774 12.282 50.1074 11.862 50.0134C11.442 49.9204 10.554 50.2454 10.742 50.4304C10.928 50.6154 11.535 52.2384 11.302 52.1454C11.067 52.0524 7.84399 51.3574 6.25699 49.9654C4.66699 48.5754 2.33099 44.2654 2.09699 39.7214C1.86399 35.1784 1.39699 24.9814 1.34999 21.9214C1.30299 18.8634 1.72399 17.2874 2.51699 15.6644C3.17499 14.3184 4.71199 13.0214 9.19699 12.1874C13.682 11.3534 20.362 10.3344 26.76 10.1944C33.16 10.0544 41.426 10.6114 44.135 10.6114C46.845 10.6114 53.103 10.9814 56.092 14.5514C59.081 18.1214 59.922 20.4844 60.809 23.4044C61.699 26.3244 61.651 27.2984 61.651 27.2984C61.651 27.2984 59.456 23.0344 59.316 23.6364C59.176 24.2394 58.989 25.1664 59.176 25.4444C59.363 25.7224 61.838 29.8014 61.886 30.2644C61.931 30.7284 62.166 34.2044 62.026 33.9264ZM43.062 29.8464C43.015 28.8744 41.708 28.5034 38.112 27.2984C34.515 26.0934 29.282 24.4244 27.462 24.3314C25.64 24.2384 24.426 25.9534 24.379 27.4834C24.331 29.0134 24.425 38.1434 24.519 38.7464C24.612 39.3494 25.029 39.9364 25.686 39.9514C27.881 39.9974 33.253 37.0314 37.783 34.4354C42.313 31.8394 43.108 30.8204 43.061 29.8454L43.062 29.8464ZM27.836 37.9594C27.506 37.9294 27.509 28.6424 27.929 28.5494C28.349 28.4564 35.261 29.5224 37.036 30.1714C38.811 30.8214 39.838 31.0984 39.746 31.4694C39.651 31.8394 36.288 33.6494 33.299 35.2694C30.309 36.8934 28.349 38.0054 27.835 37.9594H27.836ZM11.862 14.3644C11.022 14.4584 8.49899 15.4314 5.97699 17.0544C3.45499 18.6774 2.66099 20.9474 2.75399 23.0324C2.84699 25.1184 3.12799 25.6744 3.54799 25.6744C4.10799 25.6744 4.38799 23.8664 4.24799 23.1714C4.10799 22.4764 4.90299 20.2974 5.83799 19.1384C6.77099 17.9784 11.488 16.0324 12.048 15.5684C12.608 15.1084 12.703 14.2734 11.862 14.3654V14.3644ZM6.67799 44.7744C6.02399 44.2174 5.93099 42.4094 5.83799 42.1314C5.74299 41.8534 4.50399 41.7614 4.48199 41.9914C4.24899 44.4494 5.97699 46.7214 6.63199 46.9984C7.28499 47.2764 7.98499 46.8134 7.98499 46.3484C7.98499 45.8854 7.33099 45.3294 6.67799 44.7744ZM22.978 30.6344C22.791 30.4044 21.818 30.0044 21.578 30.5424C21.39 30.9594 21.624 36.9394 21.624 37.6804C21.624 38.4224 21.904 39.3024 22.324 39.4404C22.744 39.5804 23.166 38.8854 23.026 38.0504C22.886 37.2174 23.166 30.8674 22.978 30.6354V30.6344ZM46.378 32.5364C45.585 32.9994 36.892 37.9564 36.711 38.3764C36.571 38.7004 36.759 39.0714 37.179 39.1644C37.599 39.2574 38.159 39.4884 39.469 38.6544C40.776 37.8204 47.829 33.9264 48.249 33.5094C48.669 33.0924 48.529 32.6294 48.156 32.3494C47.781 32.0724 47.174 32.0724 46.38 32.5364H46.378ZM48.668 12.8364C48.434 12.8824 48.212 14.0904 48.62 14.1804C49.46 14.3654 51.19 14.5044 53.01 15.7104C54.833 16.9154 55.58 19.0474 55.907 19.6044C56.234 20.1604 56.701 19.8364 57.027 19.2344C57.355 18.6304 56.935 17.9344 54.693 15.1544C52.451 12.3724 48.902 12.7894 48.668 12.8364Z"/>
<path fill-rule="evenodd" clip-rule="evenodd" d="M62.026 33.9264C61.886 33.6484 59.69 29.2914 58.943 28.5034C58.196 27.7134 57.963 28.2704 57.915 28.5484C57.868 28.8264 59.223 30.6344 59.41 31.0514C59.597 31.4684 61.98 35.8714 61.98 36.3354C61.98 36.7994 61.84 40.0434 61.652 39.9514C61.465 39.8584 58.149 31.9784 57.822 32.0714C57.495 32.1644 56.842 32.7214 57.075 33.1834C57.308 33.6454 61.185 41.1094 61.185 41.4804C61.185 41.8504 60.578 44.3084 60.391 43.9374C60.205 43.5674 56.701 35.0844 56.375 35.0374C56.048 34.9914 55.675 35.9644 55.675 36.1494C55.675 36.3344 59.925 45.0494 59.925 45.0494C59.925 45.0494 58.94 47.5544 58.8 47.5544C58.66 47.5544 54.69 37.7744 54.363 37.8194C54.036 37.8654 53.849 38.7464 53.849 38.7464C53.849 38.7464 57.959 48.6194 57.867 48.7584C57.774 48.8984 56.607 50.4284 56.513 50.2414C56.42 50.0564 53.337 40.6464 52.777 40.6464C52.217 40.6464 51.843 40.9244 51.937 41.3414C52.029 41.7584 55.907 50.2874 55.672 50.5194C55.439 50.7514 54.224 51.2614 54.037 51.0754C53.85 50.8914 50.44 42.6404 50.207 42.5474C49.974 42.4544 49.507 42.7324 49.507 42.9174C49.507 43.1034 53.102 51.7714 53.102 51.7714C53.102 51.7714 50.72 52.5594 50.627 52.3744C50.534 52.1884 47.357 43.9374 47.077 43.8904C46.797 43.8434 46.143 44.3074 46.19 44.5854C46.238 44.8654 49.647 52.4204 49.414 52.5124C49.18 52.6054 47.124 52.6974 46.984 52.6054C46.844 52.5124 44.51 45.4674 44.276 45.4204C44.043 45.3744 43.296 45.8374 43.249 45.9764C43.201 46.1164 45.817 52.8844 45.629 52.8364C45.443 52.7914 43.995 52.9304 43.902 52.7444C43.809 52.5594 41.752 45.7444 41.612 45.7444C41.472 45.7444 40.586 46.0244 40.586 46.1624C40.586 46.3004 43.061 53.0694 42.874 53.0694C42.687 53.0694 41.006 53.0694 40.866 52.9294C40.726 52.7914 38.716 46.7194 38.484 46.6724C38.25 46.6264 37.316 46.8574 37.364 47.1364C37.41 47.4144 39.604 52.9764 39.371 52.9764C39.138 52.9764 37.363 52.9764 37.176 52.7914C36.989 52.6064 35.121 46.7194 34.794 46.7194C34.467 46.7194 33.674 46.8124 33.766 47.3224C33.86 47.8324 36.288 53.0224 36.008 53.0224C35.728 53.0224 34.092 53.2084 33.858 53.0224C33.625 52.8384 31.618 46.7194 31.198 46.7194C30.778 46.7194 30.168 47.1824 30.168 47.4614C30.168 47.7394 32.831 53.1614 32.644 53.1614C32.457 53.1614 31.056 53.1614 30.916 53.0234C30.776 52.8834 28.58 47.4134 28.346 47.4134C28.114 47.4134 27.086 47.4134 27.226 47.7384C27.366 48.0624 29.936 53.0224 29.701 53.0224C29.468 53.0224 28.206 53.0224 28.066 52.9764C27.926 52.9304 26.056 47.7384 25.684 47.7384C25.31 47.7384 24.376 48.1084 24.47 48.3414C24.563 48.5734 26.852 53.0234 26.665 53.0234C26.478 53.0234 24.798 52.9334 24.798 52.9334C24.798 52.9334 23.023 48.4834 22.743 48.4374C22.463 48.3924 21.623 48.7624 21.715 49.0414C21.809 49.3194 23.865 52.8884 23.63 52.9354C23.396 52.9814 22.09 53.0284 21.95 52.8424C21.81 52.6574 20.408 49.4124 20.22 49.4124C20.032 49.4124 18.913 49.5524 19.1 49.8764C19.287 50.1994 20.735 52.9814 20.595 52.9814C20.455 52.9814 19.147 52.9814 18.915 52.7964C18.681 52.6114 17.793 49.8294 17.465 49.8294C17.139 49.8294 16.345 50.0614 16.532 50.3854C16.719 50.7084 17.7 52.7954 17.512 52.7954C17.326 52.7954 16.252 52.8404 16.112 52.6094C15.972 52.3774 15.038 49.9214 14.712 49.9214C14.384 49.9214 13.402 50.1994 13.59 50.4774C13.777 50.7554 14.618 52.5174 14.43 52.5174C14.244 52.5174 13.217 52.3774 13.217 52.3774C13.217 52.3774 12.282 50.1074 11.862 50.0134C11.442 49.9204 10.554 50.2454 10.742 50.4304C10.928 50.6154 11.535 52.2384 11.302 52.1454C11.067 52.0524 7.84399 51.3574 6.25699 49.9654C4.66699 48.5754 2.33099 44.2654 2.09699 39.7214C1.86399 35.1784 1.39699 24.9814 1.34999 21.9214C1.30299 18.8634 1.72399 17.2874 2.51699 15.6644C3.17499 14.3184 4.71199 13.0214 9.19699 12.1874C13.682 11.3534 20.362 10.3344 26.76 10.1944C33.16 10.0544 41.426 10.6114 44.135 10.6114C46.845 10.6114 53.103 10.9814 56.092 14.5514C59.081 18.1214 59.922 20.4844 60.809 23.4044C61.699 26.3244 61.651 27.2984 61.651 27.2984C61.651 27.2984 59.456 23.0344 59.316 23.6364C59.176 24.2394 58.989 25.1664 59.176 25.4444C59.363 25.7224 61.838 29.8014 61.886 30.2644C61.931 30.7284 62.166 34.2044 62.026 33.9264ZM38.112 27.2984C41.708 28.5034 43.015 28.8744 43.062 29.8464L43.061 29.8454C43.108 30.8204 42.313 31.8394 37.783 34.4354C33.253 37.0314 27.881 39.9974 25.686 39.9514C25.029 39.9364 24.612 39.3494 24.519 38.7464C24.425 38.1434 24.331 29.0134 24.379 27.4834C24.426 25.9534 25.64 24.2384 27.462 24.3314C29.282 24.4244 34.515 26.0934 38.112 27.2984ZM5.97699 17.0544C8.49899 15.4314 11.022 14.4584 11.862 14.3644V14.3654C12.703 14.2734 12.608 15.1084 12.048 15.5684C11.488 16.0324 6.77099 17.9784 5.83799 19.1384C4.90299 20.2974 4.10799 22.4764 4.24799 23.1714C4.38799 23.8664 4.10799 25.6744 3.54799 25.6744C3.12799 25.6744 2.84699 25.1184 2.75399 23.0324C2.66099 20.9474 3.45499 18.6774 5.97699 17.0544ZM5.83799 42.1314C5.93099 42.4094 6.02399 44.2174 6.67799 44.7744C7.33099 45.3294 7.98499 45.8854 7.98499 46.3484C7.98499 46.8134 7.28499 47.2764 6.63199 46.9984C5.97699 46.7214 4.24899 44.4494 4.48199 41.9914C4.50399 41.7614 5.74299 41.8534 5.83799 42.1314ZM21.578 30.5424C21.818 30.0044 22.791 30.4044 22.978 30.6344V30.6354C23.166 30.8674 22.886 37.2174 23.026 38.0504C23.166 38.8854 22.744 39.5804 22.324 39.4404C21.904 39.3024 21.624 38.4224 21.624 37.6804C21.624 36.9394 21.39 30.9594 21.578 30.5424ZM36.711 38.3764C36.892 37.9564 45.585 32.9994 46.378 32.5364H46.38C47.174 32.0724 47.781 32.0724 48.156 32.3494C48.529 32.6294 48.669 33.0924 48.249 33.5094C47.829 33.9264 40.776 37.8204 39.469 38.6544C38.159 39.4884 37.599 39.2574 37.179 39.1644C36.759 39.0714 36.571 38.7004 36.711 38.3764ZM48.62 14.1804C48.212 14.0904 48.434 12.8824 48.668 12.8364C48.902 12.7894 52.451 12.3724 54.693 15.1544C56.935 17.9344 57.355 18.6304 57.027 19.2344C56.701 19.8364 56.234 20.1604 55.907 19.6044C55.58 19.0474 54.833 16.9154 53.01 15.7104C51.19 14.5044 49.46 14.3654 48.62 14.1804Z"/>
</mask>
<path d="M61.138 19.8344C59.176 14.1804 54.225 10.1944 50.722 9.63736C47.219 9.08036 38.672 8.52536 31.525 8.71036C24.378 8.89536 11.348 9.96236 6.86499 11.0284C2.37999 12.0944 0.883987 14.7844 0.276987 17.0084C-0.330013 19.2314 0.229987 26.4624 0.324987 31.7944C0.419987 37.1264 0.994987 41.3284 1.81999 45.0974C2.65999 48.9444 5.13599 53.1174 7.28499 54.4604C9.43499 55.8044 16.065 56.3144 22.932 56.5924C29.798 56.8704 40.962 56.3604 47.78 56.1754C54.6 55.9914 57.355 54.9714 59.644 53.4414C61.932 51.9114 63.848 45.4214 63.988 38.5154C64.128 31.6104 63.1 25.4904 61.138 19.8344ZM62.026 33.9264C61.886 33.6484 59.69 29.2914 58.943 28.5034C58.196 27.7134 57.963 28.2704 57.915 28.5484C57.868 28.8264 59.223 30.6344 59.41 31.0514C59.597 31.4684 61.98 35.8714 61.98 36.3354C61.98 36.7994 61.84 40.0434 61.652 39.9514C61.465 39.8584 58.149 31.9784 57.822 32.0714C57.495 32.1644 56.842 32.7214 57.075 33.1834C57.308 33.6454 61.185 41.1094 61.185 41.4804C61.185 41.8504 60.578 44.3084 60.391 43.9374C60.205 43.5674 56.701 35.0844 56.375 35.0374C56.048 34.9914 55.675 35.9644 55.675 36.1494C55.675 36.3344 59.925 45.0494 59.925 45.0494C59.925 45.0494 58.94 47.5544 58.8 47.5544C58.66 47.5544 54.69 37.7744 54.363 37.8194C54.036 37.8654 53.849 38.7464 53.849 38.7464C53.849 38.7464 57.959 48.6194 57.867 48.7584C57.774 48.8984 56.607 50.4284 56.513 50.2414C56.42 50.0564 53.337 40.6464 52.777 40.6464C52.217 40.6464 51.843 40.9244 51.937 41.3414C52.029 41.7584 55.907 50.2874 55.672 50.5194C55.439 50.7514 54.224 51.2614 54.037 51.0754C53.85 50.8914 50.44 42.6404 50.207 42.5474C49.974 42.4544 49.507 42.7324 49.507 42.9174C49.507 43.1034 53.102 51.7714 53.102 51.7714C53.102 51.7714 50.72 52.5594 50.627 52.3744C50.534 52.1884 47.357 43.9374 47.077 43.8904C46.797 43.8434 46.143 44.3074 46.19 44.5854C46.238 44.8654 49.647 52.4204 49.414 52.5124C49.18 52.6054 47.124 52.6974 46.984 52.6054C46.844 52.5124 44.51 45.4674 44.276 45.4204C44.043 45.3744 43.296 45.8374 43.249 45.9764C43.201 46.1164 45.817 52.8844 45.629 52.8364C45.443 52.7914 43.995 52.9304 43.902 52.7444C43.809 52.5594 41.752 45.7444 41.612 45.7444C41.472 45.7444 40.586 46.0244 40.586 46.1624C40.586 46.3004 43.061 53.0694 42.874 53.0694C42.687 53.0694 41.006 53.0694 40.866 52.9294C40.726 52.7914 38.716 46.7194 38.484 46.6724C38.25 46.6264 37.316 46.8574 37.364 47.1364C37.41 47.4144 39.604 52.9764 39.371 52.9764C39.138 52.9764 37.363 52.9764 37.176 52.7914C36.989 52.6064 35.121 46.7194 34.794 46.7194C34.467 46.7194 33.674 46.8124 33.766 47.3224C33.86 47.8324 36.288 53.0224 36.008 53.0224C35.728 53.0224 34.092 53.2084 33.858 53.0224C33.625 52.8384 31.618 46.7194 31.198 46.7194C30.778 46.7194 30.168 47.1824 30.168 47.4614C30.168 47.7394 32.831 53.1614 32.644 53.1614C32.457 53.1614 31.056 53.1614 30.916 53.0234C30.776 52.8834 28.58 47.4134 28.346 47.4134C28.114 47.4134 27.086 47.4134 27.226 47.7384C27.366 48.0624 29.936 53.0224 29.701 53.0224C29.468 53.0224 28.206 53.0224 28.066 52.9764C27.926 52.9304 26.056 47.7384 25.684 47.7384C25.31 47.7384 24.376 48.1084 24.47 48.3414C24.563 48.5734 26.852 53.0234 26.665 53.0234C26.478 53.0234 24.798 52.9334 24.798 52.9334C24.798 52.9334 23.023 48.4834 22.743 48.4374C22.463 48.3924 21.623 48.7624 21.715 49.0414C21.809 49.3194 23.865 52.8884 23.63 52.9354C23.396 52.9814 22.09 53.0284 21.95 52.8424C21.81 52.6574 20.408 49.4124 20.22 49.4124C20.032 49.4124 18.913 49.5524 19.1 49.8764C19.287 50.1994 20.735 52.9814 20.595 52.9814C20.455 52.9814 19.147 52.9814 18.915 52.7964C18.681 52.6114 17.793 49.8294 17.465 49.8294C17.139 49.8294 16.345 50.0614 16.532 50.3854C16.719 50.7084 17.7 52.7954 17.512 52.7954C17.326 52.7954 16.252 52.8404 16.112 52.6094C15.972 52.3774 15.038 49.9214 14.712 49.9214C14.384 49.9214 13.402 50.1994 13.59 50.4774C13.777 50.7554 14.618 52.5174 14.43 52.5174C14.244 52.5174 13.217 52.3774 13.217 52.3774C13.217 52.3774 12.282 50.1074 11.862 50.0134C11.442 49.9204 10.554 50.2454 10.742 50.4304C10.928 50.6154 11.535 52.2384 11.302 52.1454C11.067 52.0524 7.84399 51.3574 6.25699 49.9654C4.66699 48.5754 2.33099 44.2654 2.09699 39.7214C1.86399 35.1784 1.39699 24.9814 1.34999 21.9214C1.30299 18.8634 1.72399 17.2874 2.51699 15.6644C3.17499 14.3184 4.71199 13.0214 9.19699 12.1874C13.682 11.3534 20.362 10.3344 26.76 10.1944C33.16 10.0544 41.426 10.6114 44.135 10.6114C46.845 10.6114 53.103 10.9814 56.092 14.5514C59.081 18.1214 59.922 20.4844 60.809 23.4044C61.699 26.3244 61.651 27.2984 61.651 27.2984C61.651 27.2984 59.456 23.0344 59.316 23.6364C59.176 24.2394 58.989 25.1664 59.176 25.4444C59.363 25.7224 61.838 29.8014 61.886 30.2644C61.931 30.7284 62.166 34.2044 62.026 33.9264ZM43.062 29.8464C43.015 28.8744 41.708 28.5034 38.112 27.2984C34.515 26.0934 29.282 24.4244 27.462 24.3314C25.64 24.2384 24.426 25.9534 24.379 27.4834C24.331 29.0134 24.425 38.1434 24.519 38.7464C24.612 39.3494 25.029 39.9364 25.686 39.9514C27.881 39.9974 33.253 37.0314 37.783 34.4354C42.313 31.8394 43.108 30.8204 43.061 29.8454L43.062 29.8464ZM27.836 37.9594C27.506 37.9294 27.509 28.6424 27.929 28.5494C28.349 28.4564 35.261 29.5224 37.036 30.1714C38.811 30.8214 39.838 31.0984 39.746 31.4694C39.651 31.8394 36.288 33.6494 33.299 35.2694C30.309 36.8934 28.349 38.0054 27.835 37.9594H27.836ZM11.862 14.3644C11.022 14.4584 8.49899 15.4314 5.97699 17.0544C3.45499 18.6774 2.66099 20.9474 2.75399 23.0324C2.84699 25.1184 3.12799 25.6744 3.54799 25.6744C4.10799 25.6744 4.38799 23.8664 4.24799 23.1714C4.10799 22.4764 4.90299 20.2974 5.83799 19.1384C6.77099 17.9784 11.488 16.0324 12.048 15.5684C12.608 15.1084 12.703 14.2734 11.862 14.3654V14.3644ZM6.67799 44.7744C6.02399 44.2174 5.93099 42.4094 5.83799 42.1314C5.74299 41.8534 4.50399 41.7614 4.48199 41.9914C4.24899 44.4494 5.97699 46.7214 6.63199 46.9984C7.28499 47.2764 7.98499 46.8134 7.98499 46.3484C7.98499 45.8854 7.33099 45.3294 6.67799 44.7744ZM22.978 30.6344C22.791 30.4044 21.818 30.0044 21.578 30.5424C21.39 30.9594 21.624 36.9394 21.624 37.6804C21.624 38.4224 21.904 39.3024 22.324 39.4404C22.744 39.5804 23.166 38.8854 23.026 38.0504C22.886 37.2174 23.166 30.8674 22.978 30.6354V30.6344ZM46.378 32.5364C45.585 32.9994 36.892 37.9564 36.711 38.3764C36.571 38.7004 36.759 39.0714 37.179 39.1644C37.599 39.2574 38.159 39.4884 39.469 38.6544C40.776 37.8204 47.829 33.9264 48.249 33.5094C48.669 33.0924 48.529 32.6294 48.156 32.3494C47.781 32.0724 47.174 32.0724 46.38 32.5364H46.378ZM48.668 12.8364C48.434 12.8824 48.212 14.0904 48.62 14.1804C49.46 14.3654 51.19 14.5044 53.01 15.7104C54.833 16.9154 55.58 19.0474 55.907 19.6044C56.234 20.1604 56.701 19.8364 57.027 19.2344C57.355 18.6304 56.935 17.9344 54.693 15.1544C52.451 12.3724 48.902 12.7894 48.668 12.8364Z" fill="black"/>
<path fill-rule="evenodd" clip-rule="evenodd" d="M62.026 33.9264C61.886 33.6484 59.69 29.2914 58.943 28.5034C58.196 27.7134 57.963 28.2704 57.915 28.5484C57.868 28.8264 59.223 30.6344 59.41 31.0514C59.597 31.4684 61.98 35.8714 61.98 36.3354C61.98 36.7994 61.84 40.0434 61.652 39.9514C61.465 39.8584 58.149 31.9784 57.822 32.0714C57.495 32.1644 56.842 32.7214 57.075 33.1834C57.308 33.6454 61.185 41.1094 61.185 41.4804C61.185 41.8504 60.578 44.3084 60.391 43.9374C60.205 43.5674 56.701 35.0844 56.375 35.0374C56.048 34.9914 55.675 35.9644 55.675 36.1494C55.675 36.3344 59.925 45.0494 59.925 45.0494C59.925 45.0494 58.94 47.5544 58.8 47.5544C58.66 47.5544 54.69 37.7744 54.363 37.8194C54.036 37.8654 53.849 38.7464 53.849 38.7464C53.849 38.7464 57.959 48.6194 57.867 48.7584C57.774 48.8984 56.607 50.4284 56.513 50.2414C56.42 50.0564 53.337 40.6464 52.777 40.6464C52.217 40.6464 51.843 40.9244 51.937 41.3414C52.029 41.7584 55.907 50.2874 55.672 50.5194C55.439 50.7514 54.224 51.2614 54.037 51.0754C53.85 50.8914 50.44 42.6404 50.207 42.5474C49.974 42.4544 49.507 42.7324 49.507 42.9174C49.507 43.1034 53.102 51.7714 53.102 51.7714C53.102 51.7714 50.72 52.5594 50.627 52.3744C50.534 52.1884 47.357 43.9374 47.077 43.8904C46.797 43.8434 46.143 44.3074 46.19 44.5854C46.238 44.8654 49.647 52.4204 49.414 52.5124C49.18 52.6054 47.124 52.6974 46.984 52.6054C46.844 52.5124 44.51 45.4674 44.276 45.4204C44.043 45.3744 43.296 45.8374 43.249 45.9764C43.201 46.1164 45.817 52.8844 45.629 52.8364C45.443 52.7914 43.995 52.9304 43.902 52.7444C43.809 52.5594 41.752 45.7444 41.612 45.7444C41.472 45.7444 40.586 46.0244 40.586 46.1624C40.586 46.3004 43.061 53.0694 42.874 53.0694C42.687 53.0694 41.006 53.0694 40.866 52.9294C40.726 52.7914 38.716 46.7194 38.484 46.6724C38.25 46.6264 37.316 46.8574 37.364 47.1364C37.41 47.4144 39.604 52.9764 39.371 52.9764C39.138 52.9764 37.363 52.9764 37.176 52.7914C36.989 52.6064 35.121 46.7194 34.794 46.7194C34.467 46.7194 33.674 46.8124 33.766 47.3224C33.86 47.8324 36.288 53.0224 36.008 53.0224C35.728 53.0224 34.092 53.2084 33.858 53.0224C33.625 52.8384 31.618 46.7194 31.198 46.7194C30.778 46.7194 30.168 47.1824 30.168 47.4614C30.168 47.7394 32.831 53.1614 32.644 53.1614C32.457 53.1614 31.056 53.1614 30.916 53.0234C30.776 52.8834 28.58 47.4134 28.346 47.4134C28.114 47.4134 27.086 47.4134 27.226 47.7384C27.366 48.0624 29.936 53.0224 29.701 53.0224C29.468 53.0224 28.206 53.0224 28.066 52.9764C27.926 52.9304 26.056 47.7384 25.684 47.7384C25.31 47.7384 24.376 48.1084 24.47 48.3414C24.563 48.5734 26.852 53.0234 26.665 53.0234C26.478 53.0234 24.798 52.9334 24.798 52.9334C24.798 52.9334 23.023 48.4834 22.743 48.4374C22.463 48.3924 21.623 48.7624 21.715 49.0414C21.809 49.3194 23.865 52.8884 23.63 52.9354C23.396 52.9814 22.09 53.0284 21.95 52.8424C21.81 52.6574 20.408 49.4124 20.22 49.4124C20.032 49.4124 18.913 49.5524 19.1 49.8764C19.287 50.1994 20.735 52.9814 20.595 52.9814C20.455 52.9814 19.147 52.9814 18.915 52.7964C18.681 52.6114 17.793 49.8294 17.465 49.8294C17.139 49.8294 16.345 50.0614 16.532 50.3854C16.719 50.7084 17.7 52.7954 17.512 52.7954C17.326 52.7954 16.252 52.8404 16.112 52.6094C15.972 52.3774 15.038 49.9214 14.712 49.9214C14.384 49.9214 13.402 50.1994 13.59 50.4774C13.777 50.7554 14.618 52.5174 14.43 52.5174C14.244 52.5174 13.217 52.3774 13.217 52.3774C13.217 52.3774 12.282 50.1074 11.862 50.0134C11.442 49.9204 10.554 50.2454 10.742 50.4304C10.928 50.6154 11.535 52.2384 11.302 52.1454C11.067 52.0524 7.84399 51.3574 6.25699 49.9654C4.66699 48.5754 2.33099 44.2654 2.09699 39.7214C1.86399 35.1784 1.39699 24.9814 1.34999 21.9214C1.30299 18.8634 1.72399 17.2874 2.51699 15.6644C3.17499 14.3184 4.71199 13.0214 9.19699 12.1874C13.682 11.3534 20.362 10.3344 26.76 10.1944C33.16 10.0544 41.426 10.6114 44.135 10.6114C46.845 10.6114 53.103 10.9814 56.092 14.5514C59.081 18.1214 59.922 20.4844 60.809 23.4044C61.699 26.3244 61.651 27.2984 61.651 27.2984C61.651 27.2984 59.456 23.0344 59.316 23.6364C59.176 24.2394 58.989 25.1664 59.176 25.4444C59.363 25.7224 61.838 29.8014 61.886 30.2644C61.931 30.7284 62.166 34.2044 62.026 33.9264ZM38.112 27.2984C41.708 28.5034 43.015 28.8744 43.062 29.8464L43.061 29.8454C43.108 30.8204 42.313 31.8394 37.783 34.4354C33.253 37.0314 27.881 39.9974 25.686 39.9514C25.029 39.9364 24.612 39.3494 24.519 38.7464C24.425 38.1434 24.331 29.0134 24.379 27.4834C24.426 25.9534 25.64 24.2384 27.462 24.3314C29.282 24.4244 34.515 26.0934 38.112 27.2984ZM5.97699 17.0544C8.49899 15.4314 11.022 14.4584 11.862 14.3644V14.3654C12.703 14.2734 12.608 15.1084 12.048 15.5684C11.488 16.0324 6.77099 17.9784 5.83799 19.1384C4.90299 20.2974 4.10799 22.4764 4.24799 23.1714C4.38799 23.8664 4.10799 25.6744 3.54799 25.6744C3.12799 25.6744 2.84699 25.1184 2.75399 23.0324C2.66099 20.9474 3.45499 18.6774 5.97699 17.0544ZM5.83799 42.1314C5.93099 42.4094 6.02399 44.2174 6.67799 44.7744C7.33099 45.3294 7.98499 45.8854 7.98499 46.3484C7.98499 46.8134 7.28499 47.2764 6.63199 46.9984C5.97699 46.7214 4.24899 44.4494 4.48199 41.9914C4.50399 41.7614 5.74299 41.8534 5.83799 42.1314ZM21.578 30.5424C21.818 30.0044 22.791 30.4044 22.978 30.6344V30.6354C23.166 30.8674 22.886 37.2174 23.026 38.0504C23.166 38.8854 22.744 39.5804 22.324 39.4404C21.904 39.3024 21.624 38.4224 21.624 37.6804C21.624 36.9394 21.39 30.9594 21.578 30.5424ZM36.711 38.3764C36.892 37.9564 45.585 32.9994 46.378 32.5364H46.38C47.174 32.0724 47.781 32.0724 48.156 32.3494C48.529 32.6294 48.669 33.0924 48.249 33.5094C47.829 33.9264 40.776 37.8204 39.469 38.6544C38.159 39.4884 37.599 39.2574 37.179 39.1644C36.759 39.0714 36.571 38.7004 36.711 38.3764ZM48.62 14.1804C48.212 14.0904 48.434 12.8824 48.668 12.8364C48.902 12.7894 52.451 12.3724 54.693 15.1544C56.935 17.9344 57.355 18.6304 57.027 19.2344C56.701 19.8364 56.234 20.1604 55.907 19.6044C55.58 19.0474 54.833 16.9154 53.01 15.7104C51.19 14.5044 49.46 14.3654 48.62 14.1804Z" fill="black"/>
<path d="M61.138 19.8344C59.176 14.1804 54.225 10.1944 50.722 9.63736C47.219 9.08036 38.672 8.52536 31.525 8.71036C24.378 8.89536 11.348 9.96236 6.86499 11.0284C2.37999 12.0944 0.883987 14.7844 0.276987 17.0084C-0.330013 19.2314 0.229987 26.4624 0.324987 31.7944C0.419987 37.1264 0.994987 41.3284 1.81999 45.0974C2.65999 48.9444 5.13599 53.1174 7.28499 54.4604C9.43499 55.8044 16.065 56.3144 22.932 56.5924C29.798 56.8704 40.962 56.3604 47.78 56.1754C54.6 55.9914 57.355 54.9714 59.644 53.4414C61.932 51.9114 63.848 45.4214 63.988 38.5154C64.128 31.6104 63.1 25.4904 61.138 19.8344ZM62.026 33.9264C61.886 33.6484 59.69 29.2914 58.943 28.5034C58.196 27.7134 57.963 28.2704 57.915 28.5484C57.868 28.8264 59.223 30.6344 59.41 31.0514C59.597 31.4684 61.98 35.8714 61.98 36.3354C61.98 36.7994 61.84 40.0434 61.652 39.9514C61.465 39.8584 58.149 31.9784 57.822 32.0714C57.495 32.1644 56.842 32.7214 57.075 33.1834C57.308 33.6454 61.185 41.1094 61.185 41.4804C61.185 41.8504 60.578 44.3084 60.391 43.9374C60.205 43.5674 56.701 35.0844 56.375 35.0374C56.048 34.9914 55.675 35.9644 55.675 36.1494C55.675 36.3344 59.925 45.0494 59.925 45.0494C59.925 45.0494 58.94 47.5544 58.8 47.5544C58.66 47.5544 54.69 37.7744 54.363 37.8194C54.036 37.8654 53.849 38.7464 53.849 38.7464C53.849 38.7464 57.959 48.6194 57.867 48.7584C57.774 48.8984 56.607 50.4284 56.513 50.2414C56.42 50.0564 53.337 40.6464 52.777 40.6464C52.217 40.6464 51.843 40.9244 51.937 41.3414C52.029 41.7584 55.907 50.2874 55.672 50.5194C55.439 50.7514 54.224 51.2614 54.037 51.0754C53.85 50.8914 50.44 42.6404 50.207 42.5474C49.974 42.4544 49.507 42.7324 49.507 42.9174C49.507 43.1034 53.102 51.7714 53.102 51.7714C53.102 51.7714 50.72 52.5594 50.627 52.3744C50.534 52.1884 47.357 43.9374 47.077 43.8904C46.797 43.8434 46.143 44.3074 46.19 44.5854C46.238 44.8654 49.647 52.4204 49.414 52.5124C49.18 52.6054 47.124 52.6974 46.984 52.6054C46.844 52.5124 44.51 45.4674 44.276 45.4204C44.043 45.3744 43.296 45.8374 43.249 45.9764C43.201 46.1164 45.817 52.8844 45.629 52.8364C45.443 52.7914 43.995 52.9304 43.902 52.7444C43.809 52.5594 41.752 45.7444 41.612 45.7444C41.472 45.7444 40.586 46.0244 40.586 46.1624C40.586 46.3004 43.061 53.0694 42.874 53.0694C42.687 53.0694 41.006 53.0694 40.866 52.9294C40.726 52.7914 38.716 46.7194 38.484 46.6724C38.25 46.6264 37.316 46.8574 37.364 47.1364C37.41 47.4144 39.604 52.9764 39.371 52.9764C39.138 52.9764 37.363 52.9764 37.176 52.7914C36.989 52.6064 35.121 46.7194 34.794 46.7194C34.467 46.7194 33.674 46.8124 33.766 47.3224C33.86 47.8324 36.288 53.0224 36.008 53.0224C35.728 53.0224 34.092 53.2084 33.858 53.0224C33.625 52.8384 31.618 46.7194 31.198 46.7194C30.778 46.7194 30.168 47.1824 30.168 47.4614C30.168 47.7394 32.831 53.1614 32.644 53.1614C32.457 53.1614 31.056 53.1614 30.916 53.0234C30.776 52.8834 28.58 47.4134 28.346 47.4134C28.114 47.4134 27.086 47.4134 27.226 47.7384C27.366 48.0624 29.936 53.0224 29.701 53.0224C29.468 53.0224 28.206 53.0224 28.066 52.9764C27.926 52.9304 26.056 47.7384 25.684 47.7384C25.31 47.7384 24.376 48.1084 24.47 48.3414C24.563 48.5734 26.852 53.0234 26.665 53.0234C26.478 53.0234 24.798 52.9334 24.798 52.9334C24.798 52.9334 23.023 48.4834 22.743 48.4374C22.463 48.3924 21.623 48.7624 21.715 49.0414C21.809 49.3194 23.865 52.8884 23.63 52.9354C23.396 52.9814 22.09 53.0284 21.95 52.8424C21.81 52.6574 20.408 49.4124 20.22 49.4124C20.032 49.4124 18.913 49.5524 19.1 49.8764C19.287 50.1994 20.735 52.9814 20.595 52.9814C20.455 52.9814 19.147 52.9814 18.915 52.7964C18.681 52.6114 17.793 49.8294 17.465 49.8294C17.139 49.8294 16.345 50.0614 16.532 50.3854C16.719 50.7084 17.7 52.7954 17.512 52.7954C17.326 52.7954 16.252 52.8404 16.112 52.6094C15.972 52.3774 15.038 49.9214 14.712 49.9214C14.384 49.9214 13.402 50.1994 13.59 50.4774C13.777 50.7554 14.618 52.5174 14.43 52.5174C14.244 52.5174 13.217 52.3774 13.217 52.3774C13.217 52.3774 12.282 50.1074 11.862 50.0134C11.442 49.9204 10.554 50.2454 10.742 50.4304C10.928 50.6154 11.535 52.2384 11.302 52.1454C11.067 52.0524 7.84399 51.3574 6.25699 49.9654C4.66699 48.5754 2.33099 44.2654 2.09699 39.7214C1.86399 35.1784 1.39699 24.9814 1.34999 21.9214C1.30299 18.8634 1.72399 17.2874 2.51699 15.6644C3.17499 14.3184 4.71199 13.0214 9.19699 12.1874C13.682 11.3534 20.362 10.3344 26.76 10.1944C33.16 10.0544 41.426 10.6114 44.135 10.6114C46.845 10.6114 53.103 10.9814 56.092 14.5514C59.081 18.1214 59.922 20.4844 60.809 23.4044C61.699 26.3244 61.651 27.2984 61.651 27.2984C61.651 27.2984 59.456 23.0344 59.316 23.6364C59.176 24.2394 58.989 25.1664 59.176 25.4444C59.363 25.7224 61.838 29.8014 61.886 30.2644C61.931 30.7284 62.166 34.2044 62.026 33.9264ZM43.062 29.8464C43.015 28.8744 41.708 28.5034 38.112 27.2984C34.515 26.0934 29.282 24.4244 27.462 24.3314C25.64 24.2384 24.426 25.9534 24.379 27.4834C24.331 29.0134 24.425 38.1434 24.519 38.7464C24.612 39.3494 25.029 39.9364 25.686 39.9514C27.881 39.9974 33.253 37.0314 37.783 34.4354C42.313 31.8394 43.108 30.8204 43.061 29.8454L43.062 29.8464ZM27.836 37.9594C27.506 37.9294 27.509 28.6424 27.929 28.5494C28.349 28.4564 35.261 29.5224 37.036 30.1714C38.811 30.8214 39.838 31.0984 39.746 31.4694C39.651 31.8394 36.288 33.6494 33.299 35.2694C30.309 36.8934 28.349 38.0054 27.835 37.9594H27.836ZM11.862 14.3644C11.022 14.4584 8.49899 15.4314 5.97699 17.0544C3.45499 18.6774 2.66099 20.9474 2.75399 23.0324C2.84699 25.1184 3.12799 25.6744 3.54799 25.6744C4.10799 25.6744 4.38799 23.8664 4.24799 23.1714C4.10799 22.4764 4.90299 20.2974 5.83799 19.1384C6.77099 17.9784 11.488 16.0324 12.048 15.5684C12.608 15.1084 12.703 14.2734 11.862 14.3654V14.3644ZM6.67799 44.7744C6.02399 44.2174 5.93099 42.4094 5.83799 42.1314C5.74299 41.8534 4.50399 41.7614 4.48199 41.9914C4.24899 44.4494 5.97699 46.7214 6.63199 46.9984C7.28499 47.2764 7.98499 46.8134 7.98499 46.3484C7.98499 45.8854 7.33099 45.3294 6.67799 44.7744ZM22.978 30.6344C22.791 30.4044 21.818 30.0044 21.578 30.5424C21.39 30.9594 21.624 36.9394 21.624 37.6804C21.624 38.4224 21.904 39.3024 22.324 39.4404C22.744 39.5804 23.166 38.8854 23.026 38.0504C22.886 37.2174 23.166 30.8674 22.978 30.6354V30.6344ZM46.378 32.5364C45.585 32.9994 36.892 37.9564 36.711 38.3764C36.571 38.7004 36.759 39.0714 37.179 39.1644C37.599 39.2574 38.159 39.4884 39.469 38.6544C40.776 37.8204 47.829 33.9264 48.249 33.5094C48.669 33.0924 48.529 32.6294 48.156 32.3494C47.781 32.0724 47.174 32.0724 46.38 32.5364H46.378ZM48.668 12.8364C48.434 12.8824 48.212 14.0904 48.62 14.1804C49.46 14.3654 51.19 14.5044 53.01 15.7104C54.833 16.9154 55.58 19.0474 55.907 19.6044C56.234 20.1604 56.701 19.8364 57.027 19.2344C57.355 18.6304 56.935 17.9344 54.693 15.1544C52.451 12.3724 48.902 12.7894 48.668 12.8364Z" stroke="black" stroke-width="2" mask="url(#path-1-inside-1)"/>
<path fill-rule="evenodd" clip-rule="evenodd" d="M62.026 33.9264C61.886 33.6484 59.69 29.2914 58.943 28.5034C58.196 27.7134 57.963 28.2704 57.915 28.5484C57.868 28.8264 59.223 30.6344 59.41 31.0514C59.597 31.4684 61.98 35.8714 61.98 36.3354C61.98 36.7994 61.84 40.0434 61.652 39.9514C61.465 39.8584 58.149 31.9784 57.822 32.0714C57.495 32.1644 56.842 32.7214 57.075 33.1834C57.308 33.6454 61.185 41.1094 61.185 41.4804C61.185 41.8504 60.578 44.3084 60.391 43.9374C60.205 43.5674 56.701 35.0844 56.375 35.0374C56.048 34.9914 55.675 35.9644 55.675 36.1494C55.675 36.3344 59.925 45.0494 59.925 45.0494C59.925 45.0494 58.94 47.5544 58.8 47.5544C58.66 47.5544 54.69 37.7744 54.363 37.8194C54.036 37.8654 53.849 38.7464 53.849 38.7464C53.849 38.7464 57.959 48.6194 57.867 48.7584C57.774 48.8984 56.607 50.4284 56.513 50.2414C56.42 50.0564 53.337 40.6464 52.777 40.6464C52.217 40.6464 51.843 40.9244 51.937 41.3414C52.029 41.7584 55.907 50.2874 55.672 50.5194C55.439 50.7514 54.224 51.2614 54.037 51.0754C53.85 50.8914 50.44 42.6404 50.207 42.5474C49.974 42.4544 49.507 42.7324 49.507 42.9174C49.507 43.1034 53.102 51.7714 53.102 51.7714C53.102 51.7714 50.72 52.5594 50.627 52.3744C50.534 52.1884 47.357 43.9374 47.077 43.8904C46.797 43.8434 46.143 44.3074 46.19 44.5854C46.238 44.8654 49.647 52.4204 49.414 52.5124C49.18 52.6054 47.124 52.6974 46.984 52.6054C46.844 52.5124 44.51 45.4674 44.276 45.4204C44.043 45.3744 43.296 45.8374 43.249 45.9764C43.201 46.1164 45.817 52.8844 45.629 52.8364C45.443 52.7914 43.995 52.9304 43.902 52.7444C43.809 52.5594 41.752 45.7444 41.612 45.7444C41.472 45.7444 40.586 46.0244 40.586 46.1624C40.586 46.3004 43.061 53.0694 42.874 53.0694C42.687 53.0694 41.006 53.0694 40.866 52.9294C40.726 52.7914 38.716 46.7194 38.484 46.6724C38.25 46.6264 37.316 46.8574 37.364 47.1364C37.41 47.4144 39.604 52.9764 39.371 52.9764C39.138 52.9764 37.363 52.9764 37.176 52.7914C36.989 52.6064 35.121 46.7194 34.794 46.7194C34.467 46.7194 33.674 46.8124 33.766 47.3224C33.86 47.8324 36.288 53.0224 36.008 53.0224C35.728 53.0224 34.092 53.2084 33.858 53.0224C33.625 52.8384 31.618 46.7194 31.198 46.7194C30.778 46.7194 30.168 47.1824 30.168 47.4614C30.168 47.7394 32.831 53.1614 32.644 53.1614C32.457 53.1614 31.056 53.1614 30.916 53.0234C30.776 52.8834 28.58 47.4134 28.346 47.4134C28.114 47.4134 27.086 47.4134 27.226 47.7384C27.366 48.0624 29.936 53.0224 29.701 53.0224C29.468 53.0224 28.206 53.0224 28.066 52.9764C27.926 52.9304 26.056 47.7384 25.684 47.7384C25.31 47.7384 24.376 48.1084 24.47 48.3414C24.563 48.5734 26.852 53.0234 26.665 53.0234C26.478 53.0234 24.798 52.9334 24.798 52.9334C24.798 52.9334 23.023 48.4834 22.743 48.4374C22.463 48.3924 21.623 48.7624 21.715 49.0414C21.809 49.3194 23.865 52.8884 23.63 52.9354C23.396 52.9814 22.09 53.0284 21.95 52.8424C21.81 52.6574 20.408 49.4124 20.22 49.4124C20.032 49.4124 18.913 49.5524 19.1 49.8764C19.287 50.1994 20.735 52.9814 20.595 52.9814C20.455 52.9814 19.147 52.9814 18.915 52.7964C18.681 52.6114 17.793 49.8294 17.465 49.8294C17.139 49.8294 16.345 50.0614 16.532 50.3854C16.719 50.7084 17.7 52.7954 17.512 52.7954C17.326 52.7954 16.252 52.8404 16.112 52.6094C15.972 52.3774 15.038 49.9214 14.712 49.9214C14.384 49.9214 13.402 50.1994 13.59 50.4774C13.777 50.7554 14.618 52.5174 14.43 52.5174C14.244 52.5174 13.217 52.3774 13.217 52.3774C13.217 52.3774 12.282 50.1074 11.862 50.0134C11.442 49.9204 10.554 50.2454 10.742 50.4304C10.928 50.6154 11.535 52.2384 11.302 52.1454C11.067 52.0524 7.84399 51.3574 6.25699 49.9654C4.66699 48.5754 2.33099 44.2654 2.09699 39.7214C1.86399 35.1784 1.39699 24.9814 1.34999 21.9214C1.30299 18.8634 1.72399 17.2874 2.51699 15.6644C3.17499 14.3184 4.71199 13.0214 9.19699 12.1874C13.682 11.3534 20.362 10.3344 26.76 10.1944C33.16 10.0544 41.426 10.6114 44.135 10.6114C46.845 10.6114 53.103 10.9814 56.092 14.5514C59.081 18.1214 59.922 20.4844 60.809 23.4044C61.699 26.3244 61.651 27.2984 61.651 27.2984C61.651 27.2984 59.456 23.0344 59.316 23.6364C59.176 24.2394 58.989 25.1664 59.176 25.4444C59.363 25.7224 61.838 29.8014 61.886 30.2644C61.931 30.7284 62.166 34.2044 62.026 33.9264ZM38.112 27.2984C41.708 28.5034 43.015 28.8744 43.062 29.8464L43.061 29.8454C43.108 30.8204 42.313 31.8394 37.783 34.4354C33.253 37.0314 27.881 39.9974 25.686 39.9514C25.029 39.9364 24.612 39.3494 24.519 38.7464C24.425 38.1434 24.331 29.0134 24.379 27.4834C24.426 25.9534 25.64 24.2384 27.462 24.3314C29.282 24.4244 34.515 26.0934 38.112 27.2984ZM5.97699 17.0544C8.49899 15.4314 11.022 14.4584 11.862 14.3644V14.3654C12.703 14.2734 12.608 15.1084 12.048 15.5684C11.488 16.0324 6.77099 17.9784 5.83799 19.1384C4.90299 20.2974 4.10799 22.4764 4.24799 23.1714C4.38799 23.8664 4.10799 25.6744 3.54799 25.6744C3.12799 25.6744 2.84699 25.1184 2.75399 23.0324C2.66099 20.9474 3.45499 18.6774 5.97699 17.0544ZM5.83799 42.1314C5.93099 42.4094 6.02399 44.2174 6.67799 44.7744C7.33099 45.3294 7.98499 45.8854 7.98499 46.3484C7.98499 46.8134 7.28499 47.2764 6.63199 46.9984C5.97699 46.7214 4.24899 44.4494 4.48199 41.9914C4.50399 41.7614 5.74299 41.8534 5.83799 42.1314ZM21.578 30.5424C21.818 30.0044 22.791 30.4044 22.978 30.6344V30.6354C23.166 30.8674 22.886 37.2174 23.026 38.0504C23.166 38.8854 22.744 39.5804 22.324 39.4404C21.904 39.3024 21.624 38.4224 21.624 37.6804C21.624 36.9394 21.39 30.9594 21.578 30.5424ZM36.711 38.3764C36.892 37.9564 45.585 32.9994 46.378 32.5364H46.38C47.174 32.0724 47.781 32.0724 48.156 32.3494C48.529 32.6294 48.669 33.0924 48.249 33.5094C47.829 33.9264 40.776 37.8204 39.469 38.6544C38.159 39.4884 37.599 39.2574 37.179 39.1644C36.759 39.0714 36.571 38.7004 36.711 38.3764ZM48.62 14.1804C48.212 14.0904 48.434 12.8824 48.668 12.8364C48.902 12.7894 52.451 12.3724 54.693 15.1544C56.935 17.9344 57.355 18.6304 57.027 19.2344C56.701 19.8364 56.234 20.1604 55.907 19.6044C55.58 19.0474 54.833 16.9154 53.01 15.7104C51.19 14.5044 49.46 14.3654 48.62 14.1804Z" stroke="black" stroke-width="2" mask="url(#path-1-inside-1)"/>
<path fill-rule="evenodd" clip-rule="evenodd" d="M62.026 33.9264C61.886 33.6484 59.69 29.2914 58.943 28.5034C58.196 27.7134 57.963 28.2704 57.915 28.5484C57.868 28.8264 59.223 30.6344 59.41 31.0514C59.597 31.4684 61.98 35.8714 61.98 36.3354C61.98 36.7994 61.84 40.0434 61.652 39.9514C61.465 39.8584 58.149 31.9784 57.822 32.0714C57.495 32.1644 56.842 32.7214 57.075 33.1834C57.308 33.6454 61.185 41.1094 61.185 41.4804C61.185 41.8504 60.578 44.3084 60.391 43.9374C60.205 43.5674 56.701 35.0844 56.375 35.0374C56.048 34.9914 55.675 35.9644 55.675 36.1494C55.675 36.3344 59.925 45.0494 59.925 45.0494C59.925 45.0494 58.94 47.5544 58.8 47.5544C58.66 47.5544 54.69 37.7744 54.363 37.8194C54.036 37.8654 53.849 38.7464 53.849 38.7464C53.849 38.7464 57.959 48.6194 57.867 48.7584C57.774 48.8984 56.607 50.4284 56.513 50.2414C56.42 50.0564 53.337 40.6464 52.777 40.6464C52.217 40.6464 51.843 40.9244 51.937 41.3414C52.029 41.7584 55.907 50.2874 55.672 50.5194C55.439 50.7514 54.224 51.2614 54.037 51.0754C53.85 50.8914 50.44 42.6404 50.207 42.5474C49.974 42.4544 49.507 42.7324 49.507 42.9174C49.507 43.1034 53.102 51.7714 53.102 51.7714C53.102 51.7714 50.72 52.5594 50.627 52.3744C50.534 52.1884 47.357 43.9374 47.077 43.8904C46.797 43.8434 46.143 44.3074 46.19 44.5854C46.238 44.8654 49.647 52.4204 49.414 52.5124C49.18 52.6054 47.124 52.6974 46.984 52.6054C46.844 52.5124 44.51 45.4674 44.276 45.4204C44.043 45.3744 43.296 45.8374 43.249 45.9764C43.201 46.1164 45.817 52.8844 45.629 52.8364C45.443 52.7914 43.995 52.9304 43.902 52.7444C43.809 52.5594 41.752 45.7444 41.612 45.7444C41.472 45.7444 40.586 46.0244 40.586 46.1624C40.586 46.3004 43.061 53.0694 42.874 53.0694C42.687 53.0694 41.006 53.0694 40.866 52.9294C40.726 52.7914 38.716 46.7194 38.484 46.6724C38.25 46.6264 37.316 46.8574 37.364 47.1364C37.41 47.4144 39.604 52.9764 39.371 52.9764C39.138 52.9764 37.363 52.9764 37.176 52.7914C36.989 52.6064 35.121 46.7194 34.794 46.7194C34.467 46.7194 33.674 46.8124 33.766 47.3224C33.86 47.8324 36.288 53.0224 36.008 53.0224C35.728 53.0224 34.092 53.2084 33.858 53.0224C33.625 52.8384 31.618 46.7194 31.198 46.7194C30.778 46.7194 30.168 47.1824 30.168 47.4614C30.168 47.7394 32.831 53.1614 32.644 53.1614C32.457 53.1614 31.056 53.1614 30.916 53.0234C30.776 52.8834 28.58 47.4134 28.346 47.4134C28.114 47.4134 27.086 47.4134 27.226 47.7384C27.366 48.0624 29.936 53.0224 29.701 53.0224C29.468 53.0224 28.206 53.0224 28.066 52.9764C27.926 52.9304 26.056 47.7384 25.684 47.7384C25.31 47.7384 24.376 48.1084 24.47 48.3414C24.563 48.5734 26.852 53.0234 26.665 53.0234C26.478 53.0234 24.798 52.9334 24.798 52.9334C24.798 52.9334 23.023 48.4834 22.743 48.4374C22.463 48.3924 21.623 48.7624 21.715 49.0414C21.809 49.3194 23.865 52.8884 23.63 52.9354C23.396 52.9814 22.09 53.0284 21.95 52.8424C21.81 52.6574 20.408 49.4124 20.22 49.4124C20.032 49.4124 18.913 49.5524 19.1 49.8764C19.287 50.1994 20.735 52.9814 20.595 52.9814C20.455 52.9814 19.147 52.9814 18.915 52.7964C18.681 52.6114 17.793 49.8294 17.465 49.8294C17.139 49.8294 16.345 50.0614 16.532 50.3854C16.719 50.7084 17.7 52.7954 17.512 52.7954C17.326 52.7954 16.252 52.8404 16.112 52.6094C15.972 52.3774 15.038 49.9214 14.712 49.9214C14.384 49.9214 13.402 50.1994 13.59 50.4774C13.777 50.7554 14.618 52.5174 14.43 52.5174C14.244 52.5174 13.217 52.3774 13.217 52.3774C13.217 52.3774 12.282 50.1074 11.862 50.0134C11.442 49.9204 10.554 50.2454 10.742 50.4304C10.928 50.6154 11.535 52.2384 11.302 52.1454C11.067 52.0524 7.84399 51.3574 6.25699 49.9654C4.66699 48.5754 2.33099 44.2654 2.09699 39.7214C1.86399 35.1784 1.39699 24.9814 1.34999 21.9214C1.30299 18.8634 1.72399 17.2874 2.51699 15.6644C3.17499 14.3184 4.71199 13.0214 9.19699 12.1874C13.682 11.3534 20.362 10.3344 26.76 10.1944C33.16 10.0544 41.426 10.6114 44.135 10.6114C46.845 10.6114 53.103 10.9814 56.092 14.5514C59.081 18.1214 59.922 20.4844 60.809 23.4044C61.699 26.3244 61.651 27.2984 61.651 27.2984C61.651 27.2984 59.456 23.0344 59.316 23.6364C59.176 24.2394 58.989 25.1664 59.176 25.4444C59.363 25.7224 61.838 29.8014 61.886 30.2644C61.931 30.7284 62.166 34.2044 62.026 33.9264ZM38.112 27.2984C41.708 28.5034 43.015 28.8744 43.062 29.8464L43.061 29.8454C43.108 30.8204 42.313 31.8394 37.783 34.4354C33.253 37.0314 27.881 39.9974 25.686 39.9514C25.029 39.9364 24.612 39.3494 24.519 38.7464C24.425 38.1434 24.331 29.0134 24.379 27.4834C24.426 25.9534 25.64 24.2384 27.462 24.3314C29.282 24.4244 34.515 26.0934 38.112 27.2984ZM5.97699 17.0544C8.49899 15.4314 11.022 14.4584 11.862 14.3644V14.3654C12.703 14.2734 12.608 15.1084 12.048 15.5684C11.488 16.0324 6.77099 17.9784 5.83799 19.1384C4.90299 20.2974 4.10799 22.4764 4.24799 23.1714C4.38799 23.8664 4.10799 25.6744 3.54799 25.6744C3.12799 25.6744 2.84699 25.1184 2.75399 23.0324C2.66099 20.9474 3.45499 18.6774 5.97699 17.0544ZM5.83799 42.1314C5.93099 42.4094 6.02399 44.2174 6.67799 44.7744C7.33099 45.3294 7.98499 45.8854 7.98499 46.3484C7.98499 46.8134 7.28499 47.2764 6.63199 46.9984C5.97699 46.7214 4.24899 44.4494 4.48199 41.9914C4.50399 41.7614 5.74299 41.8534 5.83799 42.1314ZM21.578 30.5424C21.818 30.0044 22.791 30.4044 22.978 30.6344V30.6354C23.166 30.8674 22.886 37.2174 23.026 38.0504C23.166 38.8854 22.744 39.5804 22.324 39.4404C21.904 39.3024 21.624 38.4224 21.624 37.6804C21.624 36.9394 21.39 30.9594 21.578 30.5424ZM36.711 38.3764C36.892 37.9564 45.585 32.9994 46.378 32.5364H46.38C47.174 32.0724 47.781 32.0724 48.156 32.3494C48.529 32.6294 48.669 33.0924 48.249 33.5094C47.829 33.9264 40.776 37.8204 39.469 38.6544C38.159 39.4884 37.599 39.2574 37.179 39.1644C36.759 39.0714 36.571 38.7004 36.711 38.3764ZM48.62 14.1804C48.212 14.0904 48.434 12.8824 48.668 12.8364C48.902 12.7894 52.451 12.3724 54.693 15.1544C56.935 17.9344 57.355 18.6304 57.027 19.2344C56.701 19.8364 56.234 20.1604 55.907 19.6044C55.58 19.0474 54.833 16.9154 53.01 15.7104C51.19 14.5044 49.46 14.3654 48.62 14.1804Z" fill="#FF0000"/>
</g>
<defs>
<clipPath id="clip0">
<rect width="64" height="64" fill="white" transform="translate(0 0.674316)"/>
</clipPath>
</defs>
</svg>
