<svg fill="none" height="65" viewBox="0 0 64 65" width="64" xmlns="http://www.w3.org/2000/svg" xmlns:xlink="http://www.w3.org/1999/xlink"><clipPath id="a"><path d="m0 .674316h64v64h-64z"/></clipPath><mask id="b" fill="#fff"><path d="m61.138 19.8344c-1.962-5.654-6.913-9.64-10.416-10.19704-3.503-.557-12.05-1.112-19.197-.927s-20.177 1.252-24.66001 2.31804c-4.485 1.066-5.981003 3.756-6.588003 5.98-.607 2.223-.047 9.454.048 14.786s.67 9.534 1.495003 13.303c.84 3.847 3.316 8.02 5.465 9.363 2.15 1.344 8.78001 1.854 15.64701 2.132 6.866.278 18.03-.232 24.848-.417 6.82-.184 9.575-1.204 11.864-2.734 2.288-1.53 4.204-8.02 4.344-14.926.14-6.905-.888-13.025-2.85-18.681zm.888 14.092c-.14-.278-2.336-4.635-3.083-5.423-.747-.79-.98-.233-1.028.045-.047.278 1.308 2.086 1.495 2.503s2.57 4.82 2.57 5.284-.14 3.708-.328 3.616c-.187-.093-3.503-7.973-3.83-7.88s-.98.65-.747 1.112 4.11 7.926 4.11 8.297c0 .37-.607 2.828-.794 2.457-.186-.37-3.69-8.853-4.016-8.9-.327-.046-.7.927-.7 1.112s4.25 8.9 4.25 8.9-.985 2.505-1.125 2.505-4.11-9.78-4.437-9.735c-.327.046-.514.927-.514.927s4.11 9.873 4.018 10.012c-.093.14-1.26 1.67-1.354 1.483-.093-.185-3.176-9.595-3.736-9.595s-.934.278-.84.695c.092.417 3.97 8.946 3.735 9.178-.233.232-1.448.742-1.635.556-.187-.184-3.597-8.435-3.83-8.528s-.7.185-.7.37c0 .186 3.595 8.854 3.595 8.854s-2.382.788-2.475.603c-.093-.186-3.27-8.437-3.55-8.484s-.934.417-.887.695c.048.28 3.457 7.835 3.224 7.927-.234.093-2.29.185-2.43.093-.14-.093-2.474-7.138-2.708-7.185-.233-.046-.98.417-1.027.556-.048.14 2.568 6.908 2.38 6.86-.186-.045-1.634.094-1.727-.092-.093-.185-2.15-7-2.29-7s-1.026.28-1.026.418 2.475 6.907 2.288 6.907-1.868 0-2.008-.14c-.14-.138-2.15-6.21-2.382-6.257-.234-.046-1.168.185-1.12.464.046.278 2.24 5.84 2.007 5.84s-2.008 0-2.195-.185-2.055-6.072-2.382-6.072-1.12.093-1.028.603c.094.51 2.522 5.7 2.242 5.7s-1.916.186-2.15 0c-.233-.184-2.24-6.303-2.66-6.303s-1.03.463-1.03.742c0 .278 2.663 5.7 2.476 5.7s-1.588 0-1.728-.138c-.14-.14-2.336-5.61-2.57-5.61-.232 0-1.26 0-1.12.325.14.324 2.71 5.284 2.475 5.284-.233 0-1.495 0-1.635-.046s-2.01-5.238-2.382-5.238c-.374 0-1.308.37-1.214.603.093.232 2.382 4.682 2.195 4.682s-1.867-.09-1.867-.09-1.775-4.45-2.055-4.496c-.28-.045-1.12.325-1.028.604.094.278 2.15 3.847 1.915 3.894-.234.046-1.54.093-1.68-.093-.14-.185-1.542-3.43-1.73-3.43s-1.307.14-1.12.464c.187.323 1.635 3.105 1.495 3.105s-1.448 0-1.68-.185c-.234-.185-1.122-2.967-1.45-2.967-.326 0-1.12.232-.933.556.187.323 1.168 2.41.98 2.41-.186 0-1.26.045-1.4-.186-.14-.232-1.074-2.688-1.4-2.688-.328 0-1.31.278-1.122.556.187.278 1.028 2.04.84 2.04-.186 0-1.213-.14-1.213-.14s-.935-2.27-1.355-2.364c-.42-.093-1.308.232-1.12.417.186.185.793 1.808.56 1.715-.235-.093-3.45801-.788-5.04501-2.18-1.59-1.39-3.926-5.7-4.16-10.244-.233-4.543-.7-14.74-.747-17.8-.047-3.058.374-4.634 1.167-6.257.658-1.346 2.195-2.643 6.68-3.477 4.48501-.834 11.16501-1.853 17.56301-1.993 6.4-.14 14.666.417 17.375.417 2.71 0 8.968.37 11.957 3.94s3.83 5.933 4.717 8.853c.89 2.92.842 3.894.842 3.894s-2.195-4.264-2.335-3.662c-.14.603-.327 1.53-.14 1.808s2.662 4.357 2.71 4.82c.045.464.28 3.94.14 3.662zm-18.964-4.08c-.047-.972-1.354-1.343-4.95-2.548-3.597-1.205-8.83-2.874-10.65-2.967-1.822-.093-3.036 1.622-3.083 3.152-.048 1.53.046 10.66.14 11.263.093.603.51 1.19 1.167 1.205 2.195.046 7.567-2.92 12.097-5.516s5.325-3.615 5.278-4.59zm-15.226 8.113c-.33-.03-.327-9.317.093-9.41s7.332.973 9.107 1.622c1.775.65 2.802.927 2.71 1.298-.095.37-3.458 2.18-6.447 3.8-2.99 1.624-4.95 2.736-5.464 2.69zm-15.974-23.595c-.84.094-3.36301 1.067-5.88501 2.69s-3.316 3.893-3.223 5.978c.093 2.086.374 2.642.794 2.642.56 0 .84-1.808.7-2.503s.655-2.874 1.59-4.033c.933-1.16 5.65001-3.106 6.21001-3.57.56-.46.655-1.295-.186-1.203zm-5.18401 30.41c-.654-.557-.747-2.365-.84-2.643-.095-.278-1.334-.37-1.356-.14-.233 2.458 1.495 4.73 2.15 5.007.653.278 1.353-.185 1.353-.65 0-.463-.654-1.019-1.307-1.574zm16.30001-14.14c-.187-.23-1.16-.63-1.4-.092-.188.417.046 6.397.046 7.138 0 .742.28 1.622.7 1.76.42.14.842-.555.702-1.39-.14-.833.14-7.183-.048-7.415zm23.4 1.902c-.793.463-9.486 5.42-9.667 5.84-.14.324.048.695.468.788s.98.324 2.29-.51c1.307-.834 8.36-4.728 8.78-5.145s.28-.88-.093-1.16c-.375-.277-.982-.277-1.776.187zm2.29-19.7c-.234.046-.456 1.254-.048 1.344.84.185 2.57.324 4.39 1.53 1.823 1.205 2.57 3.337 2.897 3.894.327.556.794.232 1.12-.37.328-.604-.092-1.3-2.334-4.08-2.242-2.782-5.791-2.365-6.025-2.318z" fill="#fff"/><path clip-rule="evenodd" d="m62.026 33.9264c-.14-.278-2.336-4.635-3.083-5.423-.747-.79-.98-.233-1.028.045-.047.278 1.308 2.086 1.495 2.503s2.57 4.82 2.57 5.284-.14 3.708-.328 3.616c-.187-.093-3.503-7.973-3.83-7.88s-.98.65-.747 1.112 4.11 7.926 4.11 8.297c0 .37-.607 2.828-.794 2.457-.186-.37-3.69-8.853-4.016-8.9-.327-.046-.7.927-.7 1.112s4.25 8.9 4.25 8.9-.985 2.505-1.125 2.505-4.11-9.78-4.437-9.735c-.327.046-.514.927-.514.927s4.11 9.873 4.018 10.012c-.093.14-1.26 1.67-1.354 1.483-.093-.185-3.176-9.595-3.736-9.595s-.934.278-.84.695c.092.417 3.97 8.946 3.735 9.178-.233.232-1.448.742-1.635.556-.187-.184-3.597-8.435-3.83-8.528s-.7.185-.7.37c0 .186 3.595 8.854 3.595 8.854s-2.382.788-2.475.603c-.093-.186-3.27-8.437-3.55-8.484s-.934.417-.887.695c.048.28 3.457 7.835 3.224 7.927-.234.093-2.29.185-2.43.093-.14-.093-2.474-7.138-2.708-7.185-.233-.046-.98.417-1.027.556-.048.14 2.568 6.908 2.38 6.86-.186-.045-1.634.094-1.727-.092-.093-.185-2.15-7-2.29-7s-1.026.28-1.026.418 2.475 6.907 2.288 6.907-1.868 0-2.008-.14c-.14-.138-2.15-6.21-2.382-6.257-.234-.046-1.168.185-1.12.464.046.278 2.24 5.84 2.007 5.84s-2.008 0-2.195-.185-2.055-6.072-2.382-6.072-1.12.093-1.028.603c.094.51 2.522 5.7 2.242 5.7s-1.916.186-2.15 0c-.233-.184-2.24-6.303-2.66-6.303s-1.03.463-1.03.742c0 .278 2.663 5.7 2.476 5.7s-1.588 0-1.728-.138c-.14-.14-2.336-5.61-2.57-5.61-.232 0-1.26 0-1.12.325.14.324 2.71 5.284 2.475 5.284-.233 0-1.495 0-1.635-.046s-2.01-5.238-2.382-5.238c-.374 0-1.308.37-1.214.603.093.232 2.382 4.682 2.195 4.682s-1.867-.09-1.867-.09-1.775-4.45-2.055-4.496c-.28-.045-1.12.325-1.028.604.094.278 2.15 3.847 1.915 3.894-.234.046-1.54.093-1.68-.093-.14-.185-1.542-3.43-1.73-3.43s-1.307.14-1.12.464c.187.323 1.635 3.105 1.495 3.105s-1.448 0-1.68-.185c-.234-.185-1.122-2.967-1.45-2.967-.326 0-1.12.232-.933.556.187.323 1.168 2.41.98 2.41-.186 0-1.26.045-1.4-.186-.14-.232-1.074-2.688-1.4-2.688-.328 0-1.31.278-1.122.556.187.278 1.028 2.04.84 2.04-.186 0-1.213-.14-1.213-.14s-.935-2.27-1.355-2.364c-.42-.093-1.308.232-1.12.417.186.185.793 1.808.56 1.715-.235-.093-3.45801-.788-5.04501-2.18-1.59-1.39-3.926-5.7-4.16-10.244-.233-4.543-.7-14.74-.747-17.8-.047-3.058.374-4.634 1.167-6.257.658-1.346 2.195-2.643 6.68-3.477 4.48501-.834 11.16501-1.853 17.56301-1.993 6.4-.14 14.666.417 17.375.417 2.71 0 8.968.37 11.957 3.94s3.83 5.933 4.717 8.853c.89 2.92.842 3.894.842 3.894s-2.195-4.264-2.335-3.662c-.14.603-.327 1.53-.14 1.808s2.662 4.357 2.71 4.82c.045.464.28 3.94.14 3.662zm-23.914-6.628c3.596 1.205 4.903 1.576 4.95 2.548l-.001-.001c.047.975-.748 1.994-5.278 4.59s-9.902 5.562-12.097 5.516c-.657-.015-1.074-.602-1.167-1.205-.094-.603-.188-9.733-.14-11.263.047-1.53 1.261-3.245 3.083-3.152 1.82.093 7.053 1.762 10.65 2.967zm-32.13501-10.244c2.522-1.623 5.04501-2.596 5.88501-2.69v.001c.841-.092.746.743.186 1.203-.56.464-5.27701 2.41-6.21001 3.57-.935 1.159-1.73 3.338-1.59 4.033s-.14 2.503-.7 2.503c-.42 0-.701-.556-.794-2.642-.093-2.085.701-4.355 3.223-5.978zm-.139 25.077c.093.278.186 2.086.84 2.643.653.555 1.307 1.111 1.307 1.574 0 .465-.7.928-1.353.65-.655-.277-2.383-2.549-2.15-5.007.022-.23 1.261-.138 1.356.14zm15.74001-11.589c.24-.538 1.213-.138 1.4.092v.001c.188.232-.092 6.582.048 7.415.14.835-.282 1.53-.702 1.39-.42-.138-.7-1.018-.7-1.76 0-.741-.234-6.721-.046-7.138zm15.133 7.834c.181-.42 8.874-5.377 9.667-5.84h.002c.794-.464 1.401-.464 1.776-.187.373.28.513.743.093 1.16s-7.473 4.311-8.78 5.145c-1.31.834-1.87.603-2.29.51s-.608-.464-.468-.788zm11.909-24.196c-.408-.09-.186-1.298.048-1.344.234-.047 3.783-.464 6.025 2.318 2.242 2.78 2.662 3.476 2.334 4.08-.326.602-.793.926-1.12.37-.327-.557-1.074-2.689-2.897-3.894-1.82-1.206-3.55-1.345-4.39-1.53z" fill="#fff" fill-rule="evenodd"/></mask><g clip-path="url(#a)"><path d="m61.138 19.8344c-1.962-5.654-6.913-9.64-10.416-10.19704-3.503-.557-12.05-1.112-19.197-.927s-20.177 1.252-24.66001 2.31804c-4.485 1.066-5.981003 3.756-6.588003 5.98-.607 2.223-.047 9.454.048 14.786s.67 9.534 1.495003 13.303c.84 3.847 3.316 8.02 5.465 9.363 2.15 1.344 8.78001 1.854 15.64701 2.132 6.866.278 18.03-.232 24.848-.417 6.82-.184 9.575-1.204 11.864-2.734 2.288-1.53 4.204-8.02 4.344-14.926.14-6.905-.888-13.025-2.85-18.681zm.888 14.092c-.14-.278-2.336-4.635-3.083-5.423-.747-.79-.98-.233-1.028.045-.047.278 1.308 2.086 1.495 2.503s2.57 4.82 2.57 5.284-.14 3.708-.328 3.616c-.187-.093-3.503-7.973-3.83-7.88s-.98.65-.747 1.112 4.11 7.926 4.11 8.297c0 .37-.607 2.828-.794 2.457-.186-.37-3.69-8.853-4.016-8.9-.327-.046-.7.927-.7 1.112s4.25 8.9 4.25 8.9-.985 2.505-1.125 2.505-4.11-9.78-4.437-9.735c-.327.046-.514.927-.514.927s4.11 9.873 4.018 10.012c-.093.14-1.26 1.67-1.354 1.483-.093-.185-3.176-9.595-3.736-9.595s-.934.278-.84.695c.092.417 3.97 8.946 3.735 9.178-.233.232-1.448.742-1.635.556-.187-.184-3.597-8.435-3.83-8.528s-.7.185-.7.37c0 .186 3.595 8.854 3.595 8.854s-2.382.788-2.475.603c-.093-.186-3.27-8.437-3.55-8.484s-.934.417-.887.695c.048.28 3.457 7.835 3.224 7.927-.234.093-2.29.185-2.43.093-.14-.093-2.474-7.138-2.708-7.185-.233-.046-.98.417-1.027.556-.048.14 2.568 6.908 2.38 6.86-.186-.045-1.634.094-1.727-.092-.093-.185-2.15-7-2.29-7s-1.026.28-1.026.418 2.475 6.907 2.288 6.907-1.868 0-2.008-.14c-.14-.138-2.15-6.21-2.382-6.257-.234-.046-1.168.185-1.12.464.046.278 2.24 5.84 2.007 5.84s-2.008 0-2.195-.185-2.055-6.072-2.382-6.072-1.12.093-1.028.603c.094.51 2.522 5.7 2.242 5.7s-1.916.186-2.15 0c-.233-.184-2.24-6.303-2.66-6.303s-1.03.463-1.03.742c0 .278 2.663 5.7 2.476 5.7s-1.588 0-1.728-.138c-.14-.14-2.336-5.61-2.57-5.61-.232 0-1.26 0-1.12.325.14.324 2.71 5.284 2.475 5.284-.233 0-1.495 0-1.635-.046s-2.01-5.238-2.382-5.238c-.374 0-1.308.37-1.214.603.093.232 2.382 4.682 2.195 4.682s-1.867-.09-1.867-.09-1.775-4.45-2.055-4.496c-.28-.045-1.12.325-1.028.604.094.278 2.15 3.847 1.915 3.894-.234.046-1.54.093-1.68-.093-.14-.185-1.542-3.43-1.73-3.43s-1.307.14-1.12.464c.187.323 1.635 3.105 1.495 3.105s-1.448 0-1.68-.185c-.234-.185-1.122-2.967-1.45-2.967-.326 0-1.12.232-.933.556.187.323 1.168 2.41.98 2.41-.186 0-1.26.045-1.4-.186-.14-.232-1.074-2.688-1.4-2.688-.328 0-1.31.278-1.122.556.187.278 1.028 2.04.84 2.04-.186 0-1.213-.14-1.213-.14s-.935-2.27-1.355-2.364c-.42-.093-1.308.232-1.12.417.186.185.793 1.808.56 1.715-.235-.093-3.45801-.788-5.04501-2.18-1.59-1.39-3.926-5.7-4.16-10.244-.233-4.543-.7-14.74-.747-17.8-.047-3.058.374-4.634 1.167-6.257.658-1.346 2.195-2.643 6.68-3.477 4.48501-.834 11.16501-1.853 17.56301-1.993 6.4-.14 14.666.417 17.375.417 2.71 0 8.968.37 11.957 3.94s3.83 5.933 4.717 8.853c.89 2.92.842 3.894.842 3.894s-2.195-4.264-2.335-3.662c-.14.603-.327 1.53-.14 1.808s2.662 4.357 2.71 4.82c.045.464.28 3.94.14 3.662zm-18.964-4.08c-.047-.972-1.354-1.343-4.95-2.548-3.597-1.205-8.83-2.874-10.65-2.967-1.822-.093-3.036 1.622-3.083 3.152-.048 1.53.046 10.66.14 11.263.093.603.51 1.19 1.167 1.205 2.195.046 7.567-2.92 12.097-5.516s5.325-3.615 5.278-4.59zm-15.226 8.113c-.33-.03-.327-9.317.093-9.41s7.332.973 9.107 1.622c1.775.65 2.802.927 2.71 1.298-.095.37-3.458 2.18-6.447 3.8-2.99 1.624-4.95 2.736-5.464 2.69zm-15.974-23.595c-.84.094-3.36301 1.067-5.88501 2.69s-3.316 3.893-3.223 5.978c.093 2.086.374 2.642.794 2.642.56 0 .84-1.808.7-2.503s.655-2.874 1.59-4.033c.933-1.16 5.65001-3.106 6.21001-3.57.56-.46.655-1.295-.186-1.203zm-5.18401 30.41c-.654-.557-.747-2.365-.84-2.643-.095-.278-1.334-.37-1.356-.14-.233 2.458 1.495 4.73 2.15 5.007.653.278 1.353-.185 1.353-.65 0-.463-.654-1.019-1.307-1.574zm16.30001-14.14c-.187-.23-1.16-.63-1.4-.092-.188.417.046 6.397.046 7.138 0 .742.28 1.622.7 1.76.42.14.842-.555.702-1.39-.14-.833.14-7.183-.048-7.415zm23.4 1.902c-.793.463-9.486 5.42-9.667 5.84-.14.324.048.695.468.788s.98.324 2.29-.51c1.307-.834 8.36-4.728 8.78-5.145s.28-.88-.093-1.16c-.375-.277-.982-.277-1.776.187zm2.29-19.7c-.234.046-.456 1.254-.048 1.344.84.185 2.57.324 4.39 1.53 1.823 1.205 2.57 3.337 2.897 3.894.327.556.794.232 1.12-.37.328-.604-.092-1.3-2.334-4.08-2.242-2.782-5.791-2.365-6.025-2.318z" fill="#000"/><path clip-rule="evenodd" d="m62.026 33.9264c-.14-.278-2.336-4.635-3.083-5.423-.747-.79-.98-.233-1.028.045-.047.278 1.308 2.086 1.495 2.503s2.57 4.82 2.57 5.284-.14 3.708-.328 3.616c-.187-.093-3.503-7.973-3.83-7.88s-.98.65-.747 1.112 4.11 7.926 4.11 8.297c0 .37-.607 2.828-.794 2.457-.186-.37-3.69-8.853-4.016-8.9-.327-.046-.7.927-.7 1.112s4.25 8.9 4.25 8.9-.985 2.505-1.125 2.505-4.11-9.78-4.437-9.735c-.327.046-.514.927-.514.927s4.11 9.873 4.018 10.012c-.093.14-1.26 1.67-1.354 1.483-.093-.185-3.176-9.595-3.736-9.595s-.934.278-.84.695c.092.417 3.97 8.946 3.735 9.178-.233.232-1.448.742-1.635.556-.187-.184-3.597-8.435-3.83-8.528s-.7.185-.7.37c0 .186 3.595 8.854 3.595 8.854s-2.382.788-2.475.603c-.093-.186-3.27-8.437-3.55-8.484s-.934.417-.887.695c.048.28 3.457 7.835 3.224 7.927-.234.093-2.29.185-2.43.093-.14-.093-2.474-7.138-2.708-7.185-.233-.046-.98.417-1.027.556-.048.14 2.568 6.908 2.38 6.86-.186-.045-1.634.094-1.727-.092-.093-.185-2.15-7-2.29-7s-1.026.28-1.026.418 2.475 6.907 2.288 6.907-1.868 0-2.008-.14c-.14-.138-2.15-6.21-2.382-6.257-.234-.046-1.168.185-1.12.464.046.278 2.24 5.84 2.007 5.84s-2.008 0-2.195-.185-2.055-6.072-2.382-6.072-1.12.093-1.028.603c.094.51 2.522 5.7 2.242 5.7s-1.916.186-2.15 0c-.233-.184-2.24-6.303-2.66-6.303s-1.03.463-1.03.742c0 .278 2.663 5.7 2.476 5.7s-1.588 0-1.728-.138c-.14-.14-2.336-5.61-2.57-5.61-.232 0-1.26 0-1.12.325.14.324 2.71 5.284 2.475 5.284-.233 0-1.495 0-1.635-.046s-2.01-5.238-2.382-5.238c-.374 0-1.308.37-1.214.603.093.232 2.382 4.682 2.195 4.682s-1.867-.09-1.867-.09-1.775-4.45-2.055-4.496c-.28-.045-1.12.325-1.028.604.094.278 2.15 3.847 1.915 3.894-.234.046-1.54.093-1.68-.093-.14-.185-1.542-3.43-1.73-3.43s-1.307.14-1.12.464c.187.323 1.635 3.105 1.495 3.105s-1.448 0-1.68-.185c-.234-.185-1.122-2.967-1.45-2.967-.326 0-1.12.232-.933.556.187.323 1.168 2.41.98 2.41-.186 0-1.26.045-1.4-.186-.14-.232-1.074-2.688-1.4-2.688-.328 0-1.31.278-1.122.556.187.278 1.028 2.04.84 2.04-.186 0-1.213-.14-1.213-.14s-.935-2.27-1.355-2.364c-.42-.093-1.308.232-1.12.417.186.185.793 1.808.56 1.715-.235-.093-3.45801-.788-5.04501-2.18-1.59-1.39-3.926-5.7-4.16-10.244-.233-4.543-.7-14.74-.747-17.8-.047-3.058.374-4.634 1.167-6.257.658-1.346 2.195-2.643 6.68-3.477 4.48501-.834 11.16501-1.853 17.56301-1.993 6.4-.14 14.666.417 17.375.417 2.71 0 8.968.37 11.957 3.94s3.83 5.933 4.717 8.853c.89 2.92.842 3.894.842 3.894s-2.195-4.264-2.335-3.662c-.14.603-.327 1.53-.14 1.808s2.662 4.357 2.71 4.82c.045.464.28 3.94.14 3.662zm-23.914-6.628c3.596 1.205 4.903 1.576 4.95 2.548l-.001-.001c.047.975-.748 1.994-5.278 4.59s-9.902 5.562-12.097 5.516c-.657-.015-1.074-.602-1.167-1.205-.094-.603-.188-9.733-.14-11.263.047-1.53 1.261-3.245 3.083-3.152 1.82.093 7.053 1.762 10.65 2.967zm-32.13501-10.244c2.522-1.623 5.04501-2.596 5.88501-2.69v.001c.841-.092.746.743.186 1.203-.56.464-5.27701 2.41-6.21001 3.57-.935 1.159-1.73 3.338-1.59 4.033s-.14 2.503-.7 2.503c-.42 0-.701-.556-.794-2.642-.093-2.085.701-4.355 3.223-5.978zm-.139 25.077c.093.278.186 2.086.84 2.643.653.555 1.307 1.111 1.307 1.574 0 .465-.7.928-1.353.65-.655-.277-2.383-2.549-2.15-5.007.022-.23 1.261-.138 1.356.14zm15.74001-11.589c.24-.538 1.213-.138 1.4.092v.001c.188.232-.092 6.582.048 7.415.14.835-.282 1.53-.702 1.39-.42-.138-.7-1.018-.7-1.76 0-.741-.234-6.721-.046-7.138zm15.133 7.834c.181-.42 8.874-5.377 9.667-5.84h.002c.794-.464 1.401-.464 1.776-.187.373.28.513.743.093 1.16s-7.473 4.311-8.78 5.145c-1.31.834-1.87.603-2.29.51s-.608-.464-.468-.788zm11.909-24.196c-.408-.09-.186-1.298.048-1.344.234-.047 3.783-.464 6.025 2.318 2.242 2.78 2.662 3.476 2.334 4.08-.326.602-.793.926-1.12.37-.327-.557-1.074-2.689-2.897-3.894-1.82-1.206-3.55-1.345-4.39-1.53z" fill="#000" fill-rule="evenodd"/><path d="m61.138 19.8344c-1.962-5.654-6.913-9.64-10.416-10.19704-3.503-.557-12.05-1.112-19.197-.927s-20.177 1.252-24.66001 2.31804c-4.485 1.066-5.981003 3.756-6.588003 5.98-.607 2.223-.047 9.454.048 14.786s.67 9.534 1.495003 13.303c.84 3.847 3.316 8.02 5.465 9.363 2.15 1.344 8.78001 1.854 15.64701 2.132 6.866.278 18.03-.232 24.848-.417 6.82-.184 9.575-1.204 11.864-2.734 2.288-1.53 4.204-8.02 4.344-14.926.14-6.905-.888-13.025-2.85-18.681zm.888 14.092c-.14-.278-2.336-4.635-3.083-5.423-.747-.79-.98-.233-1.028.045-.047.278 1.308 2.086 1.495 2.503s2.57 4.82 2.57 5.284-.14 3.708-.328 3.616c-.187-.093-3.503-7.973-3.83-7.88s-.98.65-.747 1.112 4.11 7.926 4.11 8.297c0 .37-.607 2.828-.794 2.457-.186-.37-3.69-8.853-4.016-8.9-.327-.046-.7.927-.7 1.112s4.25 8.9 4.25 8.9-.985 2.505-1.125 2.505-4.11-9.78-4.437-9.735c-.327.046-.514.927-.514.927s4.11 9.873 4.018 10.012c-.093.14-1.26 1.67-1.354 1.483-.093-.185-3.176-9.595-3.736-9.595s-.934.278-.84.695c.092.417 3.97 8.946 3.735 9.178-.233.232-1.448.742-1.635.556-.187-.184-3.597-8.435-3.83-8.528s-.7.185-.7.37c0 .186 3.595 8.854 3.595 8.854s-2.382.788-2.475.603c-.093-.186-3.27-8.437-3.55-8.484s-.934.417-.887.695c.048.28 3.457 7.835 3.224 7.927-.234.093-2.29.185-2.43.093-.14-.093-2.474-7.138-2.708-7.185-.233-.046-.98.417-1.027.556-.048.14 2.568 6.908 2.38 6.86-.186-.045-1.634.094-1.727-.092-.093-.185-2.15-7-2.29-7s-1.026.28-1.026.418 2.475 6.907 2.288 6.907-1.868 0-2.008-.14c-.14-.138-2.15-6.21-2.382-6.257-.234-.046-1.168.185-1.12.464.046.278 2.24 5.84 2.007 5.84s-2.008 0-2.195-.185-2.055-6.072-2.382-6.072-1.12.093-1.028.603c.094.51 2.522 5.7 2.242 5.7s-1.916.186-2.15 0c-.233-.184-2.24-6.303-2.66-6.303s-1.03.463-1.03.742c0 .278 2.663 5.7 2.476 5.7s-1.588 0-1.728-.138c-.14-.14-2.336-5.61-2.57-5.61-.232 0-1.26 0-1.12.325.14.324 2.71 5.284 2.475 5.284-.233 0-1.495 0-1.635-.046s-2.01-5.238-2.382-5.238c-.374 0-1.308.37-1.214.603.093.232 2.382 4.682 2.195 4.682s-1.867-.09-1.867-.09-1.775-4.45-2.055-4.496c-.28-.045-1.12.325-1.028.604.094.278 2.15 3.847 1.915 3.894-.234.046-1.54.093-1.68-.093-.14-.185-1.542-3.43-1.73-3.43s-1.307.14-1.12.464c.187.323 1.635 3.105 1.495 3.105s-1.448 0-1.68-.185c-.234-.185-1.122-2.967-1.45-2.967-.326 0-1.12.232-.933.556.187.323 1.168 2.41.98 2.41-.186 0-1.26.045-1.4-.186-.14-.232-1.074-2.688-1.4-2.688-.328 0-1.31.278-1.122.556.187.278 1.028 2.04.84 2.04-.186 0-1.213-.14-1.213-.14s-.935-2.27-1.355-2.364c-.42-.093-1.308.232-1.12.417.186.185.793 1.808.56 1.715-.235-.093-3.45801-.788-5.04501-2.18-1.59-1.39-3.926-5.7-4.16-10.244-.233-4.543-.7-14.74-.747-17.8-.047-3.058.374-4.634 1.167-6.257.658-1.346 2.195-2.643 6.68-3.477 4.48501-.834 11.16501-1.853 17.56301-1.993 6.4-.14 14.666.417 17.375.417 2.71 0 8.968.37 11.957 3.94s3.83 5.933 4.717 8.853c.89 2.92.842 3.894.842 3.894s-2.195-4.264-2.335-3.662c-.14.603-.327 1.53-.14 1.808s2.662 4.357 2.71 4.82c.045.464.28 3.94.14 3.662zm-18.964-4.08c-.047-.972-1.354-1.343-4.95-2.548-3.597-1.205-8.83-2.874-10.65-2.967-1.822-.093-3.036 1.622-3.083 3.152-.048 1.53.046 10.66.14 11.263.093.603.51 1.19 1.167 1.205 2.195.046 7.567-2.92 12.097-5.516s5.325-3.615 5.278-4.59zm-15.226 8.113c-.33-.03-.327-9.317.093-9.41s7.332.973 9.107 1.622c1.775.65 2.802.927 2.71 1.298-.095.37-3.458 2.18-6.447 3.8-2.99 1.624-4.95 2.736-5.464 2.69zm-15.974-23.595c-.84.094-3.36301 1.067-5.88501 2.69s-3.316 3.893-3.223 5.978c.093 2.086.374 2.642.794 2.642.56 0 .84-1.808.7-2.503s.655-2.874 1.59-4.033c.933-1.16 5.65001-3.106 6.21001-3.57.56-.46.655-1.295-.186-1.203zm-5.18401 30.41c-.654-.557-.747-2.365-.84-2.643-.095-.278-1.334-.37-1.356-.14-.233 2.458 1.495 4.73 2.15 5.007.653.278 1.353-.185 1.353-.65 0-.463-.654-1.019-1.307-1.574zm16.30001-14.14c-.187-.23-1.16-.63-1.4-.092-.188.417.046 6.397.046 7.138 0 .742.28 1.622.7 1.76.42.14.842-.555.702-1.39-.14-.833.14-7.183-.048-7.415zm23.4 1.902c-.793.463-9.486 5.42-9.667 5.84-.14.324.048.695.468.788s.98.324 2.29-.51c1.307-.834 8.36-4.728 8.78-5.145s.28-.88-.093-1.16c-.375-.277-.982-.277-1.776.187zm2.29-19.7c-.234.046-.456 1.254-.048 1.344.84.185 2.57.324 4.39 1.53 1.823 1.205 2.57 3.337 2.897 3.894.327.556.794.232 1.12-.37.328-.604-.092-1.3-2.334-4.08-2.242-2.782-5.791-2.365-6.025-2.318z" mask="url(#b)" stroke="#000" stroke-width="2"/><g clip-rule="evenodd" fill-rule="evenodd"><path d="m62.026 33.9264c-.14-.278-2.336-4.635-3.083-5.423-.747-.79-.98-.233-1.028.045-.047.278 1.308 2.086 1.495 2.503s2.57 4.82 2.57 5.284-.14 3.708-.328 3.616c-.187-.093-3.503-7.973-3.83-7.88s-.98.65-.747 1.112 4.11 7.926 4.11 8.297c0 .37-.607 2.828-.794 2.457-.186-.37-3.69-8.853-4.016-8.9-.327-.046-.7.927-.7 1.112s4.25 8.9 4.25 8.9-.985 2.505-1.125 2.505-4.11-9.78-4.437-9.735c-.327.046-.514.927-.514.927s4.11 9.873 4.018 10.012c-.093.14-1.26 1.67-1.354 1.483-.093-.185-3.176-9.595-3.736-9.595s-.934.278-.84.695c.092.417 3.97 8.946 3.735 9.178-.233.232-1.448.742-1.635.556-.187-.184-3.597-8.435-3.83-8.528s-.7.185-.7.37c0 .186 3.595 8.854 3.595 8.854s-2.382.788-2.475.603c-.093-.186-3.27-8.437-3.55-8.484s-.934.417-.887.695c.048.28 3.457 7.835 3.224 7.927-.234.093-2.29.185-2.43.093-.14-.093-2.474-7.138-2.708-7.185-.233-.046-.98.417-1.027.556-.048.14 2.568 6.908 2.38 6.86-.186-.045-1.634.094-1.727-.092-.093-.185-2.15-7-2.29-7s-1.026.28-1.026.418 2.475 6.907 2.288 6.907-1.868 0-2.008-.14c-.14-.138-2.15-6.21-2.382-6.257-.234-.046-1.168.185-1.12.464.046.278 2.24 5.84 2.007 5.84s-2.008 0-2.195-.185-2.055-6.072-2.382-6.072-1.12.093-1.028.603c.094.51 2.522 5.7 2.242 5.7s-1.916.186-2.15 0c-.233-.184-2.24-6.303-2.66-6.303s-1.03.463-1.03.742c0 .278 2.663 5.7 2.476 5.7s-1.588 0-1.728-.138c-.14-.14-2.336-5.61-2.57-5.61-.232 0-1.26 0-1.12.325.14.324 2.71 5.284 2.475 5.284-.233 0-1.495 0-1.635-.046s-2.01-5.238-2.382-5.238c-.374 0-1.308.37-1.214.603.093.232 2.382 4.682 2.195 4.682s-1.867-.09-1.867-.09-1.775-4.45-2.055-4.496c-.28-.045-1.12.325-1.028.604.094.278 2.15 3.847 1.915 3.894-.234.046-1.54.093-1.68-.093-.14-.185-1.542-3.43-1.73-3.43s-1.307.14-1.12.464c.187.323 1.635 3.105 1.495 3.105s-1.448 0-1.68-.185c-.234-.185-1.122-2.967-1.45-2.967-.326 0-1.12.232-.933.556.187.323 1.168 2.41.98 2.41-.186 0-1.26.045-1.4-.186-.14-.232-1.074-2.688-1.4-2.688-.328 0-1.31.278-1.122.556.187.278 1.028 2.04.84 2.04-.186 0-1.213-.14-1.213-.14s-.935-2.27-1.355-2.364c-.42-.093-1.308.232-1.12.417.186.185.793 1.808.56 1.715-.235-.093-3.45801-.788-5.04501-2.18-1.59-1.39-3.926-5.7-4.16-10.244-.233-4.543-.7-14.74-.747-17.8-.047-3.058.374-4.634 1.167-6.257.658-1.346 2.195-2.643 6.68-3.477 4.48501-.834 11.16501-1.853 17.56301-1.993 6.4-.14 14.666.417 17.375.417 2.71 0 8.968.37 11.957 3.94s3.83 5.933 4.717 8.853c.89 2.92.842 3.894.842 3.894s-2.195-4.264-2.335-3.662c-.14.603-.327 1.53-.14 1.808s2.662 4.357 2.71 4.82c.045.464.28 3.94.14 3.662zm-23.914-6.628c3.596 1.205 4.903 1.576 4.95 2.548l-.001-.001c.047.975-.748 1.994-5.278 4.59s-9.902 5.562-12.097 5.516c-.657-.015-1.074-.602-1.167-1.205-.094-.603-.188-9.733-.14-11.263.047-1.53 1.261-3.245 3.083-3.152 1.82.093 7.053 1.762 10.65 2.967zm-32.13501-10.244c2.522-1.623 5.04501-2.596 5.88501-2.69v.001c.841-.092.746.743.186 1.203-.56.464-5.27701 2.41-6.21001 3.57-.935 1.159-1.73 3.338-1.59 4.033s-.14 2.503-.7 2.503c-.42 0-.701-.556-.794-2.642-.093-2.085.701-4.355 3.223-5.978zm-.139 25.077c.093.278.186 2.086.84 2.643.653.555 1.307 1.111 1.307 1.574 0 .465-.7.928-1.353.65-.655-.277-2.383-2.549-2.15-5.007.022-.23 1.261-.138 1.356.14zm15.74001-11.589c.24-.538 1.213-.138 1.4.092v.001c.188.232-.092 6.582.048 7.415.14.835-.282 1.53-.702 1.39-.42-.138-.7-1.018-.7-1.76 0-.741-.234-6.721-.046-7.138zm15.133 7.834c.181-.42 8.874-5.377 9.667-5.84h.002c.794-.464 1.401-.464 1.776-.187.373.28.513.743.093 1.16s-7.473 4.311-8.78 5.145c-1.31.834-1.87.603-2.29.51s-.608-.464-.468-.788zm11.909-24.196c-.408-.09-.186-1.298.048-1.344.234-.047 3.783-.464 6.025 2.318 2.242 2.78 2.662 3.476 2.334 4.08-.326.602-.793.926-1.12.37-.327-.557-1.074-2.689-2.897-3.894-1.82-1.206-3.55-1.345-4.39-1.53z" mask="url(#b)" stroke="#000" stroke-width="2"/><path d="m62.026 33.9264c-.14-.278-2.336-4.635-3.083-5.423-.747-.79-.98-.233-1.028.045-.047.278 1.308 2.086 1.495 2.503s2.57 4.82 2.57 5.284-.14 3.708-.328 3.616c-.187-.093-3.503-7.973-3.83-7.88s-.98.65-.747 1.112 4.11 7.926 4.11 8.297c0 .37-.607 2.828-.794 2.457-.186-.37-3.69-8.853-4.016-8.9-.327-.046-.7.927-.7 1.112s4.25 8.9 4.25 8.9-.985 2.505-1.125 2.505-4.11-9.78-4.437-9.735c-.327.046-.514.927-.514.927s4.11 9.873 4.018 10.012c-.093.14-1.26 1.67-1.354 1.483-.093-.185-3.176-9.595-3.736-9.595s-.934.278-.84.695c.092.417 3.97 8.946 3.735 9.178-.233.232-1.448.742-1.635.556-.187-.184-3.597-8.435-3.83-8.528s-.7.185-.7.37c0 .186 3.595 8.854 3.595 8.854s-2.382.788-2.475.603c-.093-.186-3.27-8.437-3.55-8.484s-.934.417-.887.695c.048.28 3.457 7.835 3.224 7.927-.234.093-2.29.185-2.43.093-.14-.093-2.474-7.138-2.708-7.185-.233-.046-.98.417-1.027.556-.048.14 2.568 6.908 2.38 6.86-.186-.045-1.634.094-1.727-.092-.093-.185-2.15-7-2.29-7s-1.026.28-1.026.418 2.475 6.907 2.288 6.907-1.868 0-2.008-.14c-.14-.138-2.15-6.21-2.382-6.257-.234-.046-1.168.185-1.12.464.046.278 2.24 5.84 2.007 5.84s-2.008 0-2.195-.185-2.055-6.072-2.382-6.072-1.12.093-1.028.603c.094.51 2.522 5.7 2.242 5.7s-1.916.186-2.15 0c-.233-.184-2.24-6.303-2.66-6.303s-1.03.463-1.03.742c0 .278 2.663 5.7 2.476 5.7s-1.588 0-1.728-.138c-.14-.14-2.336-5.61-2.57-5.61-.232 0-1.26 0-1.12.325.14.324 2.71 5.284 2.475 5.284-.233 0-1.495 0-1.635-.046s-2.01-5.238-2.382-5.238c-.374 0-1.308.37-1.214.603.093.232 2.382 4.682 2.195 4.682s-1.867-.09-1.867-.09-1.775-4.45-2.055-4.496c-.28-.045-1.12.325-1.028.604.094.278 2.15 3.847 1.915 3.894-.234.046-1.54.093-1.68-.093-.14-.185-1.542-3.43-1.73-3.43s-1.307.14-1.12.464c.187.323 1.635 3.105 1.495 3.105s-1.448 0-1.68-.185c-.234-.185-1.122-2.967-1.45-2.967-.326 0-1.12.232-.933.556.187.323 1.168 2.41.98 2.41-.186 0-1.26.045-1.4-.186-.14-.232-1.074-2.688-1.4-2.688-.328 0-1.31.278-1.122.556.187.278 1.028 2.04.84 2.04-.186 0-1.213-.14-1.213-.14s-.935-2.27-1.355-2.364c-.42-.093-1.308.232-1.12.417.186.185.793 1.808.56 1.715-.235-.093-3.45801-.788-5.04501-2.18-1.59-1.39-3.926-5.7-4.16-10.244-.233-4.543-.7-14.74-.747-17.8-.047-3.058.374-4.634 1.167-6.257.658-1.346 2.195-2.643 6.68-3.477 4.48501-.834 11.16501-1.853 17.56301-1.993 6.4-.14 14.666.417 17.375.417 2.71 0 8.968.37 11.957 3.94s3.83 5.933 4.717 8.853c.89 2.92.842 3.894.842 3.894s-2.195-4.264-2.335-3.662c-.14.603-.327 1.53-.14 1.808s2.662 4.357 2.71 4.82c.045.464.28 3.94.14 3.662zm-23.914-6.628c3.596 1.205 4.903 1.576 4.95 2.548l-.001-.001c.047.975-.748 1.994-5.278 4.59s-9.902 5.562-12.097 5.516c-.657-.015-1.074-.602-1.167-1.205-.094-.603-.188-9.733-.14-11.263.047-1.53 1.261-3.245 3.083-3.152 1.82.093 7.053 1.762 10.65 2.967zm-32.13501-10.244c2.522-1.623 5.04501-2.596 5.88501-2.69v.001c.841-.092.746.743.186 1.203-.56.464-5.27701 2.41-6.21001 3.57-.935 1.159-1.73 3.338-1.59 4.033s-.14 2.503-.7 2.503c-.42 0-.701-.556-.794-2.642-.093-2.085.701-4.355 3.223-5.978zm-.139 25.077c.093.278.186 2.086.84 2.643.653.555 1.307 1.111 1.307 1.574 0 .465-.7.928-1.353.65-.655-.277-2.383-2.549-2.15-5.007.022-.23 1.261-.138 1.356.14zm15.74001-11.589c.24-.538 1.213-.138 1.4.092v.001c.188.232-.092 6.582.048 7.415.14.835-.282 1.53-.702 1.39-.42-.138-.7-1.018-.7-1.76 0-.741-.234-6.721-.046-7.138zm15.133 7.834c.181-.42 8.874-5.377 9.667-5.84h.002c.794-.464 1.401-.464 1.776-.187.373.28.513.743.093 1.16s-7.473 4.311-8.78 5.145c-1.31.834-1.87.603-2.29.51s-.608-.464-.468-.788zm11.909-24.196c-.408-.09-.186-1.298.048-1.344.234-.047 3.783-.464 6.025 2.318 2.242 2.78 2.662 3.476 2.334 4.08-.326.602-.793.926-1.12.37-.327-.557-1.074-2.689-2.897-3.894-1.82-1.206-3.55-1.345-4.39-1.53z" fill="#f00"/></g></g></svg>