<svg xmlns="http://www.w3.org/2000/svg" width="223" height="222" fill="none">
  <g clip-path="url(#a)">
    <path fill="#FF3E00" d="M111.44 221.28c61.1 0 110.64-49.53 110.64-110.64C222.08 49.54 172.54 0 111.43 0 50.34 0 .8 49.54.8 110.64s49.54 110.64 110.64 110.64Z"/>
    <path fill="#EEE" stroke="#000" stroke-width="3.16" d="M111.44 191.55a79.9 79.9 0 1 0 0-159.82 79.9 79.9 0 0 0 0 159.82Z"/>
    <path fill="#EEE" d="m192.17 150.15 11.44-1.9 5.58 2.1 1.02-2.7-5.58-2.1-7.33-9-1.15 3.07 5.23 6.16-.05.14-8 1.16-1.16 3.06ZM174.03 177.13l3.45-3.53 9.7 9.49 2-2.05-9.69-9.5 3.47-3.53-1.74-1.7-8.93 9.12 1.74 1.7ZM149.31 207.35l9.46-4.46-1.03-2.2-6.85 3.23-1.86-3.95 6.3-2.97-1.04-2.2-6.3 2.98-1.85-3.93 6.79-3.2-1.04-2.2-9.4 4.44 6.82 14.46ZM113.33 199.35h-2.9v16h2.9v-16ZM83.06 200.82c1.19-3.38-.3-6.46-3.45-8.08-3.72-1.91-7.9-.64-10.27 3.95-2.36 4.6-1 8.73 2.76 10.66 3.38 1.74 6.75.7 8.54-1.81l-2.6-1.35c-1.17 1.5-3.02 1.74-4.72.86-2.3-1.18-3.07-3.76-1.39-7.03 1.65-3.2 4.2-4.15 6.53-2.95 1.73.89 2.58 2.56 2 4.42l2.6 1.33ZM46.93 183.19c4.2-3.01 4.84-7.35 2.4-10.76-2.46-3.41-6.76-4.2-10.96-1.18-4.2 3.01-4.84 7.35-2.4 10.76 2.45 3.4 6.76 4.2 10.96 1.18Zm-1.7-2.37c-2.95 2.12-5.62 1.8-7.14-.33-1.52-2.11-.98-4.75 1.97-6.87 2.96-2.13 5.64-1.79 7.15.33 1.52 2.12.98 4.75-1.97 6.87ZM25.86 146.8l.84 2.65c2.56-.88 3.68-3.66 2.64-6.9-1.02-3.2-3.59-5.02-6.28-4.15-2.18.7-2.94 2.65-2.79 5.36l.11 1.88c.11 1.78-.06 3.03-1.24 3.41-1.3.41-2.57-.55-3.14-2.34-.55-1.73-.2-3.32 1.36-3.94l-.87-2.71c-3 1.08-3.98 3.87-2.84 7.42 1.17 3.65 3.67 5.2 6.35 4.34 2.64-.85 3.15-3.42 2.96-5.88l-.1-1.54c-.1-1.35 0-2.87 1.27-3.26 1.15-.36 2.32.4 2.87 2.12.52 1.65.1 2.98-1.14 3.53ZM185.7 63.35l4.93 9.23 2.14-1.14-3.56-6.68 3.85-2.05 3.28 6.14 2.14-1.14-3.28-6.15 3.83-2.04 3.53 6.62 2.15-1.15-4.9-9.17-14.11 7.53ZM167.62 25.81l3.98 2.93-8.04 10.92 2.31 1.7 8.04-10.91 3.98 2.93 1.44-1.96-10.27-7.56-1.44 1.95ZM124.03 24.07l9.82 1.55.38-2.4-6.96-1.1 2.1-13.4-2.86-.44-2.48 15.8ZM84.39 27.16l10.06-2.87-.67-2.34-7.27 2.08-1.2-4.2 6.7-1.9-.67-2.34-6.7 1.91-1.2-4.17 7.22-2.06L90 8.93 80 11.8l4.4 15.37ZM44.04 31.68l-2.38 2.11L56.5 42l2.67-2.37-6.42-15.7-2.38 2.12 5.26 12.16-.12.11-11.47-6.63ZM24.63 59.8l1.24-2.5c-2.45-1.15-5.18.06-6.7 3.1-1.5 3.02-.92 6.12 1.61 7.37 2.06 1.02 3.97.14 5.74-1.91l1.23-1.42c1.16-1.35 2.15-2.13 3.27-1.59 1.22.62 1.46 2.18.62 3.88-.8 1.62-2.16 2.52-3.72 1.87l-1.26 2.56c2.9 1.3 5.55-.02 7.2-3.35 1.71-3.44.99-6.28-1.53-7.54-2.49-1.23-4.64.26-6.22 2.16l-1 1.17c-.87 1.04-2 2.07-3.18 1.46-1.08-.55-1.39-1.9-.58-3.53.77-1.54 2-2.2 3.28-1.73ZM15.25 107a2.5 2.5 0 1 0 0-4.98 2.5 2.5 0 0 0 0 4.98ZM206.63 107a2.5 2.5 0 1 0 0-4.98 2.5 2.5 0 0 0 0 4.98Z"/>
    <path fill="#FF3E00" d="M152.92 66.98c-11.24-16.22-33.44-21.02-49.5-10.71l-28.19 18.1a32.73 32.73 0 0 0-14.61 21.8 34.6 34.6 0 0 0 3.35 22.06 32.78 32.78 0 0 0-4.83 12.18 35 35 0 0 0 5.9 26.29c11.23 16.21 33.43 21.02 49.48 10.7l28.2-18.03a32.56 32.56 0 0 0 14.6-21.8 34.59 34.59 0 0 0-3.35-22.04 32.98 32.98 0 0 0 4.84-12.18 35.03 35.03 0 0 0-5.89-26.28"/>
    <path fill="#EEE" d="M101.19 157.57c-4.46 1.15-9.17.91-13.49-.67a22.48 22.48 0 0 1-10.67-8.19 20.45 20.45 0 0 1-3.55-15.57c.16-.88.39-1.75.68-2.6l.53-1.6 1.45 1.07a36.86 36.86 0 0 0 11.05 5.44l1.08.3-.1 1.08a6.28 6.28 0 0 0 1.2 4.14 6.77 6.77 0 0 0 9 1.91l28.29-17.85a5.86 5.86 0 0 0 2.6-6.37 6.78 6.78 0 0 0-10.04-4.15l-10.86 6.82a20.9 20.9 0 0 1-5.75 2.5c-4.45 1.13-9.15.9-13.46-.69a22.47 22.47 0 0 1-10.65-8.17 20.46 20.46 0 0 1-3.53-15.57 19.22 19.22 0 0 1 8.83-12.96l28.37-17.85a20.8 20.8 0 0 1 5.71-2.49c4.46-1.14 9.17-.9 13.48.68a22.46 22.46 0 0 1 10.67 8.18 20.46 20.46 0 0 1 3.56 15.58c-.17.88-.4 1.75-.68 2.6l-.54 1.62-1.44-1.08a36.86 36.86 0 0 0-11.08-5.47l-1.09-.31.1-1.08a6.25 6.25 0 0 0-1.15-4.17 6.76 6.76 0 0 0-8.97-1.83L92.4 98.64a5.89 5.89 0 0 0-2.6 6.36 6.77 6.77 0 0 0 9.98 4.16l10.87-6.82a20.33 20.33 0 0 1 5.75-2.5 22.71 22.71 0 0 1 13.48.67 22.45 22.45 0 0 1 10.67 8.18 20.47 20.47 0 0 1 3.56 15.58 19.22 19.22 0 0 1-8.83 12.95l-28.34 17.85a20.99 20.99 0 0 1-5.75 2.5Z"/>
    <g filter="url(#b)">
      <path fill="#000" d="M86.72 51.14c2.17-.57 6.42.05 9.66 1.51l-1.13 6.5s-5.2-1.95-6.99-4.37c-.5-.68.66-2.08.66-2.08s-1.77.06-1.95 1.58c-.17 1.53.78 2.95 8.4 5.57 7.64 2.63 7.03 5.96 13.32 10.15 6.7 4.45 12 6.92 19.73 10.68 7.75 3.77 18.33 5.04 23.2 4.7a51.02 51.02 0 0 0 11.2-2.23l2.53-10.97 1.17.2.4-2.32c7 1.23 12.96 8.29 11.52 16.44-2.29 12.97-17.41 13.37-27.9 11.75-25.62-4.52-70.65-31.8-68.74-42.6.71-4.08 2.76-3.95 4.92-4.51Z"/>
    </g>
    <path fill="#FF3E00" d="m95.95 60.54 1.95-11.06 66.19 23.08 1.16.2c.78 6.7-2.53 10.97-2.53 10.97-10.45 4.76-27.73.6-34.4-2.47-11.53-5.3-25.15-14.04-32.37-20.72Z"/>
    <path fill="#000" d="M101.11 38.03c-3.39 9.01-3.73 14.36-3.73 14.36 3.94 4.9 23.22 18.5 41.22 21.68 12.23 2.16 19.9 2.91 26.55-.72l.72-4.08 2.46-13.98c2.67-15.14-16.96-26.4-24.53-27.74-4.04-.92-10.48-1.85-15.14-2.67-15.73-2.78-24.15 4.14-27.55 13.15Z"/>
    <path fill="#EEE" d="M168.2 90.47c9.42-2.47 10.35-9.15 9.25-11.95 2.3 4 .34 11.17-10.04 13.9-6.9 1.8-21.56 1.03-49.54-16.6 19.9 11.08 36.8 18.2 50.33 14.65Z"/>
  </g>
  <defs>
    <clipPath id="a">
      <path fill="#fff" d="M.8 0h221.27v221.28H.8z"/>
    </clipPath>
    <filter id="b" width="105.35" height="56.43" x="77.52" y="50.93" color-interpolation-filters="sRGB" filterUnits="userSpaceOnUse">
      <feFlood flood-opacity="0" result="BackgroundImageFix"/>
      <feColorMatrix in="SourceAlpha" result="hardAlpha" values="0 0 0 0 0 0 0 0 0 0 0 0 0 0 0 0 0 0 127 0"/>
      <feOffset dy="4.21"/>
      <feGaussianBlur stdDeviation="2.11"/>
      <feColorMatrix values="0 0 0 0 0 0 0 0 0 0 0 0 0 0 0 0 0 0 0.25 0"/>
      <feBlend in2="BackgroundImageFix" result="effect1_dropShadow_134_1613"/>
      <feBlend in="SourceGraphic" in2="effect1_dropShadow_134_1613" result="shape"/>
    </filter>
  </defs>
</svg>