<svg height="14" viewBox="100 130 380 300" xmlns="http://www.w3.org/2000/svg"><path d="m293.026 434.983 62.199-191.322h-124.307z" fill="#e24329"/><path d="m143.798 243.662-18.941 58.126c-1.714 5.278.137 11.104 4.661 14.394l163.509 118.801z" fill="#fca326"/><path d="m143.798 243.662h87.12l-37.494-115.224c-1.919-5.895-10.282-5.895-12.27 0z" fill="#e24329"/><path d="m442.346 243.662 18.873 58.126c1.714 5.278-.137 11.104-4.661 14.394l-163.532 118.801z" fill="#fca326"/><path d="m442.346 243.662h-87.12l37.425-115.224c1.919-5.895 10.282-5.895 12.27 0z" fill="#e24329"/><g fill="#fc6d26"><path d="m293.026 434.983 62.199-191.321h87.121z"/><path d="m293.026 434.983-149.228-191.321h87.12z"/></g></svg>