<svg fill="none" height="64" viewBox="0 0 64 64" width="64" xmlns="http://www.w3.org/2000/svg" xmlns:xlink="http://www.w3.org/1999/xlink"><linearGradient id="a" gradientUnits="userSpaceOnUse" x1="1.5144" x2="37.9105" y1="10.512" y2="66.3431"><stop offset="0" stop-color="#f68714"/><stop offset="1" stop-color="#ff3e00"/></linearGradient><clipPath id="b"><path d="m0 0h64v64h-64z"/></clipPath><g clip-path="url(#b)"><path d="m63.9299 41.1201c.068-3.195-.727-27.102-.866-29.266-.139-2.16398-4.08-2.81698-6.156-2.84998s-7.02.205-7.92.205c-.898 0-10.65-.07-17.463 0s-22.09698.24-24.86398.24-5.626.35-5.981995.82398c-1.419 1.891-.174 14.599-.174 23.255s.415 13.465.794995 14.667c.38 1.202 1.903 4.5 2.456 5.015s1.59.447 5.637.515c4.04598.07 4.39198.275 13.96998.275s19.47-.31 27.91-.55 9.232-.378 11.273-1.786c2.04-1.408 1.314-7.35 1.383-10.545zm-1.49-11.646c-.242-.275-2.144-3.126-2.524-3.09-.38.033-.31.755-.242 1.098.07.343 2.628 3.09 2.628 3.297s.173 2.027.07 1.958c-.105-.07-2.007-3.572-2.456-3.366-.45.206-.45.996-.415 1.27.035.276 2.836 3.264 2.836 3.608s.137 2.095 0 1.752c-.14-.343-2.318-3.813-2.698-3.607s-.45.86-.277 1.237c.173.378 2.905 3.4 2.94 3.778.034.378.24 2.714.034 2.542-.208-.172-2.04-3.744-2.837-3.916-.795-.172-.9.447-.553.756.346.31 1.73 2.68 2.11 3.366.38.687 1.383 1.58 1.418 1.786s.07 3.16-.138 3.023c-.207-.137-1.695-3.675-2.628-4.774-.934-1.1-1.418-1.65-1.695-1.34s-.138.824.138 1.237c.277.412 2.87 4.534 3.078 4.877s.38.653.31.893-.414.55-.414.79-.105.31-.14.07c-.034-.24-3.25-5.085-3.803-5.875s-.622-.996-1.14-.756.034.96.206 1.2c.173.24 4.323 6.184 4.357 6.63.035.447-.52.962-.795.824s-4.22-6.595-4.807-7.454c-.588-.86-.83-.86-1.14-.48-.312.377.414 1.064.933 1.957.52.893 3.217 5.152 3.598 5.564.38.413.45.894.45.894s-1.14.378-1.383.172c-.242-.206-4.738-7.66-5.118-7.66s-.726.515-.622.687 4.807 7.007 4.357 7.04c-.45.035-1.59.24-1.867.035s-3.32-5.874-3.84-5.908-.794.824-.76.962c.035.137 3.424 4.74 3.182 4.912s-.968.412-1.383.103c-.415-.31-3.147-5.736-3.493-5.874s-1.175.412-.967.618c.207.207 3.562 5.462 3.078 5.462-.483 0-1.175.103-1.382-.172s-3.078-4.98-3.39-5.084c-.31-.103-.967.103-.794.515.173.413 3.735 4.74 3.216 4.74-.52 0-1.97.31-2.18-.033s-2.662-4.67-3.11-4.774-.796.447-.727.687 2.697 4.087 2.386 4.122c-.312.034-1.592.103-1.834-.07-.242-.17-2.11-4.086-2.455-4.12-.345-.035-.864.446-.794.652s2.213 3.504 1.798 3.572c-.415.07-1.14.172-1.452-.07-.31-.24-2.317-3.64-2.697-3.71-.38-.068-1.107.24-.968.55.138.31 2.248 3.264 1.902 3.298s-1.626.172-1.8 0c-.172-.172-2.35-2.988-2.558-3.09-.207-.104-1.003.17-.795.377.207.207 2.18 2.543 1.764 2.61-.414.07-9.613.413-15.596.482-5.983.07-9.43997.07-11.72298-.275-2.283-.345-3.215-1.134-3.734-1.58-.526-.442-.90599-5.08-.97499-10.026-.06801-4.945-.41401-16.383-.48301-19.27s-.31-6.388.104-7.144c.236-.43 2.664-.515 10.37598-.86 7.712-.345 15.493-.308 25.625-.41 10.134-.104 15.355-.276 18.018-.104s5.36.515 5.844 1.443c.484.927.692 8.347.484 8.175s-1.245-1.408-1.487-1.134c-.243.275-.485.687-.278.927s1.833 1.546 1.867 1.89c.0003.0025.0005.0049.0008.0074.0342.3444.1015 1.0211-.0008.8156-.105-.206-1.21-1.58-1.523-1.27s-.553.823-.242 1.098c.31.275 1.833 1.958 1.902 2.336.07.378.035 1.237-.104.996-.138-.24-1.764-2.645-2.18-2.3-.414.342-.24 1.167-.172 1.34s2.49 2.266 2.49 2.438.314 2.406.072 2.13zm-49.176-11.37c.795.757 7.055 5.806 11.447 9.103s5.602 3.64 8.784 3.572 5.014-1.408 7.92-3.09c2.904-1.684 10.996-9.584 12.034-10.993 1.038-1.408.38-1.58-.345-1.89-.726-.308-3.562-.308-13.625-.102s-21.718.31-23.965.343-3.827.316-3.977.55c-.485.756.933 1.752 1.728 2.508zm19.78.31c7.54.034 16.15-.343 16.462 0 .31.343-5.5 5.84-9.06 7.97s-5.188 3.193-8.37 2.747c-3.182-.447-9.164-5.53-11.447-7.213s-3.665-2.886-3.56-3.127c.077-.18 8.438-.412 15.977-.378zm24.07-.962c-.934-.172-4.115 3.847-6.12 6.354s-4.136 5.16-4.185 5.324c-.206.688.485.825 2.49 2.577s4.497 5.324 5.5 6.56c1.003 1.238 1.625 1.512 2.352.997.726-.515.553-1.065.657-3.435.103-2.37.24-10.683.414-14.05.172-3.365-.174-4.155-1.108-4.327zm-.69 20.025c-.347-.206-3.286-4.328-3.978-4.946s-1.867-1.546-1.97-1.992c-.063-.268 6.05-7.522 6.258-7.282s.035 14.426-.31 14.22zm-9.027-1.958c-1.488-1.82-2.49-3.572-3.598-3.538-1.107.034-3.147 1.305-4.876 2.473-1.73 1.168-3.285 1.855-4.842 1.855s-5.153-1.855-5.637-2.233-3.023-1.183-3.597-1.1c-1.176.173-7.262 8.142-7.816 8.83-.553.686.76 1.923 1.59 2.026s3.113 0 14.04-.447c10.93-.447 16.185-.824 17.154-1.03.968-.206 1.003-1.065.795-1.717s-1.727-3.3-3.214-5.12zm1.555 5.462c-.207.206-7.746.824-17.187 1.202s-10.997.24-10.893.07 4.945-5.67 5.43-5.737c.307-.044 5.36 2.404 7.607 2.473 2.248.07 4.842-.893 7.02-2.473 2.18-1.58 3.354-2.404 3.7-2.37s3.147 3.916 3.77 5.015c.622 1.1.76 1.614.553 1.82zm-32.23-15.25c-2.25-2.165-7.79998-6.88-8.40398-6.87-2.627.033-1.832 4.052-1.66 9.273.174 5.22.97 11.92 1.384 13.705.415 1.786 1.73 1.82 2.79998 1.546 1.07-.274 1.903-1.683 4.013-4.328s5.187-6.904 5.464-8.76-1.348-2.403-3.596-4.567zm-4.322 14.322c-.934 1.134-.83 1.168-1.072 1.134s0-10.408-.104-12.33-.31-4.088-.138-4.466c.115-.252 3.25 2.44 4.945 3.847s2.594 2.197 2.663 2.54c.07.344-5.36 8.14-6.294 9.274zm22.547-8.07c-1.696.274-3.502-.295-3.943-.38-.726-.136-.865.757-.415 1.17.45.41 1.418.686 3.977.652 2.558-.034 4.287-1.03 4.564-1.477.277-.448-.138-1.1-.622-1.17-.485-.068-1.868.928-3.563 1.203zm-28.66698 15.112c-.38-.343 0-2.645-.206-3.023-.207-.378-1.192-.356-1.35 0-.24.55-.172 2.336.105 3.297s1.002 1.546 1.97 1.408.934-1.065.83-1.305-.97-.034-1.35-.377zm-1.45-31.909c.207-.824 1.556-.79 1.937-.996.38-.206.45-.137.38-.584s-.52-.927-1.902-.687-2.075 1.476-2.04 2.54c.035 1.066-.048 3.355.27701 3.54.48399.274 1.03699.274 1.24499.033.20801-.241-.104-3.022.103-3.846zm55.15998-1.065c.24-.308.414-.55-.45-1.82s-2.78-1.623-3.113-1.442c-1.072.584-.484 1.786.52 1.82 1.002.034 1.486 1.27 1.832 1.683s.968.07 1.21-.24z" fill="#000"/><path clip-rule="evenodd" d="m62.4399 29.474c-.242-.275-2.144-3.126-2.524-3.09-.38.033-.31.755-.242 1.098.07.343 2.628 3.09 2.628 3.297s.173 2.027.07 1.958c-.105-.07-2.007-3.572-2.456-3.366-.45.206-.45.996-.415 1.27.035.276 2.836 3.264 2.836 3.608s.137 2.095 0 1.752c-.14-.343-2.318-3.813-2.698-3.607s-.45.86-.277 1.237c.173.378 2.905 3.4 2.94 3.778.034.378.24 2.714.034 2.542-.208-.172-2.04-3.744-2.837-3.916-.795-.172-.9.447-.553.756.346.31 1.73 2.68 2.11 3.366.38.687 1.383 1.58 1.418 1.786s.07 3.16-.138 3.023c-.207-.137-1.695-3.675-2.628-4.774-.934-1.1-1.418-1.65-1.695-1.34s-.138.824.138 1.237c.277.412 2.87 4.534 3.078 4.877s.38.653.31.893-.414.55-.414.79-.105.31-.14.07c-.034-.24-3.25-5.085-3.803-5.875s-.622-.996-1.14-.756.034.96.206 1.2c.173.24 4.323 6.184 4.357 6.63.035.447-.52.962-.795.824s-4.22-6.595-4.807-7.454c-.588-.86-.83-.86-1.14-.48-.312.377.414 1.064.933 1.957.52.893 3.217 5.152 3.598 5.564.38.413.45.894.45.894s-1.14.378-1.383.172c-.242-.206-4.738-7.66-5.118-7.66s-.726.515-.622.687 4.807 7.007 4.357 7.04c-.45.035-1.59.24-1.867.035s-3.32-5.874-3.84-5.908-.794.824-.76.962c.035.137 3.424 4.74 3.182 4.912s-.968.412-1.383.103c-.415-.31-3.147-5.736-3.493-5.874s-1.175.412-.967.618c.207.207 3.562 5.462 3.078 5.462-.483 0-1.175.103-1.382-.172s-3.078-4.98-3.39-5.084c-.31-.103-.967.103-.794.515.173.413 3.735 4.74 3.216 4.74-.52 0-1.97.31-2.18-.033s-2.662-4.67-3.11-4.774-.796.447-.727.687 2.697 4.087 2.386 4.122c-.312.034-1.592.103-1.834-.07-.242-.17-2.11-4.086-2.455-4.12-.345-.035-.864.446-.794.652s2.213 3.504 1.798 3.572c-.415.07-1.14.172-1.452-.07-.31-.24-2.317-3.64-2.697-3.71-.38-.068-1.107.24-.968.55.138.31 2.248 3.264 1.902 3.298s-1.626.172-1.8 0c-.172-.172-2.35-2.988-2.558-3.09-.207-.104-1.003.17-.795.377.207.207 2.18 2.543 1.764 2.61-.414.07-9.613.413-15.596.482-5.983.07-9.43998.07-11.72298-.275s-3.215-1.134-3.734-1.58c-.526-.442-.906-5.08-.975-10.026-.068-4.945-.414-16.383-.483-19.27s-.31-6.388.104-7.144c.236-.43 2.664-.515 10.37598-.86 7.712-.345 15.493-.308 25.625-.41 10.134-.104 15.355-.276 18.018-.104s5.36.515 5.844 1.443c.484.927.692 8.347.484 8.175s-1.245-1.408-1.487-1.134c-.243.275-.485.687-.278.927s1.833 1.546 1.867 1.89l.0008.0074c.0342.3444.1015 1.0212-.0008.8156-.105-.206-1.21-1.58-1.523-1.27s-.553.823-.242 1.098c.31.275 1.833 1.958 1.902 2.336.07.378.035 1.237-.104.996-.138-.24-1.764-2.645-2.18-2.3-.414.342-.24 1.167-.172 1.34s2.49 2.266 2.49 2.438.314 2.406.072 2.13zm-37.729-2.267c-4.392-3.297-10.652-8.346-11.447-9.103l.001.001c-.795-.756-2.213-1.752-1.728-2.508.15-.234 1.73-.517 3.977-.55s13.902-.137 23.965-.343 12.899-.206 13.625.102c.725.31 1.383.482.345 1.89-1.038 1.409-9.13 9.309-12.034 10.993-2.906 1.682-4.738 3.022-7.92 3.09s-4.392-.275-8.784-3.572zm26.283-3.401c2.005-2.507 5.186-6.526 6.12-6.354s1.28.962 1.108 4.327c-.174 3.367-.311 11.68-.414 14.05-.104 2.37.069 2.92-.657 3.435-.727.515-1.349.241-2.352-.997-1.003-1.236-3.495-4.808-5.5-6.56s-2.696-1.889-2.49-2.577c.049-.164 2.18-2.817 4.185-5.324zm-7.195 8.175c1.108-.034 2.11 1.718 3.598 3.538l-.001-.001c1.487 1.82 3.006 4.468 3.214 5.12s.173 1.511-.795 1.717c-.969.206-6.224.583-17.154 1.03-10.927.447-13.21.55-14.04.447s-2.143-1.34-1.59-2.026c.554-.688 6.64-8.657 7.816-8.83.574-.083 3.113.722 3.597 1.1s4.08 2.233 5.637 2.233 3.112-.687 4.842-1.855c1.729-1.168 3.769-2.439 4.876-2.473zm-35.48098-13.12c.604-.01 6.15398 4.705 8.40398 6.87l.001-.001c2.248 2.164 3.873 2.711 3.596 4.567s-3.354 6.115-5.464 8.76-2.943 4.054-4.013 4.328c-1.06998.274-2.38498.24-2.79998-1.546-.414-1.785-1.21-8.485-1.384-13.705-.172-5.221-.967-9.24 1.66-9.273zm22.68598 12.742c.441.085 2.247.654 3.943.38l-.002-.002c1.695-.275 3.078-1.271 3.563-1.203.484.07.899.722.622 1.17-.277.447-2.006 1.443-4.564 1.477-2.559.034-3.527-.242-3.977-.652-.45-.413-.311-1.306.415-1.17zm-24.92998 12.469c.206.378-.174 2.68.206 3.023h-.001c.38.343 1.246.137 1.35.377s.138 1.167-.83 1.305-1.693-.447-1.97-1.408-.345-2.747-.105-3.297c.158-.356 1.143-.378 1.35 0zm.693-29.882c-.381.206-1.73.172-1.937.996s.105 3.605-.103 3.846-.761.241-1.245-.033c-.325-.185-.242-2.474-.277-3.54-.035-1.064.658-2.3 2.04-2.54s1.832.24 1.902.687 0 .378-.38.584zm52.77298-1.889c.864 1.27.69 1.512.45 1.82l-.001.001c-.242.31-.864.653-1.21.24s-.83-1.649-1.832-1.683c-1.004-.034-1.592-1.236-.52-1.82.333-.181 2.249.172 3.113 1.442z" fill="url(#a)" fill-rule="evenodd"/></g></svg>