<svg width="64" height="64" fill="none" xmlns="http://www.w3.org/2000/svg"><g clip-path="url(#clip0)"><path d="M60.412 23.942c-3.754-2.327-8.94.248-9.187.248-.247 0-3.655-2.278-6.124-3.515-2.467-1.238-8.542-1.436-8.79-1.535-.246-.1 2.866-8.516 3.063-9.06.198-.546 2.618.84 2.618.84.79 1.882 1.927 3.962 4.644 4.952 2.716.99 7.458-.693 8.693-3.96 1.235-3.27.642-7.873-3.95-9.458-4.592-1.585-9.04 1.485-9.04 1.485s-5.185-1.834-6.37-1.883c-1.185-.05-2.42 2.228-3.902 4.555-1.482 2.327-6.52 14.556-6.52 14.556-3.11.148-9.037 1.83-9.037 1.83-1.63-2.03-5.828-2.277-7.705-1.98C6.928 21.314.603 23.3.06 28.498c-.543 5.198 2.914 7.03 2.914 7.03s-.593 1.783-.642 4.06c-.05 2.28.79 6.735 2.223 9.408 1.432 2.674 7.013 6.882 14.916 10.348 7.903 3.466 14.374 2.872 19.116 1.93 4.74-.94 7.507-1.187 14.224-7.08 6.716-5.89 7.704-14.803 7.704-14.803s3.358-4.653 3.457-6.732c.098-2.08.197-6.388-3.557-8.715l-.003-.002zM45.657 8.372c.482 0 .74-.707 1.815-1.338 1.075-.631 2.482-.297 2.593-.334.11-.037.333-.297.185-1.003-.148-.706-1.52-.89-2.74-.446-1.223.448-2.457 1.26-2.668 1.896-.185.557.334 1.226.815 1.226v-.001z" fill="#FF4304"/><path d="M60.412 23.942c-3.754-2.327-8.94.248-9.187.248-.247 0-3.655-2.278-6.124-3.515-2.467-1.238-8.542-1.436-8.79-1.535-.246-.1 2.866-8.516 3.063-9.06.198-.546 2.618.84 2.618.84.79 1.882 1.927 3.962 4.644 4.952 2.716.99 7.458-.693 8.693-3.96 1.235-3.27.642-7.873-3.95-9.458-4.592-1.585-9.04 1.485-9.04 1.485s-5.185-1.834-6.37-1.883c-1.185-.05-2.42 2.228-3.902 4.555-1.482 2.327-6.52 14.556-6.52 14.556-3.11.148-9.037 1.83-9.037 1.83-1.63-2.03-5.828-2.277-7.705-1.98C6.928 21.314.603 23.3.06 28.498c-.543 5.198 2.914 7.03 2.914 7.03s-.593 1.783-.642 4.06c-.05 2.28.79 6.735 2.223 9.408 1.432 2.674 7.013 6.882 14.916 10.348 7.903 3.466 14.374 2.872 19.116 1.93 4.74-.94 7.507-1.187 14.224-7.08 6.716-5.89 7.704-14.803 7.704-14.803s3.358-4.653 3.457-6.732c.098-2.08.197-6.388-3.557-8.715l-.003-.002zm1.433 6.93c-.296.694-1.482 3.17-2.47 3.764-.987.594-1.382.693-1.382.693s-6.766-7.38-7.705-7.33c-.94.05-.89 1.14-.543 1.288.346.15 7.705 6.486 7.705 6.486s.1 2.525-.148 2.377c-.247-.147-6.57-6.335-7.063-6.286-.496.05-.79.94-.545 1.09.245.15 7.162 6.237 7.162 6.237s-.296 1.288-.593 1.24c-.296-.05-6.174-5.695-6.42-5.645-.248.05-.79 1.04-.594 1.188.196.148 6.718 5.248 6.67 5.595-.05.347-.99 2.08-1.088 1.88-.1-.197-5.73-5.198-6.124-5.05-.395.15-.642 1.09-.395 1.288.247.198 6.075 4.803 6.075 5 0 .2-.938 1.437-1.136 1.338-.198-.1-4.74-4.357-4.89-4.357-.148 0-.938.743-.84.99.1.248 4.79 4.01 4.74 4.208-.048.198-.74 1.584-1.086 1.337-.346-.247-2.124-2.772-2.716-2.574-.593.198-1.037.693-.89.89.15.2 3.014 2.774 2.717 2.972-.296.198-1.432 1.238-1.63.99-.198-.248-2.237-2.7-2.584-2.601-.345.1-1.135.644-.84.94.297.298 2.288 2.553 2.14 2.603-.148.05-1.136 1.336-1.68 1.088s-2.123-2.872-2.617-2.723c-.494.15-.89.545-.79.743.1.198 2.568 2.723 2.173 3.07-.397.347-1.04.99-1.286.644-.247-.347-2.667-3.416-3.013-3.416-.345 0-.74.693-.74.693s2.667 2.97 2.27 3.317c-.393.347-1.38.446-1.58.347-.196-.1-2.47-3.12-2.912-3.12-.446 0-1.088.496-.99.843.1.347 2.816 2.525 2.42 2.723-.394.197-1.48.84-1.826.296-.346-.545-2.568-2.92-2.914-2.872-.346.05-.692.743-.692.743s1.926 2.08 1.68 2.18c-.248.098-1.828.247-1.927.048-.1-.198-1.877-2.228-2.37-2.228-.495 0-1.088.693-.79.89.295.2 1.876 1.387 1.135 1.635-.74.248-10.668-.347-16.2-4.456-5.532-4.11-8.742-8.268-9.73-10.546-.988-2.277-.494-5.248-.395-6.19 0 0-2.715-1.484-2.962-4.356-.247-2.872 2.074-5.892 3.16-6.882 1.088-.99 5.434-2.228 7.656-.94 2.223 1.286 3.655 1.732 3.852 1.682.198-.05 1.383-.495 4.1-1.09 2.715-.593 6.667-.94 6.864-1.484.198-.545 4.297-10.25 5.927-13.615 1.63-3.367 2.865-4.902 3.36-4.753.493.15 4.987 2.08 5.778 1.733.79-.347 3.95-2.278 7.16-1.683 3.21.594 3.952 1.832 4.446 3.02.496 1.188.694 2.426.694 2.426s-1.877-2.624-2.223-2.13c-.345.496-.493.2-.345.496.148.297 2.025 3.17 1.976 3.466-.05.297-.394 1.436-.542 1.238-.148-.198-2.124-3.515-2.667-3.515-.542 0-.937.297-.79.644.15.347 2.816 3.614 2.62 3.763-.196.149-1.186.594-1.335.495-.148-.1-2.37-3.02-2.716-2.872-.347.15-1.236.1-.99.495.248.396 2.717 2.822 2.47 2.97-.247.15-1.087.348-1.235.15-.148-.198-2.074-2.872-2.37-2.872-.297 0-1.088.248-.99.396.1.15 1.335 2.377 1.137 2.377-.197 0-1.333-.398-2.222-1.883-.89-1.485-.84-3.17-1.087-3.515-.246-.347-5.778-2.674-6.47-2.377-.69.297-4.69 13.22-4.296 13.913.395.692 1.53.84 1.73.84.2 0 5.926-.99 9.828.595 3.902 1.584 6.37 4.605 7.31 4.357.938-.248 1.482-1.04 2.667-1.287 1.184-.248 4.296-1.09 6.47.743 2.174 1.83 1.58 4.502 1.285 5.195h-.003zM8.8 24.882c-1.926.25-3.655 1.98-3.754 2.428-.1.445.1.89.494.99.395.098 1.383-.843 2.618-1.387 1.235-.545 2.32 0 3.31.198.99.198 1.43-.196 1.333-.89-.097-.693-2.073-1.584-4-1.336l-.001-.003zm2.52 6.34c-1.68.79-3.063 2.425-3.656 3.86s.247 2.675.84 2.675.445-1.337.79-2.426c.346-1.09 2.272-2.227 2.865-2.92.59-.694-.21-1.487-.84-1.19v.001zm10.907 8.67c1.884-.164 3.154-1.122 4.588-2.459 1.43-1.337.574-5.694-.556-7.04-1.615-1.563-3.9-2.292-6.57-1.387-3.655 1.24-3.771 4.495-3.484 5.928.246.943.737 2.622 1.884 3.442 1.147.82 2.253 1.68 4.138 1.516zm-1.648-7.52c.76-.402 2.813-.643 3.9-.05 1.088.595 1.53 1.98.347 3.269-1.184 1.288-4.297.89-4.79.792-.495-.1-2.176-2.574.541-4.01h.002zm32.523-5.507c-.89-.15-1.137.545-1.137.842 0 .297 5.68 5.1 6.026 5.397.346.297 1.087.644 1.037.1-.05-.546-5.23-6.222-5.928-6.34l.002.001zm3.16-.99c-.74.347-.494 1.09-.395 1.386.098.296.493.445 1.382.593.89.15 1.482 1.782 1.73 2.228.246.448.84.646 1.43.15s-.098-1.732-.937-2.82c-.84-1.088-2.45-1.891-3.21-1.537zM43.166 42.679c-1.23.164-3.897 2.21-6.115 2.873a19.247 19.247 0 01-10.026-.02c-4.552-1.953-5.904-3.633-7.666-3.305-1.393.573-1.856 1.74-.82 3.277.964 1.115 2.582 2.827 7.211 4.588 3.277.779 7.564 1.69 11.865.46 5.038-1.584 6.05-2.978 7.676-4.474.586-.781.783-1.719.456-2.538-.328-.82-1.352-1.024-2.581-.86zm-3.462 5.374c-3.123 1.041-3.926 1.127-8.25 1.338-3.712-.19-5.225-.841-7.112-1.297-1.822-.78-3.49-2.092-3.099-3.003.52-.846 2.198 2.675 10.268 3.495 3.933-.123 4.99-.171 7.333-1.147 2.082-.716 3.673-3.282 4.194-2.632.52.651-1.121 2.4-3.334 3.246zm5.953-39.681c.482 0 .74-.707 1.815-1.338 1.075-.631 2.482-.297 2.593-.334.11-.037.333-.297.185-1.003-.148-.706-1.52-.89-2.74-.446-1.223.448-2.457 1.26-2.668 1.896-.185.557.334 1.226.815 1.226v-.001z" fill="#000"/><path d="M37.75 37.597c1.433 1.337 2.703 2.295 4.588 2.459 1.884.163 2.99-.697 4.137-1.516 1.147-.82 1.639-2.5 1.885-3.441.287-1.434.171-4.69-3.485-5.93-2.67-.904-4.954-.175-6.57 1.388-1.13 1.346-1.986 5.703-.556 7.04zM5.046 27.31c.099-.448 1.828-2.178 3.754-2.428v.003c1.928-.248 3.904.643 4 1.336.098.694-.342 1.088-1.332.89-.99-.198-2.075-.743-3.31-.198-1.235.544-2.223 1.485-2.618 1.387-.394-.1-.594-.545-.494-.99zM7.664 35.082c.593-1.435 1.976-3.07 3.656-3.86l-.001-.001c.63-.297 1.43.496.84 1.19-.593.693-2.52 1.83-2.865 2.92-.345 1.089-.197 2.426-.79 2.426s-1.433-1.24-.84-2.675z" fill="#000"/><circle cx="21.924" cy="34.248" r="4" fill="#fff"/><circle cx="42.595" cy="34.248" r="4" fill="#fff"/><path d="M21.524 45.24c3.307 3.204 14.448 6.326 20.774 0" stroke="#fff" stroke-width="2" stroke-linecap="round"/></g><defs><clipPath id="clip0"><path fill="#fff" d="M0 0h64v64H0z"/></clipPath></defs></svg>